G04 #@! TF.GenerationSoftware,KiCad,Pcbnew,10.0.1*
G04 #@! TF.CreationDate,2026-05-01T15:22:28+02:00*
G04 #@! TF.ProjectId,SolderCrateBox,536f6c64-6572-4437-9261-7465426f782e,rev?*
G04 #@! TF.SameCoordinates,Original*
G04 #@! TF.FileFunction,Soldermask,Bot*
G04 #@! TF.FilePolarity,Negative*
%FSLAX46Y46*%
G04 Gerber Fmt 4.6, Leading zero omitted, Abs format (unit mm)*
G04 Created by KiCad (PCBNEW 10.0.1) date 2026-05-01 15:22:28*
%MOMM*%
%LPD*%
G01*
G04 APERTURE LIST*
G04 Aperture macros list*
%AMRoundRect*
0 Rectangle with rounded corners*
0 $1 Rounding radius*
0 $2 $3 $4 $5 $6 $7 $8 $9 X,Y pos of 4 corners*
0 Add a 4 corners polygon primitive as box body*
4,1,4,$2,$3,$4,$5,$6,$7,$8,$9,$2,$3,0*
0 Add four circle primitives for the rounded corners*
1,1,$1+$1,$2,$3*
1,1,$1+$1,$4,$5*
1,1,$1+$1,$6,$7*
1,1,$1+$1,$8,$9*
0 Add four rect primitives between the rounded corners*
20,1,$1+$1,$2,$3,$4,$5,0*
20,1,$1+$1,$4,$5,$6,$7,0*
20,1,$1+$1,$6,$7,$8,$9,0*
20,1,$1+$1,$8,$9,$2,$3,0*%
G04 Aperture macros list end*
%ADD10R,0.850000X1.600000*%
%ADD11RoundRect,0.155000X-0.155000X0.212500X-0.155000X-0.212500X0.155000X-0.212500X0.155000X0.212500X0*%
%ADD12C,2.200000*%
%ADD13RoundRect,0.250000X1.700000X-0.650000X1.700000X0.650000X-1.700000X0.650000X-1.700000X-0.650000X0*%
%ADD14RoundRect,0.250000X2.000000X-0.400000X2.000000X0.400000X-2.000000X0.400000X-2.000000X-0.400000X0*%
%ADD15RoundRect,0.140000X-0.140000X-0.170000X0.140000X-0.170000X0.140000X0.170000X-0.140000X0.170000X0*%
%ADD16RoundRect,0.250000X-0.925000X-1.500000X0.925000X-1.500000X0.925000X1.500000X-0.925000X1.500000X0*%
%ADD17RoundRect,0.150000X-0.150000X0.512500X-0.150000X-0.512500X0.150000X-0.512500X0.150000X0.512500X0*%
%ADD18RoundRect,0.375000X-0.375000X0.625000X-0.375000X-0.625000X0.375000X-0.625000X0.375000X0.625000X0*%
%ADD19RoundRect,0.500000X-1.400000X0.500000X-1.400000X-0.500000X1.400000X-0.500000X1.400000X0.500000X0*%
%ADD20RoundRect,0.135000X0.135000X0.185000X-0.135000X0.185000X-0.135000X-0.185000X0.135000X-0.185000X0*%
%ADD21RoundRect,0.135000X-0.135000X-0.185000X0.135000X-0.185000X0.135000X0.185000X-0.135000X0.185000X0*%
%ADD22RoundRect,0.160000X-0.197500X-0.160000X0.197500X-0.160000X0.197500X0.160000X-0.197500X0.160000X0*%
%ADD23RoundRect,0.150000X0.150000X-0.587500X0.150000X0.587500X-0.150000X0.587500X-0.150000X-0.587500X0*%
%ADD24RoundRect,0.147500X0.147500X0.172500X-0.147500X0.172500X-0.147500X-0.172500X0.147500X-0.172500X0*%
%ADD25RoundRect,0.250000X-0.325000X-0.650000X0.325000X-0.650000X0.325000X0.650000X-0.325000X0.650000X0*%
%ADD26RoundRect,0.250000X-1.500000X0.925000X-1.500000X-0.925000X1.500000X-0.925000X1.500000X0.925000X0*%
%ADD27RoundRect,0.135000X0.185000X-0.135000X0.185000X0.135000X-0.185000X0.135000X-0.185000X-0.135000X0*%
%ADD28RoundRect,0.250000X0.362500X1.425000X-0.362500X1.425000X-0.362500X-1.425000X0.362500X-1.425000X0*%
%ADD29RoundRect,0.140000X-0.170000X0.140000X-0.170000X-0.140000X0.170000X-0.140000X0.170000X0.140000X0*%
%ADD30R,0.700000X1.525000*%
%ADD31C,0.650000*%
%ADD32RoundRect,0.150000X-0.150000X-0.470000X0.150000X-0.470000X0.150000X0.470000X-0.150000X0.470000X0*%
%ADD33RoundRect,0.075000X-0.075000X-0.545000X0.075000X-0.545000X0.075000X0.545000X-0.075000X0.545000X0*%
%ADD34O,1.000000X1.800000*%
%ADD35O,1.000000X2.100000*%
%ADD36R,0.900000X1.700000*%
%ADD37RoundRect,0.135000X-0.185000X0.135000X-0.185000X-0.135000X0.185000X-0.135000X0.185000X0.135000X0*%
%ADD38RoundRect,0.160000X0.197500X0.160000X-0.197500X0.160000X-0.197500X-0.160000X0.197500X-0.160000X0*%
%ADD39R,0.400000X0.800000*%
%ADD40R,0.800000X0.400000*%
%ADD41R,1.450000X1.450000*%
%ADD42R,0.700000X0.700000*%
%ADD43R,2.300000X1.800000*%
%ADD44RoundRect,0.250000X0.600000X0.750000X-0.600000X0.750000X-0.600000X-0.750000X0.600000X-0.750000X0*%
%ADD45O,1.700000X2.000000*%
%ADD46RoundRect,0.112500X0.112500X-0.187500X0.112500X0.187500X-0.112500X0.187500X-0.112500X-0.187500X0*%
%ADD47RoundRect,0.140000X0.170000X-0.140000X0.170000X0.140000X-0.170000X0.140000X-0.170000X-0.140000X0*%
%ADD48RoundRect,0.250002X1.799998X2.499998X-1.799998X2.499998X-1.799998X-2.499998X1.799998X-2.499998X0*%
%ADD49R,2.300000X2.500000*%
G04 APERTURE END LIST*
D10*
X207125000Y-45750000D03*
X208875000Y-45750000D03*
X208875000Y-42250000D03*
X207125000Y-42250000D03*
D11*
X205000000Y-44567500D03*
X205000000Y-43432500D03*
D12*
X134000000Y-41000000D03*
D13*
X134450000Y-59300000D03*
X134450000Y-70700000D03*
D14*
X141250000Y-62500000D03*
X141250000Y-65000000D03*
X141250000Y-67500000D03*
D15*
X139280000Y-57200000D03*
X138320000Y-57200000D03*
D14*
X141250000Y-53000000D03*
X141250000Y-50500000D03*
X141250000Y-48000000D03*
D13*
X134450000Y-56200000D03*
X134450000Y-44800000D03*
D16*
X162425000Y-57700000D03*
X156375000Y-57700000D03*
D17*
X194650000Y-51137500D03*
X195600000Y-51137500D03*
X196550000Y-51137500D03*
X196550000Y-48862500D03*
X195600000Y-48862500D03*
X194650000Y-48862500D03*
D18*
X178100000Y-44650000D03*
X180400000Y-44650000D03*
D19*
X180400000Y-50950000D03*
D18*
X182700000Y-44650000D03*
D20*
X176610000Y-56600000D03*
X175590000Y-56600000D03*
D21*
X175590000Y-55400000D03*
X176610000Y-55400000D03*
X191690000Y-73400000D03*
X192710000Y-73400000D03*
D20*
X185710000Y-56800000D03*
X184690000Y-56800000D03*
X208010000Y-69400000D03*
X206990000Y-69400000D03*
X208010000Y-67500000D03*
X206990000Y-67500000D03*
D22*
X203302500Y-50300000D03*
X204497500Y-50300000D03*
D21*
X174090000Y-44700000D03*
X175110000Y-44700000D03*
D23*
X205450000Y-54337500D03*
X203550000Y-54337500D03*
X204500000Y-52462500D03*
D24*
X210485000Y-69400000D03*
X209515000Y-69400000D03*
X210485000Y-67500000D03*
X209515000Y-67500000D03*
D15*
X194195000Y-73425000D03*
X195155000Y-73425000D03*
D25*
X193300000Y-75425000D03*
X196250000Y-75425000D03*
D26*
X159200000Y-69025000D03*
X159200000Y-62975000D03*
D10*
X225925000Y-42250000D03*
X227675000Y-42250000D03*
X227675000Y-45750000D03*
X225925000Y-45750000D03*
D27*
X195000000Y-54810000D03*
X195000000Y-53790000D03*
D28*
X175562500Y-68100000D03*
X169637500Y-68100000D03*
D29*
X145700000Y-64820000D03*
X145700000Y-65780000D03*
D30*
X166595000Y-55488000D03*
X167865000Y-55488000D03*
X169135000Y-55488000D03*
X170405000Y-55488000D03*
X170405000Y-60912000D03*
X169135000Y-60912000D03*
X167865000Y-60912000D03*
X166595000Y-60912000D03*
D12*
X228000000Y-51000000D03*
X210000000Y-75000000D03*
D27*
X172140000Y-60970000D03*
X172140000Y-59950000D03*
D10*
X217225000Y-42250000D03*
X218975000Y-42250000D03*
X218975000Y-45750000D03*
X217225000Y-45750000D03*
D15*
X138320000Y-58300000D03*
X139280000Y-58300000D03*
D23*
X172250000Y-45637500D03*
X170350000Y-45637500D03*
X171300000Y-43762500D03*
D25*
X169125000Y-63500000D03*
X172075000Y-63500000D03*
D31*
X192710000Y-44605000D03*
X198490000Y-44605000D03*
D32*
X192400000Y-45725000D03*
X193200000Y-45725000D03*
D33*
X194350000Y-45725000D03*
X195350000Y-45725000D03*
X195850000Y-45725000D03*
X196850000Y-45725000D03*
D32*
X198000000Y-45725000D03*
X198800000Y-45725000D03*
X198800000Y-45725000D03*
X198000000Y-45725000D03*
D33*
X197350000Y-45725000D03*
X196350000Y-45725000D03*
X194850000Y-45725000D03*
X193850000Y-45725000D03*
D32*
X193200000Y-45725000D03*
X192400000Y-45725000D03*
D34*
X191280000Y-40925000D03*
D35*
X191280000Y-45125000D03*
D34*
X199920000Y-40925000D03*
D35*
X199920000Y-45125000D03*
D15*
X169220000Y-53800000D03*
X170180000Y-53800000D03*
D36*
X183175000Y-61125000D03*
X179775000Y-61125000D03*
D11*
X223800000Y-43432500D03*
X223800000Y-44567500D03*
D37*
X166400000Y-63590000D03*
X166400000Y-64610000D03*
D16*
X146675000Y-57700000D03*
X152725000Y-57700000D03*
D27*
X196200000Y-54810000D03*
X196200000Y-53790000D03*
D12*
X134000000Y-75000000D03*
D20*
X193210000Y-48400000D03*
X192190000Y-48400000D03*
D37*
X188775000Y-73515000D03*
X188775000Y-74535000D03*
D38*
X205097500Y-56000000D03*
X203902500Y-56000000D03*
D20*
X198710000Y-48400000D03*
X197690000Y-48400000D03*
D39*
X195875000Y-71025000D03*
X195075000Y-71025000D03*
X194275000Y-71025000D03*
X193475000Y-71025000D03*
X192675000Y-71025000D03*
X191875000Y-71025000D03*
X191075000Y-71025000D03*
X190275000Y-71025000D03*
X189475000Y-71025000D03*
X188675000Y-71025000D03*
X187875000Y-71025000D03*
D40*
X186975000Y-69925000D03*
X186975000Y-69125000D03*
X186975000Y-68325000D03*
X186975000Y-67525000D03*
X186975000Y-66725000D03*
X186975000Y-65925000D03*
X186975000Y-65125000D03*
X186975000Y-64325000D03*
X186975000Y-63525000D03*
X186975000Y-62725000D03*
X186975000Y-61925000D03*
X186975000Y-61125000D03*
X186975000Y-60325000D03*
D39*
X187875000Y-59225000D03*
X188675000Y-59225000D03*
X189475000Y-59225000D03*
X190275000Y-59225000D03*
X191075000Y-59225000D03*
X191875000Y-59225000D03*
X192675000Y-59225000D03*
X193475000Y-59225000D03*
X194275000Y-59225000D03*
X195075000Y-59225000D03*
X195875000Y-59225000D03*
D40*
X196775000Y-60325000D03*
X196775000Y-61125000D03*
X196775000Y-61925000D03*
X196775000Y-62725000D03*
X196775000Y-63525000D03*
X196775000Y-64325000D03*
X196775000Y-65125000D03*
X196775000Y-65925000D03*
X196775000Y-66725000D03*
X196775000Y-67525000D03*
X196775000Y-68325000D03*
X196775000Y-69125000D03*
X196775000Y-69925000D03*
D41*
X191875000Y-65125000D03*
D42*
X196825000Y-59175000D03*
X186925000Y-59175000D03*
X186925000Y-71075000D03*
X196825000Y-71075000D03*
D41*
X193850000Y-67100000D03*
X191875000Y-67100000D03*
X189900000Y-67100000D03*
X189900000Y-65125000D03*
X189900000Y-63150000D03*
X191875000Y-63150000D03*
X193850000Y-63150000D03*
X193850000Y-65125000D03*
D29*
X185375000Y-73545000D03*
X185375000Y-74505000D03*
D43*
X186000000Y-48850000D03*
X186000000Y-45950000D03*
D44*
X155550000Y-73875000D03*
D45*
X153050000Y-73875000D03*
D46*
X168200000Y-46050000D03*
X168200000Y-43950000D03*
D27*
X172130000Y-58810000D03*
X172130000Y-57790000D03*
D47*
X145700000Y-63480000D03*
X145700000Y-62520000D03*
D48*
X163300000Y-46000000D03*
X152700000Y-46000000D03*
D49*
X168900000Y-49700000D03*
X175100000Y-49700000D03*
D12*
X210000000Y-51200000D03*
D36*
X183175000Y-71025000D03*
X179775000Y-71025000D03*
D44*
X146750000Y-73875000D03*
D45*
X144250000Y-73875000D03*
D11*
X215100000Y-43232500D03*
X215100000Y-44367500D03*
M02*
