G04 #@! TF.GenerationSoftware,KiCad,Pcbnew,10.0.1*
G04 #@! TF.CreationDate,2026-06-28T11:47:58+02:00*
G04 #@! TF.ProjectId,SolderCrateBox,536f6c64-6572-4437-9261-7465426f782e,rev?*
G04 #@! TF.SameCoordinates,Original*
G04 #@! TF.FileFunction,Copper,L1,Top*
G04 #@! TF.FilePolarity,Positive*
%FSLAX46Y46*%
G04 Gerber Fmt 4.6, Leading zero omitted, Abs format (unit mm)*
G04 Created by KiCad (PCBNEW 10.0.1) date 2026-06-28 11:47:58*
%MOMM*%
%LPD*%
G01*
G04 APERTURE LIST*
G04 Aperture macros list*
%AMRoundRect*
0 Rectangle with rounded corners*
0 $1 Rounding radius*
0 $2 $3 $4 $5 $6 $7 $8 $9 X,Y pos of 4 corners*
0 Add a 4 corners polygon primitive as box body*
4,1,4,$2,$3,$4,$5,$6,$7,$8,$9,$2,$3,0*
0 Add four circle primitives for the rounded corners*
1,1,$1+$1,$2,$3*
1,1,$1+$1,$4,$5*
1,1,$1+$1,$6,$7*
1,1,$1+$1,$8,$9*
0 Add four rect primitives between the rounded corners*
20,1,$1+$1,$2,$3,$4,$5,0*
20,1,$1+$1,$4,$5,$6,$7,0*
20,1,$1+$1,$6,$7,$8,$9,0*
20,1,$1+$1,$8,$9,$2,$3,0*%
G04 Aperture macros list end*
G04 #@! TA.AperFunction,ComponentPad*
%ADD10O,1.750000X1.200000*%
G04 #@! TD*
G04 #@! TA.AperFunction,ComponentPad*
%ADD11RoundRect,0.250000X0.625000X-0.350000X0.625000X0.350000X-0.625000X0.350000X-0.625000X-0.350000X0*%
G04 #@! TD*
G04 #@! TA.AperFunction,ComponentPad*
%ADD12RoundRect,0.250000X-0.625000X0.350000X-0.625000X-0.350000X0.625000X-0.350000X0.625000X0.350000X0*%
G04 #@! TD*
G04 #@! TA.AperFunction,ComponentPad*
%ADD13O,1.000000X1.800000*%
G04 #@! TD*
G04 #@! TA.AperFunction,ComponentPad*
%ADD14O,1.000000X2.100000*%
G04 #@! TD*
G04 #@! TA.AperFunction,ComponentPad*
%ADD15RoundRect,0.250000X0.350000X0.625000X-0.350000X0.625000X-0.350000X-0.625000X0.350000X-0.625000X0*%
G04 #@! TD*
G04 #@! TA.AperFunction,ComponentPad*
%ADD16O,1.200000X1.750000*%
G04 #@! TD*
G04 #@! TA.AperFunction,ViaPad*
%ADD17C,0.600000*%
G04 #@! TD*
G04 #@! TA.AperFunction,Conductor*
%ADD18C,0.200000*%
G04 #@! TD*
G04 #@! TA.AperFunction,Conductor*
%ADD19C,0.508000*%
G04 #@! TD*
G04 APERTURE END LIST*
D10*
X137950000Y-63000000D03*
X137950000Y-65000000D03*
D11*
X137950000Y-67000000D03*
D12*
X200875000Y-50000000D03*
D10*
X200875000Y-52000000D03*
X200875000Y-54000000D03*
D13*
X187997590Y-43925000D03*
D14*
X187997590Y-48125000D03*
D13*
X196637590Y-43925000D03*
D14*
X196637590Y-48125000D03*
D11*
X137950000Y-54500000D03*
D10*
X137950000Y-52500000D03*
X137950000Y-50500000D03*
D15*
X152000000Y-81050000D03*
D16*
X150000000Y-81050000D03*
D15*
X143000000Y-81000000D03*
D16*
X141000000Y-81000000D03*
D17*
X195000000Y-57000000D03*
X143000000Y-58500000D03*
X175000000Y-55500000D03*
X168500000Y-55500000D03*
X190000000Y-57000000D03*
X161000000Y-61500000D03*
X167705000Y-66000000D03*
X186450000Y-67575000D03*
X187475000Y-71400000D03*
X172900000Y-72600000D03*
X194417590Y-53000000D03*
X171000000Y-84000000D03*
X133500000Y-75500000D03*
X167600000Y-59200000D03*
X185250000Y-68875000D03*
X188917590Y-52400000D03*
X165165000Y-66000000D03*
X189475000Y-71400000D03*
X166212000Y-80500000D03*
X187500000Y-73025000D03*
X193425000Y-78620000D03*
X195417590Y-52500000D03*
X177000000Y-84000000D03*
X187500000Y-78620000D03*
X183725000Y-84200000D03*
X191450000Y-78620000D03*
X195400000Y-75025000D03*
X187500000Y-75000000D03*
X195400000Y-78620000D03*
X195400000Y-77025000D03*
X193425000Y-71400000D03*
X191450000Y-71400000D03*
X189475000Y-78620000D03*
X169500000Y-62600000D03*
X195400000Y-71400000D03*
X195400000Y-73050000D03*
X187500000Y-77000000D03*
X133500000Y-72000000D03*
X181000000Y-65500000D03*
X187500000Y-84200000D03*
X178000000Y-73100000D03*
X175400000Y-73100000D03*
X167700000Y-83000000D03*
X167700000Y-86600000D03*
X196000000Y-65500000D03*
X163000000Y-86000000D03*
X167700000Y-79500000D03*
X162746000Y-79500000D03*
X191500000Y-65500000D03*
X158500000Y-75500000D03*
X151500000Y-73500000D03*
X157500000Y-75500000D03*
X157500000Y-74500000D03*
X157500000Y-71500000D03*
X158500000Y-73500000D03*
X158500000Y-71500000D03*
X150500000Y-71500000D03*
X158500000Y-72500000D03*
X151500000Y-74500000D03*
X151500000Y-72500000D03*
X150500000Y-73500000D03*
X150500000Y-72500000D03*
X150500000Y-75500000D03*
X157500000Y-72500000D03*
X157500000Y-73500000D03*
X151500000Y-75500000D03*
X150500000Y-74500000D03*
X158500000Y-74500000D03*
X151500000Y-71500000D03*
X172800000Y-67300000D03*
X172100000Y-60300000D03*
X165500000Y-61000000D03*
X189917590Y-50200000D03*
X190117590Y-53100000D03*
X176000000Y-51500000D03*
X165500000Y-57000000D03*
X161500000Y-43500000D03*
X152500000Y-44500000D03*
X153500000Y-45500000D03*
X152500000Y-47500000D03*
X163500000Y-45500000D03*
X158500000Y-43500000D03*
X160500000Y-46500000D03*
X158500000Y-46500000D03*
X155500000Y-46500000D03*
X157500000Y-45500000D03*
X157500000Y-44500000D03*
X153500000Y-47500000D03*
X162500000Y-44500000D03*
X160500000Y-44500000D03*
X153500000Y-46500000D03*
X162500000Y-46500000D03*
X161500000Y-44500000D03*
X156500000Y-44500000D03*
X155500000Y-43500000D03*
X156500000Y-47500000D03*
X158500000Y-44500000D03*
X153500000Y-43500000D03*
X162500000Y-43500000D03*
X152500000Y-43500000D03*
X151500000Y-45500000D03*
X157500000Y-46500000D03*
X151500000Y-46500000D03*
X164500000Y-44500000D03*
X160500000Y-45500000D03*
X156500000Y-43500000D03*
X154500000Y-45500000D03*
X154500000Y-47500000D03*
X159500000Y-46500000D03*
X159500000Y-43500000D03*
X151500000Y-43500000D03*
X156500000Y-45500000D03*
X163500000Y-46500000D03*
X158500000Y-47500000D03*
X152500000Y-46500000D03*
X160500000Y-43500000D03*
X161500000Y-45500000D03*
X162500000Y-45500000D03*
X158500000Y-45500000D03*
X164500000Y-46500000D03*
X151500000Y-47500000D03*
X154500000Y-44500000D03*
X155500000Y-45500000D03*
X163500000Y-44500000D03*
X164500000Y-43500000D03*
X156500000Y-46500000D03*
X157500000Y-43500000D03*
X152500000Y-45500000D03*
X159500000Y-44500000D03*
X154500000Y-43500000D03*
X154500000Y-46500000D03*
X155500000Y-47500000D03*
X159500000Y-45500000D03*
X164500000Y-45500000D03*
X163500000Y-43500000D03*
X151500000Y-44500000D03*
X155500000Y-44500000D03*
X157500000Y-47500000D03*
X153500000Y-44500000D03*
X161500000Y-46500000D03*
X159000000Y-55500000D03*
X160000000Y-59500000D03*
X158975000Y-57500000D03*
X160025000Y-55500000D03*
X160000000Y-57500000D03*
X159025000Y-54500000D03*
X160000000Y-58500000D03*
X158975000Y-58500000D03*
X158975000Y-59500000D03*
X160025000Y-54500000D03*
X158025000Y-57500000D03*
X159000000Y-56500000D03*
X160000000Y-56500000D03*
X150000000Y-65500000D03*
X151000000Y-66500000D03*
X150000000Y-67500000D03*
X151000000Y-69500000D03*
X152000000Y-66500000D03*
X149000000Y-65500000D03*
X149000000Y-66500000D03*
X149000000Y-61500000D03*
X149000000Y-64500000D03*
X149000000Y-68500000D03*
X149000000Y-69500000D03*
X149000000Y-67500000D03*
X151000000Y-67500000D03*
X150000000Y-69500000D03*
X152000000Y-67500000D03*
X149000000Y-63500000D03*
X151000000Y-68500000D03*
X149000000Y-60500000D03*
X150000000Y-66500000D03*
X152000000Y-68500000D03*
X151000000Y-65500000D03*
X152000000Y-69500000D03*
X152000000Y-65500000D03*
X150000000Y-68500000D03*
X149000000Y-62500000D03*
X179000000Y-74000000D03*
X183000000Y-76500000D03*
X171000000Y-83000000D03*
X184000000Y-79500000D03*
X170400000Y-86000000D03*
X184000000Y-78699997D03*
D18*
X172100000Y-60300000D02*
X171400000Y-61000000D01*
X170500000Y-61000000D02*
X170500000Y-65000000D01*
X170500000Y-61000000D02*
X171400000Y-61000000D01*
X170500000Y-65000000D02*
X172100000Y-66600000D01*
X195000000Y-55875000D02*
X195000000Y-57000000D01*
X200875000Y-50000000D02*
X195000000Y-55875000D01*
D19*
X168500000Y-55500000D02*
X175000000Y-55500000D01*
D18*
X195000000Y-57000000D02*
X190000000Y-57000000D01*
D19*
X149500000Y-58500000D02*
X143000000Y-58500000D01*
X161000000Y-61500000D02*
X152500000Y-61500000D01*
X152500000Y-61500000D02*
X149500000Y-58500000D01*
D18*
X187500000Y-84200000D02*
X184400000Y-87300000D01*
X162746000Y-79500000D02*
X167700000Y-79500000D01*
X178000000Y-73100000D02*
X175400000Y-73100000D01*
X167700000Y-86600000D02*
X167700000Y-83000000D01*
X167700000Y-79500000D02*
X167700000Y-83000000D01*
X191500000Y-65500000D02*
X196000000Y-65500000D01*
X163000000Y-86000000D02*
X164600000Y-86000000D01*
X164600000Y-86000000D02*
X165300000Y-86700000D01*
X168400000Y-87300000D02*
X167700000Y-86600000D01*
X191500000Y-65500000D02*
X181000000Y-65500000D01*
X165300000Y-86700000D02*
X167600000Y-86700000D01*
X167600000Y-86700000D02*
X167700000Y-86600000D01*
X184400000Y-87300000D02*
X168400000Y-87300000D01*
X172100000Y-66600000D02*
X172800000Y-67300000D01*
X165500000Y-61000000D02*
X170500000Y-61000000D01*
X190117590Y-53100000D02*
X189917590Y-52900000D01*
D19*
X165500000Y-56500000D02*
X165500000Y-57000000D01*
D18*
X189917590Y-52900000D02*
X189917590Y-50200000D01*
D19*
X167500000Y-54500000D02*
X165500000Y-56500000D01*
X176000000Y-51500000D02*
X173000000Y-54500000D01*
X173000000Y-54500000D02*
X167500000Y-54500000D01*
D18*
X175500000Y-77500000D02*
X146500000Y-77500000D01*
X140000000Y-54550000D02*
X137950000Y-52500000D01*
X146500000Y-77500000D02*
X140000000Y-71000000D01*
X140000000Y-71000000D02*
X140000000Y-54550000D01*
X179000000Y-74000000D02*
X175500000Y-77500000D01*
X136000000Y-66000000D02*
X137000000Y-65000000D01*
X137000000Y-65000000D02*
X137950000Y-65000000D01*
X144000000Y-78000000D02*
X136000000Y-70000000D01*
X136000000Y-70000000D02*
X136000000Y-66000000D01*
X181500000Y-78000000D02*
X144000000Y-78000000D01*
X183000000Y-76500000D02*
X181500000Y-78000000D01*
X183500000Y-80000000D02*
X184000000Y-79500000D01*
X171000000Y-80500000D02*
X171500000Y-80000000D01*
X171000000Y-83000000D02*
X171000000Y-80500000D01*
X171500000Y-80000000D02*
X183500000Y-80000000D01*
X170400000Y-78900000D02*
X170600003Y-78699997D01*
X170400000Y-86000000D02*
X170400000Y-78900000D01*
X170600003Y-78699997D02*
X184000000Y-78699997D01*
M02*
