M48
; DRILL file KiCad 10.0.1 date 2026-05-01T15:22:26
; FORMAT={-:-/ absolute / metric / decimal}
; #@! TF.CreationDate,2026-05-01T15:22:26+02:00
; #@! TF.GenerationSoftware,Kicad,Pcbnew,10.0.1
; #@! TF.FileFunction,Plated,1,4,PTH
FMAT,2
METRIC
; #@! TA.AperFunction,Plated,PTH,ViaDrill
T1C0.300
; #@! TA.AperFunction,Plated,PTH,ComponentDrill
T2C0.600
; #@! TA.AperFunction,Plated,PTH,ComponentDrill
T3C1.000
%
G90
G05
T1
X137.954Y-50.5
X141.2Y-46.0
X144.3Y-65.0
X144.6Y-43.0
X144.6Y-44.0
X144.6Y-45.0
X144.6Y-46.0
X144.6Y-47.0
X144.6Y-48.0
X144.6Y-49.0
X144.6Y-50.0
X144.6Y-51.0
X144.6Y-52.0
X144.6Y-53.0
X144.6Y-54.0
X144.6Y-55.0
X144.6Y-56.0
X144.6Y-57.0
X144.6Y-58.0
X144.6Y-59.0
X144.6Y-60.0
X145.6Y-43.0
X145.6Y-44.0
X145.6Y-45.0
X145.6Y-46.0
X145.6Y-47.0
X145.6Y-48.0
X145.6Y-49.0
X145.6Y-50.0
X145.6Y-51.0
X145.6Y-52.0
X145.6Y-53.0
X145.6Y-54.0
X145.6Y-55.0
X146.6Y-43.0
X146.6Y-44.0
X146.6Y-45.0
X146.6Y-46.0
X146.6Y-47.0
X146.6Y-48.0
X146.6Y-49.0
X146.6Y-50.0
X146.6Y-51.0
X146.6Y-52.0
X146.6Y-53.0
X146.6Y-54.0
X146.6Y-55.0
X147.2Y-62.5
X147.6Y-43.0
X147.6Y-44.0
X147.6Y-45.0
X147.6Y-46.0
X147.6Y-47.0
X147.6Y-48.0
X147.6Y-49.0
X147.6Y-50.0
X147.6Y-51.0
X147.6Y-52.0
X147.6Y-53.0
X147.6Y-54.0
X147.6Y-55.0
X148.6Y-43.0
X148.6Y-44.0
X148.6Y-45.0
X148.6Y-46.0
X148.6Y-47.0
X148.6Y-48.0
X148.6Y-49.0
X148.6Y-50.0
X148.6Y-51.0
X148.6Y-52.0
X148.6Y-53.0
X148.6Y-54.0
X148.6Y-55.0
X149.6Y-43.0
X149.6Y-44.0
X149.6Y-45.0
X149.6Y-46.0
X149.6Y-47.0
X149.6Y-48.0
X149.6Y-49.0
X149.6Y-50.0
X149.6Y-51.0
X149.6Y-52.0
X149.6Y-53.0
X150.2Y-55.0
X150.2Y-60.6
X150.6Y-50.0
X150.6Y-51.0
X150.6Y-52.0
X150.6Y-53.0
X151.2Y-55.0
X151.2Y-60.6
X151.6Y-50.0
X151.6Y-51.0
X151.6Y-52.0
X151.6Y-53.0
X152.2Y-55.0
X152.2Y-60.6
X152.6Y-50.0
X152.6Y-51.0
X152.6Y-52.0
X152.6Y-53.0
X153.2Y-55.0
X153.2Y-60.6
X153.6Y-50.0
X153.6Y-51.0
X153.6Y-52.0
X153.6Y-53.0
X154.2Y-55.0
X154.2Y-60.6
X154.6Y-50.0
X154.6Y-51.0
X154.6Y-52.0
X154.6Y-53.0
X155.2Y-55.0
X155.2Y-60.6
X155.2Y-62.0
X155.2Y-63.0
X155.2Y-64.0
X155.2Y-65.0
X155.2Y-67.2
X155.2Y-68.2
X155.2Y-69.2
X155.2Y-70.2
X155.2Y-71.2
X155.2Y-72.2
X155.6Y-50.0
X155.6Y-51.0
X155.6Y-52.0
X155.6Y-53.0
X156.2Y-55.0
X156.2Y-60.6
X156.2Y-62.0
X156.2Y-63.0
X156.2Y-64.0
X156.2Y-65.0
X156.2Y-71.2
X156.2Y-72.2
X157.2Y-55.0
X157.2Y-60.6
X157.2Y-71.2
X157.2Y-72.2
X157.4Y-42.0
X157.4Y-43.0
X157.4Y-44.0
X157.4Y-45.0
X157.4Y-46.0
X157.4Y-47.0
X157.4Y-48.0
X157.4Y-49.0
X157.4Y-50.0
X157.4Y-51.0
X157.4Y-52.0
X157.4Y-53.0
X158.2Y-71.2
X158.2Y-72.2
X158.4Y-42.0
X158.4Y-43.0
X158.4Y-44.0
X158.4Y-45.0
X158.4Y-46.0
X158.4Y-47.0
X158.4Y-48.0
X158.4Y-49.0
X158.4Y-50.0
X158.4Y-51.0
X158.4Y-52.0
X158.4Y-53.0
X159.2Y-55.0
X159.2Y-56.0
X159.2Y-57.0
X159.2Y-58.0
X159.2Y-59.0
X159.2Y-60.0
X159.2Y-71.2
X159.2Y-72.2
X159.4Y-42.0
X159.4Y-43.0
X159.4Y-44.0
X159.4Y-45.0
X159.4Y-46.0
X159.4Y-47.0
X159.4Y-48.0
X159.4Y-49.0
X159.4Y-50.0
X159.4Y-51.0
X159.4Y-52.0
X159.4Y-53.0
X160.2Y-55.0
X160.2Y-56.0
X160.2Y-57.0
X160.2Y-58.0
X160.2Y-59.0
X160.2Y-60.0
X160.2Y-71.2
X160.2Y-72.2
X160.4Y-42.0
X160.4Y-43.0
X160.4Y-44.0
X160.4Y-45.0
X160.4Y-46.0
X160.4Y-47.0
X160.4Y-48.0
X160.4Y-49.0
X160.4Y-50.0
X160.4Y-51.0
X160.4Y-52.0
X160.4Y-53.0
X161.2Y-71.2
X161.2Y-72.2
X161.4Y-42.0
X161.4Y-50.0
X161.4Y-51.0
X161.4Y-52.0
X161.4Y-53.0
X162.2Y-61.0
X162.2Y-62.0
X162.2Y-63.0
X162.2Y-64.0
X162.2Y-65.0
X162.2Y-71.2
X162.2Y-72.2
X162.4Y-42.0
X162.4Y-50.0
X162.4Y-51.0
X162.4Y-52.0
X162.4Y-53.0
X163.2Y-61.0
X163.2Y-62.0
X163.2Y-63.0
X163.2Y-64.0
X163.2Y-65.0
X163.2Y-67.0
X163.2Y-68.0
X163.2Y-69.0
X163.2Y-70.0
X163.2Y-71.2
X163.2Y-72.2
X163.4Y-42.0
X163.4Y-50.0
X163.4Y-51.0
X163.4Y-52.0
X163.4Y-53.0
X164.2Y-67.0
X164.2Y-68.0
X164.2Y-69.0
X164.2Y-70.0
X164.2Y-71.2
X164.2Y-72.2
X164.4Y-42.0
X164.4Y-50.0
X164.4Y-51.0
X164.4Y-52.0
X164.4Y-53.0
X165.2Y-67.0
X165.2Y-68.0
X165.2Y-69.0
X165.2Y-70.0
X165.2Y-71.2
X165.2Y-72.2
X165.4Y-42.0
X165.4Y-50.0
X165.4Y-51.0
X165.4Y-52.0
X165.4Y-53.0
X166.2Y-67.0
X166.2Y-68.0
X166.2Y-69.0
X166.2Y-70.0
X166.2Y-71.2
X166.2Y-72.2
X166.4Y-42.0
X166.4Y-50.0
X166.4Y-51.0
X166.4Y-52.0
X166.4Y-53.0
X167.2Y-71.2
X167.2Y-72.2
X167.4Y-42.0
X168.2Y-71.2
X168.2Y-72.2
X168.4Y-42.0
X169.0Y-57.4
X169.2Y-71.2
X169.2Y-72.2
X170.2Y-71.2
X170.2Y-72.2
X170.807Y-57.79
X171.0Y-41.7
X171.2Y-71.2
X171.2Y-72.2
X172.1Y-61.9
X174.5Y-56.6
X178.08Y-42.91
X178.475Y-61.125
X178.475Y-71.025
X181.885Y-41.715
X184.175Y-74.525
X184.5Y-63.5
X184.5Y-64.3
X184.7Y-57.9
X184.7Y-62.0
X185.7Y-59.2
X186.0Y-44.0
X186.9Y-57.9
X187.925Y-61.725
X187.95Y-63.35
X187.95Y-65.325
X187.95Y-67.325
X187.95Y-68.945
X189.925Y-61.725
X189.925Y-68.945
X191.9Y-61.725
X191.9Y-68.945
X192.2Y-49.4
X193.2Y-47.2
X193.4Y-50.1
X193.875Y-61.725
X193.875Y-68.945
X193.9Y-56.375
X195.85Y-61.725
X195.85Y-63.375
X195.85Y-65.35
X195.85Y-67.35
X195.85Y-68.945
X197.7Y-50.0
X198.7Y-49.5
X200.1Y-56.7
X202.2Y-51.8
X202.4Y-39.0
X205.0Y-45.6
X205.9Y-67.5
X211.5Y-69.4
X215.1Y-45.5
X223.8Y-45.7
T3
X144.25Y-73.875
X146.75Y-73.875
X153.05Y-73.875
X155.55Y-73.875
T2
X191.28Y-40.525G85X191.28Y-41.325
G05
X191.28Y-44.575G85X191.28Y-45.675
G05
X199.92Y-40.525G85X199.92Y-41.325
G05
X199.92Y-44.575G85X199.92Y-45.675
G05
M30
