G04 #@! TF.GenerationSoftware,KiCad,Pcbnew,10.0.1*
G04 #@! TF.CreationDate,2026-05-01T15:22:28+02:00*
G04 #@! TF.ProjectId,SolderCrateBox,536f6c64-6572-4437-9261-7465426f782e,rev?*
G04 #@! TF.SameCoordinates,Original*
G04 #@! TF.FileFunction,Copper,L1,Top*
G04 #@! TF.FilePolarity,Positive*
%FSLAX46Y46*%
G04 Gerber Fmt 4.6, Leading zero omitted, Abs format (unit mm)*
G04 Created by KiCad (PCBNEW 10.0.1) date 2026-05-01 15:22:28*
%MOMM*%
%LPD*%
G01*
G04 APERTURE LIST*
G04 Aperture macros list*
%AMRoundRect*
0 Rectangle with rounded corners*
0 $1 Rounding radius*
0 $2 $3 $4 $5 $6 $7 $8 $9 X,Y pos of 4 corners*
0 Add a 4 corners polygon primitive as box body*
4,1,4,$2,$3,$4,$5,$6,$7,$8,$9,$2,$3,0*
0 Add four circle primitives for the rounded corners*
1,1,$1+$1,$2,$3*
1,1,$1+$1,$4,$5*
1,1,$1+$1,$6,$7*
1,1,$1+$1,$8,$9*
0 Add four rect primitives between the rounded corners*
20,1,$1+$1,$2,$3,$4,$5,0*
20,1,$1+$1,$4,$5,$6,$7,0*
20,1,$1+$1,$6,$7,$8,$9,0*
20,1,$1+$1,$8,$9,$2,$3,0*%
G04 Aperture macros list end*
G04 #@! TA.AperFunction,ComponentPad*
%ADD10O,1.000000X1.800000*%
G04 #@! TD*
G04 #@! TA.AperFunction,ComponentPad*
%ADD11O,1.000000X2.100000*%
G04 #@! TD*
G04 #@! TA.AperFunction,ComponentPad*
%ADD12RoundRect,0.250000X0.600000X0.750000X-0.600000X0.750000X-0.600000X-0.750000X0.600000X-0.750000X0*%
G04 #@! TD*
G04 #@! TA.AperFunction,ComponentPad*
%ADD13O,1.700000X2.000000*%
G04 #@! TD*
G04 #@! TA.AperFunction,ViaPad*
%ADD14C,0.600000*%
G04 #@! TD*
G04 #@! TA.AperFunction,Conductor*
%ADD15C,0.200000*%
G04 #@! TD*
G04 #@! TA.AperFunction,Conductor*
%ADD16C,0.508000*%
G04 #@! TD*
G04 APERTURE END LIST*
D10*
X191280000Y-40925000D03*
D11*
X191280000Y-45125000D03*
D10*
X199920000Y-40925000D03*
D11*
X199920000Y-45125000D03*
D12*
X155550000Y-73875000D03*
D13*
X153050000Y-73875000D03*
D12*
X146750000Y-73875000D03*
D13*
X144250000Y-73875000D03*
D14*
X205000000Y-45600000D03*
X137954000Y-50500000D03*
X147200000Y-62500000D03*
X141200000Y-46000000D03*
X144300000Y-65000000D03*
X186900000Y-57900000D03*
X185700000Y-59200000D03*
X193200000Y-47200000D03*
X184700000Y-57900000D03*
X184700000Y-62000000D03*
X202200000Y-51800000D03*
X205900000Y-67500000D03*
X184500000Y-63499997D03*
X184500000Y-64300000D03*
X174500000Y-56600000D03*
X202400000Y-39000000D03*
X193900000Y-56375000D03*
X200100000Y-56700000D03*
X193400000Y-50100000D03*
X197700000Y-50000000D03*
X192200000Y-49400000D03*
X178475000Y-71025000D03*
X184175000Y-74525000D03*
X178475000Y-61125000D03*
X223800000Y-45700000D03*
X215100000Y-45500000D03*
X181885000Y-41715000D03*
X171000000Y-41700000D03*
X172100000Y-61900000D03*
X170807244Y-57790000D03*
X187925000Y-61725000D03*
X178080000Y-42910000D03*
X169000000Y-57400000D03*
X189925000Y-61725000D03*
X187950000Y-63350000D03*
X186000000Y-44000000D03*
X193875000Y-68945000D03*
X198700000Y-49500000D03*
X187950000Y-68945000D03*
X191900000Y-68945000D03*
X195850000Y-65350000D03*
X187950000Y-65325000D03*
X195850000Y-68945000D03*
X195850000Y-67350000D03*
X193875000Y-61725000D03*
X191900000Y-61725000D03*
X189925000Y-68945000D03*
X195850000Y-61725000D03*
X195850000Y-63375000D03*
X187950000Y-67325000D03*
X160200000Y-71200000D03*
X168200000Y-71200000D03*
X164200000Y-67000000D03*
X163200000Y-71200000D03*
X161200000Y-71200000D03*
X158200000Y-71200000D03*
X170200000Y-71200000D03*
X165200000Y-72200000D03*
X166200000Y-71200000D03*
X158200000Y-72200000D03*
X164200000Y-69000000D03*
X171200000Y-71200000D03*
X157200000Y-72200000D03*
X155200000Y-67200000D03*
X166200000Y-72200000D03*
X171200000Y-72200000D03*
X156200000Y-71200000D03*
X165200000Y-70000000D03*
X166200000Y-70000000D03*
X162200000Y-72200000D03*
X155200000Y-68200000D03*
X160200000Y-72200000D03*
X155200000Y-71200000D03*
X159200000Y-72200000D03*
X166200000Y-67000000D03*
X166200000Y-68000000D03*
X163200000Y-68000000D03*
X169200000Y-71200000D03*
X163200000Y-70000000D03*
X159200000Y-71200000D03*
X161200000Y-72200000D03*
X165200000Y-68000000D03*
X165200000Y-69000000D03*
X167200000Y-71200000D03*
X163200000Y-72200000D03*
X164200000Y-70000000D03*
X155200000Y-70200000D03*
X163200000Y-67000000D03*
X166200000Y-69000000D03*
X162200000Y-71200000D03*
X169200000Y-72200000D03*
X164200000Y-68000000D03*
X170200000Y-72200000D03*
X163200000Y-69000000D03*
X164200000Y-72200000D03*
X155200000Y-72200000D03*
X155200000Y-69200000D03*
X156200000Y-72200000D03*
X167200000Y-72200000D03*
X168200000Y-72200000D03*
X165200000Y-67000000D03*
X165200000Y-71200000D03*
X157200000Y-71200000D03*
X164200000Y-71200000D03*
X157400000Y-42000000D03*
X163400000Y-52000000D03*
X158400000Y-48000000D03*
X156200000Y-64000000D03*
X162400000Y-50000000D03*
X164400000Y-53000000D03*
X160200000Y-55000000D03*
X160400000Y-42000000D03*
X164400000Y-50000000D03*
X159200000Y-55000000D03*
X163400000Y-53000000D03*
X162200000Y-62000000D03*
X158400000Y-50000000D03*
X160400000Y-52000000D03*
X166400000Y-53000000D03*
X166400000Y-50000000D03*
X162400000Y-53000000D03*
X159400000Y-47000000D03*
X156200000Y-65000000D03*
X157400000Y-44000000D03*
X161400000Y-42000000D03*
X160200000Y-60000000D03*
X167400000Y-42000000D03*
X158400000Y-43000000D03*
X158400000Y-45000000D03*
X160400000Y-47000000D03*
X162200000Y-65000000D03*
X166400000Y-51000000D03*
X159400000Y-52000000D03*
X163200000Y-62000000D03*
X160400000Y-53000000D03*
X166400000Y-42000000D03*
X157400000Y-48000000D03*
X158400000Y-47000000D03*
X159400000Y-45000000D03*
X160400000Y-51000000D03*
X166400000Y-52000000D03*
X165400000Y-50000000D03*
X159200000Y-56000000D03*
X159400000Y-46000000D03*
X158400000Y-53000000D03*
X159200000Y-57000000D03*
X157400000Y-51000000D03*
X159400000Y-49000000D03*
X165400000Y-51000000D03*
X160400000Y-48000000D03*
X155200000Y-62000000D03*
X159400000Y-44000000D03*
X158400000Y-46000000D03*
X157400000Y-46000000D03*
X162200000Y-63000000D03*
X158400000Y-42000000D03*
X161400000Y-53000000D03*
X160200000Y-59000000D03*
X157400000Y-49000000D03*
X159400000Y-43000000D03*
X161400000Y-50000000D03*
X157400000Y-45000000D03*
X162400000Y-52000000D03*
X162400000Y-51000000D03*
X165400000Y-42000000D03*
X163200000Y-63000000D03*
X160200000Y-58000000D03*
X160400000Y-44000000D03*
X164400000Y-52000000D03*
X158400000Y-49000000D03*
X165400000Y-52000000D03*
X161400000Y-52000000D03*
X159400000Y-51000000D03*
X157400000Y-43000000D03*
X162200000Y-64000000D03*
X160400000Y-45000000D03*
X159400000Y-50000000D03*
X160400000Y-50000000D03*
X161400000Y-51000000D03*
X159400000Y-42000000D03*
X159200000Y-58000000D03*
X159400000Y-48000000D03*
X164400000Y-51000000D03*
X159400000Y-53000000D03*
X155200000Y-63000000D03*
X163200000Y-64000000D03*
X157400000Y-50000000D03*
X162200000Y-61000000D03*
X162400000Y-42000000D03*
X163200000Y-65000000D03*
X156200000Y-62000000D03*
X163400000Y-51000000D03*
X158400000Y-44000000D03*
X160400000Y-46000000D03*
X163200000Y-61000000D03*
X155200000Y-65000000D03*
X160400000Y-43000000D03*
X165400000Y-53000000D03*
X159200000Y-60000000D03*
X168400000Y-42000000D03*
X156200000Y-63000000D03*
X157400000Y-52000000D03*
X164400000Y-42000000D03*
X157400000Y-53000000D03*
X160200000Y-57000000D03*
X155200000Y-64000000D03*
X158400000Y-52000000D03*
X163400000Y-42000000D03*
X160400000Y-49000000D03*
X160200000Y-56000000D03*
X158400000Y-51000000D03*
X159200000Y-59000000D03*
X157400000Y-47000000D03*
X163400000Y-50000000D03*
X150600000Y-50000000D03*
X144600000Y-49000000D03*
X150600000Y-52000000D03*
X145600000Y-51000000D03*
X147600000Y-52000000D03*
X149600000Y-51000000D03*
X144600000Y-46000000D03*
X144600000Y-58000000D03*
X149600000Y-44000000D03*
X149600000Y-47000000D03*
X153600000Y-53000000D03*
X146600000Y-47000000D03*
X148600000Y-52000000D03*
X148600000Y-46000000D03*
X148600000Y-45000000D03*
X144600000Y-43000000D03*
X153600000Y-50000000D03*
X144600000Y-48000000D03*
X144600000Y-47000000D03*
X154600000Y-52000000D03*
X146600000Y-43000000D03*
X147600000Y-45000000D03*
X144600000Y-52000000D03*
X146600000Y-44000000D03*
X147600000Y-54000000D03*
X147600000Y-48000000D03*
X149600000Y-45000000D03*
X145600000Y-52000000D03*
X144600000Y-44000000D03*
X149600000Y-50000000D03*
X154600000Y-50000000D03*
X145600000Y-49000000D03*
X144600000Y-60000000D03*
X146600000Y-55000000D03*
X148600000Y-43000000D03*
X144600000Y-54000000D03*
X144600000Y-55000000D03*
X144600000Y-50000000D03*
X154600000Y-51000000D03*
X148600000Y-47000000D03*
X145600000Y-53000000D03*
X152600000Y-53000000D03*
X146600000Y-49000000D03*
X144600000Y-53000000D03*
X146600000Y-52000000D03*
X146600000Y-53000000D03*
X147600000Y-44000000D03*
X144600000Y-59000000D03*
X155600000Y-50000000D03*
X152600000Y-52000000D03*
X145600000Y-46000000D03*
X145600000Y-48000000D03*
X148600000Y-49000000D03*
X147600000Y-50000000D03*
X150600000Y-53000000D03*
X149600000Y-53000000D03*
X145600000Y-54000000D03*
X147600000Y-55000000D03*
X151600000Y-53000000D03*
X145600000Y-50000000D03*
X147600000Y-46000000D03*
X155600000Y-53000000D03*
X148600000Y-51000000D03*
X149600000Y-48000000D03*
X151600000Y-51000000D03*
X152600000Y-51000000D03*
X144600000Y-57000000D03*
X153600000Y-52000000D03*
X148600000Y-50000000D03*
X144600000Y-56000000D03*
X146600000Y-50000000D03*
X149600000Y-52000000D03*
X149600000Y-46000000D03*
X145600000Y-45000000D03*
X148600000Y-55000000D03*
X146600000Y-46000000D03*
X151600000Y-52000000D03*
X150600000Y-51000000D03*
X145600000Y-43000000D03*
X155600000Y-51000000D03*
X148600000Y-53000000D03*
X144600000Y-51000000D03*
X147600000Y-43000000D03*
X147600000Y-47000000D03*
X154600000Y-53000000D03*
X148600000Y-44000000D03*
X155600000Y-52000000D03*
X149600000Y-49000000D03*
X147600000Y-53000000D03*
X146600000Y-54000000D03*
X145600000Y-44000000D03*
X145600000Y-47000000D03*
X146600000Y-51000000D03*
X153600000Y-51000000D03*
X148600000Y-54000000D03*
X146600000Y-48000000D03*
X151600000Y-50000000D03*
X149600000Y-43000000D03*
X147600000Y-49000000D03*
X147600000Y-51000000D03*
X146600000Y-45000000D03*
X152600000Y-50000000D03*
X148600000Y-48000000D03*
X144600000Y-45000000D03*
X145600000Y-55000000D03*
X150200000Y-55000000D03*
X154200000Y-55000000D03*
X153200000Y-60600000D03*
X155200000Y-60600000D03*
X151200000Y-60600000D03*
X155200000Y-55000000D03*
X156200000Y-55000000D03*
X151200000Y-55000000D03*
X152200000Y-60600000D03*
X156200000Y-60600000D03*
X157200000Y-60600000D03*
X153200000Y-55000000D03*
X152200000Y-55000000D03*
X157200000Y-55000000D03*
X154200000Y-60600000D03*
X150200000Y-60600000D03*
X211500000Y-69400000D03*
D15*
X137954000Y-57054000D02*
X137954000Y-50500000D01*
X150365686Y-76800000D02*
X149600000Y-76034314D01*
X149600000Y-76034314D02*
X149600000Y-68700000D01*
X170400000Y-76800000D02*
X150365686Y-76800000D01*
X149600000Y-68700000D02*
X137954000Y-57054000D01*
X183700003Y-63499997D02*
X170400000Y-76800000D01*
X184500000Y-63499997D02*
X183700003Y-63499997D01*
X149200000Y-69300000D02*
X149200000Y-76200000D01*
X144300000Y-65000000D02*
X144900000Y-65000000D01*
X144900000Y-65000000D02*
X149200000Y-69300000D01*
X149200000Y-76200000D02*
X150200000Y-77200000D01*
X170600000Y-77200000D02*
X150200000Y-77200000D01*
X184500000Y-64300000D02*
X183500000Y-64300000D01*
X183500000Y-64300000D02*
X170600000Y-77200000D01*
X205300000Y-67500000D02*
X202200000Y-64400000D01*
X205900000Y-67500000D02*
X205300000Y-67500000D01*
X202200000Y-64400000D02*
X202200000Y-51800000D01*
D16*
X184800000Y-39000000D02*
X202400000Y-39000000D01*
X182085000Y-41715000D02*
X184800000Y-39000000D01*
X181885000Y-41715000D02*
X182085000Y-41715000D01*
D15*
X193200000Y-49900000D02*
X193200000Y-47200000D01*
X193400000Y-50100000D02*
X193200000Y-49900000D01*
X185000000Y-58200000D02*
X184700000Y-57900000D01*
X185000000Y-60700000D02*
X185000000Y-58200000D01*
X184700000Y-61000000D02*
X184700000Y-62000000D01*
X185000000Y-60700000D02*
X184700000Y-61000000D01*
X200100000Y-56700000D02*
X194225000Y-56700000D01*
X194225000Y-56700000D02*
X193900000Y-56375000D01*
D16*
X171000000Y-41700000D02*
X181870000Y-41700000D01*
M02*
