G04 #@! TF.GenerationSoftware,KiCad,Pcbnew,10.0.1*
G04 #@! TF.CreationDate,2026-06-28T11:47:58+02:00*
G04 #@! TF.ProjectId,SolderCrateBox,536f6c64-6572-4437-9261-7465426f782e,rev?*
G04 #@! TF.SameCoordinates,Original*
G04 #@! TF.FileFunction,Paste,Bot*
G04 #@! TF.FilePolarity,Positive*
%FSLAX46Y46*%
G04 Gerber Fmt 4.6, Leading zero omitted, Abs format (unit mm)*
G04 Created by KiCad (PCBNEW 10.0.1) date 2026-06-28 11:47:58*
%MOMM*%
%LPD*%
G01*
G04 APERTURE LIST*
G04 Aperture macros list*
%AMRoundRect*
0 Rectangle with rounded corners*
0 $1 Rounding radius*
0 $2 $3 $4 $5 $6 $7 $8 $9 X,Y pos of 4 corners*
0 Add a 4 corners polygon primitive as box body*
4,1,4,$2,$3,$4,$5,$6,$7,$8,$9,$2,$3,0*
0 Add four circle primitives for the rounded corners*
1,1,$1+$1,$2,$3*
1,1,$1+$1,$4,$5*
1,1,$1+$1,$6,$7*
1,1,$1+$1,$8,$9*
0 Add four rect primitives between the rounded corners*
20,1,$1+$1,$2,$3,$4,$5,0*
20,1,$1+$1,$4,$5,$6,$7,0*
20,1,$1+$1,$6,$7,$8,$9,0*
20,1,$1+$1,$8,$9,$2,$3,0*%
G04 Aperture macros list end*
%ADD10RoundRect,0.135000X-0.135000X-0.185000X0.135000X-0.185000X0.135000X0.185000X-0.135000X0.185000X0*%
%ADD11RoundRect,0.140000X-0.140000X-0.170000X0.140000X-0.170000X0.140000X0.170000X-0.140000X0.170000X0*%
%ADD12RoundRect,0.135000X0.185000X-0.135000X0.185000X0.135000X-0.185000X0.135000X-0.185000X-0.135000X0*%
%ADD13RoundRect,0.250000X0.362500X1.425000X-0.362500X1.425000X-0.362500X-1.425000X0.362500X-1.425000X0*%
%ADD14RoundRect,0.140000X-0.170000X0.140000X-0.170000X-0.140000X0.170000X-0.140000X0.170000X0.140000X0*%
%ADD15RoundRect,0.375000X-0.625000X-0.375000X0.625000X-0.375000X0.625000X0.375000X-0.625000X0.375000X0*%
%ADD16RoundRect,0.500000X-0.500000X-1.400000X0.500000X-1.400000X0.500000X1.400000X-0.500000X1.400000X0*%
%ADD17R,0.700000X1.525000*%
%ADD18RoundRect,0.160000X-0.160000X0.197500X-0.160000X-0.197500X0.160000X-0.197500X0.160000X0.197500X0*%
%ADD19RoundRect,0.150000X0.587500X0.150000X-0.587500X0.150000X-0.587500X-0.150000X0.587500X-0.150000X0*%
%ADD20RoundRect,0.250000X-0.325000X-0.650000X0.325000X-0.650000X0.325000X0.650000X-0.325000X0.650000X0*%
%ADD21RoundRect,0.150000X-0.150000X-0.470000X0.150000X-0.470000X0.150000X0.470000X-0.150000X0.470000X0*%
%ADD22RoundRect,0.075000X-0.075000X-0.545000X0.075000X-0.545000X0.075000X0.545000X-0.075000X0.545000X0*%
%ADD23R,0.900000X1.700000*%
%ADD24RoundRect,0.147500X-0.147500X-0.172500X0.147500X-0.172500X0.147500X0.172500X-0.147500X0.172500X0*%
%ADD25RoundRect,0.135000X0.135000X0.185000X-0.135000X0.185000X-0.135000X-0.185000X0.135000X-0.185000X0*%
%ADD26RoundRect,0.250000X1.000000X0.650000X-1.000000X0.650000X-1.000000X-0.650000X1.000000X-0.650000X0*%
%ADD27RoundRect,0.250000X-1.500000X0.925000X-1.500000X-0.925000X1.500000X-0.925000X1.500000X0.925000X0*%
%ADD28R,1.525000X0.700000*%
%ADD29RoundRect,0.250000X-1.425000X0.362500X-1.425000X-0.362500X1.425000X-0.362500X1.425000X0.362500X0*%
%ADD30RoundRect,0.135000X-0.185000X0.135000X-0.185000X-0.135000X0.185000X-0.135000X0.185000X0.135000X0*%
%ADD31RoundRect,0.150000X-0.150000X0.512500X-0.150000X-0.512500X0.150000X-0.512500X0.150000X0.512500X0*%
%ADD32RoundRect,0.160000X-0.197500X-0.160000X0.197500X-0.160000X0.197500X0.160000X-0.197500X0.160000X0*%
%ADD33R,2.500000X2.300000*%
%ADD34R,0.400000X0.800000*%
%ADD35R,0.800000X0.400000*%
%ADD36R,1.450000X1.450000*%
%ADD37R,0.700000X0.700000*%
%ADD38R,1.800000X2.300000*%
%ADD39RoundRect,0.150000X0.150000X-0.587500X0.150000X0.587500X-0.150000X0.587500X-0.150000X-0.587500X0*%
%ADD40RoundRect,0.112500X0.187500X0.112500X-0.187500X0.112500X-0.187500X-0.112500X0.187500X-0.112500X0*%
%ADD41RoundRect,0.140000X0.170000X-0.140000X0.170000X0.140000X-0.170000X0.140000X-0.170000X-0.140000X0*%
%ADD42RoundRect,0.250000X0.925000X1.500000X-0.925000X1.500000X-0.925000X-1.500000X0.925000X-1.500000X0*%
%ADD43RoundRect,0.250002X1.799998X2.499998X-1.799998X2.499998X-1.799998X-2.499998X1.799998X-2.499998X0*%
G04 APERTURE END LIST*
D10*
X136990000Y-73000000D03*
X138010000Y-73000000D03*
D11*
X193745000Y-83100000D03*
X194705000Y-83100000D03*
D10*
X168490000Y-86000000D03*
X169510000Y-86000000D03*
D12*
X191717590Y-60005000D03*
X191717590Y-58985000D03*
D13*
X166262500Y-73100000D03*
X160337500Y-73100000D03*
D14*
X146500000Y-66020000D03*
X146500000Y-66980000D03*
D15*
X177350000Y-59800000D03*
X177350000Y-57500000D03*
D16*
X183650000Y-57500000D03*
D15*
X177350000Y-55200000D03*
D17*
X163895000Y-64388000D03*
X165165000Y-64388000D03*
X166435000Y-64388000D03*
X167705000Y-64388000D03*
X167705000Y-69812000D03*
X166435000Y-69812000D03*
X165165000Y-69812000D03*
X163895000Y-69812000D03*
D12*
X169310000Y-70110000D03*
X169310000Y-69090000D03*
D14*
X146500000Y-54020000D03*
X146500000Y-54980000D03*
D18*
X196000000Y-59402500D03*
X196000000Y-60597500D03*
D19*
X163737500Y-59250000D03*
X163737500Y-61150000D03*
X161862500Y-60200000D03*
D20*
X168325000Y-72600000D03*
X171275000Y-72600000D03*
D21*
X189117590Y-48725000D03*
X189917590Y-48725000D03*
D22*
X191067590Y-48725000D03*
X192067590Y-48725000D03*
X192567590Y-48725000D03*
X193567590Y-48725000D03*
D21*
X194717590Y-48725000D03*
X195517590Y-48725000D03*
X195517590Y-48725000D03*
X194717590Y-48725000D03*
D22*
X194067590Y-48725000D03*
X193067590Y-48725000D03*
X191567590Y-48725000D03*
X190567590Y-48725000D03*
D21*
X189917590Y-48725000D03*
X189117590Y-48725000D03*
D11*
X166620000Y-62600000D03*
X167580000Y-62600000D03*
X163020000Y-87000000D03*
X163980000Y-87000000D03*
D10*
X182990000Y-72000000D03*
X184010000Y-72000000D03*
D23*
X175700000Y-84000000D03*
X172300000Y-84000000D03*
D24*
X133515000Y-73000000D03*
X134485000Y-73000000D03*
D25*
X161510000Y-69800000D03*
X160490000Y-69800000D03*
D26*
X182000000Y-51500000D03*
X178000000Y-51500000D03*
D27*
X154500000Y-50075000D03*
X154500000Y-56125000D03*
D12*
X192917590Y-60005000D03*
X192917590Y-58985000D03*
D27*
X154600000Y-67875000D03*
X154600000Y-73925000D03*
D28*
X166212000Y-81595000D03*
X166212000Y-82865000D03*
X166212000Y-84135000D03*
X166212000Y-85405000D03*
X160788000Y-85405000D03*
X160788000Y-84135000D03*
X160788000Y-82865000D03*
X160788000Y-81595000D03*
D25*
X189927590Y-51400000D03*
X188907590Y-51400000D03*
D29*
X157500000Y-79537500D03*
X157500000Y-85462500D03*
D30*
X188325000Y-83190000D03*
X188325000Y-84210000D03*
D31*
X191367590Y-51862500D03*
X192317590Y-51862500D03*
X193267590Y-51862500D03*
X193267590Y-54137500D03*
X192317590Y-54137500D03*
X191367590Y-54137500D03*
D32*
X190902500Y-66500000D03*
X192097500Y-66500000D03*
D33*
X143000000Y-55600000D03*
X143000000Y-49400000D03*
D12*
X190500000Y-84210000D03*
X190500000Y-83190000D03*
D10*
X165490000Y-59200000D03*
X166510000Y-59200000D03*
D25*
X195427590Y-51400000D03*
X194407590Y-51400000D03*
D34*
X195425000Y-80700000D03*
X194625000Y-80700000D03*
X193825000Y-80700000D03*
X193025000Y-80700000D03*
X192225000Y-80700000D03*
X191425000Y-80700000D03*
X190625000Y-80700000D03*
X189825000Y-80700000D03*
X189025000Y-80700000D03*
X188225000Y-80700000D03*
X187425000Y-80700000D03*
D35*
X186525000Y-79600000D03*
X186525000Y-78800000D03*
X186525000Y-78000000D03*
X186525000Y-77200000D03*
X186525000Y-76400000D03*
X186525000Y-75600000D03*
X186525000Y-74800000D03*
X186525000Y-74000000D03*
X186525000Y-73200000D03*
X186525000Y-72400000D03*
X186525000Y-71600000D03*
X186525000Y-70800000D03*
X186525000Y-70000000D03*
D34*
X187425000Y-68900000D03*
X188225000Y-68900000D03*
X189025000Y-68900000D03*
X189825000Y-68900000D03*
X190625000Y-68900000D03*
X191425000Y-68900000D03*
X192225000Y-68900000D03*
X193025000Y-68900000D03*
X193825000Y-68900000D03*
X194625000Y-68900000D03*
X195425000Y-68900000D03*
D35*
X196325000Y-70000000D03*
X196325000Y-70800000D03*
X196325000Y-71600000D03*
X196325000Y-72400000D03*
X196325000Y-73200000D03*
X196325000Y-74000000D03*
X196325000Y-74800000D03*
X196325000Y-75600000D03*
X196325000Y-76400000D03*
X196325000Y-77200000D03*
X196325000Y-78000000D03*
X196325000Y-78800000D03*
X196325000Y-79600000D03*
D36*
X191425000Y-74800000D03*
D37*
X196375000Y-68850000D03*
X186475000Y-68850000D03*
X186475000Y-80750000D03*
X196375000Y-80750000D03*
D36*
X193400000Y-76775000D03*
X191425000Y-76775000D03*
X189450000Y-76775000D03*
X189450000Y-74800000D03*
X189450000Y-72825000D03*
X191425000Y-72825000D03*
X193400000Y-72825000D03*
X193400000Y-74800000D03*
D14*
X184925000Y-83220000D03*
X184925000Y-84180000D03*
D38*
X181950000Y-63000000D03*
X179050000Y-63000000D03*
D10*
X168490000Y-83000000D03*
X169510000Y-83000000D03*
D39*
X196950000Y-64437500D03*
X195050000Y-64437500D03*
X196000000Y-62562500D03*
D24*
X133515000Y-76500000D03*
X134485000Y-76500000D03*
D40*
X173050000Y-60300000D03*
X170950000Y-60300000D03*
D12*
X169300000Y-67950000D03*
X169300000Y-66930000D03*
D20*
X192850000Y-85100000D03*
X195800000Y-85100000D03*
D41*
X146500000Y-64480000D03*
X146500000Y-63520000D03*
D42*
X157525000Y-61900000D03*
X151475000Y-61900000D03*
D43*
X172300000Y-49900000D03*
X161700000Y-49900000D03*
D33*
X172900000Y-69200000D03*
X172900000Y-63000000D03*
D41*
X146500000Y-51480000D03*
X146500000Y-50520000D03*
D10*
X136990000Y-76500000D03*
X138010000Y-76500000D03*
D23*
X181700000Y-84000000D03*
X178300000Y-84000000D03*
D33*
X143000000Y-68000000D03*
X143000000Y-61800000D03*
M02*
