M48
; DRILL file KiCad 10.0.1 date 2026-06-28T11:47:56
; FORMAT={-:-/ absolute / metric / decimal}
; #@! TF.CreationDate,2026-06-28T11:47:56+02:00
; #@! TF.GenerationSoftware,Kicad,Pcbnew,10.0.1
; #@! TF.FileFunction,Plated,1,4,PTH
FMAT,2
METRIC
; #@! TA.AperFunction,Plated,PTH,ViaDrill
T1C0.300
; #@! TA.AperFunction,Plated,PTH,ComponentDrill
T2C0.600
; #@! TA.AperFunction,Plated,PTH,ComponentDrill
T3C0.750
%
G90
G05
T1
X133.5Y-72.0
X133.5Y-75.5
X143.0Y-58.5
X149.0Y-60.5
X149.0Y-61.5
X149.0Y-62.5
X149.0Y-63.5
X149.0Y-64.5
X149.0Y-65.5
X149.0Y-66.5
X149.0Y-67.5
X149.0Y-68.5
X149.0Y-69.5
X150.0Y-65.5
X150.0Y-66.5
X150.0Y-67.5
X150.0Y-68.5
X150.0Y-69.5
X150.5Y-71.5
X150.5Y-72.5
X150.5Y-73.5
X150.5Y-74.5
X150.5Y-75.5
X151.0Y-65.5
X151.0Y-66.5
X151.0Y-67.5
X151.0Y-68.5
X151.0Y-69.5
X151.5Y-43.5
X151.5Y-44.5
X151.5Y-45.5
X151.5Y-46.5
X151.5Y-47.5
X151.5Y-71.5
X151.5Y-72.5
X151.5Y-73.5
X151.5Y-74.5
X151.5Y-75.5
X152.0Y-65.5
X152.0Y-66.5
X152.0Y-67.5
X152.0Y-68.5
X152.0Y-69.5
X152.5Y-43.5
X152.5Y-44.5
X152.5Y-45.5
X152.5Y-46.5
X152.5Y-47.5
X153.5Y-43.5
X153.5Y-44.5
X153.5Y-45.5
X153.5Y-46.5
X153.5Y-47.5
X154.5Y-43.5
X154.5Y-44.5
X154.5Y-45.5
X154.5Y-46.5
X154.5Y-47.5
X155.5Y-43.5
X155.5Y-44.5
X155.5Y-45.5
X155.5Y-46.5
X155.5Y-47.5
X156.5Y-43.5
X156.5Y-44.5
X156.5Y-45.5
X156.5Y-46.5
X156.5Y-47.5
X157.5Y-43.5
X157.5Y-44.5
X157.5Y-45.5
X157.5Y-46.5
X157.5Y-47.5
X157.5Y-71.5
X157.5Y-72.5
X157.5Y-73.5
X157.5Y-74.5
X157.5Y-75.5
X158.025Y-57.5
X158.5Y-43.5
X158.5Y-44.5
X158.5Y-45.5
X158.5Y-46.5
X158.5Y-47.5
X158.5Y-71.5
X158.5Y-72.5
X158.5Y-73.5
X158.5Y-74.5
X158.5Y-75.5
X158.975Y-57.5
X158.975Y-58.5
X158.975Y-59.5
X159.0Y-55.5
X159.0Y-56.5
X159.025Y-54.5
X159.5Y-43.5
X159.5Y-44.5
X159.5Y-45.5
X159.5Y-46.5
X160.0Y-56.5
X160.0Y-57.5
X160.0Y-58.5
X160.0Y-59.5
X160.025Y-54.5
X160.025Y-55.5
X160.5Y-43.5
X160.5Y-44.5
X160.5Y-45.5
X160.5Y-46.5
X161.0Y-61.5
X161.5Y-43.5
X161.5Y-44.5
X161.5Y-45.5
X161.5Y-46.5
X162.5Y-43.5
X162.5Y-44.5
X162.5Y-45.5
X162.5Y-46.5
X162.746Y-79.5
X163.0Y-86.0
X163.5Y-43.5
X163.5Y-44.5
X163.5Y-45.5
X163.5Y-46.5
X164.5Y-43.5
X164.5Y-44.5
X164.5Y-45.5
X164.5Y-46.5
X165.165Y-66.0
X165.5Y-57.0
X165.5Y-61.0
X166.212Y-80.5
X167.6Y-59.2
X167.7Y-79.5
X167.7Y-83.0
X167.7Y-86.6
X167.705Y-66.0
X168.5Y-55.5
X169.5Y-62.6
X170.4Y-86.0
X171.0Y-83.0
X171.0Y-84.0
X172.1Y-60.3
X172.8Y-67.3
X172.9Y-72.6
X175.0Y-55.5
X175.4Y-73.1
X176.0Y-51.5
X177.0Y-84.0
X178.0Y-73.1
X179.0Y-74.0
X181.0Y-65.5
X183.0Y-76.5
X183.725Y-84.2
X184.0Y-78.7
X184.0Y-79.5
X185.25Y-68.875
X186.45Y-67.575
X187.475Y-71.4
X187.5Y-73.025
X187.5Y-75.0
X187.5Y-77.0
X187.5Y-78.62
X187.5Y-84.2
X188.918Y-52.4
X189.475Y-71.4
X189.475Y-78.62
X189.918Y-50.2
X190.0Y-57.0
X190.118Y-53.1
X191.45Y-71.4
X191.45Y-78.62
X191.5Y-65.5
X193.425Y-71.4
X193.425Y-78.62
X194.418Y-53.0
X195.0Y-57.0
X195.4Y-71.4
X195.4Y-73.05
X195.4Y-75.025
X195.4Y-77.025
X195.4Y-78.62
X195.418Y-52.5
X196.0Y-65.5
T3
X137.95Y-50.5
X137.95Y-52.5
X137.95Y-54.5
X137.95Y-63.0
X137.95Y-65.0
X137.95Y-67.0
X141.0Y-81.0
X143.0Y-81.0
X150.0Y-81.05
X152.0Y-81.05
X200.875Y-50.0
X200.875Y-52.0
X200.875Y-54.0
T2
X187.998Y-43.525G85X187.998Y-44.325
G05
X187.998Y-47.575G85X187.998Y-48.675
G05
X196.638Y-43.525G85X196.638Y-44.325
G05
X196.638Y-47.575G85X196.638Y-48.675
G05
M30
