G04 #@! TF.GenerationSoftware,KiCad,Pcbnew,10.0.1*
G04 #@! TF.CreationDate,2026-06-28T11:47:58+02:00*
G04 #@! TF.ProjectId,SolderCrateBox,536f6c64-6572-4437-9261-7465426f782e,rev?*
G04 #@! TF.SameCoordinates,Original*
G04 #@! TF.FileFunction,Copper,L2,Inr*
G04 #@! TF.FilePolarity,Positive*
%FSLAX46Y46*%
G04 Gerber Fmt 4.6, Leading zero omitted, Abs format (unit mm)*
G04 Created by KiCad (PCBNEW 10.0.1) date 2026-06-28 11:47:58*
%MOMM*%
%LPD*%
G01*
G04 APERTURE LIST*
G04 Aperture macros list*
%AMRoundRect*
0 Rectangle with rounded corners*
0 $1 Rounding radius*
0 $2 $3 $4 $5 $6 $7 $8 $9 X,Y pos of 4 corners*
0 Add a 4 corners polygon primitive as box body*
4,1,4,$2,$3,$4,$5,$6,$7,$8,$9,$2,$3,0*
0 Add four circle primitives for the rounded corners*
1,1,$1+$1,$2,$3*
1,1,$1+$1,$4,$5*
1,1,$1+$1,$6,$7*
1,1,$1+$1,$8,$9*
0 Add four rect primitives between the rounded corners*
20,1,$1+$1,$2,$3,$4,$5,0*
20,1,$1+$1,$4,$5,$6,$7,0*
20,1,$1+$1,$6,$7,$8,$9,0*
20,1,$1+$1,$8,$9,$2,$3,0*%
G04 Aperture macros list end*
G04 #@! TA.AperFunction,ComponentPad*
%ADD10O,1.750000X1.200000*%
G04 #@! TD*
G04 #@! TA.AperFunction,ComponentPad*
%ADD11RoundRect,0.250000X0.625000X-0.350000X0.625000X0.350000X-0.625000X0.350000X-0.625000X-0.350000X0*%
G04 #@! TD*
G04 #@! TA.AperFunction,ComponentPad*
%ADD12RoundRect,0.250000X-0.625000X0.350000X-0.625000X-0.350000X0.625000X-0.350000X0.625000X0.350000X0*%
G04 #@! TD*
G04 #@! TA.AperFunction,ComponentPad*
%ADD13O,1.000000X1.800000*%
G04 #@! TD*
G04 #@! TA.AperFunction,ComponentPad*
%ADD14O,1.000000X2.100000*%
G04 #@! TD*
G04 #@! TA.AperFunction,ComponentPad*
%ADD15RoundRect,0.250000X0.350000X0.625000X-0.350000X0.625000X-0.350000X-0.625000X0.350000X-0.625000X0*%
G04 #@! TD*
G04 #@! TA.AperFunction,ComponentPad*
%ADD16O,1.200000X1.750000*%
G04 #@! TD*
G04 #@! TA.AperFunction,ViaPad*
%ADD17C,0.600000*%
G04 #@! TD*
G04 APERTURE END LIST*
D10*
X137950000Y-63000000D03*
X137950000Y-65000000D03*
D11*
X137950000Y-67000000D03*
D12*
X200875000Y-50000000D03*
D10*
X200875000Y-52000000D03*
X200875000Y-54000000D03*
D13*
X187997590Y-43925000D03*
D14*
X187997590Y-48125000D03*
D13*
X196637590Y-43925000D03*
D14*
X196637590Y-48125000D03*
D11*
X137950000Y-54500000D03*
D10*
X137950000Y-52500000D03*
X137950000Y-50500000D03*
D15*
X152000000Y-81050000D03*
D16*
X150000000Y-81050000D03*
D15*
X143000000Y-81000000D03*
D16*
X141000000Y-81000000D03*
D17*
X195000000Y-57000000D03*
X143000000Y-58500000D03*
X175000000Y-55500000D03*
X168500000Y-55500000D03*
X190000000Y-57000000D03*
X161000000Y-61500000D03*
X167705000Y-66000000D03*
X186450000Y-67575000D03*
X187475000Y-71400000D03*
X172900000Y-72600000D03*
X194417590Y-53000000D03*
X171000000Y-84000000D03*
X133500000Y-75500000D03*
X167600000Y-59200000D03*
X185250000Y-68875000D03*
X188917590Y-52400000D03*
X165165000Y-66000000D03*
X189475000Y-71400000D03*
X166212000Y-80500000D03*
X187500000Y-73025000D03*
X193425000Y-78620000D03*
X195417590Y-52500000D03*
X177000000Y-84000000D03*
X187500000Y-78620000D03*
X183725000Y-84200000D03*
X191450000Y-78620000D03*
X195400000Y-75025000D03*
X187500000Y-75000000D03*
X195400000Y-78620000D03*
X195400000Y-77025000D03*
X193425000Y-71400000D03*
X191450000Y-71400000D03*
X189475000Y-78620000D03*
X169500000Y-62600000D03*
X195400000Y-71400000D03*
X195400000Y-73050000D03*
X187500000Y-77000000D03*
X133500000Y-72000000D03*
X181000000Y-65500000D03*
X187500000Y-84200000D03*
X178000000Y-73100000D03*
X175400000Y-73100000D03*
X167700000Y-83000000D03*
X167700000Y-86600000D03*
X196000000Y-65500000D03*
X163000000Y-86000000D03*
X167700000Y-79500000D03*
X162746000Y-79500000D03*
X191500000Y-65500000D03*
X158500000Y-75500000D03*
X151500000Y-73500000D03*
X157500000Y-75500000D03*
X157500000Y-74500000D03*
X157500000Y-71500000D03*
X158500000Y-73500000D03*
X158500000Y-71500000D03*
X150500000Y-71500000D03*
X158500000Y-72500000D03*
X151500000Y-74500000D03*
X151500000Y-72500000D03*
X150500000Y-73500000D03*
X150500000Y-72500000D03*
X150500000Y-75500000D03*
X157500000Y-72500000D03*
X157500000Y-73500000D03*
X151500000Y-75500000D03*
X150500000Y-74500000D03*
X158500000Y-74500000D03*
X151500000Y-71500000D03*
X172800000Y-67300000D03*
X172100000Y-60300000D03*
X165500000Y-61000000D03*
X189917590Y-50200000D03*
X190117590Y-53100000D03*
X176000000Y-51500000D03*
X165500000Y-57000000D03*
X161500000Y-43500000D03*
X152500000Y-44500000D03*
X153500000Y-45500000D03*
X152500000Y-47500000D03*
X163500000Y-45500000D03*
X158500000Y-43500000D03*
X160500000Y-46500000D03*
X158500000Y-46500000D03*
X155500000Y-46500000D03*
X157500000Y-45500000D03*
X157500000Y-44500000D03*
X153500000Y-47500000D03*
X162500000Y-44500000D03*
X160500000Y-44500000D03*
X153500000Y-46500000D03*
X162500000Y-46500000D03*
X161500000Y-44500000D03*
X156500000Y-44500000D03*
X155500000Y-43500000D03*
X156500000Y-47500000D03*
X158500000Y-44500000D03*
X153500000Y-43500000D03*
X162500000Y-43500000D03*
X152500000Y-43500000D03*
X151500000Y-45500000D03*
X157500000Y-46500000D03*
X151500000Y-46500000D03*
X164500000Y-44500000D03*
X160500000Y-45500000D03*
X156500000Y-43500000D03*
X154500000Y-45500000D03*
X154500000Y-47500000D03*
X159500000Y-46500000D03*
X159500000Y-43500000D03*
X151500000Y-43500000D03*
X156500000Y-45500000D03*
X163500000Y-46500000D03*
X158500000Y-47500000D03*
X152500000Y-46500000D03*
X160500000Y-43500000D03*
X161500000Y-45500000D03*
X162500000Y-45500000D03*
X158500000Y-45500000D03*
X164500000Y-46500000D03*
X151500000Y-47500000D03*
X154500000Y-44500000D03*
X155500000Y-45500000D03*
X163500000Y-44500000D03*
X164500000Y-43500000D03*
X156500000Y-46500000D03*
X157500000Y-43500000D03*
X152500000Y-45500000D03*
X159500000Y-44500000D03*
X154500000Y-43500000D03*
X154500000Y-46500000D03*
X155500000Y-47500000D03*
X159500000Y-45500000D03*
X164500000Y-45500000D03*
X163500000Y-43500000D03*
X151500000Y-44500000D03*
X155500000Y-44500000D03*
X157500000Y-47500000D03*
X153500000Y-44500000D03*
X161500000Y-46500000D03*
X159000000Y-55500000D03*
X160000000Y-59500000D03*
X158975000Y-57500000D03*
X160025000Y-55500000D03*
X160000000Y-57500000D03*
X159025000Y-54500000D03*
X160000000Y-58500000D03*
X158975000Y-58500000D03*
X158975000Y-59500000D03*
X160025000Y-54500000D03*
X158025000Y-57500000D03*
X159000000Y-56500000D03*
X160000000Y-56500000D03*
X150000000Y-65500000D03*
X151000000Y-66500000D03*
X150000000Y-67500000D03*
X151000000Y-69500000D03*
X152000000Y-66500000D03*
X149000000Y-65500000D03*
X149000000Y-66500000D03*
X149000000Y-61500000D03*
X149000000Y-64500000D03*
X149000000Y-68500000D03*
X149000000Y-69500000D03*
X149000000Y-67500000D03*
X151000000Y-67500000D03*
X150000000Y-69500000D03*
X152000000Y-67500000D03*
X149000000Y-63500000D03*
X151000000Y-68500000D03*
X149000000Y-60500000D03*
X150000000Y-66500000D03*
X152000000Y-68500000D03*
X151000000Y-65500000D03*
X152000000Y-69500000D03*
X152000000Y-65500000D03*
X150000000Y-68500000D03*
X149000000Y-62500000D03*
X179000000Y-74000000D03*
X183000000Y-76500000D03*
X171000000Y-83000000D03*
X184000000Y-79500000D03*
X170400000Y-86000000D03*
X184000000Y-78699997D03*
G04 #@! TA.AperFunction,Conductor*
G36*
X204503736Y-41500726D02*
G01*
X204793796Y-41518271D01*
X204808659Y-41520076D01*
X205090797Y-41571780D01*
X205105334Y-41575363D01*
X205379182Y-41660698D01*
X205393163Y-41666000D01*
X205654734Y-41783724D01*
X205667987Y-41790680D01*
X205913458Y-41939071D01*
X205925776Y-41947573D01*
X206151573Y-42124474D01*
X206162781Y-42134404D01*
X206365595Y-42337218D01*
X206375525Y-42348426D01*
X206552422Y-42574217D01*
X206560928Y-42586541D01*
X206709319Y-42832012D01*
X206716277Y-42845269D01*
X206808908Y-43051086D01*
X206833994Y-43106823D01*
X206839304Y-43120825D01*
X206924635Y-43394664D01*
X206928219Y-43409202D01*
X206979923Y-43691340D01*
X206981728Y-43706205D01*
X206999274Y-43996263D01*
X206999500Y-44003750D01*
X206999500Y-84996249D01*
X206999274Y-85003736D01*
X206981728Y-85293794D01*
X206979923Y-85308659D01*
X206928219Y-85590797D01*
X206924635Y-85605335D01*
X206839304Y-85879174D01*
X206833994Y-85893176D01*
X206716277Y-86154730D01*
X206709319Y-86167987D01*
X206560928Y-86413458D01*
X206552422Y-86425782D01*
X206375525Y-86651573D01*
X206365595Y-86662781D01*
X206162781Y-86865595D01*
X206151573Y-86875525D01*
X205925782Y-87052422D01*
X205913458Y-87060928D01*
X205667987Y-87209319D01*
X205654730Y-87216277D01*
X205393176Y-87333994D01*
X205379174Y-87339304D01*
X205105335Y-87424635D01*
X205090797Y-87428219D01*
X204808659Y-87479923D01*
X204793794Y-87481728D01*
X204503736Y-87499274D01*
X204496249Y-87499500D01*
X168203439Y-87499500D01*
X168136400Y-87479815D01*
X168090645Y-87427011D01*
X168080701Y-87357853D01*
X168109726Y-87294297D01*
X168134548Y-87272398D01*
X168163981Y-87252730D01*
X168210289Y-87221789D01*
X168321789Y-87110289D01*
X168409394Y-86979179D01*
X168469737Y-86833497D01*
X168500500Y-86678842D01*
X168500500Y-86521158D01*
X168500500Y-86521155D01*
X168500499Y-86521153D01*
X168479077Y-86413458D01*
X168469737Y-86366503D01*
X168469735Y-86366498D01*
X168409397Y-86220827D01*
X168409390Y-86220814D01*
X168321789Y-86089711D01*
X168321786Y-86089707D01*
X168210292Y-85978213D01*
X168210288Y-85978210D01*
X168124897Y-85921153D01*
X169599500Y-85921153D01*
X169599500Y-86078846D01*
X169630261Y-86233489D01*
X169630264Y-86233501D01*
X169690602Y-86379172D01*
X169690609Y-86379185D01*
X169778210Y-86510288D01*
X169778213Y-86510292D01*
X169889707Y-86621786D01*
X169889711Y-86621789D01*
X170020814Y-86709390D01*
X170020827Y-86709397D01*
X170166498Y-86769735D01*
X170166503Y-86769737D01*
X170321153Y-86800499D01*
X170321156Y-86800500D01*
X170321158Y-86800500D01*
X170478844Y-86800500D01*
X170478845Y-86800499D01*
X170633497Y-86769737D01*
X170779179Y-86709394D01*
X170910289Y-86621789D01*
X171021789Y-86510289D01*
X171109394Y-86379179D01*
X171169737Y-86233497D01*
X171200500Y-86078842D01*
X171200500Y-85921158D01*
X171200500Y-85921155D01*
X171200499Y-85921153D01*
X171192271Y-85879790D01*
X171169737Y-85766503D01*
X171145428Y-85707815D01*
X171109397Y-85620827D01*
X171109390Y-85620814D01*
X171021789Y-85489711D01*
X171021786Y-85489707D01*
X170910292Y-85378213D01*
X170910288Y-85378210D01*
X170779185Y-85290609D01*
X170779172Y-85290602D01*
X170633501Y-85230264D01*
X170633489Y-85230261D01*
X170478845Y-85199500D01*
X170478842Y-85199500D01*
X170321158Y-85199500D01*
X170321155Y-85199500D01*
X170166510Y-85230261D01*
X170166498Y-85230264D01*
X170020827Y-85290602D01*
X170020814Y-85290609D01*
X169889711Y-85378210D01*
X169889707Y-85378213D01*
X169778213Y-85489707D01*
X169778210Y-85489711D01*
X169690609Y-85620814D01*
X169690602Y-85620827D01*
X169630264Y-85766498D01*
X169630261Y-85766510D01*
X169599500Y-85921153D01*
X168124897Y-85921153D01*
X168079185Y-85890609D01*
X168079172Y-85890602D01*
X167933501Y-85830264D01*
X167933489Y-85830261D01*
X167778845Y-85799500D01*
X167778842Y-85799500D01*
X167621158Y-85799500D01*
X167621155Y-85799500D01*
X167466510Y-85830261D01*
X167466498Y-85830264D01*
X167320827Y-85890602D01*
X167320814Y-85890609D01*
X167189711Y-85978210D01*
X167189707Y-85978213D01*
X167078213Y-86089707D01*
X167078210Y-86089711D01*
X166990609Y-86220814D01*
X166990602Y-86220827D01*
X166930264Y-86366498D01*
X166930261Y-86366510D01*
X166899500Y-86521153D01*
X166899500Y-86678846D01*
X166930261Y-86833489D01*
X166930264Y-86833501D01*
X166990602Y-86979172D01*
X166990609Y-86979185D01*
X167078210Y-87110288D01*
X167078213Y-87110292D01*
X167189707Y-87221786D01*
X167189711Y-87221789D01*
X167265452Y-87272398D01*
X167310257Y-87326010D01*
X167318964Y-87395335D01*
X167288810Y-87458363D01*
X167229366Y-87495082D01*
X167196561Y-87499500D01*
X134003751Y-87499500D01*
X133996264Y-87499274D01*
X133706205Y-87481728D01*
X133691340Y-87479923D01*
X133409202Y-87428219D01*
X133394664Y-87424635D01*
X133120825Y-87339304D01*
X133106827Y-87333995D01*
X132857509Y-87221786D01*
X132845269Y-87216277D01*
X132832012Y-87209319D01*
X132586541Y-87060928D01*
X132574217Y-87052422D01*
X132480737Y-86979185D01*
X132348426Y-86875525D01*
X132337218Y-86865595D01*
X132134404Y-86662781D01*
X132124474Y-86651573D01*
X132022300Y-86521158D01*
X131947573Y-86425776D01*
X131939071Y-86413458D01*
X131790680Y-86167987D01*
X131783722Y-86154730D01*
X131666000Y-85893163D01*
X131660698Y-85879182D01*
X131575363Y-85605334D01*
X131571780Y-85590797D01*
X131553255Y-85489711D01*
X131520075Y-85308657D01*
X131518271Y-85293794D01*
X131500726Y-85003736D01*
X131500500Y-84996249D01*
X131500500Y-84893713D01*
X132649500Y-84893713D01*
X132649500Y-85106286D01*
X132681552Y-85308659D01*
X132682754Y-85316243D01*
X132739117Y-85489711D01*
X132748444Y-85518414D01*
X132844951Y-85707820D01*
X132969890Y-85879786D01*
X133120213Y-86030109D01*
X133292179Y-86155048D01*
X133292181Y-86155049D01*
X133292184Y-86155051D01*
X133481588Y-86251557D01*
X133683757Y-86317246D01*
X133893713Y-86350500D01*
X133893714Y-86350500D01*
X134106286Y-86350500D01*
X134106287Y-86350500D01*
X134316243Y-86317246D01*
X134518412Y-86251557D01*
X134707816Y-86155051D01*
X134729789Y-86139086D01*
X134879786Y-86030109D01*
X134879788Y-86030106D01*
X134879792Y-86030104D01*
X134988743Y-85921153D01*
X162199500Y-85921153D01*
X162199500Y-86078846D01*
X162230261Y-86233489D01*
X162230264Y-86233501D01*
X162290602Y-86379172D01*
X162290609Y-86379185D01*
X162378210Y-86510288D01*
X162378213Y-86510292D01*
X162489707Y-86621786D01*
X162489711Y-86621789D01*
X162620814Y-86709390D01*
X162620827Y-86709397D01*
X162766498Y-86769735D01*
X162766503Y-86769737D01*
X162921153Y-86800499D01*
X162921156Y-86800500D01*
X162921158Y-86800500D01*
X163078844Y-86800500D01*
X163078845Y-86800499D01*
X163233497Y-86769737D01*
X163379179Y-86709394D01*
X163510289Y-86621789D01*
X163621789Y-86510289D01*
X163709394Y-86379179D01*
X163769737Y-86233497D01*
X163800500Y-86078842D01*
X163800500Y-85921158D01*
X163800500Y-85921155D01*
X163800499Y-85921153D01*
X163792271Y-85879790D01*
X163769737Y-85766503D01*
X163745428Y-85707815D01*
X163709397Y-85620827D01*
X163709390Y-85620814D01*
X163621789Y-85489711D01*
X163621786Y-85489707D01*
X163510292Y-85378213D01*
X163510288Y-85378210D01*
X163379185Y-85290609D01*
X163379172Y-85290602D01*
X163233501Y-85230264D01*
X163233489Y-85230261D01*
X163078845Y-85199500D01*
X163078842Y-85199500D01*
X162921158Y-85199500D01*
X162921155Y-85199500D01*
X162766510Y-85230261D01*
X162766498Y-85230264D01*
X162620827Y-85290602D01*
X162620814Y-85290609D01*
X162489711Y-85378210D01*
X162489707Y-85378213D01*
X162378213Y-85489707D01*
X162378210Y-85489711D01*
X162290609Y-85620814D01*
X162290602Y-85620827D01*
X162230264Y-85766498D01*
X162230261Y-85766510D01*
X162199500Y-85921153D01*
X134988743Y-85921153D01*
X135030104Y-85879792D01*
X135155051Y-85707816D01*
X135251557Y-85518412D01*
X135317246Y-85316243D01*
X135350500Y-85106287D01*
X135350500Y-84893713D01*
X135317246Y-84683757D01*
X135251557Y-84481588D01*
X135155051Y-84292184D01*
X135079322Y-84187951D01*
X135079321Y-84187948D01*
X135030791Y-84121153D01*
X186699500Y-84121153D01*
X186699500Y-84278846D01*
X186730261Y-84433489D01*
X186730264Y-84433501D01*
X186790602Y-84579172D01*
X186790609Y-84579185D01*
X186878210Y-84710288D01*
X186878213Y-84710292D01*
X186989707Y-84821786D01*
X186989711Y-84821789D01*
X187120814Y-84909390D01*
X187120827Y-84909397D01*
X187180486Y-84934108D01*
X187266503Y-84969737D01*
X187399787Y-84996249D01*
X187421153Y-85000499D01*
X187421156Y-85000500D01*
X187421158Y-85000500D01*
X187578844Y-85000500D01*
X187578845Y-85000499D01*
X187733497Y-84969737D01*
X187879179Y-84909394D01*
X187902647Y-84893713D01*
X202649500Y-84893713D01*
X202649500Y-85106286D01*
X202681552Y-85308659D01*
X202682754Y-85316243D01*
X202739117Y-85489711D01*
X202748444Y-85518414D01*
X202844951Y-85707820D01*
X202969890Y-85879786D01*
X203120213Y-86030109D01*
X203292179Y-86155048D01*
X203292181Y-86155049D01*
X203292184Y-86155051D01*
X203481588Y-86251557D01*
X203683757Y-86317246D01*
X203893713Y-86350500D01*
X203893714Y-86350500D01*
X204106286Y-86350500D01*
X204106287Y-86350500D01*
X204316243Y-86317246D01*
X204518412Y-86251557D01*
X204707816Y-86155051D01*
X204729789Y-86139086D01*
X204879786Y-86030109D01*
X204879788Y-86030106D01*
X204879792Y-86030104D01*
X205030104Y-85879792D01*
X205030106Y-85879788D01*
X205030109Y-85879786D01*
X205155048Y-85707820D01*
X205155047Y-85707820D01*
X205155051Y-85707816D01*
X205251557Y-85518412D01*
X205317246Y-85316243D01*
X205350500Y-85106287D01*
X205350500Y-84893713D01*
X205317246Y-84683757D01*
X205251557Y-84481588D01*
X205155051Y-84292184D01*
X205155049Y-84292181D01*
X205155048Y-84292179D01*
X205030109Y-84120213D01*
X204879786Y-83969890D01*
X204707820Y-83844951D01*
X204518414Y-83748444D01*
X204518413Y-83748443D01*
X204518412Y-83748443D01*
X204316243Y-83682754D01*
X204316241Y-83682753D01*
X204316240Y-83682753D01*
X204154957Y-83657208D01*
X204106287Y-83649500D01*
X203893713Y-83649500D01*
X203845042Y-83657208D01*
X203683760Y-83682753D01*
X203481585Y-83748444D01*
X203292179Y-83844951D01*
X203120213Y-83969890D01*
X202969890Y-84120213D01*
X202844951Y-84292179D01*
X202748444Y-84481585D01*
X202682753Y-84683760D01*
X202649500Y-84893713D01*
X187902647Y-84893713D01*
X188010289Y-84821789D01*
X188010292Y-84821786D01*
X188030919Y-84801160D01*
X188121786Y-84710292D01*
X188121789Y-84710289D01*
X188209394Y-84579179D01*
X188269737Y-84433497D01*
X188300500Y-84278842D01*
X188300500Y-84121158D01*
X188300500Y-84121155D01*
X188300499Y-84121153D01*
X188270412Y-83969896D01*
X188269737Y-83966503D01*
X188219389Y-83844951D01*
X188209397Y-83820827D01*
X188209390Y-83820814D01*
X188121789Y-83689711D01*
X188121786Y-83689707D01*
X188010292Y-83578213D01*
X188010288Y-83578210D01*
X187879185Y-83490609D01*
X187879172Y-83490602D01*
X187733501Y-83430264D01*
X187733489Y-83430261D01*
X187578845Y-83399500D01*
X187578842Y-83399500D01*
X187421158Y-83399500D01*
X187421155Y-83399500D01*
X187266510Y-83430261D01*
X187266498Y-83430264D01*
X187120827Y-83490602D01*
X187120814Y-83490609D01*
X186989711Y-83578210D01*
X186989707Y-83578213D01*
X186878213Y-83689707D01*
X186878210Y-83689711D01*
X186790609Y-83820814D01*
X186790602Y-83820827D01*
X186730264Y-83966498D01*
X186730261Y-83966510D01*
X186699500Y-84121153D01*
X135030791Y-84121153D01*
X135030109Y-84120214D01*
X135030105Y-84120209D01*
X134879786Y-83969890D01*
X134707820Y-83844951D01*
X134518414Y-83748444D01*
X134518413Y-83748443D01*
X134518412Y-83748443D01*
X134316243Y-83682754D01*
X134316241Y-83682753D01*
X134316240Y-83682753D01*
X134154957Y-83657208D01*
X134106287Y-83649500D01*
X133893713Y-83649500D01*
X133845042Y-83657208D01*
X133683760Y-83682753D01*
X133481585Y-83748444D01*
X133292179Y-83844951D01*
X133120213Y-83969890D01*
X132969890Y-84120213D01*
X132844951Y-84292179D01*
X132748444Y-84481585D01*
X132682753Y-84683760D01*
X132649500Y-84893713D01*
X131500500Y-84893713D01*
X131500500Y-82921153D01*
X166899500Y-82921153D01*
X166899500Y-83078846D01*
X166930261Y-83233489D01*
X166930264Y-83233501D01*
X166990602Y-83379172D01*
X166990609Y-83379185D01*
X167078210Y-83510288D01*
X167078213Y-83510292D01*
X167189707Y-83621786D01*
X167189711Y-83621789D01*
X167320814Y-83709390D01*
X167320827Y-83709397D01*
X167466498Y-83769735D01*
X167466503Y-83769737D01*
X167621153Y-83800499D01*
X167621156Y-83800500D01*
X167621158Y-83800500D01*
X167778844Y-83800500D01*
X167778845Y-83800499D01*
X167933497Y-83769737D01*
X168079179Y-83709394D01*
X168210289Y-83621789D01*
X168321789Y-83510289D01*
X168409394Y-83379179D01*
X168469737Y-83233497D01*
X168500500Y-83078842D01*
X168500500Y-82921158D01*
X168500500Y-82921155D01*
X168500499Y-82921153D01*
X170199500Y-82921153D01*
X170199500Y-83078846D01*
X170230261Y-83233489D01*
X170230264Y-83233501D01*
X170290602Y-83379172D01*
X170290609Y-83379185D01*
X170378210Y-83510288D01*
X170378213Y-83510292D01*
X170489707Y-83621786D01*
X170489711Y-83621789D01*
X170620814Y-83709390D01*
X170620827Y-83709397D01*
X170766498Y-83769735D01*
X170766503Y-83769737D01*
X170921153Y-83800499D01*
X170921156Y-83800500D01*
X170921158Y-83800500D01*
X171078844Y-83800500D01*
X171078845Y-83800499D01*
X171233497Y-83769737D01*
X171379179Y-83709394D01*
X171510289Y-83621789D01*
X171621789Y-83510289D01*
X171709394Y-83379179D01*
X171769737Y-83233497D01*
X171800500Y-83078842D01*
X171800500Y-82921158D01*
X171800500Y-82921155D01*
X171800499Y-82921153D01*
X171769738Y-82766510D01*
X171769737Y-82766503D01*
X171769735Y-82766498D01*
X171709397Y-82620827D01*
X171709390Y-82620814D01*
X171621789Y-82489711D01*
X171621786Y-82489707D01*
X171510292Y-82378213D01*
X171510288Y-82378210D01*
X171379185Y-82290609D01*
X171379172Y-82290602D01*
X171233501Y-82230264D01*
X171233489Y-82230261D01*
X171078845Y-82199500D01*
X171078842Y-82199500D01*
X170921158Y-82199500D01*
X170921155Y-82199500D01*
X170766510Y-82230261D01*
X170766498Y-82230264D01*
X170620827Y-82290602D01*
X170620814Y-82290609D01*
X170489711Y-82378210D01*
X170489707Y-82378213D01*
X170378213Y-82489707D01*
X170378210Y-82489711D01*
X170290609Y-82620814D01*
X170290602Y-82620827D01*
X170230264Y-82766498D01*
X170230261Y-82766510D01*
X170199500Y-82921153D01*
X168500499Y-82921153D01*
X168469738Y-82766510D01*
X168469737Y-82766503D01*
X168469735Y-82766498D01*
X168409397Y-82620827D01*
X168409390Y-82620814D01*
X168321789Y-82489711D01*
X168321786Y-82489707D01*
X168210292Y-82378213D01*
X168210288Y-82378210D01*
X168079185Y-82290609D01*
X168079172Y-82290602D01*
X167933501Y-82230264D01*
X167933489Y-82230261D01*
X167778845Y-82199500D01*
X167778842Y-82199500D01*
X167621158Y-82199500D01*
X167621155Y-82199500D01*
X167466510Y-82230261D01*
X167466498Y-82230264D01*
X167320827Y-82290602D01*
X167320814Y-82290609D01*
X167189711Y-82378210D01*
X167189707Y-82378213D01*
X167078213Y-82489707D01*
X167078210Y-82489711D01*
X166990609Y-82620814D01*
X166990602Y-82620827D01*
X166930264Y-82766498D01*
X166930261Y-82766510D01*
X166899500Y-82921153D01*
X131500500Y-82921153D01*
X131500500Y-80638428D01*
X139900000Y-80638428D01*
X139900000Y-80750000D01*
X140719670Y-80750000D01*
X140699925Y-80769745D01*
X140650556Y-80855255D01*
X140625000Y-80950630D01*
X140625000Y-81049370D01*
X140650556Y-81144745D01*
X140699925Y-81230255D01*
X140719670Y-81250000D01*
X139900000Y-81250000D01*
X139900000Y-81361571D01*
X139927085Y-81532584D01*
X139980591Y-81697257D01*
X140059195Y-81851524D01*
X140160967Y-81991602D01*
X140283397Y-82114032D01*
X140423475Y-82215804D01*
X140577744Y-82294408D01*
X140742415Y-82347914D01*
X140742414Y-82347914D01*
X140749999Y-82349115D01*
X140750000Y-82349114D01*
X140750000Y-81280330D01*
X140769745Y-81300075D01*
X140855255Y-81349444D01*
X140950630Y-81375000D01*
X141049370Y-81375000D01*
X141144745Y-81349444D01*
X141230255Y-81300075D01*
X141250000Y-81280330D01*
X141250000Y-82349115D01*
X141257584Y-82347914D01*
X141422255Y-82294408D01*
X141576524Y-82215804D01*
X141716598Y-82114035D01*
X141824199Y-82006434D01*
X141885522Y-81972949D01*
X141955214Y-81977933D01*
X142011148Y-82019804D01*
X142017418Y-82029016D01*
X142057288Y-82093656D01*
X142181344Y-82217712D01*
X142330666Y-82309814D01*
X142497203Y-82364999D01*
X142599991Y-82375500D01*
X143400008Y-82375499D01*
X143400016Y-82375498D01*
X143400019Y-82375498D01*
X143456302Y-82369748D01*
X143502797Y-82364999D01*
X143669334Y-82309814D01*
X143818656Y-82217712D01*
X143942712Y-82093656D01*
X144034814Y-81944334D01*
X144089999Y-81777797D01*
X144100500Y-81675009D01*
X144100499Y-80688389D01*
X148899500Y-80688389D01*
X148899500Y-81411611D01*
X148926598Y-81582701D01*
X148980127Y-81747445D01*
X149058768Y-81901788D01*
X149160586Y-82041928D01*
X149283072Y-82164414D01*
X149423212Y-82266232D01*
X149577555Y-82344873D01*
X149742299Y-82398402D01*
X149913389Y-82425500D01*
X149913390Y-82425500D01*
X150086610Y-82425500D01*
X150086611Y-82425500D01*
X150257701Y-82398402D01*
X150422445Y-82344873D01*
X150576788Y-82266232D01*
X150716928Y-82164414D01*
X150824472Y-82056869D01*
X150885791Y-82023387D01*
X150955483Y-82028371D01*
X151011417Y-82070242D01*
X151017688Y-82079456D01*
X151057285Y-82143652D01*
X151057288Y-82143656D01*
X151181344Y-82267712D01*
X151330666Y-82359814D01*
X151497203Y-82414999D01*
X151599991Y-82425500D01*
X152400008Y-82425499D01*
X152400016Y-82425498D01*
X152400019Y-82425498D01*
X152456302Y-82419748D01*
X152502797Y-82414999D01*
X152669334Y-82359814D01*
X152818656Y-82267712D01*
X152942712Y-82143656D01*
X153034814Y-81994334D01*
X153089999Y-81827797D01*
X153100500Y-81725009D01*
X153100499Y-80374992D01*
X153095391Y-80324992D01*
X153089999Y-80272203D01*
X153089998Y-80272200D01*
X153089181Y-80269735D01*
X153034814Y-80105666D01*
X152942712Y-79956344D01*
X152818656Y-79832288D01*
X152693559Y-79755128D01*
X152669336Y-79740187D01*
X152669331Y-79740185D01*
X152649124Y-79733489D01*
X152502797Y-79685001D01*
X152502795Y-79685000D01*
X152400010Y-79674500D01*
X151599998Y-79674500D01*
X151599980Y-79674501D01*
X151497203Y-79685000D01*
X151497200Y-79685001D01*
X151330668Y-79740185D01*
X151330663Y-79740187D01*
X151181342Y-79832289D01*
X151057287Y-79956344D01*
X151017688Y-80020544D01*
X150965739Y-80067268D01*
X150896777Y-80078489D01*
X150832695Y-80050645D01*
X150824469Y-80043127D01*
X150716930Y-79935588D01*
X150716928Y-79935586D01*
X150576788Y-79833768D01*
X150422445Y-79755127D01*
X150257701Y-79701598D01*
X150257699Y-79701597D01*
X150257698Y-79701597D01*
X150126271Y-79680781D01*
X150086611Y-79674500D01*
X149913389Y-79674500D01*
X149873728Y-79680781D01*
X149742302Y-79701597D01*
X149577552Y-79755128D01*
X149423211Y-79833768D01*
X149360719Y-79879172D01*
X149283072Y-79935586D01*
X149283070Y-79935588D01*
X149283069Y-79935588D01*
X149160588Y-80058069D01*
X149160588Y-80058070D01*
X149160586Y-80058072D01*
X149153905Y-80067268D01*
X149058768Y-80198211D01*
X148980128Y-80352552D01*
X148926597Y-80517302D01*
X148909540Y-80625000D01*
X148899500Y-80688389D01*
X144100499Y-80688389D01*
X144100499Y-80324992D01*
X144089999Y-80222203D01*
X144034814Y-80055666D01*
X143942712Y-79906344D01*
X143818656Y-79782288D01*
X143687836Y-79701598D01*
X143669336Y-79690187D01*
X143669331Y-79690185D01*
X143653684Y-79685000D01*
X143502797Y-79635001D01*
X143502795Y-79635000D01*
X143400010Y-79624500D01*
X142599998Y-79624500D01*
X142599980Y-79624501D01*
X142497203Y-79635000D01*
X142497200Y-79635001D01*
X142330668Y-79690185D01*
X142330663Y-79690187D01*
X142181342Y-79782289D01*
X142057289Y-79906342D01*
X142017420Y-79970981D01*
X141965472Y-80017705D01*
X141896509Y-80028928D01*
X141832427Y-80001084D01*
X141824200Y-79993565D01*
X141716602Y-79885967D01*
X141576524Y-79784195D01*
X141422257Y-79705591D01*
X141257589Y-79652087D01*
X141257581Y-79652085D01*
X141250000Y-79650884D01*
X141250000Y-80719670D01*
X141230255Y-80699925D01*
X141144745Y-80650556D01*
X141049370Y-80625000D01*
X140950630Y-80625000D01*
X140855255Y-80650556D01*
X140769745Y-80699925D01*
X140750000Y-80719670D01*
X140750000Y-79650884D01*
X140749999Y-79650884D01*
X140742418Y-79652085D01*
X140742410Y-79652087D01*
X140577742Y-79705591D01*
X140423475Y-79784195D01*
X140283397Y-79885967D01*
X140160967Y-80008397D01*
X140059195Y-80148475D01*
X139980591Y-80302742D01*
X139927085Y-80467415D01*
X139900000Y-80638428D01*
X131500500Y-80638428D01*
X131500500Y-79421153D01*
X161945500Y-79421153D01*
X161945500Y-79578846D01*
X161976261Y-79733489D01*
X161976264Y-79733501D01*
X162036602Y-79879172D01*
X162036609Y-79879185D01*
X162124210Y-80010288D01*
X162124213Y-80010292D01*
X162235707Y-80121786D01*
X162235711Y-80121789D01*
X162366814Y-80209390D01*
X162366827Y-80209397D01*
X162512498Y-80269735D01*
X162512503Y-80269737D01*
X162667153Y-80300499D01*
X162667156Y-80300500D01*
X162667158Y-80300500D01*
X162824844Y-80300500D01*
X162824845Y-80300499D01*
X162979497Y-80269737D01*
X163125179Y-80209394D01*
X163256289Y-80121789D01*
X163367789Y-80010289D01*
X163455394Y-79879179D01*
X163515737Y-79733497D01*
X163546500Y-79578842D01*
X163546500Y-79421158D01*
X163546500Y-79421155D01*
X163546499Y-79421153D01*
X166899500Y-79421153D01*
X166899500Y-79578846D01*
X166930261Y-79733489D01*
X166930264Y-79733501D01*
X166990602Y-79879172D01*
X166990609Y-79879185D01*
X167078210Y-80010288D01*
X167078213Y-80010292D01*
X167189707Y-80121786D01*
X167189711Y-80121789D01*
X167320814Y-80209390D01*
X167320827Y-80209397D01*
X167466498Y-80269735D01*
X167466503Y-80269737D01*
X167621153Y-80300499D01*
X167621156Y-80300500D01*
X167621158Y-80300500D01*
X167778844Y-80300500D01*
X167778845Y-80300499D01*
X167933497Y-80269737D01*
X168079179Y-80209394D01*
X168210289Y-80121789D01*
X168321789Y-80010289D01*
X168409394Y-79879179D01*
X168469737Y-79733497D01*
X168500500Y-79578842D01*
X168500500Y-79421158D01*
X168500500Y-79421155D01*
X168500499Y-79421153D01*
X168469738Y-79266510D01*
X168469737Y-79266503D01*
X168469735Y-79266498D01*
X168409397Y-79120827D01*
X168409390Y-79120814D01*
X168321789Y-78989711D01*
X168321786Y-78989707D01*
X168210292Y-78878213D01*
X168210288Y-78878210D01*
X168079185Y-78790609D01*
X168079172Y-78790602D01*
X167933501Y-78730264D01*
X167933489Y-78730261D01*
X167778845Y-78699500D01*
X167778842Y-78699500D01*
X167621158Y-78699500D01*
X167621155Y-78699500D01*
X167466510Y-78730261D01*
X167466498Y-78730264D01*
X167320827Y-78790602D01*
X167320814Y-78790609D01*
X167189711Y-78878210D01*
X167189707Y-78878213D01*
X167078213Y-78989707D01*
X167078210Y-78989711D01*
X166990609Y-79120814D01*
X166990602Y-79120827D01*
X166930264Y-79266498D01*
X166930261Y-79266510D01*
X166899500Y-79421153D01*
X163546499Y-79421153D01*
X163515738Y-79266510D01*
X163515737Y-79266503D01*
X163515735Y-79266498D01*
X163455397Y-79120827D01*
X163455390Y-79120814D01*
X163367789Y-78989711D01*
X163367786Y-78989707D01*
X163256292Y-78878213D01*
X163256288Y-78878210D01*
X163125185Y-78790609D01*
X163125172Y-78790602D01*
X162979501Y-78730264D01*
X162979489Y-78730261D01*
X162824845Y-78699500D01*
X162824842Y-78699500D01*
X162667158Y-78699500D01*
X162667155Y-78699500D01*
X162512510Y-78730261D01*
X162512498Y-78730264D01*
X162366827Y-78790602D01*
X162366814Y-78790609D01*
X162235711Y-78878210D01*
X162235707Y-78878213D01*
X162124213Y-78989707D01*
X162124210Y-78989711D01*
X162036609Y-79120814D01*
X162036602Y-79120827D01*
X161976264Y-79266498D01*
X161976261Y-79266510D01*
X161945500Y-79421153D01*
X131500500Y-79421153D01*
X131500500Y-78621150D01*
X183199500Y-78621150D01*
X183199500Y-78778843D01*
X183230261Y-78933486D01*
X183230264Y-78933498D01*
X183279575Y-79052546D01*
X183287044Y-79122015D01*
X183279575Y-79147450D01*
X183230264Y-79266498D01*
X183230261Y-79266510D01*
X183199500Y-79421153D01*
X183199500Y-79578846D01*
X183230261Y-79733489D01*
X183230264Y-79733501D01*
X183290602Y-79879172D01*
X183290609Y-79879185D01*
X183378210Y-80010288D01*
X183378213Y-80010292D01*
X183489707Y-80121786D01*
X183489711Y-80121789D01*
X183620814Y-80209390D01*
X183620827Y-80209397D01*
X183766498Y-80269735D01*
X183766503Y-80269737D01*
X183921153Y-80300499D01*
X183921156Y-80300500D01*
X183921158Y-80300500D01*
X184078844Y-80300500D01*
X184078845Y-80300499D01*
X184233497Y-80269737D01*
X184379179Y-80209394D01*
X184510289Y-80121789D01*
X184621789Y-80010289D01*
X184709394Y-79879179D01*
X184769737Y-79733497D01*
X184800500Y-79578842D01*
X184800500Y-79421158D01*
X184800500Y-79421155D01*
X184800499Y-79421153D01*
X184769738Y-79266510D01*
X184769737Y-79266503D01*
X184720423Y-79147449D01*
X184712955Y-79077981D01*
X184720424Y-79052546D01*
X184769737Y-78933494D01*
X184800500Y-78778839D01*
X184800500Y-78621155D01*
X184800500Y-78621152D01*
X184800499Y-78621150D01*
X184769738Y-78466507D01*
X184769737Y-78466500D01*
X184769735Y-78466495D01*
X184709397Y-78320824D01*
X184709390Y-78320811D01*
X184621789Y-78189708D01*
X184621786Y-78189704D01*
X184510292Y-78078210D01*
X184510288Y-78078207D01*
X184379185Y-77990606D01*
X184379172Y-77990599D01*
X184233501Y-77930261D01*
X184233489Y-77930258D01*
X184078845Y-77899497D01*
X184078842Y-77899497D01*
X183921158Y-77899497D01*
X183921155Y-77899497D01*
X183766510Y-77930258D01*
X183766498Y-77930261D01*
X183620827Y-77990599D01*
X183620814Y-77990606D01*
X183489711Y-78078207D01*
X183489707Y-78078210D01*
X183378213Y-78189704D01*
X183378210Y-78189708D01*
X183290609Y-78320811D01*
X183290602Y-78320824D01*
X183230264Y-78466495D01*
X183230261Y-78466507D01*
X183199500Y-78621150D01*
X131500500Y-78621150D01*
X131500500Y-76421153D01*
X182199500Y-76421153D01*
X182199500Y-76578846D01*
X182230261Y-76733489D01*
X182230264Y-76733501D01*
X182290602Y-76879172D01*
X182290609Y-76879185D01*
X182378210Y-77010288D01*
X182378213Y-77010292D01*
X182489707Y-77121786D01*
X182489711Y-77121789D01*
X182620814Y-77209390D01*
X182620827Y-77209397D01*
X182766498Y-77269735D01*
X182766503Y-77269737D01*
X182921153Y-77300499D01*
X182921156Y-77300500D01*
X182921158Y-77300500D01*
X183078844Y-77300500D01*
X183078845Y-77300499D01*
X183233497Y-77269737D01*
X183379179Y-77209394D01*
X183510289Y-77121789D01*
X183621789Y-77010289D01*
X183709394Y-76879179D01*
X183769737Y-76733497D01*
X183800500Y-76578842D01*
X183800500Y-76421158D01*
X183800500Y-76421155D01*
X183800499Y-76421153D01*
X183769738Y-76266510D01*
X183769737Y-76266503D01*
X183746080Y-76209390D01*
X183709397Y-76120827D01*
X183709390Y-76120814D01*
X183621789Y-75989711D01*
X183621786Y-75989707D01*
X183510292Y-75878213D01*
X183510288Y-75878210D01*
X183379185Y-75790609D01*
X183379172Y-75790602D01*
X183233501Y-75730264D01*
X183233489Y-75730261D01*
X183078845Y-75699500D01*
X183078842Y-75699500D01*
X182921158Y-75699500D01*
X182921155Y-75699500D01*
X182766510Y-75730261D01*
X182766498Y-75730264D01*
X182620827Y-75790602D01*
X182620814Y-75790609D01*
X182489711Y-75878210D01*
X182489707Y-75878213D01*
X182378213Y-75989707D01*
X182378210Y-75989711D01*
X182290609Y-76120814D01*
X182290602Y-76120827D01*
X182230264Y-76266498D01*
X182230261Y-76266510D01*
X182199500Y-76421153D01*
X131500500Y-76421153D01*
X131500500Y-71421153D01*
X149699500Y-71421153D01*
X149699500Y-71578846D01*
X149730261Y-71733489D01*
X149730264Y-71733501D01*
X149790602Y-71879172D01*
X149790609Y-71879185D01*
X149825304Y-71931109D01*
X149846182Y-71997786D01*
X149827698Y-72065167D01*
X149825304Y-72068891D01*
X149790609Y-72120814D01*
X149790602Y-72120827D01*
X149730264Y-72266498D01*
X149730261Y-72266510D01*
X149699500Y-72421153D01*
X149699500Y-72578846D01*
X149730261Y-72733489D01*
X149730264Y-72733501D01*
X149790602Y-72879172D01*
X149790609Y-72879185D01*
X149825304Y-72931109D01*
X149846182Y-72997786D01*
X149827698Y-73065167D01*
X149825304Y-73068891D01*
X149790609Y-73120814D01*
X149790602Y-73120827D01*
X149730264Y-73266498D01*
X149730261Y-73266510D01*
X149699500Y-73421153D01*
X149699500Y-73578846D01*
X149730261Y-73733489D01*
X149730264Y-73733501D01*
X149790602Y-73879172D01*
X149790609Y-73879185D01*
X149825304Y-73931109D01*
X149846182Y-73997786D01*
X149827698Y-74065167D01*
X149825304Y-74068891D01*
X149790609Y-74120814D01*
X149790602Y-74120827D01*
X149730264Y-74266498D01*
X149730261Y-74266510D01*
X149699500Y-74421153D01*
X149699500Y-74578846D01*
X149730261Y-74733489D01*
X149730264Y-74733501D01*
X149790602Y-74879172D01*
X149790609Y-74879185D01*
X149825304Y-74931109D01*
X149846182Y-74997786D01*
X149827698Y-75065167D01*
X149825304Y-75068891D01*
X149790609Y-75120814D01*
X149790602Y-75120827D01*
X149730264Y-75266498D01*
X149730261Y-75266510D01*
X149699500Y-75421153D01*
X149699500Y-75578846D01*
X149730261Y-75733489D01*
X149730264Y-75733501D01*
X149790602Y-75879172D01*
X149790609Y-75879185D01*
X149878210Y-76010288D01*
X149878213Y-76010292D01*
X149989707Y-76121786D01*
X149989711Y-76121789D01*
X150120814Y-76209390D01*
X150120827Y-76209397D01*
X150258683Y-76266498D01*
X150266503Y-76269737D01*
X150421153Y-76300499D01*
X150421156Y-76300500D01*
X150421158Y-76300500D01*
X150578844Y-76300500D01*
X150578845Y-76300499D01*
X150733497Y-76269737D01*
X150879179Y-76209394D01*
X150931110Y-76174694D01*
X150997785Y-76153816D01*
X151065165Y-76172300D01*
X151068863Y-76174676D01*
X151120821Y-76209394D01*
X151120823Y-76209395D01*
X151120825Y-76209396D01*
X151258683Y-76266498D01*
X151266503Y-76269737D01*
X151421153Y-76300499D01*
X151421156Y-76300500D01*
X151421158Y-76300500D01*
X151578844Y-76300500D01*
X151578845Y-76300499D01*
X151733497Y-76269737D01*
X151879179Y-76209394D01*
X152010289Y-76121789D01*
X152121789Y-76010289D01*
X152209394Y-75879179D01*
X152269737Y-75733497D01*
X152300500Y-75578842D01*
X152300500Y-75421158D01*
X152300500Y-75421155D01*
X152300499Y-75421153D01*
X152269738Y-75266510D01*
X152269737Y-75266503D01*
X152269735Y-75266498D01*
X152209396Y-75120825D01*
X152209394Y-75120822D01*
X152209394Y-75120821D01*
X152174694Y-75068889D01*
X152153816Y-75002215D01*
X152172300Y-74934835D01*
X152174676Y-74931136D01*
X152209394Y-74879179D01*
X152269737Y-74733497D01*
X152300500Y-74578842D01*
X152300500Y-74421158D01*
X152300500Y-74421155D01*
X152300499Y-74421153D01*
X152269738Y-74266510D01*
X152269737Y-74266503D01*
X152256062Y-74233489D01*
X152209396Y-74120825D01*
X152209394Y-74120822D01*
X152209394Y-74120821D01*
X152174694Y-74068889D01*
X152153816Y-74002215D01*
X152172300Y-73934835D01*
X152174676Y-73931136D01*
X152209394Y-73879179D01*
X152269737Y-73733497D01*
X152300500Y-73578842D01*
X152300500Y-73421158D01*
X152300500Y-73421155D01*
X152300499Y-73421153D01*
X152274531Y-73290606D01*
X152269737Y-73266503D01*
X152269735Y-73266498D01*
X152209396Y-73120825D01*
X152209394Y-73120822D01*
X152209394Y-73120821D01*
X152174694Y-73068889D01*
X152153816Y-73002215D01*
X152172300Y-72934835D01*
X152174676Y-72931136D01*
X152209394Y-72879179D01*
X152269737Y-72733497D01*
X152300500Y-72578842D01*
X152300500Y-72421158D01*
X152300500Y-72421155D01*
X152300499Y-72421153D01*
X152282419Y-72330261D01*
X152269737Y-72266503D01*
X152269735Y-72266498D01*
X152209396Y-72120825D01*
X152209394Y-72120822D01*
X152209394Y-72120821D01*
X152174694Y-72068889D01*
X152153816Y-72002215D01*
X152172300Y-71934835D01*
X152174676Y-71931136D01*
X152209394Y-71879179D01*
X152269737Y-71733497D01*
X152300500Y-71578842D01*
X152300500Y-71421158D01*
X152300500Y-71421155D01*
X152300499Y-71421153D01*
X156699500Y-71421153D01*
X156699500Y-71578846D01*
X156730261Y-71733489D01*
X156730264Y-71733501D01*
X156790602Y-71879172D01*
X156790609Y-71879185D01*
X156825304Y-71931109D01*
X156846182Y-71997786D01*
X156827698Y-72065167D01*
X156825304Y-72068891D01*
X156790609Y-72120814D01*
X156790602Y-72120827D01*
X156730264Y-72266498D01*
X156730261Y-72266510D01*
X156699500Y-72421153D01*
X156699500Y-72578846D01*
X156730261Y-72733489D01*
X156730264Y-72733501D01*
X156790602Y-72879172D01*
X156790609Y-72879185D01*
X156825304Y-72931109D01*
X156846182Y-72997786D01*
X156827698Y-73065167D01*
X156825304Y-73068891D01*
X156790609Y-73120814D01*
X156790602Y-73120827D01*
X156730264Y-73266498D01*
X156730261Y-73266510D01*
X156699500Y-73421153D01*
X156699500Y-73578846D01*
X156730261Y-73733489D01*
X156730264Y-73733501D01*
X156790602Y-73879172D01*
X156790609Y-73879185D01*
X156825304Y-73931109D01*
X156846182Y-73997786D01*
X156827698Y-74065167D01*
X156825304Y-74068891D01*
X156790609Y-74120814D01*
X156790602Y-74120827D01*
X156730264Y-74266498D01*
X156730261Y-74266510D01*
X156699500Y-74421153D01*
X156699500Y-74578846D01*
X156730261Y-74733489D01*
X156730264Y-74733501D01*
X156790602Y-74879172D01*
X156790609Y-74879185D01*
X156825304Y-74931109D01*
X156846182Y-74997786D01*
X156827698Y-75065167D01*
X156825304Y-75068891D01*
X156790609Y-75120814D01*
X156790602Y-75120827D01*
X156730264Y-75266498D01*
X156730261Y-75266510D01*
X156699500Y-75421153D01*
X156699500Y-75578846D01*
X156730261Y-75733489D01*
X156730264Y-75733501D01*
X156790602Y-75879172D01*
X156790609Y-75879185D01*
X156878210Y-76010288D01*
X156878213Y-76010292D01*
X156989707Y-76121786D01*
X156989711Y-76121789D01*
X157120814Y-76209390D01*
X157120827Y-76209397D01*
X157258683Y-76266498D01*
X157266503Y-76269737D01*
X157421153Y-76300499D01*
X157421156Y-76300500D01*
X157421158Y-76300500D01*
X157578844Y-76300500D01*
X157578845Y-76300499D01*
X157733497Y-76269737D01*
X157879179Y-76209394D01*
X157931110Y-76174694D01*
X157997785Y-76153816D01*
X158065165Y-76172300D01*
X158068863Y-76174676D01*
X158120821Y-76209394D01*
X158120823Y-76209395D01*
X158120825Y-76209396D01*
X158258683Y-76266498D01*
X158266503Y-76269737D01*
X158421153Y-76300499D01*
X158421156Y-76300500D01*
X158421158Y-76300500D01*
X158578844Y-76300500D01*
X158578845Y-76300499D01*
X158589179Y-76298443D01*
X158614287Y-76293450D01*
X158614292Y-76293449D01*
X158699800Y-76276439D01*
X158733497Y-76269737D01*
X158879179Y-76209394D01*
X159010289Y-76121789D01*
X159121789Y-76010289D01*
X159209394Y-75879179D01*
X159269737Y-75733497D01*
X159300500Y-75578842D01*
X159300500Y-75421158D01*
X159300500Y-75421155D01*
X159300499Y-75421153D01*
X159269738Y-75266510D01*
X159269737Y-75266503D01*
X159269735Y-75266498D01*
X159209396Y-75120825D01*
X159209394Y-75120822D01*
X159209394Y-75120821D01*
X159174694Y-75068889D01*
X159153816Y-75002215D01*
X159172300Y-74934835D01*
X159174676Y-74931136D01*
X159209394Y-74879179D01*
X159269737Y-74733497D01*
X159300500Y-74578842D01*
X159300500Y-74421158D01*
X159300500Y-74421155D01*
X159300499Y-74421153D01*
X159269738Y-74266510D01*
X159269737Y-74266503D01*
X159256062Y-74233489D01*
X159209396Y-74120825D01*
X159209394Y-74120822D01*
X159209394Y-74120821D01*
X159174694Y-74068889D01*
X159153816Y-74002215D01*
X159172300Y-73934835D01*
X159174676Y-73931136D01*
X159209394Y-73879179D01*
X159269737Y-73733497D01*
X159300500Y-73578842D01*
X159300500Y-73421158D01*
X159300500Y-73421155D01*
X159300499Y-73421153D01*
X159274531Y-73290606D01*
X159269737Y-73266503D01*
X159269735Y-73266498D01*
X159209396Y-73120825D01*
X159209394Y-73120822D01*
X159209394Y-73120821D01*
X159174692Y-73068887D01*
X159159746Y-73021153D01*
X174599500Y-73021153D01*
X174599500Y-73178846D01*
X174630261Y-73333489D01*
X174630264Y-73333501D01*
X174690602Y-73479172D01*
X174690609Y-73479185D01*
X174778210Y-73610288D01*
X174778213Y-73610292D01*
X174889707Y-73721786D01*
X174889711Y-73721789D01*
X175020814Y-73809390D01*
X175020827Y-73809397D01*
X175166498Y-73869735D01*
X175166503Y-73869737D01*
X175321153Y-73900499D01*
X175321156Y-73900500D01*
X175321158Y-73900500D01*
X175478844Y-73900500D01*
X175478845Y-73900499D01*
X175633497Y-73869737D01*
X175779179Y-73809394D01*
X175910289Y-73721789D01*
X176021789Y-73610289D01*
X176109394Y-73479179D01*
X176169737Y-73333497D01*
X176200500Y-73178842D01*
X176200500Y-73021158D01*
X176200500Y-73021155D01*
X176200499Y-73021153D01*
X177199500Y-73021153D01*
X177199500Y-73178846D01*
X177230261Y-73333489D01*
X177230264Y-73333501D01*
X177290602Y-73479172D01*
X177290609Y-73479185D01*
X177378210Y-73610288D01*
X177378213Y-73610292D01*
X177489707Y-73721786D01*
X177489711Y-73721789D01*
X177620814Y-73809390D01*
X177620827Y-73809397D01*
X177766498Y-73869735D01*
X177766503Y-73869737D01*
X177921153Y-73900499D01*
X177921156Y-73900500D01*
X178075500Y-73900500D01*
X178142539Y-73920185D01*
X178188294Y-73972989D01*
X178199500Y-74024500D01*
X178199500Y-74078846D01*
X178230261Y-74233489D01*
X178230264Y-74233501D01*
X178290602Y-74379172D01*
X178290609Y-74379185D01*
X178378210Y-74510288D01*
X178378213Y-74510292D01*
X178489707Y-74621786D01*
X178489711Y-74621789D01*
X178620814Y-74709390D01*
X178620827Y-74709397D01*
X178766498Y-74769735D01*
X178766503Y-74769737D01*
X178921153Y-74800499D01*
X178921156Y-74800500D01*
X178921158Y-74800500D01*
X179078844Y-74800500D01*
X179078845Y-74800499D01*
X179233497Y-74769737D01*
X179379179Y-74709394D01*
X179510289Y-74621789D01*
X179621789Y-74510289D01*
X179709394Y-74379179D01*
X179769737Y-74233497D01*
X179800500Y-74078842D01*
X179800500Y-73921158D01*
X179800500Y-73921155D01*
X179800499Y-73921153D01*
X179778269Y-73809397D01*
X179769737Y-73766503D01*
X179751215Y-73721786D01*
X179709397Y-73620827D01*
X179709390Y-73620814D01*
X179621789Y-73489711D01*
X179621786Y-73489707D01*
X179510292Y-73378213D01*
X179510288Y-73378210D01*
X179379185Y-73290609D01*
X179379172Y-73290602D01*
X179233501Y-73230264D01*
X179233489Y-73230261D01*
X179078845Y-73199500D01*
X179078842Y-73199500D01*
X178924500Y-73199500D01*
X178857461Y-73179815D01*
X178811706Y-73127011D01*
X178800500Y-73075500D01*
X178800500Y-73021155D01*
X178800499Y-73021153D01*
X178782588Y-72931108D01*
X178769737Y-72866503D01*
X178769735Y-72866498D01*
X178709397Y-72720827D01*
X178709390Y-72720814D01*
X178621789Y-72589711D01*
X178621786Y-72589707D01*
X178510292Y-72478213D01*
X178510288Y-72478210D01*
X178379185Y-72390609D01*
X178379172Y-72390602D01*
X178233501Y-72330264D01*
X178233489Y-72330261D01*
X178078845Y-72299500D01*
X178078842Y-72299500D01*
X177921158Y-72299500D01*
X177921155Y-72299500D01*
X177766510Y-72330261D01*
X177766498Y-72330264D01*
X177620827Y-72390602D01*
X177620814Y-72390609D01*
X177489711Y-72478210D01*
X177489707Y-72478213D01*
X177378213Y-72589707D01*
X177378210Y-72589711D01*
X177290609Y-72720814D01*
X177290602Y-72720827D01*
X177230264Y-72866498D01*
X177230261Y-72866510D01*
X177199500Y-73021153D01*
X176200499Y-73021153D01*
X176182588Y-72931108D01*
X176169737Y-72866503D01*
X176169735Y-72866498D01*
X176109397Y-72720827D01*
X176109390Y-72720814D01*
X176021789Y-72589711D01*
X176021786Y-72589707D01*
X175910292Y-72478213D01*
X175910288Y-72478210D01*
X175779185Y-72390609D01*
X175779172Y-72390602D01*
X175633501Y-72330264D01*
X175633489Y-72330261D01*
X175478845Y-72299500D01*
X175478842Y-72299500D01*
X175321158Y-72299500D01*
X175321155Y-72299500D01*
X175166510Y-72330261D01*
X175166498Y-72330264D01*
X175020827Y-72390602D01*
X175020814Y-72390609D01*
X174889711Y-72478210D01*
X174889707Y-72478213D01*
X174778213Y-72589707D01*
X174778210Y-72589711D01*
X174690609Y-72720814D01*
X174690602Y-72720827D01*
X174630264Y-72866498D01*
X174630261Y-72866510D01*
X174599500Y-73021153D01*
X159159746Y-73021153D01*
X159153816Y-73002215D01*
X159172300Y-72934834D01*
X159174676Y-72931136D01*
X159209394Y-72879179D01*
X159269737Y-72733497D01*
X159300500Y-72578842D01*
X159300500Y-72421158D01*
X159300500Y-72421155D01*
X159300499Y-72421153D01*
X159282419Y-72330261D01*
X159269737Y-72266503D01*
X159269735Y-72266498D01*
X159209396Y-72120825D01*
X159209394Y-72120822D01*
X159209394Y-72120821D01*
X159174694Y-72068889D01*
X159153816Y-72002215D01*
X159172300Y-71934835D01*
X159174676Y-71931136D01*
X159209394Y-71879179D01*
X159269737Y-71733497D01*
X159300500Y-71578842D01*
X159300500Y-71421158D01*
X159300500Y-71421155D01*
X159300499Y-71421153D01*
X159269738Y-71266510D01*
X159269737Y-71266503D01*
X159269735Y-71266498D01*
X159209397Y-71120827D01*
X159209390Y-71120814D01*
X159121789Y-70989711D01*
X159121786Y-70989707D01*
X159010292Y-70878213D01*
X159010288Y-70878210D01*
X158879185Y-70790609D01*
X158879172Y-70790602D01*
X158733501Y-70730264D01*
X158733489Y-70730261D01*
X158578845Y-70699500D01*
X158578842Y-70699500D01*
X158421158Y-70699500D01*
X158421155Y-70699500D01*
X158266510Y-70730261D01*
X158266498Y-70730264D01*
X158120827Y-70790602D01*
X158120814Y-70790609D01*
X158068891Y-70825304D01*
X158002214Y-70846182D01*
X157934833Y-70827698D01*
X157931109Y-70825304D01*
X157879185Y-70790609D01*
X157879172Y-70790602D01*
X157733501Y-70730264D01*
X157733489Y-70730261D01*
X157578845Y-70699500D01*
X157578842Y-70699500D01*
X157421158Y-70699500D01*
X157421155Y-70699500D01*
X157266510Y-70730261D01*
X157266498Y-70730264D01*
X157120827Y-70790602D01*
X157120814Y-70790609D01*
X156989711Y-70878210D01*
X156989707Y-70878213D01*
X156878213Y-70989707D01*
X156878210Y-70989711D01*
X156790609Y-71120814D01*
X156790602Y-71120827D01*
X156730264Y-71266498D01*
X156730261Y-71266510D01*
X156699500Y-71421153D01*
X152300499Y-71421153D01*
X152269738Y-71266510D01*
X152269737Y-71266503D01*
X152269735Y-71266498D01*
X152209397Y-71120827D01*
X152209390Y-71120814D01*
X152121789Y-70989711D01*
X152121786Y-70989707D01*
X152010292Y-70878213D01*
X152010288Y-70878210D01*
X151879185Y-70790609D01*
X151879172Y-70790602D01*
X151733501Y-70730264D01*
X151733489Y-70730261D01*
X151578845Y-70699500D01*
X151578842Y-70699500D01*
X151421158Y-70699500D01*
X151421155Y-70699500D01*
X151266510Y-70730261D01*
X151266498Y-70730264D01*
X151120827Y-70790602D01*
X151120814Y-70790609D01*
X151068891Y-70825304D01*
X151002214Y-70846182D01*
X150934833Y-70827698D01*
X150931109Y-70825304D01*
X150879185Y-70790609D01*
X150879172Y-70790602D01*
X150733501Y-70730264D01*
X150733489Y-70730261D01*
X150578845Y-70699500D01*
X150578842Y-70699500D01*
X150421158Y-70699500D01*
X150421155Y-70699500D01*
X150266510Y-70730261D01*
X150266498Y-70730264D01*
X150120827Y-70790602D01*
X150120814Y-70790609D01*
X149989711Y-70878210D01*
X149989707Y-70878213D01*
X149878213Y-70989707D01*
X149878210Y-70989711D01*
X149790609Y-71120814D01*
X149790602Y-71120827D01*
X149730264Y-71266498D01*
X149730261Y-71266510D01*
X149699500Y-71421153D01*
X131500500Y-71421153D01*
X131500500Y-64913389D01*
X136574500Y-64913389D01*
X136574500Y-65086611D01*
X136601598Y-65257701D01*
X136655127Y-65422445D01*
X136733768Y-65576788D01*
X136835586Y-65716928D01*
X136835588Y-65716930D01*
X136943127Y-65824469D01*
X136976612Y-65885792D01*
X136971628Y-65955484D01*
X136929756Y-66011417D01*
X136920544Y-66017688D01*
X136856344Y-66057287D01*
X136732289Y-66181342D01*
X136640187Y-66330663D01*
X136640186Y-66330666D01*
X136585001Y-66497203D01*
X136585001Y-66497204D01*
X136585000Y-66497204D01*
X136574500Y-66599983D01*
X136574500Y-67400001D01*
X136574501Y-67400019D01*
X136585000Y-67502796D01*
X136585001Y-67502799D01*
X136610201Y-67578846D01*
X136640186Y-67669334D01*
X136732288Y-67818656D01*
X136856344Y-67942712D01*
X137005666Y-68034814D01*
X137172203Y-68089999D01*
X137274991Y-68100500D01*
X138625008Y-68100499D01*
X138727797Y-68089999D01*
X138894334Y-68034814D01*
X139043656Y-67942712D01*
X139167712Y-67818656D01*
X139259814Y-67669334D01*
X139314999Y-67502797D01*
X139325500Y-67400009D01*
X139325499Y-66599992D01*
X139314999Y-66497203D01*
X139259814Y-66330666D01*
X139167712Y-66181344D01*
X139043656Y-66057288D01*
X139043652Y-66057285D01*
X138979456Y-66017688D01*
X138932731Y-65965740D01*
X138921510Y-65896777D01*
X138949353Y-65832695D01*
X138956850Y-65824491D01*
X139064414Y-65716928D01*
X139166232Y-65576788D01*
X139244873Y-65422445D01*
X139298402Y-65257701D01*
X139325500Y-65086611D01*
X139325500Y-64913389D01*
X139298402Y-64742299D01*
X139244873Y-64577555D01*
X139166232Y-64423212D01*
X139064414Y-64283072D01*
X138941928Y-64160586D01*
X138858550Y-64100008D01*
X138815885Y-64044677D01*
X138809906Y-63975064D01*
X138842512Y-63913269D01*
X138858552Y-63899371D01*
X138941598Y-63839036D01*
X139064032Y-63716602D01*
X139165804Y-63576524D01*
X139244408Y-63422255D01*
X139297914Y-63257584D01*
X139299115Y-63250000D01*
X138230330Y-63250000D01*
X138250075Y-63230255D01*
X138299444Y-63144745D01*
X138325000Y-63049370D01*
X138325000Y-62950630D01*
X138299444Y-62855255D01*
X138250075Y-62769745D01*
X138230330Y-62750000D01*
X139299115Y-62750000D01*
X139299115Y-62749999D01*
X139297914Y-62742415D01*
X139244408Y-62577744D01*
X139165804Y-62423475D01*
X139064032Y-62283397D01*
X138941602Y-62160967D01*
X138801524Y-62059195D01*
X138647257Y-61980591D01*
X138482584Y-61927085D01*
X138311571Y-61900000D01*
X138200000Y-61900000D01*
X138200000Y-62719670D01*
X138180255Y-62699925D01*
X138094745Y-62650556D01*
X137999370Y-62625000D01*
X137900630Y-62625000D01*
X137805255Y-62650556D01*
X137719745Y-62699925D01*
X137700000Y-62719670D01*
X137700000Y-61900000D01*
X137588429Y-61900000D01*
X137417415Y-61927085D01*
X137252742Y-61980591D01*
X137098475Y-62059195D01*
X136958397Y-62160967D01*
X136835967Y-62283397D01*
X136734195Y-62423475D01*
X136655591Y-62577744D01*
X136602085Y-62742415D01*
X136600884Y-62749999D01*
X136600885Y-62750000D01*
X137669670Y-62750000D01*
X137649925Y-62769745D01*
X137600556Y-62855255D01*
X137575000Y-62950630D01*
X137575000Y-63049370D01*
X137600556Y-63144745D01*
X137649925Y-63230255D01*
X137669670Y-63250000D01*
X136600885Y-63250000D01*
X136602085Y-63257584D01*
X136655591Y-63422255D01*
X136734195Y-63576524D01*
X136835967Y-63716602D01*
X136958401Y-63839036D01*
X137041447Y-63899371D01*
X137084114Y-63954701D01*
X137090093Y-64024314D01*
X137057488Y-64086109D01*
X137041450Y-64100007D01*
X136958072Y-64160585D01*
X136835588Y-64283069D01*
X136835588Y-64283070D01*
X136835586Y-64283072D01*
X136791859Y-64343256D01*
X136733768Y-64423211D01*
X136655128Y-64577552D01*
X136601597Y-64742302D01*
X136580072Y-64878210D01*
X136574500Y-64913389D01*
X131500500Y-64913389D01*
X131500500Y-60421153D01*
X148199500Y-60421153D01*
X148199500Y-60578846D01*
X148230261Y-60733489D01*
X148230264Y-60733501D01*
X148290602Y-60879172D01*
X148290609Y-60879185D01*
X148325304Y-60931109D01*
X148346182Y-60997786D01*
X148327698Y-61065167D01*
X148325304Y-61068891D01*
X148290609Y-61120814D01*
X148290602Y-61120827D01*
X148230264Y-61266498D01*
X148230261Y-61266510D01*
X148199500Y-61421153D01*
X148199500Y-61578846D01*
X148230261Y-61733489D01*
X148230264Y-61733501D01*
X148290602Y-61879172D01*
X148290609Y-61879185D01*
X148325304Y-61931109D01*
X148346182Y-61997786D01*
X148327698Y-62065167D01*
X148325304Y-62068891D01*
X148290609Y-62120814D01*
X148290602Y-62120827D01*
X148230264Y-62266498D01*
X148230261Y-62266510D01*
X148199500Y-62421153D01*
X148199500Y-62578846D01*
X148230261Y-62733489D01*
X148230264Y-62733501D01*
X148290602Y-62879172D01*
X148290609Y-62879185D01*
X148325304Y-62931109D01*
X148346182Y-62997786D01*
X148327698Y-63065167D01*
X148325304Y-63068891D01*
X148290609Y-63120814D01*
X148290602Y-63120827D01*
X148230264Y-63266498D01*
X148230261Y-63266510D01*
X148199500Y-63421153D01*
X148199500Y-63578846D01*
X148230261Y-63733489D01*
X148230264Y-63733501D01*
X148290602Y-63879172D01*
X148290609Y-63879185D01*
X148325304Y-63931109D01*
X148346182Y-63997786D01*
X148327698Y-64065167D01*
X148325304Y-64068891D01*
X148290609Y-64120814D01*
X148290602Y-64120827D01*
X148230264Y-64266498D01*
X148230261Y-64266510D01*
X148199500Y-64421153D01*
X148199500Y-64578846D01*
X148230261Y-64733489D01*
X148230264Y-64733501D01*
X148290602Y-64879172D01*
X148290609Y-64879185D01*
X148325304Y-64931109D01*
X148346182Y-64997786D01*
X148327698Y-65065167D01*
X148325304Y-65068891D01*
X148290609Y-65120814D01*
X148290602Y-65120827D01*
X148230264Y-65266498D01*
X148230261Y-65266510D01*
X148199500Y-65421153D01*
X148199500Y-65578846D01*
X148230261Y-65733489D01*
X148230264Y-65733501D01*
X148290602Y-65879172D01*
X148290609Y-65879185D01*
X148325304Y-65931109D01*
X148346182Y-65997786D01*
X148327698Y-66065167D01*
X148325304Y-66068891D01*
X148290609Y-66120814D01*
X148290602Y-66120827D01*
X148230264Y-66266498D01*
X148230261Y-66266510D01*
X148199500Y-66421153D01*
X148199500Y-66578846D01*
X148230261Y-66733489D01*
X148230264Y-66733501D01*
X148290602Y-66879172D01*
X148290609Y-66879185D01*
X148325304Y-66931109D01*
X148346182Y-66997786D01*
X148327698Y-67065167D01*
X148325304Y-67068891D01*
X148290609Y-67120814D01*
X148290602Y-67120827D01*
X148230264Y-67266498D01*
X148230261Y-67266510D01*
X148199500Y-67421153D01*
X148199500Y-67578846D01*
X148230261Y-67733489D01*
X148230264Y-67733501D01*
X148290602Y-67879172D01*
X148290609Y-67879185D01*
X148325304Y-67931109D01*
X148346182Y-67997786D01*
X148327698Y-68065167D01*
X148325304Y-68068891D01*
X148290609Y-68120814D01*
X148290602Y-68120827D01*
X148230264Y-68266498D01*
X148230261Y-68266510D01*
X148199500Y-68421153D01*
X148199500Y-68578846D01*
X148230261Y-68733489D01*
X148230264Y-68733501D01*
X148290602Y-68879172D01*
X148290609Y-68879185D01*
X148325304Y-68931109D01*
X148346182Y-68997786D01*
X148327698Y-69065167D01*
X148325304Y-69068891D01*
X148290609Y-69120814D01*
X148290602Y-69120827D01*
X148230264Y-69266498D01*
X148230261Y-69266510D01*
X148199500Y-69421153D01*
X148199500Y-69578846D01*
X148230261Y-69733489D01*
X148230264Y-69733501D01*
X148290602Y-69879172D01*
X148290609Y-69879185D01*
X148378210Y-70010288D01*
X148378213Y-70010292D01*
X148489707Y-70121786D01*
X148489711Y-70121789D01*
X148620814Y-70209390D01*
X148620827Y-70209397D01*
X148766498Y-70269735D01*
X148766503Y-70269737D01*
X148921153Y-70300499D01*
X148921156Y-70300500D01*
X148921158Y-70300500D01*
X149078844Y-70300500D01*
X149078845Y-70300499D01*
X149233497Y-70269737D01*
X149379179Y-70209394D01*
X149431110Y-70174694D01*
X149497785Y-70153816D01*
X149565165Y-70172300D01*
X149568863Y-70174676D01*
X149620821Y-70209394D01*
X149620823Y-70209395D01*
X149620825Y-70209396D01*
X149766498Y-70269735D01*
X149766503Y-70269737D01*
X149921153Y-70300499D01*
X149921156Y-70300500D01*
X149921158Y-70300500D01*
X150078844Y-70300500D01*
X150078845Y-70300499D01*
X150233497Y-70269737D01*
X150379179Y-70209394D01*
X150431110Y-70174694D01*
X150497785Y-70153816D01*
X150565165Y-70172300D01*
X150568863Y-70174676D01*
X150620821Y-70209394D01*
X150620823Y-70209395D01*
X150620825Y-70209396D01*
X150766498Y-70269735D01*
X150766503Y-70269737D01*
X150921153Y-70300499D01*
X150921156Y-70300500D01*
X150921158Y-70300500D01*
X151078844Y-70300500D01*
X151078845Y-70300499D01*
X151233497Y-70269737D01*
X151379179Y-70209394D01*
X151431110Y-70174694D01*
X151497785Y-70153816D01*
X151565165Y-70172300D01*
X151568863Y-70174676D01*
X151620821Y-70209394D01*
X151620823Y-70209395D01*
X151620825Y-70209396D01*
X151766498Y-70269735D01*
X151766503Y-70269737D01*
X151921153Y-70300499D01*
X151921156Y-70300500D01*
X151921158Y-70300500D01*
X152078844Y-70300500D01*
X152078845Y-70300499D01*
X152233497Y-70269737D01*
X152379179Y-70209394D01*
X152510289Y-70121789D01*
X152621789Y-70010289D01*
X152709394Y-69879179D01*
X152769737Y-69733497D01*
X152800500Y-69578842D01*
X152800500Y-69421158D01*
X152800500Y-69421155D01*
X152800499Y-69421153D01*
X152769738Y-69266510D01*
X152769737Y-69266503D01*
X152769735Y-69266498D01*
X152709396Y-69120825D01*
X152709394Y-69120822D01*
X152709394Y-69120821D01*
X152674694Y-69068889D01*
X152653816Y-69002215D01*
X152672300Y-68934835D01*
X152674676Y-68931136D01*
X152709394Y-68879179D01*
X152769737Y-68733497D01*
X152800500Y-68578842D01*
X152800500Y-68421158D01*
X152800500Y-68421155D01*
X152800499Y-68421153D01*
X152769738Y-68266510D01*
X152769737Y-68266503D01*
X152769735Y-68266498D01*
X152709396Y-68120825D01*
X152709394Y-68120822D01*
X152709394Y-68120821D01*
X152674694Y-68068889D01*
X152653816Y-68002215D01*
X152672300Y-67934835D01*
X152674676Y-67931136D01*
X152709394Y-67879179D01*
X152769737Y-67733497D01*
X152800500Y-67578842D01*
X152800500Y-67421158D01*
X152800500Y-67421155D01*
X152800499Y-67421153D01*
X152796292Y-67400001D01*
X152769737Y-67266503D01*
X152750953Y-67221153D01*
X171999500Y-67221153D01*
X171999500Y-67378846D01*
X172030261Y-67533489D01*
X172030264Y-67533501D01*
X172090602Y-67679172D01*
X172090609Y-67679185D01*
X172178210Y-67810288D01*
X172178213Y-67810292D01*
X172289707Y-67921786D01*
X172289711Y-67921789D01*
X172420814Y-68009390D01*
X172420827Y-68009397D01*
X172564463Y-68068892D01*
X172566503Y-68069737D01*
X172721148Y-68100498D01*
X172721153Y-68100499D01*
X172721156Y-68100500D01*
X172721158Y-68100500D01*
X172878844Y-68100500D01*
X172878845Y-68100499D01*
X173033497Y-68069737D01*
X173179179Y-68009394D01*
X173310289Y-67921789D01*
X173421789Y-67810289D01*
X173509394Y-67679179D01*
X173569737Y-67533497D01*
X173600500Y-67378842D01*
X173600500Y-67221158D01*
X173600500Y-67221155D01*
X173600499Y-67221153D01*
X173580543Y-67120827D01*
X173569737Y-67066503D01*
X173564699Y-67054340D01*
X173509397Y-66920827D01*
X173509390Y-66920814D01*
X173421789Y-66789711D01*
X173421786Y-66789707D01*
X173310292Y-66678213D01*
X173310288Y-66678210D01*
X173179185Y-66590609D01*
X173179172Y-66590602D01*
X173033501Y-66530264D01*
X173033489Y-66530261D01*
X172878845Y-66499500D01*
X172878842Y-66499500D01*
X172721158Y-66499500D01*
X172721155Y-66499500D01*
X172566510Y-66530261D01*
X172566498Y-66530264D01*
X172420827Y-66590602D01*
X172420814Y-66590609D01*
X172289711Y-66678210D01*
X172289707Y-66678213D01*
X172178213Y-66789707D01*
X172178210Y-66789711D01*
X172090609Y-66920814D01*
X172090602Y-66920827D01*
X172030264Y-67066498D01*
X172030261Y-67066510D01*
X171999500Y-67221153D01*
X152750953Y-67221153D01*
X152709394Y-67120821D01*
X152670019Y-67061894D01*
X152666337Y-67054340D01*
X152661843Y-67027852D01*
X152653816Y-67002215D01*
X152656089Y-66993927D01*
X152654652Y-66985454D01*
X152665193Y-66960740D01*
X152672300Y-66934835D01*
X152674676Y-66931136D01*
X152709394Y-66879179D01*
X152769737Y-66733497D01*
X152800500Y-66578842D01*
X152800500Y-66421158D01*
X152800500Y-66421155D01*
X152800499Y-66421153D01*
X152769738Y-66266510D01*
X152769737Y-66266503D01*
X152734463Y-66181344D01*
X152709396Y-66120825D01*
X152709394Y-66120822D01*
X152709394Y-66120821D01*
X152674694Y-66068889D01*
X152653816Y-66002215D01*
X152672300Y-65934835D01*
X152674676Y-65931136D01*
X152709394Y-65879179D01*
X152769737Y-65733497D01*
X152800500Y-65578842D01*
X152800500Y-65421158D01*
X152800500Y-65421155D01*
X152800499Y-65421153D01*
X180199500Y-65421153D01*
X180199500Y-65578846D01*
X180230261Y-65733489D01*
X180230264Y-65733501D01*
X180290602Y-65879172D01*
X180290609Y-65879185D01*
X180378210Y-66010288D01*
X180378213Y-66010292D01*
X180489707Y-66121786D01*
X180489711Y-66121789D01*
X180620814Y-66209390D01*
X180620827Y-66209397D01*
X180758683Y-66266498D01*
X180766503Y-66269737D01*
X180921153Y-66300499D01*
X180921156Y-66300500D01*
X180921158Y-66300500D01*
X181078844Y-66300500D01*
X181078845Y-66300499D01*
X181233497Y-66269737D01*
X181379179Y-66209394D01*
X181510289Y-66121789D01*
X181621789Y-66010289D01*
X181709394Y-65879179D01*
X181769737Y-65733497D01*
X181800500Y-65578842D01*
X181800500Y-65421158D01*
X181800500Y-65421155D01*
X181800499Y-65421153D01*
X190699500Y-65421153D01*
X190699500Y-65578846D01*
X190730261Y-65733489D01*
X190730264Y-65733501D01*
X190790602Y-65879172D01*
X190790609Y-65879185D01*
X190878210Y-66010288D01*
X190878213Y-66010292D01*
X190989707Y-66121786D01*
X190989711Y-66121789D01*
X191120814Y-66209390D01*
X191120827Y-66209397D01*
X191258683Y-66266498D01*
X191266503Y-66269737D01*
X191421153Y-66300499D01*
X191421156Y-66300500D01*
X191421158Y-66300500D01*
X191578844Y-66300500D01*
X191578845Y-66300499D01*
X191733497Y-66269737D01*
X191879179Y-66209394D01*
X192010289Y-66121789D01*
X192121789Y-66010289D01*
X192209394Y-65879179D01*
X192269737Y-65733497D01*
X192300500Y-65578842D01*
X192300500Y-65421158D01*
X192300500Y-65421155D01*
X192300499Y-65421153D01*
X195199500Y-65421153D01*
X195199500Y-65578846D01*
X195230261Y-65733489D01*
X195230264Y-65733501D01*
X195290602Y-65879172D01*
X195290609Y-65879185D01*
X195378210Y-66010288D01*
X195378213Y-66010292D01*
X195489707Y-66121786D01*
X195489711Y-66121789D01*
X195620814Y-66209390D01*
X195620827Y-66209397D01*
X195758683Y-66266498D01*
X195766503Y-66269737D01*
X195921153Y-66300499D01*
X195921156Y-66300500D01*
X195921158Y-66300500D01*
X196078844Y-66300500D01*
X196078845Y-66300499D01*
X196233497Y-66269737D01*
X196379179Y-66209394D01*
X196510289Y-66121789D01*
X196621789Y-66010289D01*
X196709394Y-65879179D01*
X196769737Y-65733497D01*
X196800500Y-65578842D01*
X196800500Y-65421158D01*
X196800500Y-65421155D01*
X196800499Y-65421153D01*
X196769738Y-65266510D01*
X196769737Y-65266503D01*
X196766091Y-65257701D01*
X196709397Y-65120827D01*
X196709390Y-65120814D01*
X196621789Y-64989711D01*
X196621786Y-64989707D01*
X196510292Y-64878213D01*
X196510288Y-64878210D01*
X196379185Y-64790609D01*
X196379172Y-64790602D01*
X196233501Y-64730264D01*
X196233489Y-64730261D01*
X196078845Y-64699500D01*
X196078842Y-64699500D01*
X195921158Y-64699500D01*
X195921155Y-64699500D01*
X195766510Y-64730261D01*
X195766498Y-64730264D01*
X195620827Y-64790602D01*
X195620814Y-64790609D01*
X195489711Y-64878210D01*
X195489707Y-64878213D01*
X195378213Y-64989707D01*
X195378210Y-64989711D01*
X195290609Y-65120814D01*
X195290602Y-65120827D01*
X195230264Y-65266498D01*
X195230261Y-65266510D01*
X195199500Y-65421153D01*
X192300499Y-65421153D01*
X192269738Y-65266510D01*
X192269737Y-65266503D01*
X192266091Y-65257701D01*
X192209397Y-65120827D01*
X192209390Y-65120814D01*
X192121789Y-64989711D01*
X192121786Y-64989707D01*
X192010292Y-64878213D01*
X192010288Y-64878210D01*
X191879185Y-64790609D01*
X191879172Y-64790602D01*
X191733501Y-64730264D01*
X191733489Y-64730261D01*
X191578845Y-64699500D01*
X191578842Y-64699500D01*
X191421158Y-64699500D01*
X191421155Y-64699500D01*
X191266510Y-64730261D01*
X191266498Y-64730264D01*
X191120827Y-64790602D01*
X191120814Y-64790609D01*
X190989711Y-64878210D01*
X190989707Y-64878213D01*
X190878213Y-64989707D01*
X190878210Y-64989711D01*
X190790609Y-65120814D01*
X190790602Y-65120827D01*
X190730264Y-65266498D01*
X190730261Y-65266510D01*
X190699500Y-65421153D01*
X181800499Y-65421153D01*
X181769738Y-65266510D01*
X181769737Y-65266503D01*
X181766091Y-65257701D01*
X181709397Y-65120827D01*
X181709390Y-65120814D01*
X181621789Y-64989711D01*
X181621786Y-64989707D01*
X181510292Y-64878213D01*
X181510288Y-64878210D01*
X181379185Y-64790609D01*
X181379172Y-64790602D01*
X181233501Y-64730264D01*
X181233489Y-64730261D01*
X181078845Y-64699500D01*
X181078842Y-64699500D01*
X180921158Y-64699500D01*
X180921155Y-64699500D01*
X180766510Y-64730261D01*
X180766498Y-64730264D01*
X180620827Y-64790602D01*
X180620814Y-64790609D01*
X180489711Y-64878210D01*
X180489707Y-64878213D01*
X180378213Y-64989707D01*
X180378210Y-64989711D01*
X180290609Y-65120814D01*
X180290602Y-65120827D01*
X180230264Y-65266498D01*
X180230261Y-65266510D01*
X180199500Y-65421153D01*
X152800499Y-65421153D01*
X152769738Y-65266510D01*
X152769737Y-65266503D01*
X152766091Y-65257701D01*
X152709397Y-65120827D01*
X152709390Y-65120814D01*
X152621789Y-64989711D01*
X152621786Y-64989707D01*
X152510292Y-64878213D01*
X152510288Y-64878210D01*
X152379185Y-64790609D01*
X152379172Y-64790602D01*
X152233501Y-64730264D01*
X152233489Y-64730261D01*
X152078845Y-64699500D01*
X152078842Y-64699500D01*
X151921158Y-64699500D01*
X151921155Y-64699500D01*
X151766510Y-64730261D01*
X151766498Y-64730264D01*
X151620827Y-64790602D01*
X151620814Y-64790609D01*
X151568891Y-64825304D01*
X151502214Y-64846182D01*
X151434833Y-64827698D01*
X151431109Y-64825304D01*
X151379185Y-64790609D01*
X151379172Y-64790602D01*
X151233501Y-64730264D01*
X151233489Y-64730261D01*
X151078845Y-64699500D01*
X151078842Y-64699500D01*
X150921158Y-64699500D01*
X150921155Y-64699500D01*
X150766510Y-64730261D01*
X150766498Y-64730264D01*
X150620827Y-64790602D01*
X150620814Y-64790609D01*
X150568891Y-64825304D01*
X150502214Y-64846182D01*
X150434833Y-64827698D01*
X150431109Y-64825304D01*
X150379185Y-64790609D01*
X150379172Y-64790602D01*
X150233501Y-64730264D01*
X150233489Y-64730261D01*
X150078845Y-64699500D01*
X150078842Y-64699500D01*
X149924500Y-64699500D01*
X149857461Y-64679815D01*
X149811706Y-64627011D01*
X149800500Y-64575500D01*
X149800500Y-64421155D01*
X149800499Y-64421153D01*
X149769737Y-64266503D01*
X149769735Y-64266498D01*
X149709396Y-64120825D01*
X149709394Y-64120822D01*
X149709394Y-64120821D01*
X149674694Y-64068889D01*
X149653816Y-64002215D01*
X149672300Y-63934835D01*
X149674676Y-63931136D01*
X149709394Y-63879179D01*
X149769737Y-63733497D01*
X149800500Y-63578842D01*
X149800500Y-63421158D01*
X149800500Y-63421155D01*
X149800499Y-63421153D01*
X149769737Y-63266503D01*
X149719304Y-63144745D01*
X149709396Y-63120825D01*
X149709394Y-63120822D01*
X149709394Y-63120821D01*
X149674694Y-63068889D01*
X149653816Y-63002215D01*
X149672300Y-62934835D01*
X149674676Y-62931136D01*
X149709394Y-62879179D01*
X149769737Y-62733497D01*
X149800500Y-62578842D01*
X149800500Y-62421158D01*
X149800500Y-62421155D01*
X149800499Y-62421153D01*
X149769738Y-62266510D01*
X149769737Y-62266503D01*
X149709794Y-62121786D01*
X149709396Y-62120825D01*
X149709394Y-62120822D01*
X149709394Y-62120821D01*
X149674694Y-62068889D01*
X149653816Y-62002215D01*
X149672300Y-61934835D01*
X149674676Y-61931136D01*
X149709394Y-61879179D01*
X149769737Y-61733497D01*
X149800500Y-61578842D01*
X149800500Y-61421158D01*
X149800500Y-61421155D01*
X149800499Y-61421153D01*
X160199500Y-61421153D01*
X160199500Y-61578846D01*
X160230261Y-61733489D01*
X160230264Y-61733501D01*
X160290602Y-61879172D01*
X160290609Y-61879185D01*
X160378210Y-62010288D01*
X160378213Y-62010292D01*
X160489707Y-62121786D01*
X160489711Y-62121789D01*
X160620814Y-62209390D01*
X160620827Y-62209397D01*
X160758683Y-62266498D01*
X160766503Y-62269737D01*
X160921153Y-62300499D01*
X160921156Y-62300500D01*
X160921158Y-62300500D01*
X161078844Y-62300500D01*
X161078845Y-62300499D01*
X161233497Y-62269737D01*
X161379179Y-62209394D01*
X161510289Y-62121789D01*
X161621789Y-62010289D01*
X161709394Y-61879179D01*
X161769737Y-61733497D01*
X161800500Y-61578842D01*
X161800500Y-61421158D01*
X161800500Y-61421155D01*
X161800499Y-61421153D01*
X161769738Y-61266510D01*
X161769737Y-61266503D01*
X161756062Y-61233489D01*
X161709397Y-61120827D01*
X161709390Y-61120814D01*
X161621790Y-60989712D01*
X161621784Y-60989705D01*
X161553232Y-60921153D01*
X164699500Y-60921153D01*
X164699500Y-61078846D01*
X164730261Y-61233489D01*
X164730264Y-61233501D01*
X164790602Y-61379172D01*
X164790609Y-61379185D01*
X164878210Y-61510288D01*
X164878213Y-61510292D01*
X164989707Y-61621786D01*
X164989711Y-61621789D01*
X165120814Y-61709390D01*
X165120827Y-61709397D01*
X165266498Y-61769735D01*
X165266503Y-61769737D01*
X165421153Y-61800499D01*
X165421156Y-61800500D01*
X165421158Y-61800500D01*
X165578844Y-61800500D01*
X165578845Y-61800499D01*
X165733497Y-61769737D01*
X165879179Y-61709394D01*
X166010289Y-61621789D01*
X166121789Y-61510289D01*
X166209394Y-61379179D01*
X166269737Y-61233497D01*
X166300500Y-61078842D01*
X166300500Y-60921158D01*
X166300500Y-60921155D01*
X166300499Y-60921153D01*
X166278447Y-60810292D01*
X166269737Y-60766503D01*
X166256062Y-60733489D01*
X166209397Y-60620827D01*
X166209390Y-60620814D01*
X166121789Y-60489711D01*
X166121786Y-60489707D01*
X166010292Y-60378213D01*
X166010288Y-60378210D01*
X165920429Y-60318168D01*
X165879185Y-60290609D01*
X165879172Y-60290602D01*
X165733501Y-60230264D01*
X165733489Y-60230261D01*
X165687701Y-60221153D01*
X171299500Y-60221153D01*
X171299500Y-60378846D01*
X171330261Y-60533489D01*
X171330264Y-60533501D01*
X171390602Y-60679172D01*
X171390609Y-60679185D01*
X171478210Y-60810288D01*
X171478213Y-60810292D01*
X171589707Y-60921786D01*
X171589711Y-60921789D01*
X171720814Y-61009390D01*
X171720827Y-61009397D01*
X171864463Y-61068892D01*
X171866503Y-61069737D01*
X172021153Y-61100499D01*
X172021156Y-61100500D01*
X172021158Y-61100500D01*
X172178844Y-61100500D01*
X172178845Y-61100499D01*
X172333497Y-61069737D01*
X172479179Y-61009394D01*
X172610289Y-60921789D01*
X172721789Y-60810289D01*
X172809394Y-60679179D01*
X172869737Y-60533497D01*
X172900500Y-60378842D01*
X172900500Y-60221158D01*
X172900500Y-60221155D01*
X172900499Y-60221153D01*
X172896192Y-60199500D01*
X172869737Y-60066503D01*
X172837929Y-59989711D01*
X172809397Y-59920827D01*
X172809390Y-59920814D01*
X172721789Y-59789711D01*
X172721786Y-59789707D01*
X172610292Y-59678213D01*
X172610288Y-59678210D01*
X172479185Y-59590609D01*
X172479172Y-59590602D01*
X172333501Y-59530264D01*
X172333489Y-59530261D01*
X172178845Y-59499500D01*
X172178842Y-59499500D01*
X172021158Y-59499500D01*
X172021155Y-59499500D01*
X171866510Y-59530261D01*
X171866498Y-59530264D01*
X171720827Y-59590602D01*
X171720814Y-59590609D01*
X171589711Y-59678210D01*
X171589707Y-59678213D01*
X171478213Y-59789707D01*
X171478210Y-59789711D01*
X171390609Y-59920814D01*
X171390602Y-59920827D01*
X171330264Y-60066498D01*
X171330261Y-60066510D01*
X171299500Y-60221153D01*
X165687701Y-60221153D01*
X165578845Y-60199500D01*
X165578842Y-60199500D01*
X165421158Y-60199500D01*
X165421155Y-60199500D01*
X165266510Y-60230261D01*
X165266498Y-60230264D01*
X165120827Y-60290602D01*
X165120814Y-60290609D01*
X164989711Y-60378210D01*
X164989707Y-60378213D01*
X164878213Y-60489707D01*
X164878210Y-60489711D01*
X164790609Y-60620814D01*
X164790602Y-60620827D01*
X164730264Y-60766498D01*
X164730261Y-60766510D01*
X164699500Y-60921153D01*
X161553232Y-60921153D01*
X161510292Y-60878213D01*
X161510288Y-60878210D01*
X161379185Y-60790609D01*
X161379172Y-60790602D01*
X161233501Y-60730264D01*
X161233489Y-60730261D01*
X161078845Y-60699500D01*
X161078842Y-60699500D01*
X160921158Y-60699500D01*
X160921155Y-60699500D01*
X160766510Y-60730261D01*
X160766498Y-60730264D01*
X160620827Y-60790602D01*
X160620814Y-60790609D01*
X160489711Y-60878210D01*
X160489707Y-60878213D01*
X160378213Y-60989707D01*
X160378210Y-60989711D01*
X160290609Y-61120814D01*
X160290602Y-61120827D01*
X160230264Y-61266498D01*
X160230261Y-61266510D01*
X160199500Y-61421153D01*
X149800499Y-61421153D01*
X149769738Y-61266510D01*
X149769737Y-61266503D01*
X149756062Y-61233489D01*
X149709396Y-61120825D01*
X149709394Y-61120822D01*
X149709394Y-61120821D01*
X149674694Y-61068889D01*
X149653816Y-61002215D01*
X149672300Y-60934835D01*
X149674676Y-60931136D01*
X149709394Y-60879179D01*
X149769737Y-60733497D01*
X149800500Y-60578842D01*
X149800500Y-60421158D01*
X149800500Y-60421155D01*
X149800499Y-60421153D01*
X149769737Y-60266503D01*
X149769735Y-60266498D01*
X149709397Y-60120827D01*
X149709390Y-60120814D01*
X149621789Y-59989711D01*
X149621786Y-59989707D01*
X149510292Y-59878213D01*
X149510288Y-59878210D01*
X149379185Y-59790609D01*
X149379172Y-59790602D01*
X149233501Y-59730264D01*
X149233489Y-59730261D01*
X149078845Y-59699500D01*
X149078842Y-59699500D01*
X148921158Y-59699500D01*
X148921155Y-59699500D01*
X148766510Y-59730261D01*
X148766498Y-59730264D01*
X148620827Y-59790602D01*
X148620814Y-59790609D01*
X148489711Y-59878210D01*
X148489707Y-59878213D01*
X148378213Y-59989707D01*
X148378210Y-59989711D01*
X148290609Y-60120814D01*
X148290602Y-60120827D01*
X148230264Y-60266498D01*
X148230261Y-60266510D01*
X148199500Y-60421153D01*
X131500500Y-60421153D01*
X131500500Y-58421153D01*
X142199500Y-58421153D01*
X142199500Y-58578846D01*
X142230261Y-58733489D01*
X142230264Y-58733501D01*
X142290602Y-58879172D01*
X142290609Y-58879185D01*
X142378210Y-59010288D01*
X142378213Y-59010292D01*
X142489707Y-59121786D01*
X142489711Y-59121789D01*
X142620814Y-59209390D01*
X142620827Y-59209397D01*
X142758683Y-59266498D01*
X142766503Y-59269737D01*
X142921153Y-59300499D01*
X142921156Y-59300500D01*
X142921158Y-59300500D01*
X143078844Y-59300500D01*
X143078845Y-59300499D01*
X143233497Y-59269737D01*
X143379179Y-59209394D01*
X143510289Y-59121789D01*
X143621789Y-59010289D01*
X143709394Y-58879179D01*
X143769737Y-58733497D01*
X143800500Y-58578842D01*
X143800500Y-58421158D01*
X143800500Y-58421155D01*
X143800499Y-58421153D01*
X143769737Y-58266503D01*
X143709794Y-58121786D01*
X143709397Y-58120827D01*
X143709390Y-58120814D01*
X143621789Y-57989711D01*
X143621786Y-57989707D01*
X143510292Y-57878213D01*
X143510288Y-57878210D01*
X143379185Y-57790609D01*
X143379172Y-57790602D01*
X143233501Y-57730264D01*
X143233489Y-57730261D01*
X143078845Y-57699500D01*
X143078842Y-57699500D01*
X142921158Y-57699500D01*
X142921155Y-57699500D01*
X142766510Y-57730261D01*
X142766498Y-57730264D01*
X142620827Y-57790602D01*
X142620814Y-57790609D01*
X142489711Y-57878210D01*
X142489707Y-57878213D01*
X142378213Y-57989707D01*
X142378210Y-57989711D01*
X142290609Y-58120814D01*
X142290602Y-58120827D01*
X142230264Y-58266498D01*
X142230261Y-58266510D01*
X142199500Y-58421153D01*
X131500500Y-58421153D01*
X131500500Y-57421153D01*
X157224500Y-57421153D01*
X157224500Y-57578846D01*
X157255261Y-57733489D01*
X157255264Y-57733501D01*
X157315602Y-57879172D01*
X157315609Y-57879185D01*
X157403210Y-58010288D01*
X157403213Y-58010292D01*
X157514707Y-58121786D01*
X157514711Y-58121789D01*
X157645814Y-58209390D01*
X157645827Y-58209397D01*
X157783683Y-58266498D01*
X157791503Y-58269737D01*
X157946153Y-58300499D01*
X157946156Y-58300500D01*
X158050500Y-58300500D01*
X158117539Y-58320185D01*
X158163294Y-58372989D01*
X158174500Y-58424500D01*
X158174500Y-58578846D01*
X158205261Y-58733489D01*
X158205264Y-58733501D01*
X158265602Y-58879172D01*
X158265609Y-58879185D01*
X158300304Y-58931109D01*
X158321182Y-58997786D01*
X158302698Y-59065167D01*
X158300304Y-59068891D01*
X158265609Y-59120814D01*
X158265602Y-59120827D01*
X158205264Y-59266498D01*
X158205261Y-59266510D01*
X158174500Y-59421153D01*
X158174500Y-59578846D01*
X158205261Y-59733489D01*
X158205264Y-59733501D01*
X158265602Y-59879172D01*
X158265609Y-59879185D01*
X158353210Y-60010288D01*
X158353213Y-60010292D01*
X158464707Y-60121786D01*
X158464711Y-60121789D01*
X158595814Y-60209390D01*
X158595827Y-60209397D01*
X158733683Y-60266498D01*
X158741503Y-60269737D01*
X158896153Y-60300499D01*
X158896156Y-60300500D01*
X158896158Y-60300500D01*
X159053844Y-60300500D01*
X159053845Y-60300499D01*
X159208497Y-60269737D01*
X159354179Y-60209394D01*
X159418610Y-60166342D01*
X159485286Y-60145465D01*
X159552666Y-60163949D01*
X159556358Y-60166321D01*
X159620821Y-60209394D01*
X159620823Y-60209395D01*
X159620827Y-60209397D01*
X159758683Y-60266498D01*
X159766503Y-60269737D01*
X159921153Y-60300499D01*
X159921156Y-60300500D01*
X159921158Y-60300500D01*
X160078844Y-60300500D01*
X160078845Y-60300499D01*
X160233497Y-60269737D01*
X160379179Y-60209394D01*
X160510289Y-60121789D01*
X160621789Y-60010289D01*
X160709394Y-59879179D01*
X160769737Y-59733497D01*
X160800500Y-59578842D01*
X160800500Y-59421158D01*
X160800500Y-59421155D01*
X160800499Y-59421153D01*
X160769738Y-59266510D01*
X160769737Y-59266503D01*
X160709794Y-59121786D01*
X160709396Y-59120825D01*
X160709394Y-59120822D01*
X160709394Y-59120821D01*
X160674694Y-59068889D01*
X160653816Y-59002215D01*
X160672300Y-58934835D01*
X160674676Y-58931136D01*
X160709394Y-58879179D01*
X160769737Y-58733497D01*
X160800500Y-58578842D01*
X160800500Y-58421158D01*
X160800500Y-58421155D01*
X160800499Y-58421153D01*
X160769737Y-58266503D01*
X160709794Y-58121786D01*
X160709396Y-58120825D01*
X160709394Y-58120822D01*
X160709394Y-58120821D01*
X160674694Y-58068889D01*
X160653816Y-58002215D01*
X160672300Y-57934835D01*
X160674676Y-57931136D01*
X160709394Y-57879179D01*
X160769737Y-57733497D01*
X160800500Y-57578842D01*
X160800500Y-57421158D01*
X160800500Y-57421155D01*
X160800499Y-57421153D01*
X160769738Y-57266510D01*
X160769737Y-57266503D01*
X160756062Y-57233489D01*
X160709396Y-57120825D01*
X160709394Y-57120822D01*
X160709394Y-57120821D01*
X160674694Y-57068889D01*
X160669603Y-57052632D01*
X160659954Y-57038590D01*
X160659379Y-57019981D01*
X160653816Y-57002215D01*
X160658311Y-56985400D01*
X160657797Y-56968754D01*
X160670072Y-56941406D01*
X160671461Y-56936212D01*
X160673003Y-56933640D01*
X160681347Y-56921153D01*
X164699500Y-56921153D01*
X164699500Y-57078846D01*
X164730261Y-57233489D01*
X164730264Y-57233501D01*
X164790602Y-57379172D01*
X164790609Y-57379185D01*
X164878210Y-57510288D01*
X164878213Y-57510292D01*
X164989707Y-57621786D01*
X164989711Y-57621789D01*
X165120814Y-57709390D01*
X165120827Y-57709397D01*
X165266498Y-57769735D01*
X165266503Y-57769737D01*
X165421153Y-57800499D01*
X165421156Y-57800500D01*
X165421158Y-57800500D01*
X165578844Y-57800500D01*
X165578845Y-57800499D01*
X165733497Y-57769737D01*
X165879179Y-57709394D01*
X166010289Y-57621789D01*
X166121789Y-57510289D01*
X166209394Y-57379179D01*
X166269737Y-57233497D01*
X166300500Y-57078842D01*
X166300500Y-56921158D01*
X166300500Y-56921155D01*
X166300499Y-56921153D01*
X189199500Y-56921153D01*
X189199500Y-57078846D01*
X189230261Y-57233489D01*
X189230264Y-57233501D01*
X189290602Y-57379172D01*
X189290609Y-57379185D01*
X189378210Y-57510288D01*
X189378213Y-57510292D01*
X189489707Y-57621786D01*
X189489711Y-57621789D01*
X189620814Y-57709390D01*
X189620827Y-57709397D01*
X189766498Y-57769735D01*
X189766503Y-57769737D01*
X189921153Y-57800499D01*
X189921156Y-57800500D01*
X189921158Y-57800500D01*
X190078844Y-57800500D01*
X190078845Y-57800499D01*
X190233497Y-57769737D01*
X190379179Y-57709394D01*
X190510289Y-57621789D01*
X190621789Y-57510289D01*
X190709394Y-57379179D01*
X190769737Y-57233497D01*
X190800500Y-57078842D01*
X190800500Y-56921158D01*
X190800500Y-56921155D01*
X190800499Y-56921153D01*
X194199500Y-56921153D01*
X194199500Y-57078846D01*
X194230261Y-57233489D01*
X194230264Y-57233501D01*
X194290602Y-57379172D01*
X194290609Y-57379185D01*
X194378210Y-57510288D01*
X194378213Y-57510292D01*
X194489707Y-57621786D01*
X194489711Y-57621789D01*
X194620814Y-57709390D01*
X194620827Y-57709397D01*
X194766498Y-57769735D01*
X194766503Y-57769737D01*
X194921153Y-57800499D01*
X194921156Y-57800500D01*
X194921158Y-57800500D01*
X195078844Y-57800500D01*
X195078845Y-57800499D01*
X195233497Y-57769737D01*
X195379179Y-57709394D01*
X195510289Y-57621789D01*
X195621789Y-57510289D01*
X195709394Y-57379179D01*
X195769737Y-57233497D01*
X195800500Y-57078842D01*
X195800500Y-56921158D01*
X195800500Y-56921155D01*
X195800499Y-56921153D01*
X195774531Y-56790606D01*
X195769737Y-56766503D01*
X195756062Y-56733489D01*
X195709397Y-56620827D01*
X195709390Y-56620814D01*
X195621789Y-56489711D01*
X195621786Y-56489707D01*
X195510292Y-56378213D01*
X195510288Y-56378210D01*
X195379185Y-56290609D01*
X195379172Y-56290602D01*
X195233501Y-56230264D01*
X195233489Y-56230261D01*
X195078845Y-56199500D01*
X195078842Y-56199500D01*
X194921158Y-56199500D01*
X194921155Y-56199500D01*
X194766510Y-56230261D01*
X194766498Y-56230264D01*
X194620827Y-56290602D01*
X194620814Y-56290609D01*
X194489711Y-56378210D01*
X194489707Y-56378213D01*
X194378213Y-56489707D01*
X194378210Y-56489711D01*
X194290609Y-56620814D01*
X194290602Y-56620827D01*
X194230264Y-56766498D01*
X194230261Y-56766510D01*
X194199500Y-56921153D01*
X190800499Y-56921153D01*
X190774531Y-56790606D01*
X190769737Y-56766503D01*
X190756062Y-56733489D01*
X190709397Y-56620827D01*
X190709390Y-56620814D01*
X190621789Y-56489711D01*
X190621786Y-56489707D01*
X190510292Y-56378213D01*
X190510288Y-56378210D01*
X190379185Y-56290609D01*
X190379172Y-56290602D01*
X190233501Y-56230264D01*
X190233489Y-56230261D01*
X190078845Y-56199500D01*
X190078842Y-56199500D01*
X189921158Y-56199500D01*
X189921155Y-56199500D01*
X189766510Y-56230261D01*
X189766498Y-56230264D01*
X189620827Y-56290602D01*
X189620814Y-56290609D01*
X189489711Y-56378210D01*
X189489707Y-56378213D01*
X189378213Y-56489707D01*
X189378210Y-56489711D01*
X189290609Y-56620814D01*
X189290602Y-56620827D01*
X189230264Y-56766498D01*
X189230261Y-56766510D01*
X189199500Y-56921153D01*
X166300499Y-56921153D01*
X166274531Y-56790606D01*
X166269737Y-56766503D01*
X166256062Y-56733489D01*
X166209397Y-56620827D01*
X166209390Y-56620814D01*
X166121789Y-56489711D01*
X166121786Y-56489707D01*
X166010292Y-56378213D01*
X166010288Y-56378210D01*
X165879185Y-56290609D01*
X165879172Y-56290602D01*
X165733501Y-56230264D01*
X165733489Y-56230261D01*
X165578845Y-56199500D01*
X165578842Y-56199500D01*
X165421158Y-56199500D01*
X165421155Y-56199500D01*
X165266510Y-56230261D01*
X165266498Y-56230264D01*
X165120827Y-56290602D01*
X165120814Y-56290609D01*
X164989711Y-56378210D01*
X164989707Y-56378213D01*
X164878213Y-56489707D01*
X164878210Y-56489711D01*
X164790609Y-56620814D01*
X164790602Y-56620827D01*
X164730264Y-56766498D01*
X164730261Y-56766510D01*
X164699500Y-56921153D01*
X160681347Y-56921153D01*
X160709394Y-56879179D01*
X160769737Y-56733497D01*
X160800500Y-56578842D01*
X160800500Y-56421158D01*
X160800500Y-56421155D01*
X160800499Y-56421153D01*
X160774531Y-56290606D01*
X160769737Y-56266503D01*
X160769735Y-56266498D01*
X160709397Y-56120827D01*
X160709395Y-56120824D01*
X160709394Y-56120821D01*
X160687194Y-56087596D01*
X160666317Y-56020922D01*
X160684801Y-55953542D01*
X160687174Y-55949847D01*
X160734394Y-55879179D01*
X160794737Y-55733497D01*
X160825500Y-55578842D01*
X160825500Y-55421158D01*
X160825500Y-55421155D01*
X160825499Y-55421153D01*
X167699500Y-55421153D01*
X167699500Y-55578846D01*
X167730261Y-55733489D01*
X167730264Y-55733501D01*
X167790602Y-55879172D01*
X167790609Y-55879185D01*
X167878210Y-56010288D01*
X167878213Y-56010292D01*
X167989707Y-56121786D01*
X167989711Y-56121789D01*
X168120814Y-56209390D01*
X168120827Y-56209397D01*
X168258683Y-56266498D01*
X168266503Y-56269737D01*
X168421153Y-56300499D01*
X168421156Y-56300500D01*
X168421158Y-56300500D01*
X168578844Y-56300500D01*
X168578845Y-56300499D01*
X168733497Y-56269737D01*
X168879179Y-56209394D01*
X169010289Y-56121789D01*
X169121789Y-56010289D01*
X169209394Y-55879179D01*
X169269737Y-55733497D01*
X169300500Y-55578842D01*
X169300500Y-55421158D01*
X169300500Y-55421155D01*
X169300499Y-55421153D01*
X174199500Y-55421153D01*
X174199500Y-55578846D01*
X174230261Y-55733489D01*
X174230264Y-55733501D01*
X174290602Y-55879172D01*
X174290609Y-55879185D01*
X174378210Y-56010288D01*
X174378213Y-56010292D01*
X174489707Y-56121786D01*
X174489711Y-56121789D01*
X174620814Y-56209390D01*
X174620827Y-56209397D01*
X174758683Y-56266498D01*
X174766503Y-56269737D01*
X174921153Y-56300499D01*
X174921156Y-56300500D01*
X174921158Y-56300500D01*
X175078844Y-56300500D01*
X175078845Y-56300499D01*
X175233497Y-56269737D01*
X175379179Y-56209394D01*
X175510289Y-56121789D01*
X175621789Y-56010289D01*
X175709394Y-55879179D01*
X175769737Y-55733497D01*
X175800500Y-55578842D01*
X175800500Y-55421158D01*
X175800500Y-55421155D01*
X175800499Y-55421153D01*
X175769738Y-55266510D01*
X175769737Y-55266503D01*
X175769735Y-55266498D01*
X175709397Y-55120827D01*
X175709390Y-55120814D01*
X175621789Y-54989711D01*
X175621786Y-54989707D01*
X175510292Y-54878213D01*
X175510288Y-54878210D01*
X175379185Y-54790609D01*
X175379172Y-54790602D01*
X175233501Y-54730264D01*
X175233489Y-54730261D01*
X175078845Y-54699500D01*
X175078842Y-54699500D01*
X174921158Y-54699500D01*
X174921155Y-54699500D01*
X174766510Y-54730261D01*
X174766498Y-54730264D01*
X174620827Y-54790602D01*
X174620814Y-54790609D01*
X174489711Y-54878210D01*
X174489707Y-54878213D01*
X174378213Y-54989707D01*
X174378210Y-54989711D01*
X174290609Y-55120814D01*
X174290602Y-55120827D01*
X174230264Y-55266498D01*
X174230261Y-55266510D01*
X174199500Y-55421153D01*
X169300499Y-55421153D01*
X169269738Y-55266510D01*
X169269737Y-55266503D01*
X169269735Y-55266498D01*
X169209397Y-55120827D01*
X169209390Y-55120814D01*
X169121789Y-54989711D01*
X169121786Y-54989707D01*
X169010292Y-54878213D01*
X169010288Y-54878210D01*
X168879185Y-54790609D01*
X168879172Y-54790602D01*
X168733501Y-54730264D01*
X168733489Y-54730261D01*
X168578845Y-54699500D01*
X168578842Y-54699500D01*
X168421158Y-54699500D01*
X168421155Y-54699500D01*
X168266510Y-54730261D01*
X168266498Y-54730264D01*
X168120827Y-54790602D01*
X168120814Y-54790609D01*
X167989711Y-54878210D01*
X167989707Y-54878213D01*
X167878213Y-54989707D01*
X167878210Y-54989711D01*
X167790609Y-55120814D01*
X167790602Y-55120827D01*
X167730264Y-55266498D01*
X167730261Y-55266510D01*
X167699500Y-55421153D01*
X160825499Y-55421153D01*
X160794738Y-55266510D01*
X160794737Y-55266503D01*
X160794735Y-55266498D01*
X160734396Y-55120825D01*
X160734394Y-55120822D01*
X160734394Y-55120821D01*
X160699694Y-55068889D01*
X160678816Y-55002215D01*
X160697300Y-54934835D01*
X160699676Y-54931136D01*
X160734394Y-54879179D01*
X160794737Y-54733497D01*
X160825500Y-54578842D01*
X160825500Y-54421158D01*
X160825500Y-54421155D01*
X160825499Y-54421153D01*
X160794737Y-54266503D01*
X160791043Y-54257584D01*
X160734397Y-54120827D01*
X160734390Y-54120814D01*
X160646789Y-53989711D01*
X160646786Y-53989707D01*
X160535292Y-53878213D01*
X160535288Y-53878210D01*
X160404185Y-53790609D01*
X160404172Y-53790602D01*
X160258501Y-53730264D01*
X160258489Y-53730261D01*
X160103845Y-53699500D01*
X160103842Y-53699500D01*
X159946158Y-53699500D01*
X159946155Y-53699500D01*
X159791510Y-53730261D01*
X159791498Y-53730264D01*
X159645827Y-53790602D01*
X159645814Y-53790609D01*
X159593891Y-53825304D01*
X159527214Y-53846182D01*
X159459833Y-53827698D01*
X159456109Y-53825304D01*
X159404185Y-53790609D01*
X159404172Y-53790602D01*
X159258501Y-53730264D01*
X159258489Y-53730261D01*
X159103845Y-53699500D01*
X159103842Y-53699500D01*
X158946158Y-53699500D01*
X158946155Y-53699500D01*
X158791510Y-53730261D01*
X158791498Y-53730264D01*
X158645827Y-53790602D01*
X158645814Y-53790609D01*
X158514711Y-53878210D01*
X158514707Y-53878213D01*
X158403213Y-53989707D01*
X158403210Y-53989711D01*
X158315609Y-54120814D01*
X158315602Y-54120827D01*
X158255264Y-54266498D01*
X158255261Y-54266510D01*
X158224500Y-54421153D01*
X158224500Y-54578846D01*
X158255261Y-54733489D01*
X158255264Y-54733501D01*
X158315603Y-54879174D01*
X158315604Y-54879176D01*
X158337804Y-54912400D01*
X158358682Y-54979077D01*
X158340198Y-55046458D01*
X158337805Y-55050181D01*
X158290608Y-55120816D01*
X158290602Y-55120827D01*
X158230264Y-55266498D01*
X158230261Y-55266510D01*
X158199500Y-55421153D01*
X158199500Y-55578846D01*
X158230261Y-55733489D01*
X158230264Y-55733501D01*
X158290602Y-55879172D01*
X158290609Y-55879185D01*
X158325304Y-55931109D01*
X158346182Y-55997786D01*
X158327698Y-56065167D01*
X158325304Y-56068891D01*
X158290609Y-56120814D01*
X158290602Y-56120827D01*
X158230264Y-56266498D01*
X158230261Y-56266510D01*
X158199500Y-56421153D01*
X158199500Y-56575500D01*
X158179815Y-56642539D01*
X158127011Y-56688294D01*
X158075500Y-56699500D01*
X157946155Y-56699500D01*
X157791510Y-56730261D01*
X157791498Y-56730264D01*
X157645827Y-56790602D01*
X157645814Y-56790609D01*
X157514711Y-56878210D01*
X157514707Y-56878213D01*
X157403213Y-56989707D01*
X157403210Y-56989711D01*
X157315609Y-57120814D01*
X157315602Y-57120827D01*
X157255264Y-57266498D01*
X157255261Y-57266510D01*
X157224500Y-57421153D01*
X131500500Y-57421153D01*
X131500500Y-52413389D01*
X136574500Y-52413389D01*
X136574500Y-52586611D01*
X136574991Y-52589711D01*
X136595757Y-52720827D01*
X136601598Y-52757701D01*
X136655127Y-52922445D01*
X136733768Y-53076788D01*
X136835586Y-53216928D01*
X136835588Y-53216930D01*
X136943127Y-53324469D01*
X136976612Y-53385792D01*
X136971628Y-53455484D01*
X136929756Y-53511417D01*
X136920544Y-53517688D01*
X136856344Y-53557287D01*
X136732289Y-53681342D01*
X136640187Y-53830663D01*
X136640186Y-53830666D01*
X136585001Y-53997203D01*
X136585001Y-53997204D01*
X136585000Y-53997204D01*
X136574500Y-54099983D01*
X136574500Y-54900001D01*
X136574501Y-54900019D01*
X136585000Y-55002796D01*
X136585001Y-55002799D01*
X136624112Y-55120827D01*
X136640186Y-55169334D01*
X136732288Y-55318656D01*
X136856344Y-55442712D01*
X137005666Y-55534814D01*
X137172203Y-55589999D01*
X137274991Y-55600500D01*
X138625008Y-55600499D01*
X138727797Y-55589999D01*
X138894334Y-55534814D01*
X139043656Y-55442712D01*
X139167712Y-55318656D01*
X139259814Y-55169334D01*
X139314999Y-55002797D01*
X139325500Y-54900009D01*
X139325499Y-54099992D01*
X139314999Y-53997203D01*
X139259814Y-53830666D01*
X139167712Y-53681344D01*
X139043656Y-53557288D01*
X139043652Y-53557285D01*
X138979456Y-53517688D01*
X138932731Y-53465740D01*
X138921510Y-53396777D01*
X138949353Y-53332695D01*
X138956850Y-53324491D01*
X139064414Y-53216928D01*
X139166232Y-53076788D01*
X139194579Y-53021153D01*
X189317090Y-53021153D01*
X189317090Y-53178846D01*
X189347851Y-53333489D01*
X189347854Y-53333501D01*
X189408192Y-53479172D01*
X189408199Y-53479185D01*
X189495800Y-53610288D01*
X189495803Y-53610292D01*
X189607297Y-53721786D01*
X189607301Y-53721789D01*
X189738404Y-53809390D01*
X189738417Y-53809397D01*
X189849130Y-53855255D01*
X189884093Y-53869737D01*
X190038743Y-53900499D01*
X190038746Y-53900500D01*
X190038748Y-53900500D01*
X190196434Y-53900500D01*
X190196435Y-53900499D01*
X190351087Y-53869737D01*
X190496769Y-53809394D01*
X190627879Y-53721789D01*
X190739379Y-53610289D01*
X190826984Y-53479179D01*
X190887327Y-53333497D01*
X190918090Y-53178842D01*
X190918090Y-53021158D01*
X190918090Y-53021155D01*
X190918089Y-53021153D01*
X190909045Y-52975685D01*
X190887327Y-52866503D01*
X190876107Y-52839416D01*
X190826987Y-52720827D01*
X190826980Y-52720814D01*
X190739379Y-52589711D01*
X190739376Y-52589707D01*
X190627882Y-52478213D01*
X190627878Y-52478210D01*
X190496775Y-52390609D01*
X190496762Y-52390602D01*
X190351091Y-52330264D01*
X190351079Y-52330261D01*
X190196435Y-52299500D01*
X190196432Y-52299500D01*
X190038748Y-52299500D01*
X190038745Y-52299500D01*
X189884100Y-52330261D01*
X189884088Y-52330264D01*
X189738417Y-52390602D01*
X189738404Y-52390609D01*
X189607301Y-52478210D01*
X189607297Y-52478213D01*
X189495803Y-52589707D01*
X189495800Y-52589711D01*
X189408199Y-52720814D01*
X189408192Y-52720827D01*
X189347854Y-52866498D01*
X189347851Y-52866510D01*
X189317090Y-53021153D01*
X139194579Y-53021153D01*
X139226364Y-52958772D01*
X139226364Y-52958771D01*
X139228121Y-52955322D01*
X139244873Y-52922445D01*
X139298402Y-52757701D01*
X139325500Y-52586611D01*
X139325500Y-52413389D01*
X139298402Y-52242299D01*
X139244873Y-52077555D01*
X139166232Y-51923212D01*
X139064414Y-51783072D01*
X138941928Y-51660586D01*
X138858550Y-51600008D01*
X138842455Y-51579134D01*
X138823530Y-51560783D01*
X138821454Y-51551899D01*
X138815885Y-51544677D01*
X138813629Y-51518415D01*
X138807631Y-51492746D01*
X138810686Y-51484152D01*
X138809906Y-51475064D01*
X138822207Y-51451751D01*
X138831038Y-51426914D01*
X138836792Y-51421153D01*
X175199500Y-51421153D01*
X175199500Y-51578846D01*
X175230261Y-51733489D01*
X175230264Y-51733501D01*
X175290602Y-51879172D01*
X175290609Y-51879185D01*
X175378210Y-52010288D01*
X175378213Y-52010292D01*
X175489707Y-52121786D01*
X175489711Y-52121789D01*
X175620814Y-52209390D01*
X175620827Y-52209397D01*
X175737445Y-52257701D01*
X175766503Y-52269737D01*
X175916131Y-52299500D01*
X175921153Y-52300499D01*
X175921156Y-52300500D01*
X175921158Y-52300500D01*
X176078844Y-52300500D01*
X176078845Y-52300499D01*
X176233497Y-52269737D01*
X176379179Y-52209394D01*
X176510289Y-52121789D01*
X176621789Y-52010289D01*
X176709394Y-51879179D01*
X176769737Y-51733497D01*
X176800500Y-51578842D01*
X176800500Y-51421158D01*
X176800500Y-51421155D01*
X176800499Y-51421153D01*
X176784165Y-51339036D01*
X176769737Y-51266503D01*
X176769735Y-51266498D01*
X176709397Y-51120827D01*
X176709390Y-51120814D01*
X176621789Y-50989711D01*
X176621786Y-50989707D01*
X176510292Y-50878213D01*
X176510288Y-50878210D01*
X176379185Y-50790609D01*
X176379172Y-50790602D01*
X176233501Y-50730264D01*
X176233489Y-50730261D01*
X176078845Y-50699500D01*
X176078842Y-50699500D01*
X175921158Y-50699500D01*
X175921155Y-50699500D01*
X175766510Y-50730261D01*
X175766498Y-50730264D01*
X175620827Y-50790602D01*
X175620814Y-50790609D01*
X175489711Y-50878210D01*
X175489707Y-50878213D01*
X175378213Y-50989707D01*
X175378210Y-50989711D01*
X175290609Y-51120814D01*
X175290602Y-51120827D01*
X175230264Y-51266498D01*
X175230261Y-51266510D01*
X175199500Y-51421153D01*
X138836792Y-51421153D01*
X138840097Y-51417844D01*
X138842512Y-51413269D01*
X138855609Y-51401577D01*
X138958843Y-51321791D01*
X139064032Y-51216602D01*
X139165804Y-51076524D01*
X139244408Y-50922255D01*
X139297914Y-50757584D01*
X139299115Y-50750000D01*
X138230330Y-50750000D01*
X138250075Y-50730255D01*
X138299444Y-50644745D01*
X138325000Y-50549370D01*
X138325000Y-50450630D01*
X138299444Y-50355255D01*
X138250075Y-50269745D01*
X138230330Y-50250000D01*
X139299115Y-50250000D01*
X139299115Y-50249999D01*
X139297914Y-50242415D01*
X139268986Y-50153384D01*
X139258513Y-50121153D01*
X189117090Y-50121153D01*
X189117090Y-50278846D01*
X189147851Y-50433489D01*
X189147854Y-50433501D01*
X189208192Y-50579172D01*
X189208199Y-50579185D01*
X189295800Y-50710288D01*
X189295803Y-50710292D01*
X189407297Y-50821786D01*
X189407301Y-50821789D01*
X189538404Y-50909390D01*
X189538417Y-50909397D01*
X189618848Y-50942712D01*
X189684093Y-50969737D01*
X189838743Y-51000499D01*
X189838746Y-51000500D01*
X189838748Y-51000500D01*
X189996434Y-51000500D01*
X189996435Y-51000499D01*
X190151087Y-50969737D01*
X190296769Y-50909394D01*
X190427879Y-50821789D01*
X190539379Y-50710289D01*
X190626984Y-50579179D01*
X190687327Y-50433497D01*
X190718090Y-50278842D01*
X190718090Y-50121158D01*
X190718090Y-50121155D01*
X190718089Y-50121153D01*
X190687328Y-49966510D01*
X190687327Y-49966503D01*
X190687325Y-49966498D01*
X190626987Y-49820827D01*
X190626980Y-49820814D01*
X190539379Y-49689711D01*
X190539376Y-49689707D01*
X190427882Y-49578213D01*
X190427878Y-49578210D01*
X190296775Y-49490609D01*
X190296762Y-49490602D01*
X190151091Y-49430264D01*
X190151079Y-49430261D01*
X189996435Y-49399500D01*
X189996432Y-49399500D01*
X189838748Y-49399500D01*
X189838745Y-49399500D01*
X189684100Y-49430261D01*
X189684088Y-49430264D01*
X189538417Y-49490602D01*
X189538404Y-49490609D01*
X189407301Y-49578210D01*
X189407297Y-49578213D01*
X189295803Y-49689707D01*
X189295800Y-49689711D01*
X189208199Y-49820814D01*
X189208192Y-49820827D01*
X189147854Y-49966498D01*
X189147851Y-49966510D01*
X189117090Y-50121153D01*
X139258513Y-50121153D01*
X139244408Y-50077742D01*
X139165804Y-49923475D01*
X139064032Y-49783397D01*
X138941602Y-49660967D01*
X138801524Y-49559195D01*
X138647257Y-49480591D01*
X138482584Y-49427085D01*
X138311571Y-49400000D01*
X138200000Y-49400000D01*
X138200000Y-50219670D01*
X138180255Y-50199925D01*
X138094745Y-50150556D01*
X137999370Y-50125000D01*
X137900630Y-50125000D01*
X137805255Y-50150556D01*
X137719745Y-50199925D01*
X137700000Y-50219670D01*
X137700000Y-49400000D01*
X137588429Y-49400000D01*
X137417415Y-49427085D01*
X137252742Y-49480591D01*
X137098475Y-49559195D01*
X136958397Y-49660967D01*
X136835967Y-49783397D01*
X136734195Y-49923475D01*
X136655591Y-50077744D01*
X136602085Y-50242415D01*
X136600884Y-50249999D01*
X136600885Y-50250000D01*
X137669670Y-50250000D01*
X137649925Y-50269745D01*
X137600556Y-50355255D01*
X137575000Y-50450630D01*
X137575000Y-50549370D01*
X137600556Y-50644745D01*
X137649925Y-50730255D01*
X137669670Y-50750000D01*
X136600885Y-50750000D01*
X136602085Y-50757584D01*
X136655591Y-50922255D01*
X136734195Y-51076524D01*
X136835967Y-51216602D01*
X136958401Y-51339036D01*
X137041447Y-51399371D01*
X137084114Y-51454701D01*
X137090093Y-51524314D01*
X137057488Y-51586109D01*
X137041450Y-51600007D01*
X136958072Y-51660585D01*
X136835588Y-51783069D01*
X136835588Y-51783070D01*
X136835586Y-51783072D01*
X136791859Y-51843256D01*
X136733768Y-51923211D01*
X136655128Y-52077552D01*
X136601597Y-52242302D01*
X136578109Y-52390602D01*
X136574500Y-52413389D01*
X131500500Y-52413389D01*
X131500500Y-48773543D01*
X186997089Y-48773543D01*
X187035537Y-48966829D01*
X187035540Y-48966839D01*
X187110954Y-49148907D01*
X187110961Y-49148920D01*
X187220450Y-49312781D01*
X187220453Y-49312785D01*
X187359804Y-49452136D01*
X187359808Y-49452139D01*
X187523669Y-49561628D01*
X187523682Y-49561635D01*
X187616300Y-49599998D01*
X187705755Y-49637051D01*
X187705759Y-49637051D01*
X187705760Y-49637052D01*
X187899046Y-49675500D01*
X187899049Y-49675500D01*
X188096133Y-49675500D01*
X188226172Y-49649632D01*
X188289425Y-49637051D01*
X188471504Y-49561632D01*
X188635372Y-49452139D01*
X188774729Y-49312782D01*
X188884222Y-49148914D01*
X188959641Y-48966835D01*
X188998090Y-48773541D01*
X188998090Y-48236333D01*
X189017775Y-48169294D01*
X189070579Y-48123539D01*
X189139737Y-48113595D01*
X189184091Y-48128947D01*
X189205449Y-48141278D01*
X189205450Y-48141278D01*
X189205455Y-48141281D01*
X189351824Y-48180500D01*
X189351826Y-48180500D01*
X189503354Y-48180500D01*
X189503356Y-48180500D01*
X189649725Y-48141281D01*
X189780955Y-48065515D01*
X189888105Y-47958365D01*
X189963871Y-47827135D01*
X190003090Y-47680766D01*
X190003090Y-47529234D01*
X194632090Y-47529234D01*
X194632090Y-47680765D01*
X194671309Y-47827136D01*
X194701353Y-47879172D01*
X194747075Y-47958365D01*
X194854225Y-48065515D01*
X194937502Y-48113595D01*
X194985451Y-48141279D01*
X194985455Y-48141281D01*
X195131824Y-48180500D01*
X195131826Y-48180500D01*
X195283354Y-48180500D01*
X195283356Y-48180500D01*
X195429725Y-48141281D01*
X195440041Y-48135325D01*
X195451089Y-48128947D01*
X195518988Y-48112473D01*
X195585016Y-48135325D01*
X195628207Y-48190245D01*
X195637090Y-48236333D01*
X195637090Y-48773541D01*
X195637090Y-48773543D01*
X195637089Y-48773543D01*
X195675537Y-48966829D01*
X195675540Y-48966839D01*
X195750954Y-49148907D01*
X195750961Y-49148920D01*
X195860450Y-49312781D01*
X195860453Y-49312785D01*
X195999804Y-49452136D01*
X195999808Y-49452139D01*
X196163669Y-49561628D01*
X196163682Y-49561635D01*
X196256300Y-49599998D01*
X196345755Y-49637051D01*
X196345759Y-49637051D01*
X196345760Y-49637052D01*
X196539046Y-49675500D01*
X196539049Y-49675500D01*
X196736133Y-49675500D01*
X196866172Y-49649632D01*
X196929425Y-49637051D01*
X197018916Y-49599983D01*
X199499500Y-49599983D01*
X199499500Y-50400001D01*
X199499501Y-50400019D01*
X199510000Y-50502796D01*
X199510001Y-50502799D01*
X199557038Y-50644745D01*
X199565186Y-50669334D01*
X199657288Y-50818656D01*
X199781344Y-50942712D01*
X199845543Y-50982310D01*
X199892268Y-51034258D01*
X199903489Y-51103221D01*
X199875646Y-51167303D01*
X199868128Y-51175530D01*
X199760585Y-51283073D01*
X199658768Y-51423211D01*
X199580128Y-51577552D01*
X199526597Y-51742302D01*
X199499500Y-51913389D01*
X199499500Y-52086610D01*
X199524158Y-52242299D01*
X199526598Y-52257701D01*
X199580127Y-52422445D01*
X199658768Y-52576788D01*
X199760586Y-52716928D01*
X199883072Y-52839414D01*
X199966449Y-52899991D01*
X200009114Y-52955322D01*
X200015093Y-53024935D01*
X199982487Y-53086730D01*
X199966448Y-53100627D01*
X199883404Y-53160961D01*
X199883399Y-53160965D01*
X199760967Y-53283397D01*
X199659195Y-53423475D01*
X199580591Y-53577744D01*
X199527085Y-53742415D01*
X199525884Y-53749999D01*
X199525885Y-53750000D01*
X200594670Y-53750000D01*
X200574925Y-53769745D01*
X200525556Y-53855255D01*
X200500000Y-53950630D01*
X200500000Y-54049370D01*
X200525556Y-54144745D01*
X200574925Y-54230255D01*
X200594670Y-54250000D01*
X199525885Y-54250000D01*
X199527085Y-54257584D01*
X199580591Y-54422255D01*
X199659195Y-54576524D01*
X199760967Y-54716602D01*
X199883397Y-54839032D01*
X200023475Y-54940804D01*
X200177742Y-55019408D01*
X200342415Y-55072914D01*
X200513429Y-55100000D01*
X200625000Y-55100000D01*
X200625000Y-54280330D01*
X200644745Y-54300075D01*
X200730255Y-54349444D01*
X200825630Y-54375000D01*
X200924370Y-54375000D01*
X201019745Y-54349444D01*
X201105255Y-54300075D01*
X201125000Y-54280330D01*
X201125000Y-55100000D01*
X201236571Y-55100000D01*
X201407584Y-55072914D01*
X201572257Y-55019408D01*
X201726524Y-54940804D01*
X201866602Y-54839032D01*
X201989032Y-54716602D01*
X202090804Y-54576524D01*
X202169408Y-54422255D01*
X202222914Y-54257584D01*
X202224115Y-54250000D01*
X201155330Y-54250000D01*
X201175075Y-54230255D01*
X201224444Y-54144745D01*
X201250000Y-54049370D01*
X201250000Y-53950630D01*
X201224444Y-53855255D01*
X201175075Y-53769745D01*
X201155330Y-53750000D01*
X202224115Y-53750000D01*
X202224115Y-53749999D01*
X202222914Y-53742415D01*
X202169408Y-53577744D01*
X202090804Y-53423475D01*
X201989032Y-53283397D01*
X201866602Y-53160967D01*
X201783551Y-53100628D01*
X201740885Y-53045298D01*
X201734906Y-52975685D01*
X201767511Y-52913889D01*
X201783551Y-52899991D01*
X201866928Y-52839414D01*
X201989414Y-52716928D01*
X202091232Y-52576788D01*
X202169873Y-52422445D01*
X202223402Y-52257701D01*
X202250500Y-52086611D01*
X202250500Y-51913389D01*
X202223402Y-51742299D01*
X202169873Y-51577555D01*
X202091232Y-51423212D01*
X201989414Y-51283072D01*
X201881872Y-51175530D01*
X201848387Y-51114207D01*
X201853371Y-51044515D01*
X201895243Y-50988582D01*
X201904457Y-50982310D01*
X201968656Y-50942712D01*
X202092712Y-50818656D01*
X202184814Y-50669334D01*
X202239999Y-50502797D01*
X202250500Y-50400009D01*
X202250499Y-49599992D01*
X202246580Y-49561632D01*
X202239999Y-49497203D01*
X202239998Y-49497200D01*
X202225065Y-49452136D01*
X202184814Y-49330666D01*
X202092712Y-49181344D01*
X201968656Y-49057288D01*
X201822014Y-48966839D01*
X201819336Y-48965187D01*
X201819331Y-48965185D01*
X201817862Y-48964698D01*
X201652797Y-48910001D01*
X201652795Y-48910000D01*
X201550010Y-48899500D01*
X200199998Y-48899500D01*
X200199981Y-48899501D01*
X200097203Y-48910000D01*
X200097200Y-48910001D01*
X199930668Y-48965185D01*
X199930663Y-48965187D01*
X199781342Y-49057289D01*
X199657289Y-49181342D01*
X199565187Y-49330663D01*
X199565186Y-49330666D01*
X199510001Y-49497203D01*
X199510001Y-49497204D01*
X199510000Y-49497204D01*
X199499500Y-49599983D01*
X197018916Y-49599983D01*
X197111504Y-49561632D01*
X197115151Y-49559195D01*
X197213124Y-49493732D01*
X197275372Y-49452139D01*
X197414726Y-49312785D01*
X197414729Y-49312782D01*
X197524222Y-49148914D01*
X197599641Y-48966835D01*
X197638090Y-48773541D01*
X197638090Y-47476459D01*
X197638090Y-47476456D01*
X197599642Y-47283170D01*
X197599641Y-47283169D01*
X197599641Y-47283165D01*
X197594412Y-47270540D01*
X197524225Y-47101092D01*
X197524218Y-47101079D01*
X197414729Y-46937218D01*
X197414726Y-46937214D01*
X197275375Y-46797863D01*
X197275371Y-46797860D01*
X197111510Y-46688371D01*
X197111497Y-46688364D01*
X196929429Y-46612950D01*
X196929419Y-46612947D01*
X196736133Y-46574500D01*
X196736131Y-46574500D01*
X196539049Y-46574500D01*
X196539047Y-46574500D01*
X196345760Y-46612947D01*
X196345750Y-46612950D01*
X196163682Y-46688364D01*
X196163669Y-46688371D01*
X195999808Y-46797860D01*
X195999804Y-46797863D01*
X195860453Y-46937214D01*
X195860450Y-46937218D01*
X195750958Y-47101084D01*
X195748139Y-47106359D01*
X195699176Y-47156203D01*
X195631038Y-47171663D01*
X195565359Y-47147831D01*
X195563291Y-47146278D01*
X195560959Y-47144489D01*
X195560955Y-47144485D01*
X195477759Y-47096451D01*
X195429726Y-47068719D01*
X195356540Y-47049109D01*
X195283356Y-47029500D01*
X195131824Y-47029500D01*
X194985453Y-47068719D01*
X194854225Y-47144485D01*
X194854222Y-47144487D01*
X194747077Y-47251632D01*
X194747075Y-47251635D01*
X194671309Y-47382863D01*
X194632090Y-47529234D01*
X190003090Y-47529234D01*
X189963871Y-47382865D01*
X189888105Y-47251635D01*
X189780955Y-47144485D01*
X189714905Y-47106351D01*
X189649726Y-47068719D01*
X189576540Y-47049109D01*
X189503356Y-47029500D01*
X189351824Y-47029500D01*
X189205453Y-47068719D01*
X189074221Y-47144487D01*
X189071883Y-47146282D01*
X189069554Y-47147182D01*
X189067187Y-47148549D01*
X189066973Y-47148179D01*
X189006713Y-47171475D01*
X188938268Y-47157436D01*
X188888280Y-47108621D01*
X188887036Y-47106351D01*
X188884220Y-47101082D01*
X188774729Y-46937218D01*
X188774726Y-46937214D01*
X188635375Y-46797863D01*
X188635371Y-46797860D01*
X188471510Y-46688371D01*
X188471497Y-46688364D01*
X188289429Y-46612950D01*
X188289419Y-46612947D01*
X188096133Y-46574500D01*
X188096131Y-46574500D01*
X187899049Y-46574500D01*
X187899047Y-46574500D01*
X187705760Y-46612947D01*
X187705750Y-46612950D01*
X187523682Y-46688364D01*
X187523669Y-46688371D01*
X187359808Y-46797860D01*
X187359804Y-46797863D01*
X187220453Y-46937214D01*
X187220450Y-46937218D01*
X187110961Y-47101079D01*
X187110954Y-47101092D01*
X187035540Y-47283160D01*
X187035537Y-47283170D01*
X186997090Y-47476456D01*
X186997090Y-47476459D01*
X186997090Y-48773541D01*
X186997090Y-48773543D01*
X186997089Y-48773543D01*
X131500500Y-48773543D01*
X131500500Y-44393713D01*
X132649500Y-44393713D01*
X132649500Y-44606287D01*
X132682754Y-44816243D01*
X132743180Y-45002215D01*
X132748444Y-45018414D01*
X132844951Y-45207820D01*
X132969890Y-45379786D01*
X133120213Y-45530109D01*
X133292179Y-45655048D01*
X133292181Y-45655049D01*
X133292184Y-45655051D01*
X133481588Y-45751557D01*
X133683757Y-45817246D01*
X133893713Y-45850500D01*
X133893714Y-45850500D01*
X134106286Y-45850500D01*
X134106287Y-45850500D01*
X134316243Y-45817246D01*
X134518412Y-45751557D01*
X134707816Y-45655051D01*
X134812707Y-45578844D01*
X134879786Y-45530109D01*
X134879788Y-45530106D01*
X134879792Y-45530104D01*
X135030104Y-45379792D01*
X135030106Y-45379788D01*
X135030109Y-45379786D01*
X135152276Y-45211635D01*
X135155051Y-45207816D01*
X135251557Y-45018412D01*
X135317246Y-44816243D01*
X135350500Y-44606287D01*
X135350500Y-44393713D01*
X135317246Y-44183757D01*
X135251557Y-43981588D01*
X135155051Y-43792184D01*
X135155049Y-43792181D01*
X135155048Y-43792179D01*
X135030109Y-43620213D01*
X134879786Y-43469890D01*
X134812704Y-43421153D01*
X150699500Y-43421153D01*
X150699500Y-43578846D01*
X150730261Y-43733489D01*
X150730264Y-43733501D01*
X150790602Y-43879172D01*
X150790609Y-43879185D01*
X150825304Y-43931109D01*
X150846182Y-43997786D01*
X150827698Y-44065167D01*
X150825304Y-44068891D01*
X150790609Y-44120814D01*
X150790602Y-44120827D01*
X150730264Y-44266498D01*
X150730261Y-44266510D01*
X150699500Y-44421153D01*
X150699500Y-44578846D01*
X150730261Y-44733489D01*
X150730264Y-44733501D01*
X150790602Y-44879172D01*
X150790609Y-44879185D01*
X150825304Y-44931109D01*
X150846182Y-44997786D01*
X150827698Y-45065167D01*
X150825304Y-45068891D01*
X150790609Y-45120814D01*
X150790602Y-45120827D01*
X150730264Y-45266498D01*
X150730261Y-45266510D01*
X150699500Y-45421153D01*
X150699500Y-45578846D01*
X150730261Y-45733489D01*
X150730264Y-45733501D01*
X150790602Y-45879172D01*
X150790609Y-45879185D01*
X150825304Y-45931109D01*
X150846182Y-45997786D01*
X150827698Y-46065167D01*
X150825304Y-46068891D01*
X150790609Y-46120814D01*
X150790602Y-46120827D01*
X150730264Y-46266498D01*
X150730261Y-46266510D01*
X150699500Y-46421153D01*
X150699500Y-46578846D01*
X150730261Y-46733489D01*
X150730264Y-46733501D01*
X150790602Y-46879172D01*
X150790609Y-46879185D01*
X150825304Y-46931109D01*
X150846182Y-46997786D01*
X150827698Y-47065167D01*
X150825304Y-47068891D01*
X150790609Y-47120814D01*
X150790602Y-47120827D01*
X150730264Y-47266498D01*
X150730261Y-47266510D01*
X150699500Y-47421153D01*
X150699500Y-47578846D01*
X150730261Y-47733489D01*
X150730264Y-47733501D01*
X150790602Y-47879172D01*
X150790609Y-47879185D01*
X150878210Y-48010288D01*
X150878213Y-48010292D01*
X150989707Y-48121786D01*
X150989711Y-48121789D01*
X151120814Y-48209390D01*
X151120827Y-48209397D01*
X151266498Y-48269735D01*
X151266503Y-48269737D01*
X151421153Y-48300499D01*
X151421156Y-48300500D01*
X151421158Y-48300500D01*
X151578844Y-48300500D01*
X151578845Y-48300499D01*
X151733497Y-48269737D01*
X151879179Y-48209394D01*
X151931110Y-48174694D01*
X151997785Y-48153816D01*
X152065165Y-48172300D01*
X152068863Y-48174676D01*
X152120821Y-48209394D01*
X152120823Y-48209395D01*
X152120825Y-48209396D01*
X152266498Y-48269735D01*
X152266503Y-48269737D01*
X152421153Y-48300499D01*
X152421156Y-48300500D01*
X152421158Y-48300500D01*
X152578844Y-48300500D01*
X152578845Y-48300499D01*
X152733497Y-48269737D01*
X152879179Y-48209394D01*
X152931110Y-48174694D01*
X152997785Y-48153816D01*
X153065165Y-48172300D01*
X153068863Y-48174676D01*
X153120821Y-48209394D01*
X153120823Y-48209395D01*
X153120825Y-48209396D01*
X153266498Y-48269735D01*
X153266503Y-48269737D01*
X153421153Y-48300499D01*
X153421156Y-48300500D01*
X153421158Y-48300500D01*
X153578844Y-48300500D01*
X153578845Y-48300499D01*
X153733497Y-48269737D01*
X153879179Y-48209394D01*
X153931110Y-48174694D01*
X153997785Y-48153816D01*
X154065165Y-48172300D01*
X154068863Y-48174676D01*
X154120821Y-48209394D01*
X154120823Y-48209395D01*
X154120825Y-48209396D01*
X154266498Y-48269735D01*
X154266503Y-48269737D01*
X154421153Y-48300499D01*
X154421156Y-48300500D01*
X154421158Y-48300500D01*
X154578844Y-48300500D01*
X154578845Y-48300499D01*
X154733497Y-48269737D01*
X154879179Y-48209394D01*
X154931110Y-48174694D01*
X154997785Y-48153816D01*
X155065165Y-48172300D01*
X155068863Y-48174676D01*
X155120821Y-48209394D01*
X155120823Y-48209395D01*
X155120825Y-48209396D01*
X155266498Y-48269735D01*
X155266503Y-48269737D01*
X155421153Y-48300499D01*
X155421156Y-48300500D01*
X155421158Y-48300500D01*
X155578844Y-48300500D01*
X155578845Y-48300499D01*
X155733497Y-48269737D01*
X155879179Y-48209394D01*
X155931110Y-48174694D01*
X155997785Y-48153816D01*
X156065165Y-48172300D01*
X156068863Y-48174676D01*
X156120821Y-48209394D01*
X156120823Y-48209395D01*
X156120825Y-48209396D01*
X156266498Y-48269735D01*
X156266503Y-48269737D01*
X156421153Y-48300499D01*
X156421156Y-48300500D01*
X156421158Y-48300500D01*
X156578844Y-48300500D01*
X156578845Y-48300499D01*
X156733497Y-48269737D01*
X156879179Y-48209394D01*
X156931110Y-48174694D01*
X156997785Y-48153816D01*
X157065165Y-48172300D01*
X157068863Y-48174676D01*
X157120821Y-48209394D01*
X157120823Y-48209395D01*
X157120825Y-48209396D01*
X157266498Y-48269735D01*
X157266503Y-48269737D01*
X157421153Y-48300499D01*
X157421156Y-48300500D01*
X157421158Y-48300500D01*
X157578844Y-48300500D01*
X157578845Y-48300499D01*
X157733497Y-48269737D01*
X157879179Y-48209394D01*
X157931110Y-48174694D01*
X157997785Y-48153816D01*
X158065165Y-48172300D01*
X158068863Y-48174676D01*
X158120821Y-48209394D01*
X158120823Y-48209395D01*
X158120825Y-48209396D01*
X158266498Y-48269735D01*
X158266503Y-48269737D01*
X158421153Y-48300499D01*
X158421156Y-48300500D01*
X158421158Y-48300500D01*
X158578844Y-48300500D01*
X158578845Y-48300499D01*
X158733497Y-48269737D01*
X158879179Y-48209394D01*
X159010289Y-48121789D01*
X159121789Y-48010289D01*
X159209394Y-47879179D01*
X159269737Y-47733497D01*
X159300500Y-47578842D01*
X159300500Y-47424500D01*
X159320185Y-47357461D01*
X159372989Y-47311706D01*
X159424500Y-47300500D01*
X159578844Y-47300500D01*
X159578845Y-47300499D01*
X159733497Y-47269737D01*
X159879179Y-47209394D01*
X159931110Y-47174694D01*
X159997785Y-47153816D01*
X160065165Y-47172300D01*
X160068863Y-47174676D01*
X160120821Y-47209394D01*
X160120823Y-47209395D01*
X160120825Y-47209396D01*
X160258683Y-47266498D01*
X160266503Y-47269737D01*
X160421153Y-47300499D01*
X160421156Y-47300500D01*
X160421158Y-47300500D01*
X160578844Y-47300500D01*
X160578845Y-47300499D01*
X160733497Y-47269737D01*
X160879179Y-47209394D01*
X160931110Y-47174694D01*
X160997785Y-47153816D01*
X161065165Y-47172300D01*
X161068863Y-47174676D01*
X161120821Y-47209394D01*
X161120823Y-47209395D01*
X161120825Y-47209396D01*
X161258683Y-47266498D01*
X161266503Y-47269737D01*
X161421153Y-47300499D01*
X161421156Y-47300500D01*
X161421158Y-47300500D01*
X161578844Y-47300500D01*
X161578845Y-47300499D01*
X161733497Y-47269737D01*
X161879179Y-47209394D01*
X161931110Y-47174694D01*
X161997785Y-47153816D01*
X162065165Y-47172300D01*
X162068863Y-47174676D01*
X162120821Y-47209394D01*
X162120823Y-47209395D01*
X162120825Y-47209396D01*
X162258683Y-47266498D01*
X162266503Y-47269737D01*
X162421153Y-47300499D01*
X162421156Y-47300500D01*
X162421158Y-47300500D01*
X162578844Y-47300500D01*
X162578845Y-47300499D01*
X162733497Y-47269737D01*
X162879179Y-47209394D01*
X162931110Y-47174694D01*
X162997785Y-47153816D01*
X163065165Y-47172300D01*
X163068863Y-47174676D01*
X163120821Y-47209394D01*
X163120823Y-47209395D01*
X163120825Y-47209396D01*
X163258683Y-47266498D01*
X163266503Y-47269737D01*
X163421153Y-47300499D01*
X163421156Y-47300500D01*
X163421158Y-47300500D01*
X163578844Y-47300500D01*
X163578845Y-47300499D01*
X163733497Y-47269737D01*
X163879179Y-47209394D01*
X163931110Y-47174694D01*
X163997785Y-47153816D01*
X164065165Y-47172300D01*
X164068863Y-47174676D01*
X164120821Y-47209394D01*
X164120823Y-47209395D01*
X164120825Y-47209396D01*
X164258683Y-47266498D01*
X164266503Y-47269737D01*
X164421153Y-47300499D01*
X164421156Y-47300500D01*
X164421158Y-47300500D01*
X164578844Y-47300500D01*
X164578845Y-47300499D01*
X164733497Y-47269737D01*
X164879179Y-47209394D01*
X165010289Y-47121789D01*
X165121789Y-47010289D01*
X165209394Y-46879179D01*
X165269737Y-46733497D01*
X165300500Y-46578842D01*
X165300500Y-46421158D01*
X165300500Y-46421155D01*
X165300499Y-46421153D01*
X165269738Y-46266510D01*
X165269737Y-46266503D01*
X165269735Y-46266498D01*
X165209396Y-46120825D01*
X165209394Y-46120822D01*
X165209394Y-46120821D01*
X165174694Y-46068889D01*
X165153816Y-46002215D01*
X165172300Y-45934835D01*
X165174676Y-45931136D01*
X165209394Y-45879179D01*
X165269737Y-45733497D01*
X165300500Y-45578842D01*
X165300500Y-45421158D01*
X165300500Y-45421155D01*
X165300499Y-45421153D01*
X165292272Y-45379792D01*
X165269737Y-45266503D01*
X165245428Y-45207816D01*
X165209396Y-45120825D01*
X165209394Y-45120822D01*
X165209394Y-45120821D01*
X165174694Y-45068889D01*
X165153816Y-45002215D01*
X165172300Y-44934835D01*
X165174676Y-44931136D01*
X165209394Y-44879179D01*
X165269737Y-44733497D01*
X165300500Y-44578842D01*
X165300500Y-44423543D01*
X186997089Y-44423543D01*
X187035537Y-44616829D01*
X187035540Y-44616839D01*
X187110954Y-44798907D01*
X187110961Y-44798920D01*
X187220450Y-44962781D01*
X187220453Y-44962785D01*
X187359804Y-45102136D01*
X187359808Y-45102139D01*
X187523669Y-45211628D01*
X187523682Y-45211635D01*
X187656135Y-45266498D01*
X187705755Y-45287051D01*
X187705759Y-45287051D01*
X187705760Y-45287052D01*
X187899046Y-45325500D01*
X187899049Y-45325500D01*
X188096133Y-45325500D01*
X188226172Y-45299632D01*
X188289425Y-45287051D01*
X188471504Y-45211632D01*
X188635372Y-45102139D01*
X188774729Y-44962782D01*
X188884222Y-44798914D01*
X188959641Y-44616835D01*
X188998090Y-44423543D01*
X195637089Y-44423543D01*
X195675537Y-44616829D01*
X195675540Y-44616839D01*
X195750954Y-44798907D01*
X195750961Y-44798920D01*
X195860450Y-44962781D01*
X195860453Y-44962785D01*
X195999804Y-45102136D01*
X195999808Y-45102139D01*
X196163669Y-45211628D01*
X196163682Y-45211635D01*
X196296135Y-45266498D01*
X196345755Y-45287051D01*
X196345759Y-45287051D01*
X196345760Y-45287052D01*
X196539046Y-45325500D01*
X196539049Y-45325500D01*
X196736133Y-45325500D01*
X196866172Y-45299632D01*
X196929425Y-45287051D01*
X197111504Y-45211632D01*
X197275372Y-45102139D01*
X197414729Y-44962782D01*
X197524222Y-44798914D01*
X197599641Y-44616835D01*
X197638090Y-44423541D01*
X197638090Y-44393713D01*
X202649500Y-44393713D01*
X202649500Y-44606287D01*
X202682754Y-44816243D01*
X202743180Y-45002215D01*
X202748444Y-45018414D01*
X202844951Y-45207820D01*
X202969890Y-45379786D01*
X203120213Y-45530109D01*
X203292179Y-45655048D01*
X203292181Y-45655049D01*
X203292184Y-45655051D01*
X203481588Y-45751557D01*
X203683757Y-45817246D01*
X203893713Y-45850500D01*
X203893714Y-45850500D01*
X204106286Y-45850500D01*
X204106287Y-45850500D01*
X204316243Y-45817246D01*
X204518412Y-45751557D01*
X204707816Y-45655051D01*
X204812707Y-45578844D01*
X204879786Y-45530109D01*
X204879788Y-45530106D01*
X204879792Y-45530104D01*
X205030104Y-45379792D01*
X205030106Y-45379788D01*
X205030109Y-45379786D01*
X205152276Y-45211635D01*
X205155051Y-45207816D01*
X205251557Y-45018412D01*
X205317246Y-44816243D01*
X205350500Y-44606287D01*
X205350500Y-44393713D01*
X205317246Y-44183757D01*
X205251557Y-43981588D01*
X205155051Y-43792184D01*
X205155049Y-43792181D01*
X205155048Y-43792179D01*
X205030109Y-43620213D01*
X204879786Y-43469890D01*
X204707820Y-43344951D01*
X204518414Y-43248444D01*
X204518413Y-43248443D01*
X204518412Y-43248443D01*
X204316243Y-43182754D01*
X204316241Y-43182753D01*
X204316240Y-43182753D01*
X204154957Y-43157208D01*
X204106287Y-43149500D01*
X203893713Y-43149500D01*
X203845042Y-43157208D01*
X203683760Y-43182753D01*
X203481585Y-43248444D01*
X203292179Y-43344951D01*
X203120213Y-43469890D01*
X202969890Y-43620213D01*
X202844951Y-43792179D01*
X202748444Y-43981585D01*
X202682753Y-44183760D01*
X202669649Y-44266498D01*
X202649500Y-44393713D01*
X197638090Y-44393713D01*
X197638090Y-43426459D01*
X197638090Y-43426456D01*
X197599642Y-43233170D01*
X197599641Y-43233169D01*
X197599641Y-43233165D01*
X197547309Y-43106823D01*
X197524225Y-43051092D01*
X197524218Y-43051079D01*
X197414729Y-42887218D01*
X197414726Y-42887214D01*
X197275375Y-42747863D01*
X197275371Y-42747860D01*
X197111510Y-42638371D01*
X197111497Y-42638364D01*
X196929429Y-42562950D01*
X196929419Y-42562947D01*
X196736133Y-42524500D01*
X196736131Y-42524500D01*
X196539049Y-42524500D01*
X196539047Y-42524500D01*
X196345760Y-42562947D01*
X196345750Y-42562950D01*
X196163682Y-42638364D01*
X196163669Y-42638371D01*
X195999808Y-42747860D01*
X195999804Y-42747863D01*
X195860453Y-42887214D01*
X195860450Y-42887218D01*
X195750961Y-43051079D01*
X195750954Y-43051092D01*
X195675540Y-43233160D01*
X195675537Y-43233170D01*
X195637090Y-43426456D01*
X195637090Y-43426459D01*
X195637090Y-44423541D01*
X195637090Y-44423543D01*
X195637089Y-44423543D01*
X188998090Y-44423543D01*
X188998090Y-44423541D01*
X188998090Y-43426459D01*
X188998090Y-43426456D01*
X188959642Y-43233170D01*
X188959641Y-43233169D01*
X188959641Y-43233165D01*
X188907309Y-43106823D01*
X188884225Y-43051092D01*
X188884218Y-43051079D01*
X188774729Y-42887218D01*
X188774726Y-42887214D01*
X188635375Y-42747863D01*
X188635371Y-42747860D01*
X188471510Y-42638371D01*
X188471497Y-42638364D01*
X188289429Y-42562950D01*
X188289419Y-42562947D01*
X188096133Y-42524500D01*
X188096131Y-42524500D01*
X187899049Y-42524500D01*
X187899047Y-42524500D01*
X187705760Y-42562947D01*
X187705750Y-42562950D01*
X187523682Y-42638364D01*
X187523669Y-42638371D01*
X187359808Y-42747860D01*
X187359804Y-42747863D01*
X187220453Y-42887214D01*
X187220450Y-42887218D01*
X187110961Y-43051079D01*
X187110954Y-43051092D01*
X187035540Y-43233160D01*
X187035537Y-43233170D01*
X186997090Y-43426456D01*
X186997090Y-43426459D01*
X186997090Y-44423541D01*
X186997090Y-44423543D01*
X186997089Y-44423543D01*
X165300500Y-44423543D01*
X165300500Y-44421158D01*
X165300500Y-44421155D01*
X165300499Y-44421153D01*
X165269738Y-44266510D01*
X165269737Y-44266503D01*
X165235463Y-44183757D01*
X165209396Y-44120825D01*
X165209394Y-44120822D01*
X165209394Y-44120821D01*
X165174694Y-44068889D01*
X165153816Y-44002215D01*
X165172300Y-43934835D01*
X165174676Y-43931136D01*
X165209394Y-43879179D01*
X165269737Y-43733497D01*
X165300500Y-43578842D01*
X165300500Y-43421158D01*
X165300500Y-43421155D01*
X165300499Y-43421153D01*
X165269738Y-43266510D01*
X165269737Y-43266503D01*
X165255926Y-43233160D01*
X165209396Y-43120825D01*
X165209390Y-43120814D01*
X165121789Y-42989711D01*
X165121786Y-42989707D01*
X165010292Y-42878213D01*
X165010288Y-42878210D01*
X164879185Y-42790609D01*
X164879172Y-42790602D01*
X164733501Y-42730264D01*
X164733489Y-42730261D01*
X164578845Y-42699500D01*
X164578842Y-42699500D01*
X164421158Y-42699500D01*
X164421155Y-42699500D01*
X164266510Y-42730261D01*
X164266498Y-42730264D01*
X164120827Y-42790602D01*
X164120814Y-42790609D01*
X164068891Y-42825304D01*
X164002214Y-42846182D01*
X163934833Y-42827698D01*
X163931109Y-42825304D01*
X163879185Y-42790609D01*
X163879172Y-42790602D01*
X163733501Y-42730264D01*
X163733489Y-42730261D01*
X163578845Y-42699500D01*
X163578842Y-42699500D01*
X163421158Y-42699500D01*
X163421155Y-42699500D01*
X163266510Y-42730261D01*
X163266498Y-42730264D01*
X163120827Y-42790602D01*
X163120814Y-42790609D01*
X163068891Y-42825304D01*
X163002214Y-42846182D01*
X162934833Y-42827698D01*
X162931109Y-42825304D01*
X162879185Y-42790609D01*
X162879172Y-42790602D01*
X162733501Y-42730264D01*
X162733489Y-42730261D01*
X162578845Y-42699500D01*
X162578842Y-42699500D01*
X162421158Y-42699500D01*
X162421155Y-42699500D01*
X162266510Y-42730261D01*
X162266498Y-42730264D01*
X162120827Y-42790602D01*
X162120814Y-42790609D01*
X162068891Y-42825304D01*
X162002214Y-42846182D01*
X161934833Y-42827698D01*
X161931109Y-42825304D01*
X161879185Y-42790609D01*
X161879172Y-42790602D01*
X161733501Y-42730264D01*
X161733489Y-42730261D01*
X161578845Y-42699500D01*
X161578842Y-42699500D01*
X161421158Y-42699500D01*
X161421155Y-42699500D01*
X161266510Y-42730261D01*
X161266498Y-42730264D01*
X161120827Y-42790602D01*
X161120814Y-42790609D01*
X161068891Y-42825304D01*
X161002214Y-42846182D01*
X160934833Y-42827698D01*
X160931109Y-42825304D01*
X160879185Y-42790609D01*
X160879172Y-42790602D01*
X160733501Y-42730264D01*
X160733489Y-42730261D01*
X160578845Y-42699500D01*
X160578842Y-42699500D01*
X160421158Y-42699500D01*
X160421155Y-42699500D01*
X160266510Y-42730261D01*
X160266498Y-42730264D01*
X160120827Y-42790602D01*
X160120814Y-42790609D01*
X160068891Y-42825304D01*
X160002214Y-42846182D01*
X159934833Y-42827698D01*
X159931109Y-42825304D01*
X159879185Y-42790609D01*
X159879172Y-42790602D01*
X159733501Y-42730264D01*
X159733489Y-42730261D01*
X159578845Y-42699500D01*
X159578842Y-42699500D01*
X159421158Y-42699500D01*
X159421155Y-42699500D01*
X159266510Y-42730261D01*
X159266498Y-42730264D01*
X159120827Y-42790602D01*
X159120814Y-42790609D01*
X159068891Y-42825304D01*
X159002214Y-42846182D01*
X158934833Y-42827698D01*
X158931109Y-42825304D01*
X158879185Y-42790609D01*
X158879172Y-42790602D01*
X158733501Y-42730264D01*
X158733489Y-42730261D01*
X158578845Y-42699500D01*
X158578842Y-42699500D01*
X158421158Y-42699500D01*
X158421155Y-42699500D01*
X158266510Y-42730261D01*
X158266498Y-42730264D01*
X158120827Y-42790602D01*
X158120814Y-42790609D01*
X158068891Y-42825304D01*
X158002214Y-42846182D01*
X157934833Y-42827698D01*
X157931109Y-42825304D01*
X157879185Y-42790609D01*
X157879172Y-42790602D01*
X157733501Y-42730264D01*
X157733489Y-42730261D01*
X157578845Y-42699500D01*
X157578842Y-42699500D01*
X157421158Y-42699500D01*
X157421155Y-42699500D01*
X157266510Y-42730261D01*
X157266498Y-42730264D01*
X157120827Y-42790602D01*
X157120814Y-42790609D01*
X157068891Y-42825304D01*
X157002214Y-42846182D01*
X156934833Y-42827698D01*
X156931109Y-42825304D01*
X156879185Y-42790609D01*
X156879172Y-42790602D01*
X156733501Y-42730264D01*
X156733489Y-42730261D01*
X156578845Y-42699500D01*
X156578842Y-42699500D01*
X156421158Y-42699500D01*
X156421155Y-42699500D01*
X156266510Y-42730261D01*
X156266498Y-42730264D01*
X156120827Y-42790602D01*
X156120814Y-42790609D01*
X156068891Y-42825304D01*
X156002214Y-42846182D01*
X155934833Y-42827698D01*
X155931109Y-42825304D01*
X155879185Y-42790609D01*
X155879172Y-42790602D01*
X155733501Y-42730264D01*
X155733489Y-42730261D01*
X155578845Y-42699500D01*
X155578842Y-42699500D01*
X155421158Y-42699500D01*
X155421155Y-42699500D01*
X155266510Y-42730261D01*
X155266498Y-42730264D01*
X155120827Y-42790602D01*
X155120814Y-42790609D01*
X155068891Y-42825304D01*
X155002214Y-42846182D01*
X154934833Y-42827698D01*
X154931109Y-42825304D01*
X154879185Y-42790609D01*
X154879172Y-42790602D01*
X154733501Y-42730264D01*
X154733489Y-42730261D01*
X154578845Y-42699500D01*
X154578842Y-42699500D01*
X154421158Y-42699500D01*
X154421155Y-42699500D01*
X154266510Y-42730261D01*
X154266498Y-42730264D01*
X154120827Y-42790602D01*
X154120814Y-42790609D01*
X154068891Y-42825304D01*
X154002214Y-42846182D01*
X153934833Y-42827698D01*
X153931109Y-42825304D01*
X153879185Y-42790609D01*
X153879172Y-42790602D01*
X153733501Y-42730264D01*
X153733489Y-42730261D01*
X153578845Y-42699500D01*
X153578842Y-42699500D01*
X153421158Y-42699500D01*
X153421155Y-42699500D01*
X153266510Y-42730261D01*
X153266498Y-42730264D01*
X153120827Y-42790602D01*
X153120814Y-42790609D01*
X153068891Y-42825304D01*
X153002214Y-42846182D01*
X152934833Y-42827698D01*
X152931109Y-42825304D01*
X152879185Y-42790609D01*
X152879172Y-42790602D01*
X152733501Y-42730264D01*
X152733489Y-42730261D01*
X152578845Y-42699500D01*
X152578842Y-42699500D01*
X152421158Y-42699500D01*
X152421155Y-42699500D01*
X152266510Y-42730261D01*
X152266498Y-42730264D01*
X152120827Y-42790602D01*
X152120814Y-42790609D01*
X152068891Y-42825304D01*
X152002214Y-42846182D01*
X151934833Y-42827698D01*
X151931109Y-42825304D01*
X151879185Y-42790609D01*
X151879172Y-42790602D01*
X151733501Y-42730264D01*
X151733489Y-42730261D01*
X151578845Y-42699500D01*
X151578842Y-42699500D01*
X151421158Y-42699500D01*
X151421155Y-42699500D01*
X151266510Y-42730261D01*
X151266498Y-42730264D01*
X151120827Y-42790602D01*
X151120814Y-42790609D01*
X150989711Y-42878210D01*
X150989707Y-42878213D01*
X150878213Y-42989707D01*
X150878210Y-42989711D01*
X150790609Y-43120814D01*
X150790604Y-43120825D01*
X150730264Y-43266498D01*
X150730261Y-43266510D01*
X150699500Y-43421153D01*
X134812704Y-43421153D01*
X134707820Y-43344951D01*
X134518414Y-43248444D01*
X134518413Y-43248443D01*
X134518412Y-43248443D01*
X134316243Y-43182754D01*
X134316241Y-43182753D01*
X134316240Y-43182753D01*
X134154957Y-43157208D01*
X134106287Y-43149500D01*
X133893713Y-43149500D01*
X133845042Y-43157208D01*
X133683760Y-43182753D01*
X133481585Y-43248444D01*
X133292179Y-43344951D01*
X133120213Y-43469890D01*
X132969890Y-43620213D01*
X132844951Y-43792179D01*
X132748444Y-43981585D01*
X132682753Y-44183760D01*
X132669649Y-44266498D01*
X132649500Y-44393713D01*
X131500500Y-44393713D01*
X131500500Y-44003750D01*
X131500726Y-43996263D01*
X131507808Y-43879177D01*
X131518271Y-43706201D01*
X131520076Y-43691340D01*
X131533112Y-43620208D01*
X131571780Y-43409198D01*
X131575364Y-43394664D01*
X131590856Y-43344949D01*
X131660699Y-43120812D01*
X131665997Y-43106842D01*
X131783727Y-42845258D01*
X131790680Y-42832012D01*
X131907741Y-42638368D01*
X131939075Y-42586534D01*
X131947567Y-42574230D01*
X132124481Y-42348417D01*
X132134396Y-42337226D01*
X132337226Y-42134396D01*
X132348417Y-42124481D01*
X132574230Y-41947567D01*
X132586534Y-41939075D01*
X132832012Y-41790680D01*
X132845258Y-41783727D01*
X133106842Y-41665997D01*
X133120812Y-41660699D01*
X133394668Y-41575362D01*
X133409198Y-41571780D01*
X133691344Y-41520075D01*
X133706201Y-41518271D01*
X133996264Y-41500726D01*
X134003751Y-41500500D01*
X134065892Y-41500500D01*
X204434108Y-41500500D01*
X204496249Y-41500500D01*
X204503736Y-41500726D01*
G37*
G04 #@! TD.AperFunction*
M02*
