G04 #@! TF.GenerationSoftware,KiCad,Pcbnew,10.0.1*
G04 #@! TF.CreationDate,2026-05-01T15:22:28+02:00*
G04 #@! TF.ProjectId,SolderCrateBox,536f6c64-6572-4437-9261-7465426f782e,rev?*
G04 #@! TF.SameCoordinates,Original*
G04 #@! TF.FileFunction,Copper,L3,Inr*
G04 #@! TF.FilePolarity,Positive*
%FSLAX46Y46*%
G04 Gerber Fmt 4.6, Leading zero omitted, Abs format (unit mm)*
G04 Created by KiCad (PCBNEW 10.0.1) date 2026-05-01 15:22:28*
%MOMM*%
%LPD*%
G01*
G04 APERTURE LIST*
G04 Aperture macros list*
%AMRoundRect*
0 Rectangle with rounded corners*
0 $1 Rounding radius*
0 $2 $3 $4 $5 $6 $7 $8 $9 X,Y pos of 4 corners*
0 Add a 4 corners polygon primitive as box body*
4,1,4,$2,$3,$4,$5,$6,$7,$8,$9,$2,$3,0*
0 Add four circle primitives for the rounded corners*
1,1,$1+$1,$2,$3*
1,1,$1+$1,$4,$5*
1,1,$1+$1,$6,$7*
1,1,$1+$1,$8,$9*
0 Add four rect primitives between the rounded corners*
20,1,$1+$1,$2,$3,$4,$5,0*
20,1,$1+$1,$4,$5,$6,$7,0*
20,1,$1+$1,$6,$7,$8,$9,0*
20,1,$1+$1,$8,$9,$2,$3,0*%
G04 Aperture macros list end*
G04 #@! TA.AperFunction,ComponentPad*
%ADD10O,1.000000X1.800000*%
G04 #@! TD*
G04 #@! TA.AperFunction,ComponentPad*
%ADD11O,1.000000X2.100000*%
G04 #@! TD*
G04 #@! TA.AperFunction,ComponentPad*
%ADD12RoundRect,0.250000X0.600000X0.750000X-0.600000X0.750000X-0.600000X-0.750000X0.600000X-0.750000X0*%
G04 #@! TD*
G04 #@! TA.AperFunction,ComponentPad*
%ADD13O,1.700000X2.000000*%
G04 #@! TD*
G04 #@! TA.AperFunction,ViaPad*
%ADD14C,0.600000*%
G04 #@! TD*
G04 APERTURE END LIST*
D10*
X191280000Y-40925000D03*
D11*
X191280000Y-45125000D03*
D10*
X199920000Y-40925000D03*
D11*
X199920000Y-45125000D03*
D12*
X155550000Y-73875000D03*
D13*
X153050000Y-73875000D03*
D12*
X146750000Y-73875000D03*
D13*
X144250000Y-73875000D03*
D14*
X205000000Y-45600000D03*
X137954000Y-50500000D03*
X147200000Y-62500000D03*
X141200000Y-46000000D03*
X144300000Y-65000000D03*
X186900000Y-57900000D03*
X185700000Y-59200000D03*
X193200000Y-47200000D03*
X184700000Y-57900000D03*
X184700000Y-62000000D03*
X202200000Y-51800000D03*
X205900000Y-67500000D03*
X184500000Y-63499997D03*
X184500000Y-64300000D03*
X174500000Y-56600000D03*
X202400000Y-39000000D03*
X193900000Y-56375000D03*
X200100000Y-56700000D03*
X193400000Y-50100000D03*
X197700000Y-50000000D03*
X192200000Y-49400000D03*
X178475000Y-71025000D03*
X184175000Y-74525000D03*
X178475000Y-61125000D03*
X223800000Y-45700000D03*
X215100000Y-45500000D03*
X181885000Y-41715000D03*
X171000000Y-41700000D03*
X172100000Y-61900000D03*
X170807244Y-57790000D03*
X187925000Y-61725000D03*
X178080000Y-42910000D03*
X169000000Y-57400000D03*
X189925000Y-61725000D03*
X187950000Y-63350000D03*
X186000000Y-44000000D03*
X193875000Y-68945000D03*
X198700000Y-49500000D03*
X187950000Y-68945000D03*
X191900000Y-68945000D03*
X195850000Y-65350000D03*
X187950000Y-65325000D03*
X195850000Y-68945000D03*
X195850000Y-67350000D03*
X193875000Y-61725000D03*
X191900000Y-61725000D03*
X189925000Y-68945000D03*
X195850000Y-61725000D03*
X195850000Y-63375000D03*
X187950000Y-67325000D03*
X160200000Y-71200000D03*
X168200000Y-71200000D03*
X164200000Y-67000000D03*
X163200000Y-71200000D03*
X161200000Y-71200000D03*
X158200000Y-71200000D03*
X170200000Y-71200000D03*
X165200000Y-72200000D03*
X166200000Y-71200000D03*
X158200000Y-72200000D03*
X164200000Y-69000000D03*
X171200000Y-71200000D03*
X157200000Y-72200000D03*
X155200000Y-67200000D03*
X166200000Y-72200000D03*
X171200000Y-72200000D03*
X156200000Y-71200000D03*
X165200000Y-70000000D03*
X166200000Y-70000000D03*
X162200000Y-72200000D03*
X155200000Y-68200000D03*
X160200000Y-72200000D03*
X155200000Y-71200000D03*
X159200000Y-72200000D03*
X166200000Y-67000000D03*
X166200000Y-68000000D03*
X163200000Y-68000000D03*
X169200000Y-71200000D03*
X163200000Y-70000000D03*
X159200000Y-71200000D03*
X161200000Y-72200000D03*
X165200000Y-68000000D03*
X165200000Y-69000000D03*
X167200000Y-71200000D03*
X163200000Y-72200000D03*
X164200000Y-70000000D03*
X155200000Y-70200000D03*
X163200000Y-67000000D03*
X166200000Y-69000000D03*
X162200000Y-71200000D03*
X169200000Y-72200000D03*
X164200000Y-68000000D03*
X170200000Y-72200000D03*
X163200000Y-69000000D03*
X164200000Y-72200000D03*
X155200000Y-72200000D03*
X155200000Y-69200000D03*
X156200000Y-72200000D03*
X167200000Y-72200000D03*
X168200000Y-72200000D03*
X165200000Y-67000000D03*
X165200000Y-71200000D03*
X157200000Y-71200000D03*
X164200000Y-71200000D03*
X157400000Y-42000000D03*
X163400000Y-52000000D03*
X158400000Y-48000000D03*
X156200000Y-64000000D03*
X162400000Y-50000000D03*
X164400000Y-53000000D03*
X160200000Y-55000000D03*
X160400000Y-42000000D03*
X164400000Y-50000000D03*
X159200000Y-55000000D03*
X163400000Y-53000000D03*
X162200000Y-62000000D03*
X158400000Y-50000000D03*
X160400000Y-52000000D03*
X166400000Y-53000000D03*
X166400000Y-50000000D03*
X162400000Y-53000000D03*
X159400000Y-47000000D03*
X156200000Y-65000000D03*
X157400000Y-44000000D03*
X161400000Y-42000000D03*
X160200000Y-60000000D03*
X167400000Y-42000000D03*
X158400000Y-43000000D03*
X158400000Y-45000000D03*
X160400000Y-47000000D03*
X162200000Y-65000000D03*
X166400000Y-51000000D03*
X159400000Y-52000000D03*
X163200000Y-62000000D03*
X160400000Y-53000000D03*
X166400000Y-42000000D03*
X157400000Y-48000000D03*
X158400000Y-47000000D03*
X159400000Y-45000000D03*
X160400000Y-51000000D03*
X166400000Y-52000000D03*
X165400000Y-50000000D03*
X159200000Y-56000000D03*
X159400000Y-46000000D03*
X158400000Y-53000000D03*
X159200000Y-57000000D03*
X157400000Y-51000000D03*
X159400000Y-49000000D03*
X165400000Y-51000000D03*
X160400000Y-48000000D03*
X155200000Y-62000000D03*
X159400000Y-44000000D03*
X158400000Y-46000000D03*
X157400000Y-46000000D03*
X162200000Y-63000000D03*
X158400000Y-42000000D03*
X161400000Y-53000000D03*
X160200000Y-59000000D03*
X157400000Y-49000000D03*
X159400000Y-43000000D03*
X161400000Y-50000000D03*
X157400000Y-45000000D03*
X162400000Y-52000000D03*
X162400000Y-51000000D03*
X165400000Y-42000000D03*
X163200000Y-63000000D03*
X160200000Y-58000000D03*
X160400000Y-44000000D03*
X164400000Y-52000000D03*
X158400000Y-49000000D03*
X165400000Y-52000000D03*
X161400000Y-52000000D03*
X159400000Y-51000000D03*
X157400000Y-43000000D03*
X162200000Y-64000000D03*
X160400000Y-45000000D03*
X159400000Y-50000000D03*
X160400000Y-50000000D03*
X161400000Y-51000000D03*
X159400000Y-42000000D03*
X159200000Y-58000000D03*
X159400000Y-48000000D03*
X164400000Y-51000000D03*
X159400000Y-53000000D03*
X155200000Y-63000000D03*
X163200000Y-64000000D03*
X157400000Y-50000000D03*
X162200000Y-61000000D03*
X162400000Y-42000000D03*
X163200000Y-65000000D03*
X156200000Y-62000000D03*
X163400000Y-51000000D03*
X158400000Y-44000000D03*
X160400000Y-46000000D03*
X163200000Y-61000000D03*
X155200000Y-65000000D03*
X160400000Y-43000000D03*
X165400000Y-53000000D03*
X159200000Y-60000000D03*
X168400000Y-42000000D03*
X156200000Y-63000000D03*
X157400000Y-52000000D03*
X164400000Y-42000000D03*
X157400000Y-53000000D03*
X160200000Y-57000000D03*
X155200000Y-64000000D03*
X158400000Y-52000000D03*
X163400000Y-42000000D03*
X160400000Y-49000000D03*
X160200000Y-56000000D03*
X158400000Y-51000000D03*
X159200000Y-59000000D03*
X157400000Y-47000000D03*
X163400000Y-50000000D03*
X150600000Y-50000000D03*
X144600000Y-49000000D03*
X150600000Y-52000000D03*
X145600000Y-51000000D03*
X147600000Y-52000000D03*
X149600000Y-51000000D03*
X144600000Y-46000000D03*
X144600000Y-58000000D03*
X149600000Y-44000000D03*
X149600000Y-47000000D03*
X153600000Y-53000000D03*
X146600000Y-47000000D03*
X148600000Y-52000000D03*
X148600000Y-46000000D03*
X148600000Y-45000000D03*
X144600000Y-43000000D03*
X153600000Y-50000000D03*
X144600000Y-48000000D03*
X144600000Y-47000000D03*
X154600000Y-52000000D03*
X146600000Y-43000000D03*
X147600000Y-45000000D03*
X144600000Y-52000000D03*
X146600000Y-44000000D03*
X147600000Y-54000000D03*
X147600000Y-48000000D03*
X149600000Y-45000000D03*
X145600000Y-52000000D03*
X144600000Y-44000000D03*
X149600000Y-50000000D03*
X154600000Y-50000000D03*
X145600000Y-49000000D03*
X144600000Y-60000000D03*
X146600000Y-55000000D03*
X148600000Y-43000000D03*
X144600000Y-54000000D03*
X144600000Y-55000000D03*
X144600000Y-50000000D03*
X154600000Y-51000000D03*
X148600000Y-47000000D03*
X145600000Y-53000000D03*
X152600000Y-53000000D03*
X146600000Y-49000000D03*
X144600000Y-53000000D03*
X146600000Y-52000000D03*
X146600000Y-53000000D03*
X147600000Y-44000000D03*
X144600000Y-59000000D03*
X155600000Y-50000000D03*
X152600000Y-52000000D03*
X145600000Y-46000000D03*
X145600000Y-48000000D03*
X148600000Y-49000000D03*
X147600000Y-50000000D03*
X150600000Y-53000000D03*
X149600000Y-53000000D03*
X145600000Y-54000000D03*
X147600000Y-55000000D03*
X151600000Y-53000000D03*
X145600000Y-50000000D03*
X147600000Y-46000000D03*
X155600000Y-53000000D03*
X148600000Y-51000000D03*
X149600000Y-48000000D03*
X151600000Y-51000000D03*
X152600000Y-51000000D03*
X144600000Y-57000000D03*
X153600000Y-52000000D03*
X148600000Y-50000000D03*
X144600000Y-56000000D03*
X146600000Y-50000000D03*
X149600000Y-52000000D03*
X149600000Y-46000000D03*
X145600000Y-45000000D03*
X148600000Y-55000000D03*
X146600000Y-46000000D03*
X151600000Y-52000000D03*
X150600000Y-51000000D03*
X145600000Y-43000000D03*
X155600000Y-51000000D03*
X148600000Y-53000000D03*
X144600000Y-51000000D03*
X147600000Y-43000000D03*
X147600000Y-47000000D03*
X154600000Y-53000000D03*
X148600000Y-44000000D03*
X155600000Y-52000000D03*
X149600000Y-49000000D03*
X147600000Y-53000000D03*
X146600000Y-54000000D03*
X145600000Y-44000000D03*
X145600000Y-47000000D03*
X146600000Y-51000000D03*
X153600000Y-51000000D03*
X148600000Y-54000000D03*
X146600000Y-48000000D03*
X151600000Y-50000000D03*
X149600000Y-43000000D03*
X147600000Y-49000000D03*
X147600000Y-51000000D03*
X146600000Y-45000000D03*
X152600000Y-50000000D03*
X148600000Y-48000000D03*
X144600000Y-45000000D03*
X145600000Y-55000000D03*
X150200000Y-55000000D03*
X154200000Y-55000000D03*
X153200000Y-60600000D03*
X155200000Y-60600000D03*
X151200000Y-60600000D03*
X155200000Y-55000000D03*
X156200000Y-55000000D03*
X151200000Y-55000000D03*
X152200000Y-60600000D03*
X156200000Y-60600000D03*
X157200000Y-60600000D03*
X153200000Y-55000000D03*
X152200000Y-55000000D03*
X157200000Y-55000000D03*
X154200000Y-60600000D03*
X150200000Y-60600000D03*
X211500000Y-69400000D03*
G04 #@! TA.AperFunction,Conductor*
G36*
X201586339Y-38509741D02*
G01*
X201618139Y-38517858D01*
X201619703Y-38519538D01*
X201621905Y-38520185D01*
X201643378Y-38544966D01*
X201665750Y-38568995D01*
X201666157Y-38571255D01*
X201667660Y-38572989D01*
X201672327Y-38605452D01*
X201678156Y-38637755D01*
X201677398Y-38640720D01*
X201677604Y-38642147D01*
X201669427Y-38671953D01*
X201630263Y-38766502D01*
X201630261Y-38766510D01*
X201599500Y-38921153D01*
X201599500Y-39078846D01*
X201630261Y-39233489D01*
X201630264Y-39233501D01*
X201690602Y-39379172D01*
X201690609Y-39379185D01*
X201778210Y-39510288D01*
X201778213Y-39510292D01*
X201889707Y-39621786D01*
X201889711Y-39621789D01*
X202020814Y-39709390D01*
X202020827Y-39709397D01*
X202166498Y-39769735D01*
X202166503Y-39769737D01*
X202321153Y-39800499D01*
X202321156Y-39800500D01*
X202321158Y-39800500D01*
X202478844Y-39800500D01*
X202478845Y-39800499D01*
X202633497Y-39769737D01*
X202779179Y-39709394D01*
X202910289Y-39621789D01*
X203021789Y-39510289D01*
X203109394Y-39379179D01*
X203169737Y-39233497D01*
X203200500Y-39078842D01*
X203200500Y-38921158D01*
X203200500Y-38921155D01*
X203200499Y-38921153D01*
X203169738Y-38766510D01*
X203169737Y-38766503D01*
X203130572Y-38671951D01*
X203123104Y-38602483D01*
X203154379Y-38540004D01*
X203214468Y-38504352D01*
X203245134Y-38500500D01*
X227934108Y-38500500D01*
X227996249Y-38500500D01*
X228003736Y-38500726D01*
X228293796Y-38518271D01*
X228308657Y-38520075D01*
X228575600Y-38568995D01*
X228590797Y-38571780D01*
X228605334Y-38575363D01*
X228879182Y-38660698D01*
X228893163Y-38666000D01*
X229154734Y-38783724D01*
X229167987Y-38790680D01*
X229413458Y-38939071D01*
X229425776Y-38947573D01*
X229651573Y-39124474D01*
X229662781Y-39134404D01*
X229865595Y-39337218D01*
X229875525Y-39348426D01*
X230033522Y-39550094D01*
X230052422Y-39574217D01*
X230060928Y-39586541D01*
X230209319Y-39832012D01*
X230216277Y-39845269D01*
X230308908Y-40051086D01*
X230333994Y-40106823D01*
X230339304Y-40120825D01*
X230424635Y-40394664D01*
X230428219Y-40409202D01*
X230479923Y-40691340D01*
X230481728Y-40706205D01*
X230499274Y-40996263D01*
X230499500Y-41003750D01*
X230499500Y-50996249D01*
X230499274Y-51003736D01*
X230481728Y-51293794D01*
X230479923Y-51308659D01*
X230428219Y-51590797D01*
X230424635Y-51605335D01*
X230339304Y-51879174D01*
X230333994Y-51893176D01*
X230216277Y-52154730D01*
X230209319Y-52167987D01*
X230060928Y-52413458D01*
X230052422Y-52425782D01*
X229875525Y-52651573D01*
X229865595Y-52662781D01*
X229662781Y-52865595D01*
X229651573Y-52875525D01*
X229425782Y-53052422D01*
X229413458Y-53060928D01*
X229167987Y-53209319D01*
X229154730Y-53216277D01*
X228893176Y-53333994D01*
X228879174Y-53339304D01*
X228605335Y-53424635D01*
X228590797Y-53428219D01*
X228308659Y-53479923D01*
X228293794Y-53481728D01*
X228003736Y-53499274D01*
X227996249Y-53499500D01*
X216065892Y-53499500D01*
X216000000Y-53499500D01*
X215828031Y-53499500D01*
X215749966Y-53507188D01*
X215485750Y-53533210D01*
X215148427Y-53600308D01*
X214819293Y-53700150D01*
X214501535Y-53831770D01*
X214501530Y-53831772D01*
X214198224Y-53993893D01*
X214198206Y-53993904D01*
X213912248Y-54184975D01*
X213912234Y-54184985D01*
X213646367Y-54403177D01*
X213403177Y-54646367D01*
X213184985Y-54912234D01*
X213184975Y-54912248D01*
X212993904Y-55198206D01*
X212993893Y-55198224D01*
X212831772Y-55501530D01*
X212831770Y-55501535D01*
X212700150Y-55819293D01*
X212600308Y-56148427D01*
X212533210Y-56485750D01*
X212512236Y-56698719D01*
X212504345Y-56778844D01*
X212499500Y-56828034D01*
X212499500Y-74996249D01*
X212499274Y-75003736D01*
X212481728Y-75293794D01*
X212479923Y-75308659D01*
X212428219Y-75590797D01*
X212424635Y-75605335D01*
X212339305Y-75879171D01*
X212333996Y-75893170D01*
X212318821Y-75926889D01*
X212273358Y-75979945D01*
X212206428Y-75999998D01*
X212205745Y-76000000D01*
X211186132Y-76000000D01*
X211119093Y-75980315D01*
X211073338Y-75927511D01*
X211063394Y-75858353D01*
X211085813Y-75803115D01*
X211105563Y-75775930D01*
X211155051Y-75707816D01*
X211251557Y-75518412D01*
X211317246Y-75316243D01*
X211350500Y-75106287D01*
X211350500Y-74893713D01*
X211317246Y-74683757D01*
X211251557Y-74481588D01*
X211155051Y-74292184D01*
X211155049Y-74292181D01*
X211155048Y-74292179D01*
X211030109Y-74120213D01*
X210879786Y-73969890D01*
X210707820Y-73844951D01*
X210518414Y-73748444D01*
X210518413Y-73748443D01*
X210518412Y-73748443D01*
X210316243Y-73682754D01*
X210316241Y-73682753D01*
X210316240Y-73682753D01*
X210154957Y-73657208D01*
X210106287Y-73649500D01*
X209893713Y-73649500D01*
X209845042Y-73657208D01*
X209683760Y-73682753D01*
X209481585Y-73748444D01*
X209292179Y-73844951D01*
X209120213Y-73969890D01*
X208969890Y-74120213D01*
X208844951Y-74292179D01*
X208748444Y-74481585D01*
X208682753Y-74683760D01*
X208649500Y-74893713D01*
X208649500Y-75106286D01*
X208681735Y-75309814D01*
X208682754Y-75316243D01*
X208702007Y-75375498D01*
X208748444Y-75518414D01*
X208844948Y-75707815D01*
X208914187Y-75803115D01*
X208937666Y-75868922D01*
X208921840Y-75936976D01*
X208871734Y-75985670D01*
X208813868Y-76000000D01*
X135186132Y-76000000D01*
X135119093Y-75980315D01*
X135073338Y-75927511D01*
X135063394Y-75858353D01*
X135085813Y-75803115D01*
X135105563Y-75775930D01*
X135155051Y-75707816D01*
X135251557Y-75518412D01*
X135317246Y-75316243D01*
X135350500Y-75106287D01*
X135350500Y-74893713D01*
X135317246Y-74683757D01*
X135251557Y-74481588D01*
X135155051Y-74292184D01*
X135155049Y-74292181D01*
X135155048Y-74292179D01*
X135049224Y-74146523D01*
X135030109Y-74120214D01*
X135030105Y-74120209D01*
X134879786Y-73969890D01*
X134707820Y-73844951D01*
X134518414Y-73748444D01*
X134518413Y-73748443D01*
X134518412Y-73748443D01*
X134316243Y-73682754D01*
X134316241Y-73682753D01*
X134316240Y-73682753D01*
X134154957Y-73657208D01*
X134106287Y-73649500D01*
X133893713Y-73649500D01*
X133845042Y-73657208D01*
X133683760Y-73682753D01*
X133481585Y-73748444D01*
X133292179Y-73844951D01*
X133120213Y-73969890D01*
X132969890Y-74120213D01*
X132844951Y-74292179D01*
X132748444Y-74481585D01*
X132682753Y-74683760D01*
X132649500Y-74893713D01*
X132649500Y-75106286D01*
X132681735Y-75309814D01*
X132682754Y-75316243D01*
X132702007Y-75375498D01*
X132748444Y-75518414D01*
X132844948Y-75707815D01*
X132914187Y-75803115D01*
X132937666Y-75868922D01*
X132921840Y-75936976D01*
X132871734Y-75985670D01*
X132813868Y-76000000D01*
X132124000Y-76000000D01*
X132056961Y-75980315D01*
X132011206Y-75927511D01*
X132000000Y-75876000D01*
X132000000Y-73618753D01*
X142900000Y-73618753D01*
X142900000Y-73625000D01*
X143816988Y-73625000D01*
X143784075Y-73682007D01*
X143750000Y-73809174D01*
X143750000Y-73940826D01*
X143784075Y-74067993D01*
X143816988Y-74125000D01*
X142900000Y-74125000D01*
X142900000Y-74131246D01*
X142933242Y-74341127D01*
X142933242Y-74341130D01*
X142998904Y-74543217D01*
X143095379Y-74732557D01*
X143220272Y-74904459D01*
X143220276Y-74904464D01*
X143370535Y-75054723D01*
X143370540Y-75054727D01*
X143542442Y-75179620D01*
X143731782Y-75276095D01*
X143933871Y-75341757D01*
X144000000Y-75352231D01*
X144000000Y-74308012D01*
X144057007Y-74340925D01*
X144184174Y-74375000D01*
X144315826Y-74375000D01*
X144442993Y-74340925D01*
X144500000Y-74308012D01*
X144500000Y-75352230D01*
X144566126Y-75341757D01*
X144566129Y-75341757D01*
X144768217Y-75276095D01*
X144957557Y-75179620D01*
X145129458Y-75054728D01*
X145268330Y-74915856D01*
X145329653Y-74882371D01*
X145399345Y-74887355D01*
X145455279Y-74929226D01*
X145461551Y-74938440D01*
X145465185Y-74944331D01*
X145465186Y-74944334D01*
X145557288Y-75093656D01*
X145681344Y-75217712D01*
X145830666Y-75309814D01*
X145997203Y-75364999D01*
X146099991Y-75375500D01*
X147400008Y-75375499D01*
X147502797Y-75364999D01*
X147669334Y-75309814D01*
X147818656Y-75217712D01*
X147942712Y-75093656D01*
X148034814Y-74944334D01*
X148089999Y-74777797D01*
X148100500Y-74675009D01*
X148100499Y-73618713D01*
X151699500Y-73618713D01*
X151699500Y-74131286D01*
X151732735Y-74341127D01*
X151732754Y-74341243D01*
X151743722Y-74375000D01*
X151798444Y-74543414D01*
X151894951Y-74732820D01*
X152019890Y-74904786D01*
X152170213Y-75055109D01*
X152342179Y-75180048D01*
X152342181Y-75180049D01*
X152342184Y-75180051D01*
X152531588Y-75276557D01*
X152733757Y-75342246D01*
X152943713Y-75375500D01*
X152943714Y-75375500D01*
X153156286Y-75375500D01*
X153156287Y-75375500D01*
X153366243Y-75342246D01*
X153568412Y-75276557D01*
X153757816Y-75180051D01*
X153929792Y-75055104D01*
X154068604Y-74916291D01*
X154129923Y-74882809D01*
X154199615Y-74887793D01*
X154255549Y-74929664D01*
X154261821Y-74938878D01*
X154265185Y-74944333D01*
X154265186Y-74944334D01*
X154357288Y-75093656D01*
X154481344Y-75217712D01*
X154630666Y-75309814D01*
X154797203Y-75364999D01*
X154899991Y-75375500D01*
X156200008Y-75375499D01*
X156302797Y-75364999D01*
X156469334Y-75309814D01*
X156618656Y-75217712D01*
X156742712Y-75093656D01*
X156834814Y-74944334D01*
X156889999Y-74777797D01*
X156900500Y-74675009D01*
X156900499Y-73107701D01*
X156920184Y-73040663D01*
X156972987Y-72994908D01*
X157042146Y-72984964D01*
X157048673Y-72986081D01*
X157101079Y-72996506D01*
X157121157Y-73000500D01*
X157121158Y-73000500D01*
X157278844Y-73000500D01*
X157278845Y-73000499D01*
X157433497Y-72969737D01*
X157579179Y-72909394D01*
X157631110Y-72874694D01*
X157697785Y-72853816D01*
X157765165Y-72872300D01*
X157768863Y-72874676D01*
X157820821Y-72909394D01*
X157820823Y-72909395D01*
X157820825Y-72909396D01*
X157876879Y-72932614D01*
X157966503Y-72969737D01*
X158121153Y-73000499D01*
X158121156Y-73000500D01*
X158121158Y-73000500D01*
X158278844Y-73000500D01*
X158278845Y-73000499D01*
X158433497Y-72969737D01*
X158579179Y-72909394D01*
X158631110Y-72874694D01*
X158697785Y-72853816D01*
X158765165Y-72872300D01*
X158768863Y-72874676D01*
X158820821Y-72909394D01*
X158820823Y-72909395D01*
X158820825Y-72909396D01*
X158876879Y-72932614D01*
X158966503Y-72969737D01*
X159121153Y-73000499D01*
X159121156Y-73000500D01*
X159121158Y-73000500D01*
X159278844Y-73000500D01*
X159278845Y-73000499D01*
X159433497Y-72969737D01*
X159579179Y-72909394D01*
X159631110Y-72874694D01*
X159697785Y-72853816D01*
X159765165Y-72872300D01*
X159768863Y-72874676D01*
X159820821Y-72909394D01*
X159820823Y-72909395D01*
X159820825Y-72909396D01*
X159876879Y-72932614D01*
X159966503Y-72969737D01*
X160121153Y-73000499D01*
X160121156Y-73000500D01*
X160121158Y-73000500D01*
X160278844Y-73000500D01*
X160278845Y-73000499D01*
X160433497Y-72969737D01*
X160579179Y-72909394D01*
X160631110Y-72874694D01*
X160697785Y-72853816D01*
X160765165Y-72872300D01*
X160768863Y-72874676D01*
X160820821Y-72909394D01*
X160820823Y-72909395D01*
X160820825Y-72909396D01*
X160876879Y-72932614D01*
X160966503Y-72969737D01*
X161121153Y-73000499D01*
X161121156Y-73000500D01*
X161121158Y-73000500D01*
X161278844Y-73000500D01*
X161278845Y-73000499D01*
X161433497Y-72969737D01*
X161579179Y-72909394D01*
X161631110Y-72874694D01*
X161697785Y-72853816D01*
X161765165Y-72872300D01*
X161768863Y-72874676D01*
X161820821Y-72909394D01*
X161820823Y-72909395D01*
X161820825Y-72909396D01*
X161876879Y-72932614D01*
X161966503Y-72969737D01*
X162121153Y-73000499D01*
X162121156Y-73000500D01*
X162121158Y-73000500D01*
X162278844Y-73000500D01*
X162278845Y-73000499D01*
X162433497Y-72969737D01*
X162579179Y-72909394D01*
X162631110Y-72874694D01*
X162697785Y-72853816D01*
X162765165Y-72872300D01*
X162768863Y-72874676D01*
X162820821Y-72909394D01*
X162820823Y-72909395D01*
X162820825Y-72909396D01*
X162876879Y-72932614D01*
X162966503Y-72969737D01*
X163121153Y-73000499D01*
X163121156Y-73000500D01*
X163121158Y-73000500D01*
X163278844Y-73000500D01*
X163278845Y-73000499D01*
X163433497Y-72969737D01*
X163579179Y-72909394D01*
X163631110Y-72874694D01*
X163697785Y-72853816D01*
X163765165Y-72872300D01*
X163768863Y-72874676D01*
X163820821Y-72909394D01*
X163820823Y-72909395D01*
X163820825Y-72909396D01*
X163876879Y-72932614D01*
X163966503Y-72969737D01*
X164121153Y-73000499D01*
X164121156Y-73000500D01*
X164121158Y-73000500D01*
X164278844Y-73000500D01*
X164278845Y-73000499D01*
X164433497Y-72969737D01*
X164579179Y-72909394D01*
X164631110Y-72874694D01*
X164697785Y-72853816D01*
X164765165Y-72872300D01*
X164768863Y-72874676D01*
X164820821Y-72909394D01*
X164820823Y-72909395D01*
X164820825Y-72909396D01*
X164876879Y-72932614D01*
X164966503Y-72969737D01*
X165121153Y-73000499D01*
X165121156Y-73000500D01*
X165121158Y-73000500D01*
X165278844Y-73000500D01*
X165278845Y-73000499D01*
X165433497Y-72969737D01*
X165579179Y-72909394D01*
X165631110Y-72874694D01*
X165697785Y-72853816D01*
X165765165Y-72872300D01*
X165768863Y-72874676D01*
X165820821Y-72909394D01*
X165820823Y-72909395D01*
X165820825Y-72909396D01*
X165876879Y-72932614D01*
X165966503Y-72969737D01*
X166121153Y-73000499D01*
X166121156Y-73000500D01*
X166121158Y-73000500D01*
X166278844Y-73000500D01*
X166278845Y-73000499D01*
X166433497Y-72969737D01*
X166579179Y-72909394D01*
X166631110Y-72874694D01*
X166697785Y-72853816D01*
X166765165Y-72872300D01*
X166768863Y-72874676D01*
X166820821Y-72909394D01*
X166820823Y-72909395D01*
X166820825Y-72909396D01*
X166876879Y-72932614D01*
X166966503Y-72969737D01*
X167121153Y-73000499D01*
X167121156Y-73000500D01*
X167121158Y-73000500D01*
X167278844Y-73000500D01*
X167278845Y-73000499D01*
X167433497Y-72969737D01*
X167579179Y-72909394D01*
X167631110Y-72874694D01*
X167697785Y-72853816D01*
X167765165Y-72872300D01*
X167768863Y-72874676D01*
X167820821Y-72909394D01*
X167820823Y-72909395D01*
X167820825Y-72909396D01*
X167876879Y-72932614D01*
X167966503Y-72969737D01*
X168121153Y-73000499D01*
X168121156Y-73000500D01*
X168121158Y-73000500D01*
X168278844Y-73000500D01*
X168278845Y-73000499D01*
X168433497Y-72969737D01*
X168579179Y-72909394D01*
X168631110Y-72874694D01*
X168697785Y-72853816D01*
X168765165Y-72872300D01*
X168768863Y-72874676D01*
X168820821Y-72909394D01*
X168820823Y-72909395D01*
X168820825Y-72909396D01*
X168876879Y-72932614D01*
X168966503Y-72969737D01*
X169121153Y-73000499D01*
X169121156Y-73000500D01*
X169121158Y-73000500D01*
X169278844Y-73000500D01*
X169278845Y-73000499D01*
X169433497Y-72969737D01*
X169579179Y-72909394D01*
X169631110Y-72874694D01*
X169697785Y-72853816D01*
X169765165Y-72872300D01*
X169768863Y-72874676D01*
X169820821Y-72909394D01*
X169820823Y-72909395D01*
X169820825Y-72909396D01*
X169876879Y-72932614D01*
X169966503Y-72969737D01*
X170121153Y-73000499D01*
X170121156Y-73000500D01*
X170121158Y-73000500D01*
X170278844Y-73000500D01*
X170278845Y-73000499D01*
X170433497Y-72969737D01*
X170579179Y-72909394D01*
X170631110Y-72874694D01*
X170697785Y-72853816D01*
X170765165Y-72872300D01*
X170768863Y-72874676D01*
X170820821Y-72909394D01*
X170820823Y-72909395D01*
X170820825Y-72909396D01*
X170876879Y-72932614D01*
X170966503Y-72969737D01*
X171121153Y-73000499D01*
X171121156Y-73000500D01*
X171121158Y-73000500D01*
X171278844Y-73000500D01*
X171278845Y-73000499D01*
X171433497Y-72969737D01*
X171579179Y-72909394D01*
X171710289Y-72821789D01*
X171821789Y-72710289D01*
X171909394Y-72579179D01*
X171969737Y-72433497D01*
X172000500Y-72278842D01*
X172000500Y-72121158D01*
X172000500Y-72121155D01*
X172000499Y-72121153D01*
X171969738Y-71966510D01*
X171969737Y-71966503D01*
X171969735Y-71966498D01*
X171909396Y-71820825D01*
X171909394Y-71820822D01*
X171909394Y-71820821D01*
X171874694Y-71768889D01*
X171853816Y-71702215D01*
X171872300Y-71634835D01*
X171874676Y-71631136D01*
X171909394Y-71579179D01*
X171969737Y-71433497D01*
X172000500Y-71278842D01*
X172000500Y-71121158D01*
X172000500Y-71121155D01*
X172000499Y-71121153D01*
X171969738Y-70966510D01*
X171969737Y-70966503D01*
X171969735Y-70966498D01*
X171909397Y-70820827D01*
X171909390Y-70820814D01*
X171821789Y-70689711D01*
X171821786Y-70689707D01*
X171710292Y-70578213D01*
X171710288Y-70578210D01*
X171579185Y-70490609D01*
X171579172Y-70490602D01*
X171433501Y-70430264D01*
X171433489Y-70430261D01*
X171278845Y-70399500D01*
X171278842Y-70399500D01*
X171121158Y-70399500D01*
X171121155Y-70399500D01*
X170966510Y-70430261D01*
X170966498Y-70430264D01*
X170820827Y-70490602D01*
X170820814Y-70490609D01*
X170768891Y-70525304D01*
X170702214Y-70546182D01*
X170634833Y-70527698D01*
X170631109Y-70525304D01*
X170579185Y-70490609D01*
X170579172Y-70490602D01*
X170433501Y-70430264D01*
X170433489Y-70430261D01*
X170278845Y-70399500D01*
X170278842Y-70399500D01*
X170121158Y-70399500D01*
X170121155Y-70399500D01*
X169966510Y-70430261D01*
X169966498Y-70430264D01*
X169820827Y-70490602D01*
X169820814Y-70490609D01*
X169768891Y-70525304D01*
X169702214Y-70546182D01*
X169634833Y-70527698D01*
X169631109Y-70525304D01*
X169579185Y-70490609D01*
X169579172Y-70490602D01*
X169433501Y-70430264D01*
X169433489Y-70430261D01*
X169278845Y-70399500D01*
X169278842Y-70399500D01*
X169121158Y-70399500D01*
X169121155Y-70399500D01*
X168966510Y-70430261D01*
X168966498Y-70430264D01*
X168820827Y-70490602D01*
X168820814Y-70490609D01*
X168768891Y-70525304D01*
X168702214Y-70546182D01*
X168634833Y-70527698D01*
X168631109Y-70525304D01*
X168579185Y-70490609D01*
X168579172Y-70490602D01*
X168433501Y-70430264D01*
X168433489Y-70430261D01*
X168278845Y-70399500D01*
X168278842Y-70399500D01*
X168121158Y-70399500D01*
X168121155Y-70399500D01*
X167966510Y-70430261D01*
X167966498Y-70430264D01*
X167820827Y-70490602D01*
X167820814Y-70490609D01*
X167768891Y-70525304D01*
X167702214Y-70546182D01*
X167634833Y-70527698D01*
X167631109Y-70525304D01*
X167579185Y-70490609D01*
X167579172Y-70490602D01*
X167433501Y-70430264D01*
X167433489Y-70430261D01*
X167278845Y-70399500D01*
X167278842Y-70399500D01*
X167121158Y-70399500D01*
X167108735Y-70401971D01*
X167039143Y-70395742D01*
X166983967Y-70352879D01*
X166960723Y-70286989D01*
X166968839Y-70239588D01*
X166967969Y-70239324D01*
X166969731Y-70233509D01*
X166969737Y-70233497D01*
X167000500Y-70078842D01*
X167000500Y-69921158D01*
X167000500Y-69921155D01*
X167000499Y-69921153D01*
X166980542Y-69820822D01*
X166969737Y-69766503D01*
X166915199Y-69634835D01*
X166909396Y-69620825D01*
X166909394Y-69620822D01*
X166909394Y-69620821D01*
X166874694Y-69568889D01*
X166853816Y-69502215D01*
X166872300Y-69434835D01*
X166874676Y-69431136D01*
X166909394Y-69379179D01*
X166969737Y-69233497D01*
X167000500Y-69078842D01*
X167000500Y-68921158D01*
X167000500Y-68921155D01*
X167000499Y-68921153D01*
X166980542Y-68820822D01*
X166969737Y-68766503D01*
X166915199Y-68634835D01*
X166909396Y-68620825D01*
X166909394Y-68620822D01*
X166909394Y-68620821D01*
X166874694Y-68568889D01*
X166853816Y-68502215D01*
X166872300Y-68434835D01*
X166874676Y-68431136D01*
X166909394Y-68379179D01*
X166969737Y-68233497D01*
X167000500Y-68078842D01*
X167000500Y-67921158D01*
X167000500Y-67921155D01*
X167000499Y-67921153D01*
X166980542Y-67820822D01*
X166969737Y-67766503D01*
X166915199Y-67634835D01*
X166909396Y-67620825D01*
X166909394Y-67620822D01*
X166909394Y-67620821D01*
X166874694Y-67568889D01*
X166869603Y-67552632D01*
X166859954Y-67538590D01*
X166859379Y-67519981D01*
X166853816Y-67502215D01*
X166858311Y-67485400D01*
X166857797Y-67468754D01*
X166870072Y-67441406D01*
X166871461Y-67436212D01*
X166873003Y-67433640D01*
X166881347Y-67421153D01*
X205099500Y-67421153D01*
X205099500Y-67578846D01*
X205130261Y-67733489D01*
X205130264Y-67733501D01*
X205190602Y-67879172D01*
X205190609Y-67879185D01*
X205278210Y-68010288D01*
X205278213Y-68010292D01*
X205389707Y-68121786D01*
X205389711Y-68121789D01*
X205520814Y-68209390D01*
X205520827Y-68209397D01*
X205666498Y-68269735D01*
X205666503Y-68269737D01*
X205821153Y-68300499D01*
X205821156Y-68300500D01*
X205821158Y-68300500D01*
X205978844Y-68300500D01*
X205978845Y-68300499D01*
X206133497Y-68269737D01*
X206279179Y-68209394D01*
X206410289Y-68121789D01*
X206521789Y-68010289D01*
X206609394Y-67879179D01*
X206669737Y-67733497D01*
X206700500Y-67578842D01*
X206700500Y-67421158D01*
X206700500Y-67421155D01*
X206700499Y-67421153D01*
X206672192Y-67278846D01*
X206669737Y-67266503D01*
X206609534Y-67121158D01*
X206609397Y-67120827D01*
X206609390Y-67120814D01*
X206521789Y-66989711D01*
X206521786Y-66989707D01*
X206410292Y-66878213D01*
X206410288Y-66878210D01*
X206279185Y-66790609D01*
X206279172Y-66790602D01*
X206133501Y-66730264D01*
X206133489Y-66730261D01*
X205978845Y-66699500D01*
X205978842Y-66699500D01*
X205821158Y-66699500D01*
X205821155Y-66699500D01*
X205666510Y-66730261D01*
X205666498Y-66730264D01*
X205520827Y-66790602D01*
X205520814Y-66790609D01*
X205389711Y-66878210D01*
X205389707Y-66878213D01*
X205278213Y-66989707D01*
X205278210Y-66989711D01*
X205190609Y-67120814D01*
X205190602Y-67120827D01*
X205130264Y-67266498D01*
X205130261Y-67266510D01*
X205099500Y-67421153D01*
X166881347Y-67421153D01*
X166909394Y-67379179D01*
X166969737Y-67233497D01*
X167000500Y-67078842D01*
X167000500Y-66921158D01*
X167000500Y-66921155D01*
X167000499Y-66921153D01*
X166980543Y-66820827D01*
X166969737Y-66766503D01*
X166969735Y-66766498D01*
X166909397Y-66620827D01*
X166909390Y-66620814D01*
X166821789Y-66489711D01*
X166821786Y-66489707D01*
X166710292Y-66378213D01*
X166710288Y-66378210D01*
X166579185Y-66290609D01*
X166579172Y-66290602D01*
X166433501Y-66230264D01*
X166433489Y-66230261D01*
X166278845Y-66199500D01*
X166278842Y-66199500D01*
X166121158Y-66199500D01*
X166121155Y-66199500D01*
X165966510Y-66230261D01*
X165966498Y-66230264D01*
X165820827Y-66290602D01*
X165820814Y-66290609D01*
X165768891Y-66325304D01*
X165702214Y-66346182D01*
X165634833Y-66327698D01*
X165631109Y-66325304D01*
X165579185Y-66290609D01*
X165579172Y-66290602D01*
X165433501Y-66230264D01*
X165433489Y-66230261D01*
X165278845Y-66199500D01*
X165278842Y-66199500D01*
X165121158Y-66199500D01*
X165121155Y-66199500D01*
X164966510Y-66230261D01*
X164966498Y-66230264D01*
X164820827Y-66290602D01*
X164820814Y-66290609D01*
X164768891Y-66325304D01*
X164702214Y-66346182D01*
X164634833Y-66327698D01*
X164631109Y-66325304D01*
X164579185Y-66290609D01*
X164579172Y-66290602D01*
X164433501Y-66230264D01*
X164433489Y-66230261D01*
X164278845Y-66199500D01*
X164278842Y-66199500D01*
X164121158Y-66199500D01*
X164121155Y-66199500D01*
X163966510Y-66230261D01*
X163966498Y-66230264D01*
X163820827Y-66290602D01*
X163820814Y-66290609D01*
X163768891Y-66325304D01*
X163702214Y-66346182D01*
X163634833Y-66327698D01*
X163631109Y-66325304D01*
X163579185Y-66290609D01*
X163579172Y-66290602D01*
X163433501Y-66230264D01*
X163433489Y-66230261D01*
X163278845Y-66199500D01*
X163278842Y-66199500D01*
X163121158Y-66199500D01*
X163121155Y-66199500D01*
X162966510Y-66230261D01*
X162966498Y-66230264D01*
X162820827Y-66290602D01*
X162820814Y-66290609D01*
X162689711Y-66378210D01*
X162689707Y-66378213D01*
X162578213Y-66489707D01*
X162578210Y-66489711D01*
X162490609Y-66620814D01*
X162490602Y-66620827D01*
X162430264Y-66766498D01*
X162430261Y-66766510D01*
X162399500Y-66921153D01*
X162399500Y-67078846D01*
X162430261Y-67233489D01*
X162430264Y-67233501D01*
X162490602Y-67379172D01*
X162490609Y-67379185D01*
X162525304Y-67431109D01*
X162546182Y-67497786D01*
X162527698Y-67565167D01*
X162525304Y-67568891D01*
X162490609Y-67620814D01*
X162490602Y-67620827D01*
X162430264Y-67766498D01*
X162430261Y-67766510D01*
X162399500Y-67921153D01*
X162399500Y-68078846D01*
X162430261Y-68233489D01*
X162430264Y-68233501D01*
X162490602Y-68379172D01*
X162490609Y-68379185D01*
X162525304Y-68431109D01*
X162546182Y-68497786D01*
X162527698Y-68565167D01*
X162525304Y-68568891D01*
X162490609Y-68620814D01*
X162490602Y-68620827D01*
X162430264Y-68766498D01*
X162430261Y-68766510D01*
X162399500Y-68921153D01*
X162399500Y-69078846D01*
X162430261Y-69233489D01*
X162430264Y-69233501D01*
X162490602Y-69379172D01*
X162490609Y-69379185D01*
X162525304Y-69431109D01*
X162546182Y-69497786D01*
X162527698Y-69565167D01*
X162525304Y-69568891D01*
X162490609Y-69620814D01*
X162490602Y-69620827D01*
X162430264Y-69766498D01*
X162430261Y-69766510D01*
X162399500Y-69921153D01*
X162399500Y-70078846D01*
X162430261Y-70233489D01*
X162432031Y-70239324D01*
X162430751Y-70239712D01*
X162437480Y-70302388D01*
X162406196Y-70364863D01*
X162346101Y-70400506D01*
X162291263Y-70401970D01*
X162278845Y-70399500D01*
X162278842Y-70399500D01*
X162121158Y-70399500D01*
X162121155Y-70399500D01*
X161966510Y-70430261D01*
X161966498Y-70430264D01*
X161820827Y-70490602D01*
X161820814Y-70490609D01*
X161768891Y-70525304D01*
X161702214Y-70546182D01*
X161634833Y-70527698D01*
X161631109Y-70525304D01*
X161579185Y-70490609D01*
X161579172Y-70490602D01*
X161433501Y-70430264D01*
X161433489Y-70430261D01*
X161278845Y-70399500D01*
X161278842Y-70399500D01*
X161121158Y-70399500D01*
X161121155Y-70399500D01*
X160966510Y-70430261D01*
X160966498Y-70430264D01*
X160820827Y-70490602D01*
X160820814Y-70490609D01*
X160768891Y-70525304D01*
X160702214Y-70546182D01*
X160634833Y-70527698D01*
X160631109Y-70525304D01*
X160579185Y-70490609D01*
X160579172Y-70490602D01*
X160433501Y-70430264D01*
X160433489Y-70430261D01*
X160278845Y-70399500D01*
X160278842Y-70399500D01*
X160121158Y-70399500D01*
X160121155Y-70399500D01*
X159966510Y-70430261D01*
X159966498Y-70430264D01*
X159820827Y-70490602D01*
X159820814Y-70490609D01*
X159768891Y-70525304D01*
X159702214Y-70546182D01*
X159634833Y-70527698D01*
X159631109Y-70525304D01*
X159579185Y-70490609D01*
X159579172Y-70490602D01*
X159433501Y-70430264D01*
X159433489Y-70430261D01*
X159278845Y-70399500D01*
X159278842Y-70399500D01*
X159121158Y-70399500D01*
X159121155Y-70399500D01*
X158966510Y-70430261D01*
X158966498Y-70430264D01*
X158820827Y-70490602D01*
X158820814Y-70490609D01*
X158768891Y-70525304D01*
X158702214Y-70546182D01*
X158634833Y-70527698D01*
X158631109Y-70525304D01*
X158579185Y-70490609D01*
X158579172Y-70490602D01*
X158433501Y-70430264D01*
X158433489Y-70430261D01*
X158278845Y-70399500D01*
X158278842Y-70399500D01*
X158121158Y-70399500D01*
X158121155Y-70399500D01*
X157966510Y-70430261D01*
X157966498Y-70430264D01*
X157820827Y-70490602D01*
X157820814Y-70490609D01*
X157768891Y-70525304D01*
X157702214Y-70546182D01*
X157634833Y-70527698D01*
X157631109Y-70525304D01*
X157579185Y-70490609D01*
X157579172Y-70490602D01*
X157433501Y-70430264D01*
X157433489Y-70430261D01*
X157278845Y-70399500D01*
X157278842Y-70399500D01*
X157121158Y-70399500D01*
X157121155Y-70399500D01*
X156966510Y-70430261D01*
X156966498Y-70430264D01*
X156820827Y-70490602D01*
X156820814Y-70490609D01*
X156768891Y-70525304D01*
X156702214Y-70546182D01*
X156634833Y-70527698D01*
X156631109Y-70525304D01*
X156579185Y-70490609D01*
X156579172Y-70490602D01*
X156433501Y-70430264D01*
X156433489Y-70430261D01*
X156278845Y-70399500D01*
X156278842Y-70399500D01*
X156124500Y-70399500D01*
X156057461Y-70379815D01*
X156011706Y-70327011D01*
X156000500Y-70275500D01*
X156000500Y-70121155D01*
X156000499Y-70121153D01*
X155969737Y-69966503D01*
X155950955Y-69921158D01*
X155909396Y-69820825D01*
X155909394Y-69820822D01*
X155909394Y-69820821D01*
X155874694Y-69768889D01*
X155853816Y-69702215D01*
X155872300Y-69634835D01*
X155874676Y-69631136D01*
X155909394Y-69579179D01*
X155969737Y-69433497D01*
X156000500Y-69278842D01*
X156000500Y-69121158D01*
X156000500Y-69121155D01*
X156000499Y-69121153D01*
X155969737Y-68966503D01*
X155950955Y-68921158D01*
X155909396Y-68820825D01*
X155909394Y-68820822D01*
X155909394Y-68820821D01*
X155874694Y-68768889D01*
X155853816Y-68702215D01*
X155872300Y-68634835D01*
X155874676Y-68631136D01*
X155909394Y-68579179D01*
X155969737Y-68433497D01*
X156000500Y-68278842D01*
X156000500Y-68121158D01*
X156000500Y-68121155D01*
X156000499Y-68121153D01*
X155969737Y-67966503D01*
X155950955Y-67921158D01*
X155909396Y-67820825D01*
X155909394Y-67820822D01*
X155909394Y-67820821D01*
X155874694Y-67768889D01*
X155853816Y-67702215D01*
X155872300Y-67634835D01*
X155874676Y-67631136D01*
X155909394Y-67579179D01*
X155969737Y-67433497D01*
X156000500Y-67278842D01*
X156000500Y-67121158D01*
X156000500Y-67121155D01*
X156000499Y-67121153D01*
X156000432Y-67120814D01*
X155969737Y-66966503D01*
X155950955Y-66921158D01*
X155909397Y-66820827D01*
X155909390Y-66820814D01*
X155821789Y-66689711D01*
X155821786Y-66689707D01*
X155710292Y-66578213D01*
X155710288Y-66578210D01*
X155579185Y-66490609D01*
X155579172Y-66490602D01*
X155433501Y-66430264D01*
X155433489Y-66430261D01*
X155278845Y-66399500D01*
X155278842Y-66399500D01*
X155121158Y-66399500D01*
X155121155Y-66399500D01*
X154966510Y-66430261D01*
X154966498Y-66430264D01*
X154820827Y-66490602D01*
X154820814Y-66490609D01*
X154689711Y-66578210D01*
X154689707Y-66578213D01*
X154578213Y-66689707D01*
X154578210Y-66689711D01*
X154490609Y-66820814D01*
X154490602Y-66820827D01*
X154430264Y-66966498D01*
X154430261Y-66966510D01*
X154399500Y-67121153D01*
X154399500Y-67278846D01*
X154430261Y-67433489D01*
X154430264Y-67433501D01*
X154490602Y-67579172D01*
X154490609Y-67579185D01*
X154525304Y-67631109D01*
X154546182Y-67697786D01*
X154527698Y-67765167D01*
X154525304Y-67768891D01*
X154490609Y-67820814D01*
X154490602Y-67820827D01*
X154430264Y-67966498D01*
X154430261Y-67966510D01*
X154399500Y-68121153D01*
X154399500Y-68278846D01*
X154430261Y-68433489D01*
X154430264Y-68433501D01*
X154490602Y-68579172D01*
X154490609Y-68579185D01*
X154525304Y-68631109D01*
X154546182Y-68697786D01*
X154527698Y-68765167D01*
X154525304Y-68768891D01*
X154490609Y-68820814D01*
X154490602Y-68820827D01*
X154430264Y-68966498D01*
X154430261Y-68966510D01*
X154399500Y-69121153D01*
X154399500Y-69278846D01*
X154430261Y-69433489D01*
X154430264Y-69433501D01*
X154490602Y-69579172D01*
X154490609Y-69579185D01*
X154525304Y-69631109D01*
X154546182Y-69697786D01*
X154527698Y-69765167D01*
X154525304Y-69768891D01*
X154490609Y-69820814D01*
X154490602Y-69820827D01*
X154430264Y-69966498D01*
X154430261Y-69966510D01*
X154399500Y-70121153D01*
X154399500Y-70278846D01*
X154430261Y-70433489D01*
X154430264Y-70433501D01*
X154490602Y-70579172D01*
X154490609Y-70579185D01*
X154525304Y-70631109D01*
X154546182Y-70697786D01*
X154527698Y-70765167D01*
X154525304Y-70768891D01*
X154490609Y-70820814D01*
X154490602Y-70820827D01*
X154430264Y-70966498D01*
X154430261Y-70966510D01*
X154399500Y-71121153D01*
X154399500Y-71278846D01*
X154430261Y-71433489D01*
X154430264Y-71433501D01*
X154490602Y-71579172D01*
X154490609Y-71579185D01*
X154525304Y-71631109D01*
X154546182Y-71697786D01*
X154527698Y-71765167D01*
X154525304Y-71768891D01*
X154490609Y-71820814D01*
X154490602Y-71820827D01*
X154430264Y-71966498D01*
X154430261Y-71966510D01*
X154399500Y-72121153D01*
X154399500Y-72278846D01*
X154430261Y-72433489D01*
X154430264Y-72433501D01*
X154442452Y-72462925D01*
X154449921Y-72532394D01*
X154418645Y-72594873D01*
X154415574Y-72598057D01*
X154357286Y-72656345D01*
X154261820Y-72811121D01*
X154209872Y-72857846D01*
X154140910Y-72869067D01*
X154076828Y-72841224D01*
X154068601Y-72833705D01*
X153929786Y-72694890D01*
X153757820Y-72569951D01*
X153568414Y-72473444D01*
X153568413Y-72473443D01*
X153568412Y-72473443D01*
X153366243Y-72407754D01*
X153366241Y-72407753D01*
X153366240Y-72407753D01*
X153204957Y-72382208D01*
X153156287Y-72374500D01*
X152943713Y-72374500D01*
X152895042Y-72382208D01*
X152733760Y-72407753D01*
X152531585Y-72473444D01*
X152342179Y-72569951D01*
X152170213Y-72694890D01*
X152019890Y-72845213D01*
X151894951Y-73017179D01*
X151798444Y-73206585D01*
X151732753Y-73408760D01*
X151699500Y-73618713D01*
X148100499Y-73618713D01*
X148100499Y-73074992D01*
X148089999Y-72972203D01*
X148034814Y-72805666D01*
X147942712Y-72656344D01*
X147818656Y-72532288D01*
X147669334Y-72440186D01*
X147502797Y-72385001D01*
X147502795Y-72385000D01*
X147400010Y-72374500D01*
X146099998Y-72374500D01*
X146099981Y-72374501D01*
X145997203Y-72385000D01*
X145997200Y-72385001D01*
X145830668Y-72440185D01*
X145830663Y-72440187D01*
X145681342Y-72532289D01*
X145557289Y-72656342D01*
X145461551Y-72811559D01*
X145409603Y-72858283D01*
X145340640Y-72869506D01*
X145276558Y-72841662D01*
X145268331Y-72834143D01*
X145129464Y-72695276D01*
X145129459Y-72695272D01*
X144957557Y-72570379D01*
X144768215Y-72473903D01*
X144566124Y-72408241D01*
X144500000Y-72397768D01*
X144500000Y-73441988D01*
X144442993Y-73409075D01*
X144315826Y-73375000D01*
X144184174Y-73375000D01*
X144057007Y-73409075D01*
X144000000Y-73441988D01*
X144000000Y-72397768D01*
X143999999Y-72397768D01*
X143933875Y-72408241D01*
X143731784Y-72473903D01*
X143542442Y-72570379D01*
X143370540Y-72695272D01*
X143370535Y-72695276D01*
X143220276Y-72845535D01*
X143220272Y-72845540D01*
X143095379Y-73017442D01*
X142998904Y-73206782D01*
X142933242Y-73408869D01*
X142933242Y-73408872D01*
X142900000Y-73618753D01*
X132000000Y-73618753D01*
X132000000Y-64921153D01*
X143499500Y-64921153D01*
X143499500Y-65078846D01*
X143530261Y-65233489D01*
X143530264Y-65233501D01*
X143590602Y-65379172D01*
X143590609Y-65379185D01*
X143678210Y-65510288D01*
X143678213Y-65510292D01*
X143789707Y-65621786D01*
X143789711Y-65621789D01*
X143920814Y-65709390D01*
X143920827Y-65709397D01*
X144066498Y-65769735D01*
X144066503Y-65769737D01*
X144221153Y-65800499D01*
X144221156Y-65800500D01*
X144221158Y-65800500D01*
X144378844Y-65800500D01*
X144378845Y-65800499D01*
X144533497Y-65769737D01*
X144679179Y-65709394D01*
X144810289Y-65621789D01*
X144921789Y-65510289D01*
X145009394Y-65379179D01*
X145069737Y-65233497D01*
X145100500Y-65078842D01*
X145100500Y-64921158D01*
X145100500Y-64921155D01*
X145100499Y-64921153D01*
X145078447Y-64810292D01*
X145069737Y-64766503D01*
X145033569Y-64679185D01*
X145009397Y-64620827D01*
X145009390Y-64620814D01*
X144921789Y-64489711D01*
X144921786Y-64489707D01*
X144810292Y-64378213D01*
X144810288Y-64378210D01*
X144679185Y-64290609D01*
X144679172Y-64290602D01*
X144533501Y-64230264D01*
X144533489Y-64230261D01*
X144378845Y-64199500D01*
X144378842Y-64199500D01*
X144221158Y-64199500D01*
X144221155Y-64199500D01*
X144066510Y-64230261D01*
X144066498Y-64230264D01*
X143920827Y-64290602D01*
X143920814Y-64290609D01*
X143789711Y-64378210D01*
X143789707Y-64378213D01*
X143678213Y-64489707D01*
X143678210Y-64489711D01*
X143590609Y-64620814D01*
X143590602Y-64620827D01*
X143530264Y-64766498D01*
X143530261Y-64766510D01*
X143499500Y-64921153D01*
X132000000Y-64921153D01*
X132000000Y-50421153D01*
X137153500Y-50421153D01*
X137153500Y-50578846D01*
X137184261Y-50733489D01*
X137184264Y-50733501D01*
X137244602Y-50879172D01*
X137244609Y-50879185D01*
X137332210Y-51010288D01*
X137332213Y-51010292D01*
X137443707Y-51121786D01*
X137443711Y-51121789D01*
X137574814Y-51209390D01*
X137574827Y-51209397D01*
X137720498Y-51269735D01*
X137720503Y-51269737D01*
X137841445Y-51293794D01*
X137875153Y-51300499D01*
X137875156Y-51300500D01*
X137875158Y-51300500D01*
X138032844Y-51300500D01*
X138032845Y-51300499D01*
X138187497Y-51269737D01*
X138333179Y-51209394D01*
X138464289Y-51121789D01*
X138575789Y-51010289D01*
X138663394Y-50879179D01*
X138723737Y-50733497D01*
X138754500Y-50578842D01*
X138754500Y-50421158D01*
X138754500Y-50421155D01*
X138754499Y-50421153D01*
X138737061Y-50333489D01*
X138723737Y-50266503D01*
X138710062Y-50233489D01*
X138663397Y-50120827D01*
X138663390Y-50120814D01*
X138575789Y-49989711D01*
X138575786Y-49989707D01*
X138464292Y-49878213D01*
X138464288Y-49878210D01*
X138333185Y-49790609D01*
X138333172Y-49790602D01*
X138187501Y-49730264D01*
X138187489Y-49730261D01*
X138032845Y-49699500D01*
X138032842Y-49699500D01*
X137875158Y-49699500D01*
X137875155Y-49699500D01*
X137720510Y-49730261D01*
X137720498Y-49730264D01*
X137574827Y-49790602D01*
X137574814Y-49790609D01*
X137443711Y-49878210D01*
X137443707Y-49878213D01*
X137332213Y-49989707D01*
X137332210Y-49989711D01*
X137244609Y-50120814D01*
X137244602Y-50120827D01*
X137184264Y-50266498D01*
X137184261Y-50266510D01*
X137153500Y-50421153D01*
X132000000Y-50421153D01*
X132000000Y-42921153D01*
X143799500Y-42921153D01*
X143799500Y-43078846D01*
X143830261Y-43233489D01*
X143830264Y-43233501D01*
X143890602Y-43379172D01*
X143890609Y-43379185D01*
X143925304Y-43431109D01*
X143946182Y-43497786D01*
X143927698Y-43565167D01*
X143925304Y-43568891D01*
X143890609Y-43620814D01*
X143890602Y-43620827D01*
X143830264Y-43766498D01*
X143830261Y-43766510D01*
X143799500Y-43921153D01*
X143799500Y-44078846D01*
X143830261Y-44233489D01*
X143830264Y-44233501D01*
X143890602Y-44379172D01*
X143890609Y-44379185D01*
X143925304Y-44431109D01*
X143946182Y-44497786D01*
X143927698Y-44565167D01*
X143925304Y-44568891D01*
X143890609Y-44620814D01*
X143890602Y-44620827D01*
X143830264Y-44766498D01*
X143830261Y-44766510D01*
X143799500Y-44921153D01*
X143799500Y-45078846D01*
X143830261Y-45233489D01*
X143830264Y-45233501D01*
X143890602Y-45379172D01*
X143890609Y-45379185D01*
X143925304Y-45431109D01*
X143946182Y-45497786D01*
X143927698Y-45565167D01*
X143925304Y-45568891D01*
X143890609Y-45620814D01*
X143890602Y-45620827D01*
X143830264Y-45766498D01*
X143830261Y-45766510D01*
X143799500Y-45921153D01*
X143799500Y-46078846D01*
X143830261Y-46233489D01*
X143830264Y-46233501D01*
X143890602Y-46379172D01*
X143890609Y-46379185D01*
X143925304Y-46431109D01*
X143946182Y-46497786D01*
X143927698Y-46565167D01*
X143925304Y-46568891D01*
X143890609Y-46620814D01*
X143890602Y-46620827D01*
X143830264Y-46766498D01*
X143830261Y-46766510D01*
X143799500Y-46921153D01*
X143799500Y-47078846D01*
X143830261Y-47233489D01*
X143830264Y-47233501D01*
X143890602Y-47379172D01*
X143890609Y-47379185D01*
X143925304Y-47431109D01*
X143946182Y-47497786D01*
X143927698Y-47565167D01*
X143925304Y-47568891D01*
X143890609Y-47620814D01*
X143890602Y-47620827D01*
X143830264Y-47766498D01*
X143830261Y-47766510D01*
X143799500Y-47921153D01*
X143799500Y-48078846D01*
X143830261Y-48233489D01*
X143830264Y-48233501D01*
X143890602Y-48379172D01*
X143890609Y-48379185D01*
X143925304Y-48431109D01*
X143946182Y-48497786D01*
X143927698Y-48565167D01*
X143925304Y-48568891D01*
X143890609Y-48620814D01*
X143890602Y-48620827D01*
X143830264Y-48766498D01*
X143830261Y-48766510D01*
X143799500Y-48921153D01*
X143799500Y-49078846D01*
X143830261Y-49233489D01*
X143830264Y-49233501D01*
X143890602Y-49379172D01*
X143890609Y-49379185D01*
X143925304Y-49431109D01*
X143946182Y-49497786D01*
X143927698Y-49565167D01*
X143925304Y-49568891D01*
X143890609Y-49620814D01*
X143890602Y-49620827D01*
X143830264Y-49766498D01*
X143830261Y-49766510D01*
X143799500Y-49921153D01*
X143799500Y-50078846D01*
X143830261Y-50233489D01*
X143830264Y-50233501D01*
X143890602Y-50379172D01*
X143890609Y-50379185D01*
X143925304Y-50431109D01*
X143946182Y-50497786D01*
X143927698Y-50565167D01*
X143925304Y-50568891D01*
X143890609Y-50620814D01*
X143890602Y-50620827D01*
X143830264Y-50766498D01*
X143830261Y-50766510D01*
X143799500Y-50921153D01*
X143799500Y-51078846D01*
X143830261Y-51233489D01*
X143830264Y-51233501D01*
X143890602Y-51379172D01*
X143890609Y-51379185D01*
X143925304Y-51431109D01*
X143946182Y-51497786D01*
X143927698Y-51565167D01*
X143925304Y-51568891D01*
X143890609Y-51620814D01*
X143890602Y-51620827D01*
X143830264Y-51766498D01*
X143830261Y-51766510D01*
X143799500Y-51921153D01*
X143799500Y-52078846D01*
X143830261Y-52233489D01*
X143830264Y-52233501D01*
X143890602Y-52379172D01*
X143890609Y-52379185D01*
X143925304Y-52431109D01*
X143946182Y-52497786D01*
X143927698Y-52565167D01*
X143925304Y-52568891D01*
X143890609Y-52620814D01*
X143890602Y-52620827D01*
X143830264Y-52766498D01*
X143830261Y-52766510D01*
X143799500Y-52921153D01*
X143799500Y-53078846D01*
X143830261Y-53233489D01*
X143830264Y-53233501D01*
X143890602Y-53379172D01*
X143890609Y-53379185D01*
X143925304Y-53431109D01*
X143946182Y-53497786D01*
X143927698Y-53565167D01*
X143925304Y-53568891D01*
X143890609Y-53620814D01*
X143890602Y-53620827D01*
X143830264Y-53766498D01*
X143830261Y-53766510D01*
X143799500Y-53921153D01*
X143799500Y-54078846D01*
X143830261Y-54233489D01*
X143830264Y-54233501D01*
X143890602Y-54379172D01*
X143890609Y-54379185D01*
X143925304Y-54431109D01*
X143946182Y-54497786D01*
X143927698Y-54565167D01*
X143925304Y-54568891D01*
X143890609Y-54620814D01*
X143890602Y-54620827D01*
X143830264Y-54766498D01*
X143830261Y-54766510D01*
X143799500Y-54921153D01*
X143799500Y-55078846D01*
X143830261Y-55233489D01*
X143830264Y-55233501D01*
X143890602Y-55379172D01*
X143890609Y-55379185D01*
X143925304Y-55431109D01*
X143946182Y-55497786D01*
X143927698Y-55565167D01*
X143925304Y-55568891D01*
X143890609Y-55620814D01*
X143890602Y-55620827D01*
X143830264Y-55766498D01*
X143830261Y-55766510D01*
X143799500Y-55921153D01*
X143799500Y-56078846D01*
X143830261Y-56233489D01*
X143830264Y-56233501D01*
X143890602Y-56379172D01*
X143890609Y-56379185D01*
X143925304Y-56431109D01*
X143946182Y-56497786D01*
X143927698Y-56565167D01*
X143925304Y-56568891D01*
X143890609Y-56620814D01*
X143890602Y-56620827D01*
X143830264Y-56766498D01*
X143830261Y-56766510D01*
X143799500Y-56921153D01*
X143799500Y-57078846D01*
X143830261Y-57233489D01*
X143830264Y-57233501D01*
X143890602Y-57379172D01*
X143890609Y-57379185D01*
X143925304Y-57431109D01*
X143946182Y-57497786D01*
X143927698Y-57565167D01*
X143925304Y-57568891D01*
X143890609Y-57620814D01*
X143890602Y-57620827D01*
X143830264Y-57766498D01*
X143830261Y-57766510D01*
X143799500Y-57921153D01*
X143799500Y-58078846D01*
X143830261Y-58233489D01*
X143830264Y-58233501D01*
X143890602Y-58379172D01*
X143890609Y-58379185D01*
X143925304Y-58431109D01*
X143946182Y-58497786D01*
X143927698Y-58565167D01*
X143925304Y-58568891D01*
X143890609Y-58620814D01*
X143890602Y-58620827D01*
X143830264Y-58766498D01*
X143830261Y-58766510D01*
X143799500Y-58921153D01*
X143799500Y-59078846D01*
X143830261Y-59233489D01*
X143830264Y-59233501D01*
X143890602Y-59379172D01*
X143890609Y-59379185D01*
X143925304Y-59431109D01*
X143946182Y-59497786D01*
X143927698Y-59565167D01*
X143925304Y-59568891D01*
X143890609Y-59620814D01*
X143890602Y-59620827D01*
X143830264Y-59766498D01*
X143830261Y-59766510D01*
X143799500Y-59921153D01*
X143799500Y-60078846D01*
X143830261Y-60233489D01*
X143830264Y-60233501D01*
X143890602Y-60379172D01*
X143890609Y-60379185D01*
X143978210Y-60510288D01*
X143978213Y-60510292D01*
X144089707Y-60621786D01*
X144089711Y-60621789D01*
X144220814Y-60709390D01*
X144220827Y-60709397D01*
X144358683Y-60766498D01*
X144366503Y-60769737D01*
X144521153Y-60800499D01*
X144521156Y-60800500D01*
X144521158Y-60800500D01*
X144678844Y-60800500D01*
X144678845Y-60800499D01*
X144833497Y-60769737D01*
X144979179Y-60709394D01*
X145110289Y-60621789D01*
X145210925Y-60521153D01*
X149399500Y-60521153D01*
X149399500Y-60678846D01*
X149430261Y-60833489D01*
X149430264Y-60833501D01*
X149490602Y-60979172D01*
X149490609Y-60979185D01*
X149578210Y-61110288D01*
X149578213Y-61110292D01*
X149689707Y-61221786D01*
X149689711Y-61221789D01*
X149820814Y-61309390D01*
X149820827Y-61309397D01*
X149966498Y-61369735D01*
X149966503Y-61369737D01*
X150121153Y-61400499D01*
X150121156Y-61400500D01*
X150121158Y-61400500D01*
X150278844Y-61400500D01*
X150278845Y-61400499D01*
X150433497Y-61369737D01*
X150579179Y-61309394D01*
X150631110Y-61274694D01*
X150697785Y-61253816D01*
X150765165Y-61272300D01*
X150768863Y-61274676D01*
X150820821Y-61309394D01*
X150820823Y-61309395D01*
X150820825Y-61309396D01*
X150966498Y-61369735D01*
X150966503Y-61369737D01*
X151121153Y-61400499D01*
X151121156Y-61400500D01*
X151121158Y-61400500D01*
X151278844Y-61400500D01*
X151278845Y-61400499D01*
X151433497Y-61369737D01*
X151579179Y-61309394D01*
X151631110Y-61274694D01*
X151697785Y-61253816D01*
X151765165Y-61272300D01*
X151768863Y-61274676D01*
X151820821Y-61309394D01*
X151820823Y-61309395D01*
X151820825Y-61309396D01*
X151966498Y-61369735D01*
X151966503Y-61369737D01*
X152121153Y-61400499D01*
X152121156Y-61400500D01*
X152121158Y-61400500D01*
X152278844Y-61400500D01*
X152278845Y-61400499D01*
X152433497Y-61369737D01*
X152579179Y-61309394D01*
X152631110Y-61274694D01*
X152697785Y-61253816D01*
X152765165Y-61272300D01*
X152768863Y-61274676D01*
X152820821Y-61309394D01*
X152820823Y-61309395D01*
X152820825Y-61309396D01*
X152966498Y-61369735D01*
X152966503Y-61369737D01*
X153121153Y-61400499D01*
X153121156Y-61400500D01*
X153121158Y-61400500D01*
X153278844Y-61400500D01*
X153278845Y-61400499D01*
X153433497Y-61369737D01*
X153579179Y-61309394D01*
X153631110Y-61274694D01*
X153697785Y-61253816D01*
X153765165Y-61272300D01*
X153768863Y-61274676D01*
X153820821Y-61309394D01*
X153820823Y-61309395D01*
X153820825Y-61309396D01*
X153966498Y-61369735D01*
X153966503Y-61369737D01*
X154121153Y-61400499D01*
X154121156Y-61400500D01*
X154121158Y-61400500D01*
X154278843Y-61400500D01*
X154299203Y-61396449D01*
X154399234Y-61376552D01*
X154468823Y-61382779D01*
X154524001Y-61425641D01*
X154547246Y-61491531D01*
X154531179Y-61559528D01*
X154526527Y-61567058D01*
X154490611Y-61620811D01*
X154490602Y-61620827D01*
X154430264Y-61766498D01*
X154430261Y-61766510D01*
X154399500Y-61921153D01*
X154399500Y-62078846D01*
X154430261Y-62233489D01*
X154430264Y-62233501D01*
X154490602Y-62379172D01*
X154490609Y-62379185D01*
X154525304Y-62431109D01*
X154546182Y-62497786D01*
X154527698Y-62565167D01*
X154525304Y-62568891D01*
X154490609Y-62620814D01*
X154490602Y-62620827D01*
X154430264Y-62766498D01*
X154430261Y-62766510D01*
X154399500Y-62921153D01*
X154399500Y-63078846D01*
X154430261Y-63233489D01*
X154430264Y-63233501D01*
X154490602Y-63379172D01*
X154490609Y-63379185D01*
X154525304Y-63431109D01*
X154546182Y-63497786D01*
X154527698Y-63565167D01*
X154525304Y-63568891D01*
X154490609Y-63620814D01*
X154490602Y-63620827D01*
X154430264Y-63766498D01*
X154430261Y-63766510D01*
X154399500Y-63921153D01*
X154399500Y-64078846D01*
X154430261Y-64233489D01*
X154430264Y-64233501D01*
X154490602Y-64379172D01*
X154490609Y-64379185D01*
X154525304Y-64431109D01*
X154546182Y-64497786D01*
X154527698Y-64565167D01*
X154525304Y-64568891D01*
X154490609Y-64620814D01*
X154490602Y-64620827D01*
X154430264Y-64766498D01*
X154430261Y-64766510D01*
X154399500Y-64921153D01*
X154399500Y-65078846D01*
X154430261Y-65233489D01*
X154430264Y-65233501D01*
X154490602Y-65379172D01*
X154490609Y-65379185D01*
X154578210Y-65510288D01*
X154578213Y-65510292D01*
X154689707Y-65621786D01*
X154689711Y-65621789D01*
X154820814Y-65709390D01*
X154820827Y-65709397D01*
X154966498Y-65769735D01*
X154966503Y-65769737D01*
X155121153Y-65800499D01*
X155121156Y-65800500D01*
X155121158Y-65800500D01*
X155278844Y-65800500D01*
X155278845Y-65800499D01*
X155433497Y-65769737D01*
X155579179Y-65709394D01*
X155631110Y-65674694D01*
X155697785Y-65653816D01*
X155765165Y-65672300D01*
X155768863Y-65674676D01*
X155820821Y-65709394D01*
X155820823Y-65709395D01*
X155820825Y-65709396D01*
X155966498Y-65769735D01*
X155966503Y-65769737D01*
X156121153Y-65800499D01*
X156121156Y-65800500D01*
X156121158Y-65800500D01*
X156278844Y-65800500D01*
X156278845Y-65800499D01*
X156433497Y-65769737D01*
X156579179Y-65709394D01*
X156710289Y-65621789D01*
X156821789Y-65510289D01*
X156909394Y-65379179D01*
X156969737Y-65233497D01*
X157000500Y-65078842D01*
X157000500Y-64921158D01*
X157000500Y-64921155D01*
X157000499Y-64921153D01*
X156978447Y-64810292D01*
X156969737Y-64766503D01*
X156933569Y-64679185D01*
X156909396Y-64620825D01*
X156909394Y-64620822D01*
X156909394Y-64620821D01*
X156874694Y-64568889D01*
X156853816Y-64502215D01*
X156872300Y-64434835D01*
X156874676Y-64431136D01*
X156909394Y-64379179D01*
X156969737Y-64233497D01*
X157000500Y-64078842D01*
X157000500Y-63921158D01*
X157000500Y-63921155D01*
X157000499Y-63921153D01*
X156992149Y-63879176D01*
X156969737Y-63766503D01*
X156956061Y-63733486D01*
X156909396Y-63620825D01*
X156909394Y-63620822D01*
X156909394Y-63620821D01*
X156874694Y-63568889D01*
X156853816Y-63502215D01*
X156872300Y-63434835D01*
X156874676Y-63431136D01*
X156909394Y-63379179D01*
X156969737Y-63233497D01*
X157000500Y-63078842D01*
X157000500Y-62921158D01*
X157000500Y-62921155D01*
X157000499Y-62921153D01*
X156974531Y-62790606D01*
X156969737Y-62766503D01*
X156909794Y-62621786D01*
X156909396Y-62620825D01*
X156909394Y-62620822D01*
X156909394Y-62620821D01*
X156874694Y-62568889D01*
X156853816Y-62502215D01*
X156872300Y-62434835D01*
X156874676Y-62431136D01*
X156909394Y-62379179D01*
X156969737Y-62233497D01*
X157000500Y-62078842D01*
X157000500Y-61921158D01*
X157000500Y-61921155D01*
X157000499Y-61921153D01*
X156969738Y-61766510D01*
X156969737Y-61766503D01*
X156969735Y-61766498D01*
X156909397Y-61620827D01*
X156909387Y-61620809D01*
X156873473Y-61567059D01*
X156852595Y-61500382D01*
X156871080Y-61433002D01*
X156923059Y-61386312D01*
X156992029Y-61375136D01*
X157000751Y-61376549D01*
X157049831Y-61386312D01*
X157121156Y-61400500D01*
X157121158Y-61400500D01*
X157278844Y-61400500D01*
X157278845Y-61400499D01*
X157433497Y-61369737D01*
X157579179Y-61309394D01*
X157710289Y-61221789D01*
X157821789Y-61110289D01*
X157909394Y-60979179D01*
X157933429Y-60921153D01*
X161399500Y-60921153D01*
X161399500Y-61078846D01*
X161430261Y-61233489D01*
X161430264Y-61233501D01*
X161490602Y-61379172D01*
X161490609Y-61379185D01*
X161525304Y-61431109D01*
X161546182Y-61497786D01*
X161527698Y-61565167D01*
X161525304Y-61568891D01*
X161490609Y-61620814D01*
X161490602Y-61620827D01*
X161430264Y-61766498D01*
X161430261Y-61766510D01*
X161399500Y-61921153D01*
X161399500Y-62078846D01*
X161430261Y-62233489D01*
X161430264Y-62233501D01*
X161490602Y-62379172D01*
X161490609Y-62379185D01*
X161525304Y-62431109D01*
X161546182Y-62497786D01*
X161527698Y-62565167D01*
X161525304Y-62568891D01*
X161490609Y-62620814D01*
X161490602Y-62620827D01*
X161430264Y-62766498D01*
X161430261Y-62766510D01*
X161399500Y-62921153D01*
X161399500Y-63078846D01*
X161430261Y-63233489D01*
X161430264Y-63233501D01*
X161490602Y-63379172D01*
X161490609Y-63379185D01*
X161525304Y-63431109D01*
X161546182Y-63497786D01*
X161527698Y-63565167D01*
X161525304Y-63568891D01*
X161490609Y-63620814D01*
X161490602Y-63620827D01*
X161430264Y-63766498D01*
X161430261Y-63766510D01*
X161399500Y-63921153D01*
X161399500Y-64078846D01*
X161430261Y-64233489D01*
X161430264Y-64233501D01*
X161490602Y-64379172D01*
X161490609Y-64379185D01*
X161525304Y-64431109D01*
X161546182Y-64497786D01*
X161527698Y-64565167D01*
X161525304Y-64568891D01*
X161490609Y-64620814D01*
X161490602Y-64620827D01*
X161430264Y-64766498D01*
X161430261Y-64766510D01*
X161399500Y-64921153D01*
X161399500Y-65078846D01*
X161430261Y-65233489D01*
X161430264Y-65233501D01*
X161490602Y-65379172D01*
X161490609Y-65379185D01*
X161578210Y-65510288D01*
X161578213Y-65510292D01*
X161689707Y-65621786D01*
X161689711Y-65621789D01*
X161820814Y-65709390D01*
X161820827Y-65709397D01*
X161966498Y-65769735D01*
X161966503Y-65769737D01*
X162121153Y-65800499D01*
X162121156Y-65800500D01*
X162121158Y-65800500D01*
X162278844Y-65800500D01*
X162278845Y-65800499D01*
X162433497Y-65769737D01*
X162579179Y-65709394D01*
X162631110Y-65674694D01*
X162697785Y-65653816D01*
X162765165Y-65672300D01*
X162768863Y-65674676D01*
X162820821Y-65709394D01*
X162820823Y-65709395D01*
X162820825Y-65709396D01*
X162966498Y-65769735D01*
X162966503Y-65769737D01*
X163121153Y-65800499D01*
X163121156Y-65800500D01*
X163121158Y-65800500D01*
X163278844Y-65800500D01*
X163278845Y-65800499D01*
X163433497Y-65769737D01*
X163579179Y-65709394D01*
X163710289Y-65621789D01*
X163821789Y-65510289D01*
X163909394Y-65379179D01*
X163969737Y-65233497D01*
X164000500Y-65078842D01*
X164000500Y-64921158D01*
X164000500Y-64921155D01*
X164000499Y-64921153D01*
X163978447Y-64810292D01*
X163969737Y-64766503D01*
X163933569Y-64679185D01*
X163909396Y-64620825D01*
X163909394Y-64620822D01*
X163909394Y-64620821D01*
X163874694Y-64568889D01*
X163853816Y-64502215D01*
X163872300Y-64434835D01*
X163874676Y-64431136D01*
X163909394Y-64379179D01*
X163969737Y-64233497D01*
X164000500Y-64078842D01*
X164000500Y-63921158D01*
X164000500Y-63921155D01*
X164000499Y-63921153D01*
X163992149Y-63879176D01*
X163969737Y-63766503D01*
X163956061Y-63733486D01*
X163909396Y-63620825D01*
X163909394Y-63620822D01*
X163909394Y-63620821D01*
X163874694Y-63568889D01*
X163869603Y-63552633D01*
X163859954Y-63538591D01*
X163859379Y-63519981D01*
X163853816Y-63502215D01*
X163858311Y-63485400D01*
X163857797Y-63468755D01*
X163870072Y-63441406D01*
X163871461Y-63436213D01*
X163873009Y-63433631D01*
X163881349Y-63421150D01*
X183699500Y-63421150D01*
X183699500Y-63578843D01*
X183730261Y-63733486D01*
X183730264Y-63733498D01*
X183779575Y-63852546D01*
X183787044Y-63922015D01*
X183779575Y-63947450D01*
X183730264Y-64066498D01*
X183730261Y-64066510D01*
X183699500Y-64221153D01*
X183699500Y-64378846D01*
X183730261Y-64533489D01*
X183730264Y-64533501D01*
X183790602Y-64679172D01*
X183790609Y-64679185D01*
X183878210Y-64810288D01*
X183878213Y-64810292D01*
X183989707Y-64921786D01*
X183989711Y-64921789D01*
X184120814Y-65009390D01*
X184120827Y-65009397D01*
X184266498Y-65069735D01*
X184266503Y-65069737D01*
X184421153Y-65100499D01*
X184421156Y-65100500D01*
X184421158Y-65100500D01*
X184578844Y-65100500D01*
X184578845Y-65100499D01*
X184733497Y-65069737D01*
X184879179Y-65009394D01*
X185010289Y-64921789D01*
X185121789Y-64810289D01*
X185209394Y-64679179D01*
X185269737Y-64533497D01*
X185300500Y-64378842D01*
X185300500Y-64221158D01*
X185300500Y-64221155D01*
X185300499Y-64221153D01*
X185272192Y-64078846D01*
X185269737Y-64066503D01*
X185220423Y-63947449D01*
X185212955Y-63877981D01*
X185220424Y-63852546D01*
X185269737Y-63733494D01*
X185300500Y-63578839D01*
X185300500Y-63421155D01*
X185300500Y-63421152D01*
X185300499Y-63421150D01*
X185269737Y-63266500D01*
X185269735Y-63266495D01*
X185209397Y-63120824D01*
X185209390Y-63120811D01*
X185121789Y-62989708D01*
X185121786Y-62989704D01*
X185042321Y-62910239D01*
X185008836Y-62848916D01*
X185013820Y-62779224D01*
X185055692Y-62723291D01*
X185074102Y-62712813D01*
X185073809Y-62712264D01*
X185079172Y-62709396D01*
X185079179Y-62709394D01*
X185210289Y-62621789D01*
X185321789Y-62510289D01*
X185409394Y-62379179D01*
X185469737Y-62233497D01*
X185500500Y-62078842D01*
X185500500Y-61921158D01*
X185500500Y-61921155D01*
X185500499Y-61921153D01*
X185469738Y-61766510D01*
X185469737Y-61766503D01*
X185469735Y-61766498D01*
X185409397Y-61620827D01*
X185409390Y-61620814D01*
X185321789Y-61489711D01*
X185321786Y-61489707D01*
X185210292Y-61378213D01*
X185210288Y-61378210D01*
X185079185Y-61290609D01*
X185079172Y-61290602D01*
X184933501Y-61230264D01*
X184933489Y-61230261D01*
X184778845Y-61199500D01*
X184778842Y-61199500D01*
X184621158Y-61199500D01*
X184621155Y-61199500D01*
X184466510Y-61230261D01*
X184466498Y-61230264D01*
X184320827Y-61290602D01*
X184320814Y-61290609D01*
X184189711Y-61378210D01*
X184189707Y-61378213D01*
X184078213Y-61489707D01*
X184078210Y-61489711D01*
X183990609Y-61620814D01*
X183990602Y-61620827D01*
X183930264Y-61766498D01*
X183930261Y-61766510D01*
X183899500Y-61921153D01*
X183899500Y-62078846D01*
X183930261Y-62233489D01*
X183930264Y-62233501D01*
X183990602Y-62379172D01*
X183990609Y-62379185D01*
X184078210Y-62510288D01*
X184078213Y-62510292D01*
X184157678Y-62589757D01*
X184191163Y-62651080D01*
X184186179Y-62720772D01*
X184144307Y-62776705D01*
X184125899Y-62787187D01*
X184126191Y-62787733D01*
X184120814Y-62790606D01*
X183989711Y-62878207D01*
X183989707Y-62878210D01*
X183878213Y-62989704D01*
X183878210Y-62989708D01*
X183790609Y-63120811D01*
X183790602Y-63120824D01*
X183730264Y-63266495D01*
X183730261Y-63266507D01*
X183699500Y-63421150D01*
X163881349Y-63421150D01*
X163909394Y-63379179D01*
X163969737Y-63233497D01*
X164000500Y-63078842D01*
X164000500Y-62921158D01*
X164000500Y-62921155D01*
X164000499Y-62921153D01*
X163974531Y-62790606D01*
X163969737Y-62766503D01*
X163909794Y-62621786D01*
X163909396Y-62620825D01*
X163909394Y-62620822D01*
X163909394Y-62620821D01*
X163874694Y-62568889D01*
X163853816Y-62502215D01*
X163872300Y-62434835D01*
X163874676Y-62431136D01*
X163909394Y-62379179D01*
X163969737Y-62233497D01*
X164000500Y-62078842D01*
X164000500Y-61921158D01*
X164000500Y-61921155D01*
X164000499Y-61921153D01*
X163969738Y-61766510D01*
X163969737Y-61766503D01*
X163969735Y-61766498D01*
X163909396Y-61620825D01*
X163909394Y-61620822D01*
X163909394Y-61620821D01*
X163874694Y-61568889D01*
X163853816Y-61502215D01*
X163872300Y-61434835D01*
X163874676Y-61431136D01*
X163909394Y-61379179D01*
X163969737Y-61233497D01*
X164000500Y-61078842D01*
X164000500Y-60921158D01*
X164000500Y-60921155D01*
X164000499Y-60921153D01*
X163969738Y-60766510D01*
X163969737Y-60766503D01*
X163933427Y-60678842D01*
X163909397Y-60620827D01*
X163909390Y-60620814D01*
X163821789Y-60489711D01*
X163821786Y-60489707D01*
X163710292Y-60378213D01*
X163710288Y-60378210D01*
X163579185Y-60290609D01*
X163579172Y-60290602D01*
X163433501Y-60230264D01*
X163433489Y-60230261D01*
X163278845Y-60199500D01*
X163278842Y-60199500D01*
X163121158Y-60199500D01*
X163121155Y-60199500D01*
X162966510Y-60230261D01*
X162966498Y-60230264D01*
X162820827Y-60290602D01*
X162820814Y-60290609D01*
X162768891Y-60325304D01*
X162702214Y-60346182D01*
X162634833Y-60327698D01*
X162631109Y-60325304D01*
X162579185Y-60290609D01*
X162579172Y-60290602D01*
X162433501Y-60230264D01*
X162433489Y-60230261D01*
X162278845Y-60199500D01*
X162278842Y-60199500D01*
X162121158Y-60199500D01*
X162121155Y-60199500D01*
X161966510Y-60230261D01*
X161966498Y-60230264D01*
X161820827Y-60290602D01*
X161820814Y-60290609D01*
X161689711Y-60378210D01*
X161689707Y-60378213D01*
X161578213Y-60489707D01*
X161578210Y-60489711D01*
X161490609Y-60620814D01*
X161490602Y-60620827D01*
X161430264Y-60766498D01*
X161430261Y-60766510D01*
X161399500Y-60921153D01*
X157933429Y-60921153D01*
X157969737Y-60833497D01*
X158000500Y-60678842D01*
X158000500Y-60521158D01*
X158000500Y-60521155D01*
X158000499Y-60521153D01*
X157985585Y-60446175D01*
X157969737Y-60366503D01*
X157938298Y-60290602D01*
X157909397Y-60220827D01*
X157909390Y-60220814D01*
X157821789Y-60089711D01*
X157821786Y-60089707D01*
X157710292Y-59978213D01*
X157710288Y-59978210D01*
X157579185Y-59890609D01*
X157579172Y-59890602D01*
X157433501Y-59830264D01*
X157433489Y-59830261D01*
X157278845Y-59799500D01*
X157278842Y-59799500D01*
X157121158Y-59799500D01*
X157121155Y-59799500D01*
X156966510Y-59830261D01*
X156966498Y-59830264D01*
X156820827Y-59890602D01*
X156820814Y-59890609D01*
X156768891Y-59925304D01*
X156702214Y-59946182D01*
X156634833Y-59927698D01*
X156631109Y-59925304D01*
X156579185Y-59890609D01*
X156579172Y-59890602D01*
X156433501Y-59830264D01*
X156433489Y-59830261D01*
X156278845Y-59799500D01*
X156278842Y-59799500D01*
X156121158Y-59799500D01*
X156121155Y-59799500D01*
X155966510Y-59830261D01*
X155966498Y-59830264D01*
X155820827Y-59890602D01*
X155820814Y-59890609D01*
X155768891Y-59925304D01*
X155702214Y-59946182D01*
X155634833Y-59927698D01*
X155631109Y-59925304D01*
X155579185Y-59890609D01*
X155579172Y-59890602D01*
X155433501Y-59830264D01*
X155433489Y-59830261D01*
X155278845Y-59799500D01*
X155278842Y-59799500D01*
X155121158Y-59799500D01*
X155121155Y-59799500D01*
X154966510Y-59830261D01*
X154966498Y-59830264D01*
X154820827Y-59890602D01*
X154820814Y-59890609D01*
X154768891Y-59925304D01*
X154702214Y-59946182D01*
X154634833Y-59927698D01*
X154631109Y-59925304D01*
X154579185Y-59890609D01*
X154579172Y-59890602D01*
X154433501Y-59830264D01*
X154433489Y-59830261D01*
X154278845Y-59799500D01*
X154278842Y-59799500D01*
X154121158Y-59799500D01*
X154121155Y-59799500D01*
X153966510Y-59830261D01*
X153966498Y-59830264D01*
X153820827Y-59890602D01*
X153820814Y-59890609D01*
X153768891Y-59925304D01*
X153702214Y-59946182D01*
X153634833Y-59927698D01*
X153631109Y-59925304D01*
X153579185Y-59890609D01*
X153579172Y-59890602D01*
X153433501Y-59830264D01*
X153433489Y-59830261D01*
X153278845Y-59799500D01*
X153278842Y-59799500D01*
X153121158Y-59799500D01*
X153121155Y-59799500D01*
X152966510Y-59830261D01*
X152966498Y-59830264D01*
X152820827Y-59890602D01*
X152820814Y-59890609D01*
X152768891Y-59925304D01*
X152702214Y-59946182D01*
X152634833Y-59927698D01*
X152631109Y-59925304D01*
X152579185Y-59890609D01*
X152579172Y-59890602D01*
X152433501Y-59830264D01*
X152433489Y-59830261D01*
X152278845Y-59799500D01*
X152278842Y-59799500D01*
X152121158Y-59799500D01*
X152121155Y-59799500D01*
X151966510Y-59830261D01*
X151966498Y-59830264D01*
X151820827Y-59890602D01*
X151820814Y-59890609D01*
X151768891Y-59925304D01*
X151702214Y-59946182D01*
X151634833Y-59927698D01*
X151631109Y-59925304D01*
X151579185Y-59890609D01*
X151579172Y-59890602D01*
X151433501Y-59830264D01*
X151433489Y-59830261D01*
X151278845Y-59799500D01*
X151278842Y-59799500D01*
X151121158Y-59799500D01*
X151121155Y-59799500D01*
X150966510Y-59830261D01*
X150966498Y-59830264D01*
X150820827Y-59890602D01*
X150820814Y-59890609D01*
X150768891Y-59925304D01*
X150702214Y-59946182D01*
X150634833Y-59927698D01*
X150631109Y-59925304D01*
X150579185Y-59890609D01*
X150579172Y-59890602D01*
X150433501Y-59830264D01*
X150433489Y-59830261D01*
X150278845Y-59799500D01*
X150278842Y-59799500D01*
X150121158Y-59799500D01*
X150121155Y-59799500D01*
X149966510Y-59830261D01*
X149966498Y-59830264D01*
X149820827Y-59890602D01*
X149820814Y-59890609D01*
X149689711Y-59978210D01*
X149689707Y-59978213D01*
X149578213Y-60089707D01*
X149578210Y-60089711D01*
X149490609Y-60220814D01*
X149490602Y-60220827D01*
X149430264Y-60366498D01*
X149430261Y-60366510D01*
X149399500Y-60521153D01*
X145210925Y-60521153D01*
X145221789Y-60510289D01*
X145309394Y-60379179D01*
X145369737Y-60233497D01*
X145400500Y-60078842D01*
X145400500Y-59921158D01*
X145400500Y-59921155D01*
X145400499Y-59921153D01*
X145382419Y-59830261D01*
X145369737Y-59766503D01*
X145369735Y-59766498D01*
X145309396Y-59620825D01*
X145309394Y-59620822D01*
X145309394Y-59620821D01*
X145274694Y-59568889D01*
X145253816Y-59502215D01*
X145272300Y-59434835D01*
X145274676Y-59431136D01*
X145309394Y-59379179D01*
X145369737Y-59233497D01*
X145400500Y-59078842D01*
X145400500Y-58921158D01*
X145400500Y-58921155D01*
X145400499Y-58921153D01*
X145369738Y-58766510D01*
X145369737Y-58766503D01*
X145342398Y-58700500D01*
X145309396Y-58620825D01*
X145309394Y-58620822D01*
X145309394Y-58620821D01*
X145274694Y-58568889D01*
X145253816Y-58502215D01*
X145272300Y-58434835D01*
X145274676Y-58431136D01*
X145309394Y-58379179D01*
X145369737Y-58233497D01*
X145400500Y-58078842D01*
X145400500Y-57921158D01*
X145400500Y-57921155D01*
X145400499Y-57921153D01*
X145384209Y-57839257D01*
X145369737Y-57766503D01*
X145328314Y-57666498D01*
X145309396Y-57620825D01*
X145309394Y-57620822D01*
X145309394Y-57620821D01*
X145274694Y-57568889D01*
X145253816Y-57502215D01*
X145272300Y-57434835D01*
X145274676Y-57431136D01*
X145309394Y-57379179D01*
X145369737Y-57233497D01*
X145400500Y-57078842D01*
X145400500Y-56921158D01*
X145400500Y-56921155D01*
X145400499Y-56921153D01*
X145372192Y-56778846D01*
X145369737Y-56766503D01*
X145309534Y-56621158D01*
X145309396Y-56620825D01*
X145309394Y-56620822D01*
X145309394Y-56620821D01*
X145274694Y-56568889D01*
X145253816Y-56502215D01*
X145272300Y-56434835D01*
X145274676Y-56431136D01*
X145309394Y-56379179D01*
X145369737Y-56233497D01*
X145400500Y-56078842D01*
X145400500Y-55924500D01*
X145420185Y-55857461D01*
X145472989Y-55811706D01*
X145524500Y-55800500D01*
X145678844Y-55800500D01*
X145678845Y-55800499D01*
X145833497Y-55769737D01*
X145979179Y-55709394D01*
X146031110Y-55674694D01*
X146097785Y-55653816D01*
X146165165Y-55672300D01*
X146168863Y-55674676D01*
X146220821Y-55709394D01*
X146220823Y-55709395D01*
X146220825Y-55709396D01*
X146326603Y-55753210D01*
X146366503Y-55769737D01*
X146521153Y-55800499D01*
X146521156Y-55800500D01*
X146521158Y-55800500D01*
X146678844Y-55800500D01*
X146678845Y-55800499D01*
X146833497Y-55769737D01*
X146979179Y-55709394D01*
X147031110Y-55674694D01*
X147097785Y-55653816D01*
X147165165Y-55672300D01*
X147168863Y-55674676D01*
X147220821Y-55709394D01*
X147220823Y-55709395D01*
X147220825Y-55709396D01*
X147326603Y-55753210D01*
X147366503Y-55769737D01*
X147521153Y-55800499D01*
X147521156Y-55800500D01*
X147521158Y-55800500D01*
X147678844Y-55800500D01*
X147678845Y-55800499D01*
X147833497Y-55769737D01*
X147979179Y-55709394D01*
X148031110Y-55674694D01*
X148097785Y-55653816D01*
X148165165Y-55672300D01*
X148168863Y-55674676D01*
X148220821Y-55709394D01*
X148220823Y-55709395D01*
X148220825Y-55709396D01*
X148326603Y-55753210D01*
X148366503Y-55769737D01*
X148521153Y-55800499D01*
X148521156Y-55800500D01*
X148521158Y-55800500D01*
X148678844Y-55800500D01*
X148678845Y-55800499D01*
X148833497Y-55769737D01*
X148979179Y-55709394D01*
X149110289Y-55621789D01*
X149221789Y-55510289D01*
X149296898Y-55397881D01*
X149350510Y-55353076D01*
X149419835Y-55344369D01*
X149482863Y-55374523D01*
X149503102Y-55397881D01*
X149578210Y-55510288D01*
X149578213Y-55510292D01*
X149689707Y-55621786D01*
X149689711Y-55621789D01*
X149820814Y-55709390D01*
X149820827Y-55709397D01*
X149926603Y-55753210D01*
X149966503Y-55769737D01*
X150121153Y-55800499D01*
X150121156Y-55800500D01*
X150121158Y-55800500D01*
X150278844Y-55800500D01*
X150278845Y-55800499D01*
X150433497Y-55769737D01*
X150579179Y-55709394D01*
X150631110Y-55674694D01*
X150697785Y-55653816D01*
X150765165Y-55672300D01*
X150768863Y-55674676D01*
X150820821Y-55709394D01*
X150820823Y-55709395D01*
X150820825Y-55709396D01*
X150926603Y-55753210D01*
X150966503Y-55769737D01*
X151121153Y-55800499D01*
X151121156Y-55800500D01*
X151121158Y-55800500D01*
X151278844Y-55800500D01*
X151278845Y-55800499D01*
X151433497Y-55769737D01*
X151579179Y-55709394D01*
X151631110Y-55674694D01*
X151697785Y-55653816D01*
X151765165Y-55672300D01*
X151768863Y-55674676D01*
X151820821Y-55709394D01*
X151820823Y-55709395D01*
X151820825Y-55709396D01*
X151926603Y-55753210D01*
X151966503Y-55769737D01*
X152121153Y-55800499D01*
X152121156Y-55800500D01*
X152121158Y-55800500D01*
X152278844Y-55800500D01*
X152278845Y-55800499D01*
X152433497Y-55769737D01*
X152579179Y-55709394D01*
X152631110Y-55674694D01*
X152697785Y-55653816D01*
X152765165Y-55672300D01*
X152768863Y-55674676D01*
X152820821Y-55709394D01*
X152820823Y-55709395D01*
X152820825Y-55709396D01*
X152926603Y-55753210D01*
X152966503Y-55769737D01*
X153121153Y-55800499D01*
X153121156Y-55800500D01*
X153121158Y-55800500D01*
X153278844Y-55800500D01*
X153278845Y-55800499D01*
X153433497Y-55769737D01*
X153579179Y-55709394D01*
X153631110Y-55674694D01*
X153697785Y-55653816D01*
X153765165Y-55672300D01*
X153768863Y-55674676D01*
X153820821Y-55709394D01*
X153820823Y-55709395D01*
X153820825Y-55709396D01*
X153926603Y-55753210D01*
X153966503Y-55769737D01*
X154121153Y-55800499D01*
X154121156Y-55800500D01*
X154121158Y-55800500D01*
X154278844Y-55800500D01*
X154278845Y-55800499D01*
X154433497Y-55769737D01*
X154579179Y-55709394D01*
X154631110Y-55674694D01*
X154697785Y-55653816D01*
X154765165Y-55672300D01*
X154768863Y-55674676D01*
X154820821Y-55709394D01*
X154820823Y-55709395D01*
X154820825Y-55709396D01*
X154926603Y-55753210D01*
X154966503Y-55769737D01*
X155121153Y-55800499D01*
X155121156Y-55800500D01*
X155121158Y-55800500D01*
X155278844Y-55800500D01*
X155278845Y-55800499D01*
X155433497Y-55769737D01*
X155579179Y-55709394D01*
X155631110Y-55674694D01*
X155697785Y-55653816D01*
X155765165Y-55672300D01*
X155768863Y-55674676D01*
X155820821Y-55709394D01*
X155820823Y-55709395D01*
X155820825Y-55709396D01*
X155926603Y-55753210D01*
X155966503Y-55769737D01*
X156121153Y-55800499D01*
X156121156Y-55800500D01*
X156121158Y-55800500D01*
X156278844Y-55800500D01*
X156278845Y-55800499D01*
X156433497Y-55769737D01*
X156579179Y-55709394D01*
X156631110Y-55674694D01*
X156697785Y-55653816D01*
X156765165Y-55672300D01*
X156768863Y-55674676D01*
X156820821Y-55709394D01*
X156820823Y-55709395D01*
X156820825Y-55709396D01*
X156926603Y-55753210D01*
X156966503Y-55769737D01*
X157121153Y-55800499D01*
X157121156Y-55800500D01*
X157121158Y-55800500D01*
X157278844Y-55800500D01*
X157278845Y-55800499D01*
X157433497Y-55769737D01*
X157579179Y-55709394D01*
X157710289Y-55621789D01*
X157821789Y-55510289D01*
X157909394Y-55379179D01*
X157969737Y-55233497D01*
X158000500Y-55078842D01*
X158000500Y-54921158D01*
X158000500Y-54921155D01*
X158000499Y-54921153D01*
X158399500Y-54921153D01*
X158399500Y-55078846D01*
X158430261Y-55233489D01*
X158430264Y-55233501D01*
X158490602Y-55379172D01*
X158490609Y-55379185D01*
X158525304Y-55431109D01*
X158546182Y-55497786D01*
X158527698Y-55565167D01*
X158525304Y-55568891D01*
X158490609Y-55620814D01*
X158490602Y-55620827D01*
X158430264Y-55766498D01*
X158430261Y-55766510D01*
X158399500Y-55921153D01*
X158399500Y-56078846D01*
X158430261Y-56233489D01*
X158430264Y-56233501D01*
X158490602Y-56379172D01*
X158490609Y-56379185D01*
X158525304Y-56431109D01*
X158546182Y-56497786D01*
X158527698Y-56565167D01*
X158525304Y-56568891D01*
X158490609Y-56620814D01*
X158490602Y-56620827D01*
X158430264Y-56766498D01*
X158430261Y-56766510D01*
X158399500Y-56921153D01*
X158399500Y-57078846D01*
X158430261Y-57233489D01*
X158430264Y-57233501D01*
X158490602Y-57379172D01*
X158490609Y-57379185D01*
X158525304Y-57431109D01*
X158546182Y-57497786D01*
X158527698Y-57565167D01*
X158525304Y-57568891D01*
X158490609Y-57620814D01*
X158490602Y-57620827D01*
X158430264Y-57766498D01*
X158430261Y-57766510D01*
X158399500Y-57921153D01*
X158399500Y-58078846D01*
X158430261Y-58233489D01*
X158430264Y-58233501D01*
X158490602Y-58379172D01*
X158490609Y-58379185D01*
X158525304Y-58431109D01*
X158546182Y-58497786D01*
X158527698Y-58565167D01*
X158525304Y-58568891D01*
X158490609Y-58620814D01*
X158490602Y-58620827D01*
X158430264Y-58766498D01*
X158430261Y-58766510D01*
X158399500Y-58921153D01*
X158399500Y-59078846D01*
X158430261Y-59233489D01*
X158430264Y-59233501D01*
X158490602Y-59379172D01*
X158490609Y-59379185D01*
X158525304Y-59431109D01*
X158546182Y-59497786D01*
X158527698Y-59565167D01*
X158525304Y-59568891D01*
X158490609Y-59620814D01*
X158490602Y-59620827D01*
X158430264Y-59766498D01*
X158430261Y-59766510D01*
X158399500Y-59921153D01*
X158399500Y-60078846D01*
X158430261Y-60233489D01*
X158430264Y-60233501D01*
X158490602Y-60379172D01*
X158490609Y-60379185D01*
X158578210Y-60510288D01*
X158578213Y-60510292D01*
X158689707Y-60621786D01*
X158689711Y-60621789D01*
X158820814Y-60709390D01*
X158820827Y-60709397D01*
X158958683Y-60766498D01*
X158966503Y-60769737D01*
X159121153Y-60800499D01*
X159121156Y-60800500D01*
X159121158Y-60800500D01*
X159278844Y-60800500D01*
X159278845Y-60800499D01*
X159433497Y-60769737D01*
X159579179Y-60709394D01*
X159631110Y-60674694D01*
X159697785Y-60653816D01*
X159765165Y-60672300D01*
X159768863Y-60674676D01*
X159820821Y-60709394D01*
X159820823Y-60709395D01*
X159820825Y-60709396D01*
X159958683Y-60766498D01*
X159966503Y-60769737D01*
X160121153Y-60800499D01*
X160121156Y-60800500D01*
X160121158Y-60800500D01*
X160278844Y-60800500D01*
X160278845Y-60800499D01*
X160289179Y-60798443D01*
X160314287Y-60793450D01*
X160314292Y-60793449D01*
X160399800Y-60776439D01*
X160433497Y-60769737D01*
X160579179Y-60709394D01*
X160710289Y-60621789D01*
X160821789Y-60510289D01*
X160909394Y-60379179D01*
X160969737Y-60233497D01*
X161000500Y-60078842D01*
X161000500Y-59921158D01*
X161000500Y-59921155D01*
X161000499Y-59921153D01*
X160982419Y-59830261D01*
X160969737Y-59766503D01*
X160969735Y-59766498D01*
X160909396Y-59620825D01*
X160909394Y-59620822D01*
X160909394Y-59620821D01*
X160874694Y-59568889D01*
X160853816Y-59502215D01*
X160872300Y-59434835D01*
X160874676Y-59431136D01*
X160909394Y-59379179D01*
X160969737Y-59233497D01*
X161000500Y-59078842D01*
X161000500Y-58921158D01*
X161000500Y-58921155D01*
X161000499Y-58921153D01*
X160969738Y-58766510D01*
X160969737Y-58766503D01*
X160942398Y-58700500D01*
X160909396Y-58620825D01*
X160909394Y-58620822D01*
X160909394Y-58620821D01*
X160874694Y-58568889D01*
X160853816Y-58502215D01*
X160872300Y-58434835D01*
X160874676Y-58431136D01*
X160909394Y-58379179D01*
X160969737Y-58233497D01*
X161000500Y-58078842D01*
X161000500Y-57921158D01*
X161000500Y-57921155D01*
X160984209Y-57839258D01*
X160984209Y-57839257D01*
X160980608Y-57821153D01*
X183899500Y-57821153D01*
X183899500Y-57978846D01*
X183930261Y-58133489D01*
X183930264Y-58133501D01*
X183990602Y-58279172D01*
X183990609Y-58279185D01*
X184078210Y-58410288D01*
X184078213Y-58410292D01*
X184189707Y-58521786D01*
X184189711Y-58521789D01*
X184320814Y-58609390D01*
X184320827Y-58609397D01*
X184466498Y-58669735D01*
X184466503Y-58669737D01*
X184621153Y-58700499D01*
X184621156Y-58700500D01*
X184621158Y-58700500D01*
X184778844Y-58700500D01*
X184778845Y-58700499D01*
X184933497Y-58669737D01*
X185051592Y-58620821D01*
X185079172Y-58609397D01*
X185079172Y-58609396D01*
X185079179Y-58609394D01*
X185210289Y-58521789D01*
X185321789Y-58410289D01*
X185409394Y-58279179D01*
X185469737Y-58133497D01*
X185500500Y-57978842D01*
X185500500Y-57821158D01*
X185500500Y-57821155D01*
X185500499Y-57821153D01*
X185469738Y-57666510D01*
X185469737Y-57666503D01*
X185450817Y-57620825D01*
X185409397Y-57520827D01*
X185409390Y-57520814D01*
X185321789Y-57389711D01*
X185321786Y-57389707D01*
X185210292Y-57278213D01*
X185210288Y-57278210D01*
X185079185Y-57190609D01*
X185079172Y-57190602D01*
X184933501Y-57130264D01*
X184933489Y-57130261D01*
X184778845Y-57099500D01*
X184778842Y-57099500D01*
X184621158Y-57099500D01*
X184621155Y-57099500D01*
X184466510Y-57130261D01*
X184466498Y-57130264D01*
X184320827Y-57190602D01*
X184320814Y-57190609D01*
X184189711Y-57278210D01*
X184189707Y-57278213D01*
X184078213Y-57389707D01*
X184078210Y-57389711D01*
X183990609Y-57520814D01*
X183990602Y-57520827D01*
X183930264Y-57666498D01*
X183930261Y-57666510D01*
X183899500Y-57821153D01*
X160980608Y-57821153D01*
X160969738Y-57766510D01*
X160969737Y-57766503D01*
X160928314Y-57666498D01*
X160909396Y-57620825D01*
X160909394Y-57620822D01*
X160909394Y-57620821D01*
X160874694Y-57568889D01*
X160853816Y-57502215D01*
X160872300Y-57434835D01*
X160874676Y-57431136D01*
X160909394Y-57379179D01*
X160969737Y-57233497D01*
X161000500Y-57078842D01*
X161000500Y-56921158D01*
X161000500Y-56921155D01*
X161000499Y-56921153D01*
X160972192Y-56778846D01*
X160969737Y-56766503D01*
X160909534Y-56621158D01*
X160909396Y-56620825D01*
X160909394Y-56620822D01*
X160909394Y-56620821D01*
X160874694Y-56568889D01*
X160871164Y-56557617D01*
X160863668Y-56548485D01*
X160860914Y-56524885D01*
X160853816Y-56502215D01*
X160856736Y-56489068D01*
X160855572Y-56479086D01*
X160863213Y-56459913D01*
X160866416Y-56445499D01*
X160870071Y-56438028D01*
X160909394Y-56379179D01*
X160943784Y-56296153D01*
X193099500Y-56296153D01*
X193099500Y-56453846D01*
X193130261Y-56608489D01*
X193130264Y-56608501D01*
X193190602Y-56754172D01*
X193190609Y-56754185D01*
X193278210Y-56885288D01*
X193278213Y-56885292D01*
X193389707Y-56996786D01*
X193389711Y-56996789D01*
X193520814Y-57084390D01*
X193520827Y-57084397D01*
X193666498Y-57144735D01*
X193666503Y-57144737D01*
X193821153Y-57175499D01*
X193821156Y-57175500D01*
X193821158Y-57175500D01*
X193978844Y-57175500D01*
X193978845Y-57175499D01*
X194133497Y-57144737D01*
X194279179Y-57084394D01*
X194410289Y-56996789D01*
X194521789Y-56885289D01*
X194609394Y-56754179D01*
X194664495Y-56621153D01*
X199299500Y-56621153D01*
X199299500Y-56778846D01*
X199330261Y-56933489D01*
X199330264Y-56933501D01*
X199390602Y-57079172D01*
X199390609Y-57079185D01*
X199478210Y-57210288D01*
X199478213Y-57210292D01*
X199589707Y-57321786D01*
X199589711Y-57321789D01*
X199720814Y-57409390D01*
X199720827Y-57409397D01*
X199782241Y-57434835D01*
X199866503Y-57469737D01*
X200007514Y-57497786D01*
X200021153Y-57500499D01*
X200021156Y-57500500D01*
X200021158Y-57500500D01*
X200178844Y-57500500D01*
X200178845Y-57500499D01*
X200333497Y-57469737D01*
X200479179Y-57409394D01*
X200610289Y-57321789D01*
X200721789Y-57210289D01*
X200809394Y-57079179D01*
X200869737Y-56933497D01*
X200900500Y-56778842D01*
X200900500Y-56621158D01*
X200900500Y-56621155D01*
X200900499Y-56621153D01*
X200894476Y-56590873D01*
X200869737Y-56466503D01*
X200856620Y-56434835D01*
X200809397Y-56320827D01*
X200809390Y-56320814D01*
X200721789Y-56189711D01*
X200721786Y-56189707D01*
X200610292Y-56078213D01*
X200610288Y-56078210D01*
X200479185Y-55990609D01*
X200479172Y-55990602D01*
X200333501Y-55930264D01*
X200333489Y-55930261D01*
X200178845Y-55899500D01*
X200178842Y-55899500D01*
X200021158Y-55899500D01*
X200021155Y-55899500D01*
X199866510Y-55930261D01*
X199866498Y-55930264D01*
X199720827Y-55990602D01*
X199720814Y-55990609D01*
X199589711Y-56078210D01*
X199589707Y-56078213D01*
X199478213Y-56189707D01*
X199478210Y-56189711D01*
X199390609Y-56320814D01*
X199390602Y-56320827D01*
X199330264Y-56466498D01*
X199330261Y-56466510D01*
X199299500Y-56621153D01*
X194664495Y-56621153D01*
X194669737Y-56608497D01*
X194700500Y-56453842D01*
X194700500Y-56296158D01*
X194700500Y-56296155D01*
X194700499Y-56296153D01*
X194669737Y-56141503D01*
X194643521Y-56078211D01*
X194609397Y-55995827D01*
X194609390Y-55995814D01*
X194521789Y-55864711D01*
X194521786Y-55864707D01*
X194410292Y-55753213D01*
X194410288Y-55753210D01*
X194279185Y-55665609D01*
X194279172Y-55665602D01*
X194133501Y-55605264D01*
X194133489Y-55605261D01*
X193978845Y-55574500D01*
X193978842Y-55574500D01*
X193821158Y-55574500D01*
X193821155Y-55574500D01*
X193666510Y-55605261D01*
X193666498Y-55605264D01*
X193520827Y-55665602D01*
X193520814Y-55665609D01*
X193389711Y-55753210D01*
X193389707Y-55753213D01*
X193278213Y-55864707D01*
X193278210Y-55864711D01*
X193190609Y-55995814D01*
X193190602Y-55995827D01*
X193130264Y-56141498D01*
X193130261Y-56141510D01*
X193099500Y-56296153D01*
X160943784Y-56296153D01*
X160969737Y-56233497D01*
X161000500Y-56078842D01*
X161000500Y-55921158D01*
X161000500Y-55921155D01*
X161000499Y-55921153D01*
X160980238Y-55819295D01*
X160969737Y-55766503D01*
X160927946Y-55665609D01*
X160909396Y-55620825D01*
X160909394Y-55620822D01*
X160909394Y-55620821D01*
X160874694Y-55568889D01*
X160853816Y-55502215D01*
X160872300Y-55434835D01*
X160874676Y-55431136D01*
X160909394Y-55379179D01*
X160969737Y-55233497D01*
X161000500Y-55078842D01*
X161000500Y-54921158D01*
X161000500Y-54921155D01*
X161000499Y-54921153D01*
X160969738Y-54766510D01*
X160969737Y-54766503D01*
X160921899Y-54651011D01*
X160909397Y-54620827D01*
X160909390Y-54620814D01*
X160821789Y-54489711D01*
X160821786Y-54489707D01*
X160710292Y-54378213D01*
X160710288Y-54378210D01*
X160579185Y-54290609D01*
X160579172Y-54290602D01*
X160433501Y-54230264D01*
X160433489Y-54230261D01*
X160278845Y-54199500D01*
X160278842Y-54199500D01*
X160121158Y-54199500D01*
X160121155Y-54199500D01*
X159966510Y-54230261D01*
X159966498Y-54230264D01*
X159820827Y-54290602D01*
X159820814Y-54290609D01*
X159768891Y-54325304D01*
X159702214Y-54346182D01*
X159634833Y-54327698D01*
X159631109Y-54325304D01*
X159579185Y-54290609D01*
X159579172Y-54290602D01*
X159433501Y-54230264D01*
X159433489Y-54230261D01*
X159278845Y-54199500D01*
X159278842Y-54199500D01*
X159121158Y-54199500D01*
X159121155Y-54199500D01*
X158966510Y-54230261D01*
X158966498Y-54230264D01*
X158820827Y-54290602D01*
X158820814Y-54290609D01*
X158689711Y-54378210D01*
X158689707Y-54378213D01*
X158578213Y-54489707D01*
X158578210Y-54489711D01*
X158490609Y-54620814D01*
X158490602Y-54620827D01*
X158430264Y-54766498D01*
X158430261Y-54766510D01*
X158399500Y-54921153D01*
X158000499Y-54921153D01*
X157969738Y-54766510D01*
X157969737Y-54766503D01*
X157921899Y-54651011D01*
X157909397Y-54620827D01*
X157909390Y-54620814D01*
X157821789Y-54489711D01*
X157821786Y-54489707D01*
X157710292Y-54378213D01*
X157710288Y-54378210D01*
X157579185Y-54290609D01*
X157579172Y-54290602D01*
X157433501Y-54230264D01*
X157433489Y-54230261D01*
X157278845Y-54199500D01*
X157278842Y-54199500D01*
X157121158Y-54199500D01*
X157121155Y-54199500D01*
X156966510Y-54230261D01*
X156966498Y-54230264D01*
X156820827Y-54290602D01*
X156820814Y-54290609D01*
X156768891Y-54325304D01*
X156702214Y-54346182D01*
X156634833Y-54327698D01*
X156631109Y-54325304D01*
X156579185Y-54290609D01*
X156579172Y-54290602D01*
X156433501Y-54230264D01*
X156433489Y-54230261D01*
X156278845Y-54199500D01*
X156278842Y-54199500D01*
X156121158Y-54199500D01*
X156121155Y-54199500D01*
X155966510Y-54230261D01*
X155966498Y-54230264D01*
X155820827Y-54290602D01*
X155820814Y-54290609D01*
X155768891Y-54325304D01*
X155702214Y-54346182D01*
X155634833Y-54327698D01*
X155631109Y-54325304D01*
X155579185Y-54290609D01*
X155579172Y-54290602D01*
X155433501Y-54230264D01*
X155433489Y-54230261D01*
X155278845Y-54199500D01*
X155278842Y-54199500D01*
X155121158Y-54199500D01*
X155121155Y-54199500D01*
X154966510Y-54230261D01*
X154966498Y-54230264D01*
X154820827Y-54290602D01*
X154820814Y-54290609D01*
X154768891Y-54325304D01*
X154702214Y-54346182D01*
X154634833Y-54327698D01*
X154631109Y-54325304D01*
X154579185Y-54290609D01*
X154579172Y-54290602D01*
X154433501Y-54230264D01*
X154433489Y-54230261D01*
X154278845Y-54199500D01*
X154278842Y-54199500D01*
X154121158Y-54199500D01*
X154121155Y-54199500D01*
X153966510Y-54230261D01*
X153966498Y-54230264D01*
X153820827Y-54290602D01*
X153820814Y-54290609D01*
X153768891Y-54325304D01*
X153702214Y-54346182D01*
X153634833Y-54327698D01*
X153631109Y-54325304D01*
X153579185Y-54290609D01*
X153579172Y-54290602D01*
X153433501Y-54230264D01*
X153433489Y-54230261D01*
X153278845Y-54199500D01*
X153278842Y-54199500D01*
X153121158Y-54199500D01*
X153121155Y-54199500D01*
X152966510Y-54230261D01*
X152966498Y-54230264D01*
X152820827Y-54290602D01*
X152820814Y-54290609D01*
X152768891Y-54325304D01*
X152702214Y-54346182D01*
X152634833Y-54327698D01*
X152631109Y-54325304D01*
X152579185Y-54290609D01*
X152579172Y-54290602D01*
X152433501Y-54230264D01*
X152433489Y-54230261D01*
X152278845Y-54199500D01*
X152278842Y-54199500D01*
X152121158Y-54199500D01*
X152121155Y-54199500D01*
X151966510Y-54230261D01*
X151966498Y-54230264D01*
X151820827Y-54290602D01*
X151820814Y-54290609D01*
X151768891Y-54325304D01*
X151702214Y-54346182D01*
X151634833Y-54327698D01*
X151631109Y-54325304D01*
X151579185Y-54290609D01*
X151579172Y-54290602D01*
X151433501Y-54230264D01*
X151433489Y-54230261D01*
X151278845Y-54199500D01*
X151278842Y-54199500D01*
X151121158Y-54199500D01*
X151121155Y-54199500D01*
X150966510Y-54230261D01*
X150966498Y-54230264D01*
X150820827Y-54290602D01*
X150820814Y-54290609D01*
X150768891Y-54325304D01*
X150702214Y-54346182D01*
X150634833Y-54327698D01*
X150631109Y-54325304D01*
X150579185Y-54290609D01*
X150579172Y-54290602D01*
X150433501Y-54230264D01*
X150433489Y-54230261D01*
X150278845Y-54199500D01*
X150278842Y-54199500D01*
X150121158Y-54199500D01*
X150121155Y-54199500D01*
X149966510Y-54230261D01*
X149966498Y-54230264D01*
X149820827Y-54290602D01*
X149820814Y-54290609D01*
X149689711Y-54378210D01*
X149689707Y-54378213D01*
X149578213Y-54489707D01*
X149578210Y-54489711D01*
X149503101Y-54602119D01*
X149477922Y-54623161D01*
X149453517Y-54645084D01*
X149451250Y-54645451D01*
X149449488Y-54646924D01*
X149416943Y-54651011D01*
X149384547Y-54656262D01*
X149382440Y-54655344D01*
X149380163Y-54655631D01*
X149350582Y-54641478D01*
X149320483Y-54628377D01*
X149318435Y-54626097D01*
X149317136Y-54625476D01*
X149296898Y-54602120D01*
X149274694Y-54568889D01*
X149253816Y-54502215D01*
X149272300Y-54434835D01*
X149274676Y-54431136D01*
X149309394Y-54379179D01*
X149369737Y-54233497D01*
X149400500Y-54078842D01*
X149400500Y-53924500D01*
X149420185Y-53857461D01*
X149472989Y-53811706D01*
X149524500Y-53800500D01*
X149678844Y-53800500D01*
X149678845Y-53800499D01*
X149833497Y-53769737D01*
X149979179Y-53709394D01*
X150031110Y-53674694D01*
X150097785Y-53653816D01*
X150165165Y-53672300D01*
X150168863Y-53674676D01*
X150220821Y-53709394D01*
X150220823Y-53709395D01*
X150220825Y-53709396D01*
X150358683Y-53766498D01*
X150366503Y-53769737D01*
X150521153Y-53800499D01*
X150521156Y-53800500D01*
X150521158Y-53800500D01*
X150678844Y-53800500D01*
X150678845Y-53800499D01*
X150833497Y-53769737D01*
X150979179Y-53709394D01*
X151031110Y-53674694D01*
X151097785Y-53653816D01*
X151165165Y-53672300D01*
X151168863Y-53674676D01*
X151220821Y-53709394D01*
X151220823Y-53709395D01*
X151220825Y-53709396D01*
X151358683Y-53766498D01*
X151366503Y-53769737D01*
X151521153Y-53800499D01*
X151521156Y-53800500D01*
X151521158Y-53800500D01*
X151678844Y-53800500D01*
X151678845Y-53800499D01*
X151833497Y-53769737D01*
X151979179Y-53709394D01*
X152031110Y-53674694D01*
X152097785Y-53653816D01*
X152165165Y-53672300D01*
X152168863Y-53674676D01*
X152220821Y-53709394D01*
X152220823Y-53709395D01*
X152220825Y-53709396D01*
X152358683Y-53766498D01*
X152366503Y-53769737D01*
X152521153Y-53800499D01*
X152521156Y-53800500D01*
X152521158Y-53800500D01*
X152678844Y-53800500D01*
X152678845Y-53800499D01*
X152833497Y-53769737D01*
X152979179Y-53709394D01*
X153031110Y-53674694D01*
X153097785Y-53653816D01*
X153165165Y-53672300D01*
X153168863Y-53674676D01*
X153220821Y-53709394D01*
X153220823Y-53709395D01*
X153220825Y-53709396D01*
X153358683Y-53766498D01*
X153366503Y-53769737D01*
X153521153Y-53800499D01*
X153521156Y-53800500D01*
X153521158Y-53800500D01*
X153678844Y-53800500D01*
X153678845Y-53800499D01*
X153833497Y-53769737D01*
X153979179Y-53709394D01*
X154031110Y-53674694D01*
X154097785Y-53653816D01*
X154165165Y-53672300D01*
X154168863Y-53674676D01*
X154220821Y-53709394D01*
X154220823Y-53709395D01*
X154220825Y-53709396D01*
X154358683Y-53766498D01*
X154366503Y-53769737D01*
X154521153Y-53800499D01*
X154521156Y-53800500D01*
X154521158Y-53800500D01*
X154678844Y-53800500D01*
X154678845Y-53800499D01*
X154833497Y-53769737D01*
X154979179Y-53709394D01*
X155031110Y-53674694D01*
X155097785Y-53653816D01*
X155165165Y-53672300D01*
X155168863Y-53674676D01*
X155220821Y-53709394D01*
X155220823Y-53709395D01*
X155220825Y-53709396D01*
X155358683Y-53766498D01*
X155366503Y-53769737D01*
X155521153Y-53800499D01*
X155521156Y-53800500D01*
X155521158Y-53800500D01*
X155678844Y-53800500D01*
X155678845Y-53800499D01*
X155833497Y-53769737D01*
X155979179Y-53709394D01*
X156110289Y-53621789D01*
X156221789Y-53510289D01*
X156309394Y-53379179D01*
X156369737Y-53233497D01*
X156378383Y-53190033D01*
X156410768Y-53128122D01*
X156471483Y-53093548D01*
X156541253Y-53097287D01*
X156597925Y-53138154D01*
X156621617Y-53190033D01*
X156630261Y-53233489D01*
X156630264Y-53233501D01*
X156690602Y-53379172D01*
X156690609Y-53379185D01*
X156778210Y-53510288D01*
X156778213Y-53510292D01*
X156889707Y-53621786D01*
X156889711Y-53621789D01*
X157020814Y-53709390D01*
X157020827Y-53709397D01*
X157158683Y-53766498D01*
X157166503Y-53769737D01*
X157321153Y-53800499D01*
X157321156Y-53800500D01*
X157321158Y-53800500D01*
X157478844Y-53800500D01*
X157478845Y-53800499D01*
X157633497Y-53769737D01*
X157779179Y-53709394D01*
X157831110Y-53674694D01*
X157897785Y-53653816D01*
X157965165Y-53672300D01*
X157968863Y-53674676D01*
X158020821Y-53709394D01*
X158020823Y-53709395D01*
X158020825Y-53709396D01*
X158158683Y-53766498D01*
X158166503Y-53769737D01*
X158321153Y-53800499D01*
X158321156Y-53800500D01*
X158321158Y-53800500D01*
X158478844Y-53800500D01*
X158478845Y-53800499D01*
X158633497Y-53769737D01*
X158779179Y-53709394D01*
X158831110Y-53674694D01*
X158897785Y-53653816D01*
X158965165Y-53672300D01*
X158968863Y-53674676D01*
X159020821Y-53709394D01*
X159020823Y-53709395D01*
X159020825Y-53709396D01*
X159158683Y-53766498D01*
X159166503Y-53769737D01*
X159321153Y-53800499D01*
X159321156Y-53800500D01*
X159321158Y-53800500D01*
X159478844Y-53800500D01*
X159478845Y-53800499D01*
X159633497Y-53769737D01*
X159779179Y-53709394D01*
X159831110Y-53674694D01*
X159897785Y-53653816D01*
X159965165Y-53672300D01*
X159968863Y-53674676D01*
X160020821Y-53709394D01*
X160020823Y-53709395D01*
X160020825Y-53709396D01*
X160158683Y-53766498D01*
X160166503Y-53769737D01*
X160321153Y-53800499D01*
X160321156Y-53800500D01*
X160321158Y-53800500D01*
X160478844Y-53800500D01*
X160478845Y-53800499D01*
X160633497Y-53769737D01*
X160779179Y-53709394D01*
X160831110Y-53674694D01*
X160897785Y-53653816D01*
X160965165Y-53672300D01*
X160968863Y-53674676D01*
X161020821Y-53709394D01*
X161020823Y-53709395D01*
X161020825Y-53709396D01*
X161158683Y-53766498D01*
X161166503Y-53769737D01*
X161321153Y-53800499D01*
X161321156Y-53800500D01*
X161321158Y-53800500D01*
X161478844Y-53800500D01*
X161478845Y-53800499D01*
X161633497Y-53769737D01*
X161779179Y-53709394D01*
X161831110Y-53674694D01*
X161897785Y-53653816D01*
X161965165Y-53672300D01*
X161968863Y-53674676D01*
X162020821Y-53709394D01*
X162020823Y-53709395D01*
X162020825Y-53709396D01*
X162158683Y-53766498D01*
X162166503Y-53769737D01*
X162321153Y-53800499D01*
X162321156Y-53800500D01*
X162321158Y-53800500D01*
X162478844Y-53800500D01*
X162478845Y-53800499D01*
X162633497Y-53769737D01*
X162779179Y-53709394D01*
X162831110Y-53674694D01*
X162897785Y-53653816D01*
X162965165Y-53672300D01*
X162968863Y-53674676D01*
X163020821Y-53709394D01*
X163020823Y-53709395D01*
X163020825Y-53709396D01*
X163158683Y-53766498D01*
X163166503Y-53769737D01*
X163321153Y-53800499D01*
X163321156Y-53800500D01*
X163321158Y-53800500D01*
X163478844Y-53800500D01*
X163478845Y-53800499D01*
X163633497Y-53769737D01*
X163779179Y-53709394D01*
X163831110Y-53674694D01*
X163897785Y-53653816D01*
X163965165Y-53672300D01*
X163968863Y-53674676D01*
X164020821Y-53709394D01*
X164020823Y-53709395D01*
X164020825Y-53709396D01*
X164158683Y-53766498D01*
X164166503Y-53769737D01*
X164321153Y-53800499D01*
X164321156Y-53800500D01*
X164321158Y-53800500D01*
X164478844Y-53800500D01*
X164478845Y-53800499D01*
X164633497Y-53769737D01*
X164779179Y-53709394D01*
X164831110Y-53674694D01*
X164897785Y-53653816D01*
X164965165Y-53672300D01*
X164968863Y-53674676D01*
X165020821Y-53709394D01*
X165020823Y-53709395D01*
X165020825Y-53709396D01*
X165158683Y-53766498D01*
X165166503Y-53769737D01*
X165321153Y-53800499D01*
X165321156Y-53800500D01*
X165321158Y-53800500D01*
X165478844Y-53800500D01*
X165478845Y-53800499D01*
X165633497Y-53769737D01*
X165779179Y-53709394D01*
X165831110Y-53674694D01*
X165897785Y-53653816D01*
X165965165Y-53672300D01*
X165968863Y-53674676D01*
X166020821Y-53709394D01*
X166020823Y-53709395D01*
X166020825Y-53709396D01*
X166158683Y-53766498D01*
X166166503Y-53769737D01*
X166321153Y-53800499D01*
X166321156Y-53800500D01*
X166321158Y-53800500D01*
X166478844Y-53800500D01*
X166478845Y-53800499D01*
X166633497Y-53769737D01*
X166779179Y-53709394D01*
X166910289Y-53621789D01*
X167021789Y-53510289D01*
X167109394Y-53379179D01*
X167169737Y-53233497D01*
X167200500Y-53078842D01*
X167200500Y-52921158D01*
X167200500Y-52921155D01*
X167200499Y-52921153D01*
X167191423Y-52875525D01*
X167169737Y-52766503D01*
X167169735Y-52766498D01*
X167109396Y-52620825D01*
X167109394Y-52620822D01*
X167109394Y-52620821D01*
X167074694Y-52568889D01*
X167053816Y-52502215D01*
X167072300Y-52434835D01*
X167074676Y-52431136D01*
X167109394Y-52379179D01*
X167169737Y-52233497D01*
X167200500Y-52078842D01*
X167200500Y-51921158D01*
X167200500Y-51921155D01*
X167200499Y-51921153D01*
X167192272Y-51879792D01*
X167169737Y-51766503D01*
X167150953Y-51721153D01*
X201399500Y-51721153D01*
X201399500Y-51878846D01*
X201430261Y-52033489D01*
X201430264Y-52033501D01*
X201490602Y-52179172D01*
X201490609Y-52179185D01*
X201578210Y-52310288D01*
X201578213Y-52310292D01*
X201689707Y-52421786D01*
X201689711Y-52421789D01*
X201820814Y-52509390D01*
X201820827Y-52509397D01*
X201964463Y-52568892D01*
X201966503Y-52569737D01*
X202121153Y-52600499D01*
X202121156Y-52600500D01*
X202121158Y-52600500D01*
X202278844Y-52600500D01*
X202278845Y-52600499D01*
X202433497Y-52569737D01*
X202559254Y-52517647D01*
X202579172Y-52509397D01*
X202579172Y-52509396D01*
X202579179Y-52509394D01*
X202710289Y-52421789D01*
X202821789Y-52310289D01*
X202909394Y-52179179D01*
X202969737Y-52033497D01*
X203000500Y-51878842D01*
X203000500Y-51721158D01*
X203000500Y-51721155D01*
X203000499Y-51721153D01*
X202980542Y-51620822D01*
X202969737Y-51566503D01*
X202963527Y-51551511D01*
X202909397Y-51420827D01*
X202909390Y-51420814D01*
X202821789Y-51289711D01*
X202821786Y-51289707D01*
X202710292Y-51178213D01*
X202710288Y-51178210D01*
X202583830Y-51093713D01*
X208649500Y-51093713D01*
X208649500Y-51306286D01*
X208679830Y-51497786D01*
X208682754Y-51516243D01*
X208745001Y-51707820D01*
X208748444Y-51718414D01*
X208844951Y-51907820D01*
X208969890Y-52079786D01*
X209120213Y-52230109D01*
X209292179Y-52355048D01*
X209292181Y-52355049D01*
X209292184Y-52355051D01*
X209481588Y-52451557D01*
X209683757Y-52517246D01*
X209893713Y-52550500D01*
X209893714Y-52550500D01*
X210106286Y-52550500D01*
X210106287Y-52550500D01*
X210316243Y-52517246D01*
X210518412Y-52451557D01*
X210707816Y-52355051D01*
X210729789Y-52339086D01*
X210879786Y-52230109D01*
X210879788Y-52230106D01*
X210879792Y-52230104D01*
X211030104Y-52079792D01*
X211030106Y-52079788D01*
X211030109Y-52079786D01*
X211155048Y-51907820D01*
X211155047Y-51907820D01*
X211155051Y-51907816D01*
X211251557Y-51718412D01*
X211317246Y-51516243D01*
X211350500Y-51306287D01*
X211350500Y-51093713D01*
X211340451Y-51030264D01*
X211321124Y-50908239D01*
X211318823Y-50893713D01*
X226649500Y-50893713D01*
X226649500Y-51106287D01*
X226657492Y-51156749D01*
X226681552Y-51308659D01*
X226682754Y-51316243D01*
X226748194Y-51517647D01*
X226748444Y-51518414D01*
X226844951Y-51707820D01*
X226969890Y-51879786D01*
X227120213Y-52030109D01*
X227292179Y-52155048D01*
X227292181Y-52155049D01*
X227292184Y-52155051D01*
X227481588Y-52251557D01*
X227683757Y-52317246D01*
X227893713Y-52350500D01*
X227893714Y-52350500D01*
X228106286Y-52350500D01*
X228106287Y-52350500D01*
X228316243Y-52317246D01*
X228518412Y-52251557D01*
X228707816Y-52155051D01*
X228787322Y-52097287D01*
X228879786Y-52030109D01*
X228879788Y-52030106D01*
X228879792Y-52030104D01*
X229030104Y-51879792D01*
X229030106Y-51879788D01*
X229030109Y-51879786D01*
X229155048Y-51707820D01*
X229155047Y-51707820D01*
X229155051Y-51707816D01*
X229251557Y-51518412D01*
X229317246Y-51316243D01*
X229350500Y-51106287D01*
X229350500Y-50893713D01*
X229317246Y-50683757D01*
X229251557Y-50481588D01*
X229155051Y-50292184D01*
X229155049Y-50292181D01*
X229155048Y-50292179D01*
X229030109Y-50120213D01*
X228879786Y-49969890D01*
X228707820Y-49844951D01*
X228518414Y-49748444D01*
X228518413Y-49748443D01*
X228518412Y-49748443D01*
X228316243Y-49682754D01*
X228316241Y-49682753D01*
X228316240Y-49682753D01*
X228154957Y-49657208D01*
X228106287Y-49649500D01*
X227893713Y-49649500D01*
X227845042Y-49657208D01*
X227683760Y-49682753D01*
X227481585Y-49748444D01*
X227292179Y-49844951D01*
X227120213Y-49969890D01*
X226969890Y-50120213D01*
X226844951Y-50292179D01*
X226748444Y-50481585D01*
X226682753Y-50683760D01*
X226662855Y-50809394D01*
X226649500Y-50893713D01*
X211318823Y-50893713D01*
X211317246Y-50883759D01*
X211317246Y-50883757D01*
X211251557Y-50681588D01*
X211155051Y-50492184D01*
X211155049Y-50492181D01*
X211155048Y-50492179D01*
X211030109Y-50320213D01*
X210879786Y-50169890D01*
X210707820Y-50044951D01*
X210518414Y-49948444D01*
X210518413Y-49948443D01*
X210518412Y-49948443D01*
X210316243Y-49882754D01*
X210316241Y-49882753D01*
X210316240Y-49882753D01*
X210154957Y-49857208D01*
X210106287Y-49849500D01*
X209893713Y-49849500D01*
X209845042Y-49857208D01*
X209683760Y-49882753D01*
X209481585Y-49948444D01*
X209292179Y-50044951D01*
X209120213Y-50169890D01*
X208969890Y-50320213D01*
X208844951Y-50492179D01*
X208748444Y-50681585D01*
X208682753Y-50883760D01*
X208649500Y-51093713D01*
X202583830Y-51093713D01*
X202579185Y-51090609D01*
X202579172Y-51090602D01*
X202433501Y-51030264D01*
X202433489Y-51030261D01*
X202278845Y-50999500D01*
X202278842Y-50999500D01*
X202121158Y-50999500D01*
X202121155Y-50999500D01*
X201966510Y-51030261D01*
X201966498Y-51030264D01*
X201820827Y-51090602D01*
X201820814Y-51090609D01*
X201689711Y-51178210D01*
X201689707Y-51178213D01*
X201578213Y-51289707D01*
X201578210Y-51289711D01*
X201490609Y-51420814D01*
X201490602Y-51420827D01*
X201430264Y-51566498D01*
X201430261Y-51566510D01*
X201399500Y-51721153D01*
X167150953Y-51721153D01*
X167109394Y-51620821D01*
X167070019Y-51561894D01*
X167066337Y-51554340D01*
X167061843Y-51527852D01*
X167053816Y-51502215D01*
X167056089Y-51493927D01*
X167054652Y-51485454D01*
X167065193Y-51460740D01*
X167072300Y-51434835D01*
X167074676Y-51431136D01*
X167109394Y-51379179D01*
X167169737Y-51233497D01*
X167200500Y-51078842D01*
X167200500Y-50921158D01*
X167200500Y-50921155D01*
X167200499Y-50921153D01*
X167192148Y-50879172D01*
X167169737Y-50766503D01*
X167135463Y-50683757D01*
X167109396Y-50620825D01*
X167109394Y-50620822D01*
X167109394Y-50620821D01*
X167074694Y-50568889D01*
X167053816Y-50502215D01*
X167072300Y-50434835D01*
X167074676Y-50431136D01*
X167109394Y-50379179D01*
X167169737Y-50233497D01*
X167200500Y-50078842D01*
X167200500Y-50021153D01*
X192599500Y-50021153D01*
X192599500Y-50178846D01*
X192630261Y-50333489D01*
X192630264Y-50333501D01*
X192690602Y-50479172D01*
X192690609Y-50479185D01*
X192778210Y-50610288D01*
X192778213Y-50610292D01*
X192889707Y-50721786D01*
X192889711Y-50721789D01*
X193020814Y-50809390D01*
X193020827Y-50809397D01*
X193147450Y-50861845D01*
X193166503Y-50869737D01*
X193287038Y-50893713D01*
X193321153Y-50900499D01*
X193321156Y-50900500D01*
X193321158Y-50900500D01*
X193478844Y-50900500D01*
X193478845Y-50900499D01*
X193633497Y-50869737D01*
X193779179Y-50809394D01*
X193910289Y-50721789D01*
X194021789Y-50610289D01*
X194109394Y-50479179D01*
X194169737Y-50333497D01*
X194200500Y-50178842D01*
X194200500Y-50021158D01*
X194200500Y-50021155D01*
X194200499Y-50021153D01*
X194186036Y-49948443D01*
X194169737Y-49866503D01*
X194120836Y-49748444D01*
X194109397Y-49720827D01*
X194109390Y-49720814D01*
X194021789Y-49589711D01*
X194021786Y-49589707D01*
X193910292Y-49478213D01*
X193910288Y-49478210D01*
X193779185Y-49390609D01*
X193779172Y-49390602D01*
X193633501Y-49330264D01*
X193633489Y-49330261D01*
X193478845Y-49299500D01*
X193478842Y-49299500D01*
X193321158Y-49299500D01*
X193321155Y-49299500D01*
X193166510Y-49330261D01*
X193166498Y-49330264D01*
X193020827Y-49390602D01*
X193020814Y-49390609D01*
X192889711Y-49478210D01*
X192889707Y-49478213D01*
X192778213Y-49589707D01*
X192778210Y-49589711D01*
X192690609Y-49720814D01*
X192690602Y-49720827D01*
X192630264Y-49866498D01*
X192630261Y-49866510D01*
X192599500Y-50021153D01*
X167200500Y-50021153D01*
X167200500Y-49921158D01*
X167200500Y-49921155D01*
X167200499Y-49921153D01*
X167191957Y-49878210D01*
X167169737Y-49766503D01*
X167162256Y-49748443D01*
X167109397Y-49620827D01*
X167109390Y-49620814D01*
X167021789Y-49489711D01*
X167021786Y-49489707D01*
X166910292Y-49378213D01*
X166910288Y-49378210D01*
X166779185Y-49290609D01*
X166779172Y-49290602D01*
X166633501Y-49230264D01*
X166633489Y-49230261D01*
X166478845Y-49199500D01*
X166478842Y-49199500D01*
X166321158Y-49199500D01*
X166321155Y-49199500D01*
X166166510Y-49230261D01*
X166166498Y-49230264D01*
X166020827Y-49290602D01*
X166020814Y-49290609D01*
X165968891Y-49325304D01*
X165902214Y-49346182D01*
X165834833Y-49327698D01*
X165831109Y-49325304D01*
X165779185Y-49290609D01*
X165779172Y-49290602D01*
X165633501Y-49230264D01*
X165633489Y-49230261D01*
X165478845Y-49199500D01*
X165478842Y-49199500D01*
X165321158Y-49199500D01*
X165321155Y-49199500D01*
X165166510Y-49230261D01*
X165166498Y-49230264D01*
X165020827Y-49290602D01*
X165020814Y-49290609D01*
X164968891Y-49325304D01*
X164902214Y-49346182D01*
X164834833Y-49327698D01*
X164831109Y-49325304D01*
X164779185Y-49290609D01*
X164779172Y-49290602D01*
X164633501Y-49230264D01*
X164633489Y-49230261D01*
X164478845Y-49199500D01*
X164478842Y-49199500D01*
X164321158Y-49199500D01*
X164321155Y-49199500D01*
X164166510Y-49230261D01*
X164166498Y-49230264D01*
X164020827Y-49290602D01*
X164020814Y-49290609D01*
X163968891Y-49325304D01*
X163902214Y-49346182D01*
X163834833Y-49327698D01*
X163831109Y-49325304D01*
X163779185Y-49290609D01*
X163779172Y-49290602D01*
X163633501Y-49230264D01*
X163633489Y-49230261D01*
X163478845Y-49199500D01*
X163478842Y-49199500D01*
X163321158Y-49199500D01*
X163321155Y-49199500D01*
X163166510Y-49230261D01*
X163166498Y-49230264D01*
X163020827Y-49290602D01*
X163020814Y-49290609D01*
X162968891Y-49325304D01*
X162902214Y-49346182D01*
X162834833Y-49327698D01*
X162831109Y-49325304D01*
X162779185Y-49290609D01*
X162779172Y-49290602D01*
X162633501Y-49230264D01*
X162633489Y-49230261D01*
X162478845Y-49199500D01*
X162478842Y-49199500D01*
X162321158Y-49199500D01*
X162321155Y-49199500D01*
X162166510Y-49230261D01*
X162166498Y-49230264D01*
X162020827Y-49290602D01*
X162020814Y-49290609D01*
X161968891Y-49325304D01*
X161902214Y-49346182D01*
X161834833Y-49327698D01*
X161831109Y-49325304D01*
X161779185Y-49290609D01*
X161779172Y-49290602D01*
X161633501Y-49230264D01*
X161633489Y-49230261D01*
X161478845Y-49199500D01*
X161478842Y-49199500D01*
X161324500Y-49199500D01*
X161257461Y-49179815D01*
X161211706Y-49127011D01*
X161200500Y-49075500D01*
X161200500Y-48921155D01*
X161200499Y-48921153D01*
X161169738Y-48766510D01*
X161169737Y-48766503D01*
X161169735Y-48766498D01*
X161109396Y-48620825D01*
X161109394Y-48620822D01*
X161109394Y-48620821D01*
X161074694Y-48568889D01*
X161053816Y-48502215D01*
X161072300Y-48434835D01*
X161074676Y-48431136D01*
X161109394Y-48379179D01*
X161169737Y-48233497D01*
X161200500Y-48078842D01*
X161200500Y-47921158D01*
X161200500Y-47921155D01*
X161200499Y-47921153D01*
X161180734Y-47821789D01*
X161169737Y-47766503D01*
X161146452Y-47710288D01*
X161109396Y-47620825D01*
X161109394Y-47620822D01*
X161109394Y-47620821D01*
X161074694Y-47568889D01*
X161053816Y-47502215D01*
X161072300Y-47434835D01*
X161074676Y-47431136D01*
X161109394Y-47379179D01*
X161169737Y-47233497D01*
X161192083Y-47121158D01*
X161192084Y-47121153D01*
X192399500Y-47121153D01*
X192399500Y-47278846D01*
X192430261Y-47433489D01*
X192430264Y-47433501D01*
X192490602Y-47579172D01*
X192490609Y-47579185D01*
X192578210Y-47710288D01*
X192578213Y-47710292D01*
X192689707Y-47821786D01*
X192689711Y-47821789D01*
X192820814Y-47909390D01*
X192820827Y-47909397D01*
X192966498Y-47969735D01*
X192966503Y-47969737D01*
X193121153Y-48000499D01*
X193121156Y-48000500D01*
X193121158Y-48000500D01*
X193278844Y-48000500D01*
X193278845Y-48000499D01*
X193433497Y-47969737D01*
X193579179Y-47909394D01*
X193710289Y-47821789D01*
X193821789Y-47710289D01*
X193909394Y-47579179D01*
X193969737Y-47433497D01*
X194000500Y-47278842D01*
X194000500Y-47121158D01*
X194000500Y-47121155D01*
X194000499Y-47121153D01*
X193994476Y-47090874D01*
X193969737Y-46966503D01*
X193950955Y-46921158D01*
X193909397Y-46820827D01*
X193909390Y-46820814D01*
X193821789Y-46689711D01*
X193821786Y-46689707D01*
X193710292Y-46578213D01*
X193710288Y-46578210D01*
X193579185Y-46490609D01*
X193579172Y-46490602D01*
X193433501Y-46430264D01*
X193433489Y-46430261D01*
X193278845Y-46399500D01*
X193278842Y-46399500D01*
X193121158Y-46399500D01*
X193121155Y-46399500D01*
X192966510Y-46430261D01*
X192966498Y-46430264D01*
X192820827Y-46490602D01*
X192820814Y-46490609D01*
X192689711Y-46578210D01*
X192689707Y-46578213D01*
X192578213Y-46689707D01*
X192578210Y-46689711D01*
X192490609Y-46820814D01*
X192490602Y-46820827D01*
X192430264Y-46966498D01*
X192430261Y-46966510D01*
X192399500Y-47121153D01*
X161192084Y-47121153D01*
X161198107Y-47090875D01*
X161198107Y-47090874D01*
X161200500Y-47078844D01*
X161200500Y-46921155D01*
X161200499Y-46921153D01*
X161180543Y-46820827D01*
X161169737Y-46766503D01*
X161137929Y-46689711D01*
X161109396Y-46620825D01*
X161109394Y-46620822D01*
X161109394Y-46620821D01*
X161074694Y-46568889D01*
X161053816Y-46502215D01*
X161072300Y-46434835D01*
X161074676Y-46431136D01*
X161109394Y-46379179D01*
X161169737Y-46233497D01*
X161200500Y-46078842D01*
X161200500Y-45921158D01*
X161200500Y-45921155D01*
X161200499Y-45921153D01*
X161171137Y-45773543D01*
X190279499Y-45773543D01*
X190317947Y-45966829D01*
X190317950Y-45966839D01*
X190393364Y-46148907D01*
X190393371Y-46148920D01*
X190502860Y-46312781D01*
X190502863Y-46312785D01*
X190642214Y-46452136D01*
X190642218Y-46452139D01*
X190806079Y-46561628D01*
X190806092Y-46561635D01*
X190948996Y-46620827D01*
X190988165Y-46637051D01*
X190988169Y-46637051D01*
X190988170Y-46637052D01*
X191181456Y-46675500D01*
X191181459Y-46675500D01*
X191378543Y-46675500D01*
X191508582Y-46649632D01*
X191571835Y-46637051D01*
X191753914Y-46561632D01*
X191917782Y-46452139D01*
X192057139Y-46312782D01*
X192166632Y-46148914D01*
X192242051Y-45966835D01*
X192280500Y-45773541D01*
X192280500Y-45236333D01*
X192300185Y-45169294D01*
X192352989Y-45123539D01*
X192422147Y-45113595D01*
X192466501Y-45128947D01*
X192487859Y-45141278D01*
X192487860Y-45141278D01*
X192487865Y-45141281D01*
X192634234Y-45180500D01*
X192634236Y-45180500D01*
X192785764Y-45180500D01*
X192785766Y-45180500D01*
X192932135Y-45141281D01*
X193063365Y-45065515D01*
X193170515Y-44958365D01*
X193246281Y-44827135D01*
X193285500Y-44680766D01*
X193285500Y-44529234D01*
X197914500Y-44529234D01*
X197914500Y-44680765D01*
X197953719Y-44827136D01*
X197991602Y-44892750D01*
X198029485Y-44958365D01*
X198136635Y-45065515D01*
X198219912Y-45113595D01*
X198267861Y-45141279D01*
X198267865Y-45141281D01*
X198414234Y-45180500D01*
X198414236Y-45180500D01*
X198565764Y-45180500D01*
X198565766Y-45180500D01*
X198712135Y-45141281D01*
X198722451Y-45135325D01*
X198733499Y-45128947D01*
X198801398Y-45112473D01*
X198867426Y-45135325D01*
X198910617Y-45190245D01*
X198919500Y-45236333D01*
X198919500Y-45773541D01*
X198919500Y-45773543D01*
X198919499Y-45773543D01*
X198957947Y-45966829D01*
X198957950Y-45966839D01*
X199033364Y-46148907D01*
X199033371Y-46148920D01*
X199142860Y-46312781D01*
X199142863Y-46312785D01*
X199282214Y-46452136D01*
X199282218Y-46452139D01*
X199446079Y-46561628D01*
X199446092Y-46561635D01*
X199588996Y-46620827D01*
X199628165Y-46637051D01*
X199628169Y-46637051D01*
X199628170Y-46637052D01*
X199821456Y-46675500D01*
X199821459Y-46675500D01*
X200018543Y-46675500D01*
X200148582Y-46649632D01*
X200211835Y-46637051D01*
X200393914Y-46561632D01*
X200557782Y-46452139D01*
X200697139Y-46312782D01*
X200806632Y-46148914D01*
X200882051Y-45966835D01*
X200920500Y-45773541D01*
X200920500Y-44476459D01*
X200920500Y-44476456D01*
X200882052Y-44283170D01*
X200882051Y-44283169D01*
X200882051Y-44283165D01*
X200826292Y-44148549D01*
X200806635Y-44101092D01*
X200806628Y-44101079D01*
X200697139Y-43937218D01*
X200697136Y-43937214D01*
X200557785Y-43797863D01*
X200557781Y-43797860D01*
X200393920Y-43688371D01*
X200393907Y-43688364D01*
X200211839Y-43612950D01*
X200211829Y-43612947D01*
X200018543Y-43574500D01*
X200018541Y-43574500D01*
X199821459Y-43574500D01*
X199821457Y-43574500D01*
X199628170Y-43612947D01*
X199628160Y-43612950D01*
X199446092Y-43688364D01*
X199446079Y-43688371D01*
X199282218Y-43797860D01*
X199282214Y-43797863D01*
X199142863Y-43937214D01*
X199142860Y-43937218D01*
X199033368Y-44101084D01*
X199030549Y-44106359D01*
X198981586Y-44156203D01*
X198913448Y-44171663D01*
X198847769Y-44147831D01*
X198845701Y-44146278D01*
X198843369Y-44144489D01*
X198843365Y-44144485D01*
X198760169Y-44096451D01*
X198712136Y-44068719D01*
X198638950Y-44049109D01*
X198565766Y-44029500D01*
X198414234Y-44029500D01*
X198267863Y-44068719D01*
X198136635Y-44144485D01*
X198136632Y-44144487D01*
X198029487Y-44251632D01*
X198029485Y-44251635D01*
X197953719Y-44382863D01*
X197914500Y-44529234D01*
X193285500Y-44529234D01*
X193246281Y-44382865D01*
X193170515Y-44251635D01*
X193063365Y-44144485D01*
X192997315Y-44106351D01*
X192932136Y-44068719D01*
X192858950Y-44049109D01*
X192785766Y-44029500D01*
X192634234Y-44029500D01*
X192487863Y-44068719D01*
X192356631Y-44144487D01*
X192354293Y-44146282D01*
X192351964Y-44147182D01*
X192349597Y-44148549D01*
X192349383Y-44148179D01*
X192289123Y-44171475D01*
X192220678Y-44157436D01*
X192170690Y-44108621D01*
X192169446Y-44106351D01*
X192166630Y-44101082D01*
X192057139Y-43937218D01*
X192057136Y-43937214D01*
X191917785Y-43797863D01*
X191917781Y-43797860D01*
X191753920Y-43688371D01*
X191753907Y-43688364D01*
X191571839Y-43612950D01*
X191571829Y-43612947D01*
X191378543Y-43574500D01*
X191378541Y-43574500D01*
X191181459Y-43574500D01*
X191181457Y-43574500D01*
X190988170Y-43612947D01*
X190988160Y-43612950D01*
X190806092Y-43688364D01*
X190806079Y-43688371D01*
X190642218Y-43797860D01*
X190642214Y-43797863D01*
X190502863Y-43937214D01*
X190502860Y-43937218D01*
X190393371Y-44101079D01*
X190393364Y-44101092D01*
X190317950Y-44283160D01*
X190317947Y-44283170D01*
X190279500Y-44476456D01*
X190279500Y-44476459D01*
X190279500Y-45773541D01*
X190279500Y-45773543D01*
X190279499Y-45773543D01*
X161171137Y-45773543D01*
X161169738Y-45766510D01*
X161169737Y-45766503D01*
X161169735Y-45766498D01*
X161109396Y-45620825D01*
X161109394Y-45620822D01*
X161109394Y-45620821D01*
X161074694Y-45568889D01*
X161053816Y-45502215D01*
X161072300Y-45434835D01*
X161074676Y-45431136D01*
X161109394Y-45379179D01*
X161169737Y-45233497D01*
X161200500Y-45078842D01*
X161200500Y-44921158D01*
X161200500Y-44921155D01*
X161200499Y-44921153D01*
X161169737Y-44766503D01*
X161134224Y-44680766D01*
X161109396Y-44620825D01*
X161109394Y-44620822D01*
X161109394Y-44620821D01*
X161074694Y-44568889D01*
X161068720Y-44549812D01*
X161058214Y-44532803D01*
X161058493Y-44517152D01*
X161053816Y-44502215D01*
X161059104Y-44482935D01*
X161059462Y-44462945D01*
X161071478Y-44437829D01*
X161072300Y-44434835D01*
X161074660Y-44431161D01*
X161109394Y-44379179D01*
X161169737Y-44233497D01*
X161200500Y-44078842D01*
X161200500Y-43921158D01*
X161200500Y-43921155D01*
X161200499Y-43921153D01*
X161175975Y-43797863D01*
X161169737Y-43766503D01*
X161137371Y-43688364D01*
X161109396Y-43620825D01*
X161109394Y-43620822D01*
X161109394Y-43620821D01*
X161074694Y-43568889D01*
X161053816Y-43502215D01*
X161072300Y-43434835D01*
X161074676Y-43431136D01*
X161109394Y-43379179D01*
X161169737Y-43233497D01*
X161200500Y-43078842D01*
X161200500Y-42924500D01*
X161220185Y-42857461D01*
X161272989Y-42811706D01*
X161324500Y-42800500D01*
X161478844Y-42800500D01*
X161478845Y-42800499D01*
X161633497Y-42769737D01*
X161779179Y-42709394D01*
X161831110Y-42674694D01*
X161897785Y-42653816D01*
X161965165Y-42672300D01*
X161968863Y-42674676D01*
X162020821Y-42709394D01*
X162020823Y-42709395D01*
X162020825Y-42709396D01*
X162158683Y-42766498D01*
X162166503Y-42769737D01*
X162321153Y-42800499D01*
X162321156Y-42800500D01*
X162321158Y-42800500D01*
X162478844Y-42800500D01*
X162478845Y-42800499D01*
X162633497Y-42769737D01*
X162779179Y-42709394D01*
X162831110Y-42674694D01*
X162897785Y-42653816D01*
X162965165Y-42672300D01*
X162968863Y-42674676D01*
X163020821Y-42709394D01*
X163020823Y-42709395D01*
X163020825Y-42709396D01*
X163158683Y-42766498D01*
X163166503Y-42769737D01*
X163321153Y-42800499D01*
X163321156Y-42800500D01*
X163321158Y-42800500D01*
X163478844Y-42800500D01*
X163478845Y-42800499D01*
X163633497Y-42769737D01*
X163779179Y-42709394D01*
X163831110Y-42674694D01*
X163897785Y-42653816D01*
X163965165Y-42672300D01*
X163968863Y-42674676D01*
X164020821Y-42709394D01*
X164020823Y-42709395D01*
X164020825Y-42709396D01*
X164158683Y-42766498D01*
X164166503Y-42769737D01*
X164321153Y-42800499D01*
X164321156Y-42800500D01*
X164321158Y-42800500D01*
X164478844Y-42800500D01*
X164478845Y-42800499D01*
X164633497Y-42769737D01*
X164779179Y-42709394D01*
X164831110Y-42674694D01*
X164897785Y-42653816D01*
X164965165Y-42672300D01*
X164968863Y-42674676D01*
X165020821Y-42709394D01*
X165020823Y-42709395D01*
X165020825Y-42709396D01*
X165158683Y-42766498D01*
X165166503Y-42769737D01*
X165321153Y-42800499D01*
X165321156Y-42800500D01*
X165321158Y-42800500D01*
X165478844Y-42800500D01*
X165478845Y-42800499D01*
X165633497Y-42769737D01*
X165779179Y-42709394D01*
X165831110Y-42674694D01*
X165897785Y-42653816D01*
X165965165Y-42672300D01*
X165968863Y-42674676D01*
X166020821Y-42709394D01*
X166020823Y-42709395D01*
X166020825Y-42709396D01*
X166158683Y-42766498D01*
X166166503Y-42769737D01*
X166321153Y-42800499D01*
X166321156Y-42800500D01*
X166321158Y-42800500D01*
X166478844Y-42800500D01*
X166478845Y-42800499D01*
X166633497Y-42769737D01*
X166779179Y-42709394D01*
X166831110Y-42674694D01*
X166897785Y-42653816D01*
X166965165Y-42672300D01*
X166968863Y-42674676D01*
X167020821Y-42709394D01*
X167020823Y-42709395D01*
X167020825Y-42709396D01*
X167158683Y-42766498D01*
X167166503Y-42769737D01*
X167321153Y-42800499D01*
X167321156Y-42800500D01*
X167321158Y-42800500D01*
X167478844Y-42800500D01*
X167478845Y-42800499D01*
X167633497Y-42769737D01*
X167779179Y-42709394D01*
X167831110Y-42674694D01*
X167897785Y-42653816D01*
X167965165Y-42672300D01*
X167968863Y-42674676D01*
X168020821Y-42709394D01*
X168020823Y-42709395D01*
X168020825Y-42709396D01*
X168158683Y-42766498D01*
X168166503Y-42769737D01*
X168321153Y-42800499D01*
X168321156Y-42800500D01*
X168321158Y-42800500D01*
X168478844Y-42800500D01*
X168478845Y-42800499D01*
X168633497Y-42769737D01*
X168779179Y-42709394D01*
X168910289Y-42621789D01*
X169021789Y-42510289D01*
X169109394Y-42379179D01*
X169169737Y-42233497D01*
X169200500Y-42078842D01*
X169200500Y-41921158D01*
X169200500Y-41921155D01*
X169200499Y-41921153D01*
X169192272Y-41879792D01*
X169169737Y-41766503D01*
X169145430Y-41707820D01*
X169126666Y-41662518D01*
X169109532Y-41621153D01*
X170199500Y-41621153D01*
X170199500Y-41778846D01*
X170230261Y-41933489D01*
X170230264Y-41933501D01*
X170290602Y-42079172D01*
X170290609Y-42079185D01*
X170378210Y-42210288D01*
X170378213Y-42210292D01*
X170489707Y-42321786D01*
X170489711Y-42321789D01*
X170620814Y-42409390D01*
X170620827Y-42409397D01*
X170766498Y-42469735D01*
X170766503Y-42469737D01*
X170907514Y-42497786D01*
X170921153Y-42500499D01*
X170921156Y-42500500D01*
X170921158Y-42500500D01*
X171078844Y-42500500D01*
X171078845Y-42500499D01*
X171233497Y-42469737D01*
X171379179Y-42409394D01*
X171510289Y-42321789D01*
X171621789Y-42210289D01*
X171709394Y-42079179D01*
X171769737Y-41933497D01*
X171800500Y-41778842D01*
X171800500Y-41636153D01*
X181084500Y-41636153D01*
X181084500Y-41793846D01*
X181115261Y-41948489D01*
X181115264Y-41948501D01*
X181175602Y-42094172D01*
X181175609Y-42094185D01*
X181263210Y-42225288D01*
X181263213Y-42225292D01*
X181374707Y-42336786D01*
X181374711Y-42336789D01*
X181505814Y-42424390D01*
X181505827Y-42424397D01*
X181651498Y-42484735D01*
X181651503Y-42484737D01*
X181779956Y-42510288D01*
X181806153Y-42515499D01*
X181806156Y-42515500D01*
X181806158Y-42515500D01*
X181963844Y-42515500D01*
X181963845Y-42515499D01*
X182118497Y-42484737D01*
X182231166Y-42438067D01*
X182264172Y-42424397D01*
X182264172Y-42424396D01*
X182264179Y-42424394D01*
X182395289Y-42336789D01*
X182506789Y-42225289D01*
X182594394Y-42094179D01*
X182654737Y-41948497D01*
X182685500Y-41793842D01*
X182685500Y-41636158D01*
X182685500Y-41636155D01*
X182685499Y-41636153D01*
X182662079Y-41518414D01*
X182654737Y-41481503D01*
X182648522Y-41466498D01*
X182630730Y-41423543D01*
X190279499Y-41423543D01*
X190317947Y-41616829D01*
X190317950Y-41616839D01*
X190393364Y-41798907D01*
X190393371Y-41798920D01*
X190502860Y-41962781D01*
X190502863Y-41962785D01*
X190642214Y-42102136D01*
X190642218Y-42102139D01*
X190806079Y-42211628D01*
X190806092Y-42211635D01*
X190902469Y-42251555D01*
X190988165Y-42287051D01*
X190988169Y-42287051D01*
X190988170Y-42287052D01*
X191181456Y-42325500D01*
X191181459Y-42325500D01*
X191378543Y-42325500D01*
X191508582Y-42299632D01*
X191571835Y-42287051D01*
X191753914Y-42211632D01*
X191917782Y-42102139D01*
X192057139Y-41962782D01*
X192166632Y-41798914D01*
X192242051Y-41616835D01*
X192280500Y-41423543D01*
X198919499Y-41423543D01*
X198957947Y-41616829D01*
X198957950Y-41616839D01*
X199033364Y-41798907D01*
X199033371Y-41798920D01*
X199142860Y-41962781D01*
X199142863Y-41962785D01*
X199282214Y-42102136D01*
X199282218Y-42102139D01*
X199446079Y-42211628D01*
X199446092Y-42211635D01*
X199542469Y-42251555D01*
X199628165Y-42287051D01*
X199628169Y-42287051D01*
X199628170Y-42287052D01*
X199821456Y-42325500D01*
X199821459Y-42325500D01*
X200018543Y-42325500D01*
X200148582Y-42299632D01*
X200211835Y-42287051D01*
X200393914Y-42211632D01*
X200557782Y-42102139D01*
X200697139Y-41962782D01*
X200806632Y-41798914D01*
X200882051Y-41616835D01*
X200920500Y-41423541D01*
X200920500Y-40426459D01*
X200920500Y-40426456D01*
X200882052Y-40233170D01*
X200882051Y-40233169D01*
X200882051Y-40233165D01*
X200829719Y-40106823D01*
X200806635Y-40051092D01*
X200806628Y-40051079D01*
X200697139Y-39887218D01*
X200697136Y-39887214D01*
X200557785Y-39747863D01*
X200557781Y-39747860D01*
X200393920Y-39638371D01*
X200393907Y-39638364D01*
X200211839Y-39562950D01*
X200211829Y-39562947D01*
X200018543Y-39524500D01*
X200018541Y-39524500D01*
X199821459Y-39524500D01*
X199821457Y-39524500D01*
X199628170Y-39562947D01*
X199628160Y-39562950D01*
X199446092Y-39638364D01*
X199446079Y-39638371D01*
X199282218Y-39747860D01*
X199282214Y-39747863D01*
X199142863Y-39887214D01*
X199142860Y-39887218D01*
X199033371Y-40051079D01*
X199033364Y-40051092D01*
X198957950Y-40233160D01*
X198957947Y-40233170D01*
X198919500Y-40426456D01*
X198919500Y-40426459D01*
X198919500Y-41423541D01*
X198919500Y-41423543D01*
X198919499Y-41423543D01*
X192280500Y-41423543D01*
X192280500Y-41423541D01*
X192280500Y-40426459D01*
X192280500Y-40426456D01*
X192242052Y-40233170D01*
X192242051Y-40233169D01*
X192242051Y-40233165D01*
X192189719Y-40106823D01*
X192166635Y-40051092D01*
X192166628Y-40051079D01*
X192057139Y-39887218D01*
X192057136Y-39887214D01*
X191917785Y-39747863D01*
X191917781Y-39747860D01*
X191753920Y-39638371D01*
X191753907Y-39638364D01*
X191571839Y-39562950D01*
X191571829Y-39562947D01*
X191378543Y-39524500D01*
X191378541Y-39524500D01*
X191181459Y-39524500D01*
X191181457Y-39524500D01*
X190988170Y-39562947D01*
X190988160Y-39562950D01*
X190806092Y-39638364D01*
X190806079Y-39638371D01*
X190642218Y-39747860D01*
X190642214Y-39747863D01*
X190502863Y-39887214D01*
X190502860Y-39887218D01*
X190393371Y-40051079D01*
X190393364Y-40051092D01*
X190317950Y-40233160D01*
X190317947Y-40233170D01*
X190279500Y-40426456D01*
X190279500Y-40426459D01*
X190279500Y-41423541D01*
X190279500Y-41423543D01*
X190279499Y-41423543D01*
X182630730Y-41423543D01*
X182594397Y-41335827D01*
X182594390Y-41335814D01*
X182506789Y-41204711D01*
X182506786Y-41204707D01*
X182395292Y-41093213D01*
X182395288Y-41093210D01*
X182264185Y-41005609D01*
X182264172Y-41005602D01*
X182118501Y-40945264D01*
X182118489Y-40945261D01*
X181963845Y-40914500D01*
X181963842Y-40914500D01*
X181806158Y-40914500D01*
X181806155Y-40914500D01*
X181651510Y-40945261D01*
X181651498Y-40945264D01*
X181505827Y-41005602D01*
X181505814Y-41005609D01*
X181374711Y-41093210D01*
X181374707Y-41093213D01*
X181263213Y-41204707D01*
X181263210Y-41204711D01*
X181175609Y-41335814D01*
X181175602Y-41335827D01*
X181115264Y-41481498D01*
X181115261Y-41481510D01*
X181084500Y-41636153D01*
X171800500Y-41636153D01*
X171800500Y-41621158D01*
X171800500Y-41621155D01*
X171800499Y-41621153D01*
X171774353Y-41489711D01*
X171769737Y-41466503D01*
X171751942Y-41423541D01*
X171709397Y-41320827D01*
X171709390Y-41320814D01*
X171621789Y-41189711D01*
X171621786Y-41189707D01*
X171510292Y-41078213D01*
X171510288Y-41078210D01*
X171379185Y-40990609D01*
X171379172Y-40990602D01*
X171233501Y-40930264D01*
X171233489Y-40930261D01*
X171078845Y-40899500D01*
X171078842Y-40899500D01*
X170921158Y-40899500D01*
X170921155Y-40899500D01*
X170766510Y-40930261D01*
X170766498Y-40930264D01*
X170620827Y-40990602D01*
X170620814Y-40990609D01*
X170489711Y-41078210D01*
X170489707Y-41078213D01*
X170378213Y-41189707D01*
X170378210Y-41189711D01*
X170290609Y-41320814D01*
X170290602Y-41320827D01*
X170230264Y-41466498D01*
X170230261Y-41466510D01*
X170199500Y-41621153D01*
X169109532Y-41621153D01*
X169109395Y-41620823D01*
X169109390Y-41620814D01*
X169021789Y-41489711D01*
X169021786Y-41489707D01*
X168910292Y-41378213D01*
X168910288Y-41378210D01*
X168779185Y-41290609D01*
X168779172Y-41290602D01*
X168633501Y-41230264D01*
X168633489Y-41230261D01*
X168478845Y-41199500D01*
X168478842Y-41199500D01*
X168321158Y-41199500D01*
X168321155Y-41199500D01*
X168166510Y-41230261D01*
X168166498Y-41230264D01*
X168020827Y-41290602D01*
X168020814Y-41290609D01*
X167968891Y-41325304D01*
X167902214Y-41346182D01*
X167834833Y-41327698D01*
X167831109Y-41325304D01*
X167779185Y-41290609D01*
X167779172Y-41290602D01*
X167633501Y-41230264D01*
X167633489Y-41230261D01*
X167478845Y-41199500D01*
X167478842Y-41199500D01*
X167321158Y-41199500D01*
X167321155Y-41199500D01*
X167166510Y-41230261D01*
X167166498Y-41230264D01*
X167020827Y-41290602D01*
X167020814Y-41290609D01*
X166968891Y-41325304D01*
X166902214Y-41346182D01*
X166834833Y-41327698D01*
X166831109Y-41325304D01*
X166779185Y-41290609D01*
X166779172Y-41290602D01*
X166633501Y-41230264D01*
X166633489Y-41230261D01*
X166478845Y-41199500D01*
X166478842Y-41199500D01*
X166321158Y-41199500D01*
X166321155Y-41199500D01*
X166166510Y-41230261D01*
X166166498Y-41230264D01*
X166020827Y-41290602D01*
X166020814Y-41290609D01*
X165968891Y-41325304D01*
X165902214Y-41346182D01*
X165834833Y-41327698D01*
X165831109Y-41325304D01*
X165779185Y-41290609D01*
X165779172Y-41290602D01*
X165633501Y-41230264D01*
X165633489Y-41230261D01*
X165478845Y-41199500D01*
X165478842Y-41199500D01*
X165321158Y-41199500D01*
X165321155Y-41199500D01*
X165166510Y-41230261D01*
X165166498Y-41230264D01*
X165020827Y-41290602D01*
X165020814Y-41290609D01*
X164968891Y-41325304D01*
X164902214Y-41346182D01*
X164834833Y-41327698D01*
X164831109Y-41325304D01*
X164779185Y-41290609D01*
X164779172Y-41290602D01*
X164633501Y-41230264D01*
X164633489Y-41230261D01*
X164478845Y-41199500D01*
X164478842Y-41199500D01*
X164321158Y-41199500D01*
X164321155Y-41199500D01*
X164166510Y-41230261D01*
X164166498Y-41230264D01*
X164020827Y-41290602D01*
X164020814Y-41290609D01*
X163968891Y-41325304D01*
X163902214Y-41346182D01*
X163834833Y-41327698D01*
X163831109Y-41325304D01*
X163779185Y-41290609D01*
X163779172Y-41290602D01*
X163633501Y-41230264D01*
X163633489Y-41230261D01*
X163478845Y-41199500D01*
X163478842Y-41199500D01*
X163321158Y-41199500D01*
X163321155Y-41199500D01*
X163166510Y-41230261D01*
X163166498Y-41230264D01*
X163020827Y-41290602D01*
X163020814Y-41290609D01*
X162968891Y-41325304D01*
X162902214Y-41346182D01*
X162834833Y-41327698D01*
X162831109Y-41325304D01*
X162779185Y-41290609D01*
X162779172Y-41290602D01*
X162633501Y-41230264D01*
X162633489Y-41230261D01*
X162478845Y-41199500D01*
X162478842Y-41199500D01*
X162321158Y-41199500D01*
X162321155Y-41199500D01*
X162166510Y-41230261D01*
X162166498Y-41230264D01*
X162020827Y-41290602D01*
X162020814Y-41290609D01*
X161968891Y-41325304D01*
X161902214Y-41346182D01*
X161834833Y-41327698D01*
X161831109Y-41325304D01*
X161779185Y-41290609D01*
X161779172Y-41290602D01*
X161633501Y-41230264D01*
X161633489Y-41230261D01*
X161478845Y-41199500D01*
X161478842Y-41199500D01*
X161321158Y-41199500D01*
X161321155Y-41199500D01*
X161166510Y-41230261D01*
X161166498Y-41230264D01*
X161020827Y-41290602D01*
X161020814Y-41290609D01*
X160968891Y-41325304D01*
X160902214Y-41346182D01*
X160834833Y-41327698D01*
X160831109Y-41325304D01*
X160779185Y-41290609D01*
X160779172Y-41290602D01*
X160633501Y-41230264D01*
X160633489Y-41230261D01*
X160478845Y-41199500D01*
X160478842Y-41199500D01*
X160321158Y-41199500D01*
X160321155Y-41199500D01*
X160166510Y-41230261D01*
X160166498Y-41230264D01*
X160020827Y-41290602D01*
X160020814Y-41290609D01*
X159968891Y-41325304D01*
X159902214Y-41346182D01*
X159834833Y-41327698D01*
X159831109Y-41325304D01*
X159779185Y-41290609D01*
X159779172Y-41290602D01*
X159633501Y-41230264D01*
X159633489Y-41230261D01*
X159478845Y-41199500D01*
X159478842Y-41199500D01*
X159321158Y-41199500D01*
X159321155Y-41199500D01*
X159166510Y-41230261D01*
X159166498Y-41230264D01*
X159020827Y-41290602D01*
X159020814Y-41290609D01*
X158968891Y-41325304D01*
X158902214Y-41346182D01*
X158834833Y-41327698D01*
X158831109Y-41325304D01*
X158779185Y-41290609D01*
X158779172Y-41290602D01*
X158633501Y-41230264D01*
X158633489Y-41230261D01*
X158478845Y-41199500D01*
X158478842Y-41199500D01*
X158321158Y-41199500D01*
X158321155Y-41199500D01*
X158166510Y-41230261D01*
X158166498Y-41230264D01*
X158020827Y-41290602D01*
X158020814Y-41290609D01*
X157968891Y-41325304D01*
X157902214Y-41346182D01*
X157834833Y-41327698D01*
X157831109Y-41325304D01*
X157779185Y-41290609D01*
X157779172Y-41290602D01*
X157633501Y-41230264D01*
X157633489Y-41230261D01*
X157478845Y-41199500D01*
X157478842Y-41199500D01*
X157321158Y-41199500D01*
X157321155Y-41199500D01*
X157166510Y-41230261D01*
X157166498Y-41230264D01*
X157020827Y-41290602D01*
X157020814Y-41290609D01*
X156889711Y-41378210D01*
X156889707Y-41378213D01*
X156778213Y-41489707D01*
X156778210Y-41489711D01*
X156690609Y-41620814D01*
X156690602Y-41620827D01*
X156630264Y-41766498D01*
X156630261Y-41766510D01*
X156599500Y-41921153D01*
X156599500Y-42078846D01*
X156630261Y-42233489D01*
X156630264Y-42233501D01*
X156690602Y-42379172D01*
X156690609Y-42379185D01*
X156725304Y-42431109D01*
X156746182Y-42497786D01*
X156727698Y-42565167D01*
X156725304Y-42568891D01*
X156690609Y-42620814D01*
X156690602Y-42620827D01*
X156630264Y-42766498D01*
X156630261Y-42766510D01*
X156599500Y-42921153D01*
X156599500Y-43078846D01*
X156630261Y-43233489D01*
X156630264Y-43233501D01*
X156690602Y-43379172D01*
X156690609Y-43379185D01*
X156725304Y-43431109D01*
X156746182Y-43497786D01*
X156727698Y-43565167D01*
X156725304Y-43568891D01*
X156690609Y-43620814D01*
X156690602Y-43620827D01*
X156630264Y-43766498D01*
X156630261Y-43766510D01*
X156599500Y-43921153D01*
X156599500Y-44078846D01*
X156630261Y-44233489D01*
X156630264Y-44233501D01*
X156690602Y-44379172D01*
X156690609Y-44379185D01*
X156725304Y-44431109D01*
X156746182Y-44497786D01*
X156727698Y-44565167D01*
X156725304Y-44568891D01*
X156690609Y-44620814D01*
X156690602Y-44620827D01*
X156630264Y-44766498D01*
X156630261Y-44766510D01*
X156599500Y-44921153D01*
X156599500Y-45078846D01*
X156630261Y-45233489D01*
X156630264Y-45233501D01*
X156690602Y-45379172D01*
X156690609Y-45379185D01*
X156725304Y-45431109D01*
X156746182Y-45497786D01*
X156727698Y-45565167D01*
X156725304Y-45568891D01*
X156690609Y-45620814D01*
X156690602Y-45620827D01*
X156630264Y-45766498D01*
X156630261Y-45766510D01*
X156599500Y-45921153D01*
X156599500Y-46078846D01*
X156630261Y-46233489D01*
X156630264Y-46233501D01*
X156690602Y-46379172D01*
X156690609Y-46379185D01*
X156725304Y-46431109D01*
X156746182Y-46497786D01*
X156727698Y-46565167D01*
X156725304Y-46568891D01*
X156690609Y-46620814D01*
X156690602Y-46620827D01*
X156630264Y-46766498D01*
X156630261Y-46766510D01*
X156599500Y-46921153D01*
X156599500Y-47078846D01*
X156630261Y-47233489D01*
X156630264Y-47233501D01*
X156690602Y-47379172D01*
X156690609Y-47379185D01*
X156725304Y-47431109D01*
X156746182Y-47497786D01*
X156727698Y-47565167D01*
X156725304Y-47568891D01*
X156690609Y-47620814D01*
X156690602Y-47620827D01*
X156630264Y-47766498D01*
X156630261Y-47766510D01*
X156599500Y-47921153D01*
X156599500Y-48078846D01*
X156630261Y-48233489D01*
X156630264Y-48233501D01*
X156690602Y-48379172D01*
X156690609Y-48379185D01*
X156725304Y-48431109D01*
X156746182Y-48497786D01*
X156727698Y-48565167D01*
X156725304Y-48568891D01*
X156690609Y-48620814D01*
X156690602Y-48620827D01*
X156630264Y-48766498D01*
X156630261Y-48766510D01*
X156599500Y-48921153D01*
X156599500Y-49078846D01*
X156630261Y-49233489D01*
X156630264Y-49233501D01*
X156690602Y-49379172D01*
X156690609Y-49379185D01*
X156725304Y-49431109D01*
X156746182Y-49497786D01*
X156727698Y-49565167D01*
X156725304Y-49568891D01*
X156690609Y-49620814D01*
X156690602Y-49620827D01*
X156630264Y-49766498D01*
X156630261Y-49766508D01*
X156621617Y-49809967D01*
X156589232Y-49871878D01*
X156528516Y-49906452D01*
X156458747Y-49902712D01*
X156402075Y-49861845D01*
X156378383Y-49809967D01*
X156369738Y-49766508D01*
X156369737Y-49766507D01*
X156369737Y-49766503D01*
X156362256Y-49748443D01*
X156309397Y-49620827D01*
X156309390Y-49620814D01*
X156221789Y-49489711D01*
X156221786Y-49489707D01*
X156110292Y-49378213D01*
X156110288Y-49378210D01*
X155979185Y-49290609D01*
X155979172Y-49290602D01*
X155833501Y-49230264D01*
X155833489Y-49230261D01*
X155678845Y-49199500D01*
X155678842Y-49199500D01*
X155521158Y-49199500D01*
X155521155Y-49199500D01*
X155366510Y-49230261D01*
X155366498Y-49230264D01*
X155220827Y-49290602D01*
X155220814Y-49290609D01*
X155168891Y-49325304D01*
X155102214Y-49346182D01*
X155034833Y-49327698D01*
X155031109Y-49325304D01*
X154979185Y-49290609D01*
X154979172Y-49290602D01*
X154833501Y-49230264D01*
X154833489Y-49230261D01*
X154678845Y-49199500D01*
X154678842Y-49199500D01*
X154521158Y-49199500D01*
X154521155Y-49199500D01*
X154366510Y-49230261D01*
X154366498Y-49230264D01*
X154220827Y-49290602D01*
X154220814Y-49290609D01*
X154168891Y-49325304D01*
X154102214Y-49346182D01*
X154034833Y-49327698D01*
X154031109Y-49325304D01*
X153979185Y-49290609D01*
X153979172Y-49290602D01*
X153833501Y-49230264D01*
X153833489Y-49230261D01*
X153678845Y-49199500D01*
X153678842Y-49199500D01*
X153521158Y-49199500D01*
X153521155Y-49199500D01*
X153366510Y-49230261D01*
X153366498Y-49230264D01*
X153220827Y-49290602D01*
X153220814Y-49290609D01*
X153168891Y-49325304D01*
X153102214Y-49346182D01*
X153034833Y-49327698D01*
X153031109Y-49325304D01*
X152979185Y-49290609D01*
X152979172Y-49290602D01*
X152833501Y-49230264D01*
X152833489Y-49230261D01*
X152678845Y-49199500D01*
X152678842Y-49199500D01*
X152521158Y-49199500D01*
X152521155Y-49199500D01*
X152366510Y-49230261D01*
X152366498Y-49230264D01*
X152220827Y-49290602D01*
X152220814Y-49290609D01*
X152168891Y-49325304D01*
X152102214Y-49346182D01*
X152034833Y-49327698D01*
X152031109Y-49325304D01*
X151979185Y-49290609D01*
X151979172Y-49290602D01*
X151833501Y-49230264D01*
X151833489Y-49230261D01*
X151678845Y-49199500D01*
X151678842Y-49199500D01*
X151521158Y-49199500D01*
X151521155Y-49199500D01*
X151366510Y-49230261D01*
X151366498Y-49230264D01*
X151220827Y-49290602D01*
X151220814Y-49290609D01*
X151168891Y-49325304D01*
X151102214Y-49346182D01*
X151034833Y-49327698D01*
X151031109Y-49325304D01*
X150979185Y-49290609D01*
X150979172Y-49290602D01*
X150833501Y-49230264D01*
X150833489Y-49230261D01*
X150678845Y-49199500D01*
X150678842Y-49199500D01*
X150524500Y-49199500D01*
X150457461Y-49179815D01*
X150411706Y-49127011D01*
X150400500Y-49075500D01*
X150400500Y-48921155D01*
X150400499Y-48921153D01*
X150369738Y-48766510D01*
X150369737Y-48766503D01*
X150369735Y-48766498D01*
X150309396Y-48620825D01*
X150309394Y-48620822D01*
X150309394Y-48620821D01*
X150274694Y-48568889D01*
X150253816Y-48502215D01*
X150272300Y-48434835D01*
X150274676Y-48431136D01*
X150309394Y-48379179D01*
X150369737Y-48233497D01*
X150400500Y-48078842D01*
X150400500Y-47921158D01*
X150400500Y-47921155D01*
X150400499Y-47921153D01*
X150380734Y-47821789D01*
X150369737Y-47766503D01*
X150346452Y-47710288D01*
X150309396Y-47620825D01*
X150309394Y-47620822D01*
X150309394Y-47620821D01*
X150274694Y-47568889D01*
X150253816Y-47502215D01*
X150272300Y-47434835D01*
X150274676Y-47431136D01*
X150309394Y-47379179D01*
X150369737Y-47233497D01*
X150400500Y-47078842D01*
X150400500Y-46921158D01*
X150400500Y-46921155D01*
X150400499Y-46921153D01*
X150380543Y-46820827D01*
X150369737Y-46766503D01*
X150337929Y-46689711D01*
X150309396Y-46620825D01*
X150309394Y-46620822D01*
X150309394Y-46620821D01*
X150274694Y-46568889D01*
X150253816Y-46502215D01*
X150272300Y-46434835D01*
X150274676Y-46431136D01*
X150309394Y-46379179D01*
X150369737Y-46233497D01*
X150400500Y-46078842D01*
X150400500Y-45921158D01*
X150400500Y-45921155D01*
X150400499Y-45921153D01*
X150369738Y-45766510D01*
X150369737Y-45766503D01*
X150369735Y-45766498D01*
X150309396Y-45620825D01*
X150309394Y-45620822D01*
X150309394Y-45620821D01*
X150274694Y-45568889D01*
X150253816Y-45502215D01*
X150272300Y-45434835D01*
X150274676Y-45431136D01*
X150309394Y-45379179D01*
X150369737Y-45233497D01*
X150400500Y-45078842D01*
X150400500Y-44921158D01*
X150400500Y-44921155D01*
X150400499Y-44921153D01*
X150369737Y-44766503D01*
X150334224Y-44680766D01*
X150309396Y-44620825D01*
X150309394Y-44620822D01*
X150309394Y-44620821D01*
X150274694Y-44568889D01*
X150253816Y-44502215D01*
X150272300Y-44434835D01*
X150274676Y-44431136D01*
X150309394Y-44379179D01*
X150369737Y-44233497D01*
X150400500Y-44078842D01*
X150400500Y-43921158D01*
X150400500Y-43921155D01*
X150400499Y-43921153D01*
X150375975Y-43797863D01*
X150369737Y-43766503D01*
X150337371Y-43688364D01*
X150309396Y-43620825D01*
X150309394Y-43620822D01*
X150309394Y-43620821D01*
X150274694Y-43568889D01*
X150253816Y-43502215D01*
X150272300Y-43434835D01*
X150274676Y-43431136D01*
X150309394Y-43379179D01*
X150369737Y-43233497D01*
X150400500Y-43078842D01*
X150400500Y-42921158D01*
X150400500Y-42921155D01*
X150400499Y-42921153D01*
X150369738Y-42766510D01*
X150369737Y-42766503D01*
X150346080Y-42709390D01*
X150309397Y-42620827D01*
X150309390Y-42620814D01*
X150221789Y-42489711D01*
X150221786Y-42489707D01*
X150110292Y-42378213D01*
X150110288Y-42378210D01*
X149979185Y-42290609D01*
X149979172Y-42290602D01*
X149833501Y-42230264D01*
X149833489Y-42230261D01*
X149678845Y-42199500D01*
X149678842Y-42199500D01*
X149521158Y-42199500D01*
X149521155Y-42199500D01*
X149366510Y-42230261D01*
X149366498Y-42230264D01*
X149220827Y-42290602D01*
X149220814Y-42290609D01*
X149168891Y-42325304D01*
X149102214Y-42346182D01*
X149034833Y-42327698D01*
X149031109Y-42325304D01*
X148979185Y-42290609D01*
X148979172Y-42290602D01*
X148833501Y-42230264D01*
X148833489Y-42230261D01*
X148678845Y-42199500D01*
X148678842Y-42199500D01*
X148521158Y-42199500D01*
X148521155Y-42199500D01*
X148366510Y-42230261D01*
X148366498Y-42230264D01*
X148220827Y-42290602D01*
X148220814Y-42290609D01*
X148168891Y-42325304D01*
X148102214Y-42346182D01*
X148034833Y-42327698D01*
X148031109Y-42325304D01*
X147979185Y-42290609D01*
X147979172Y-42290602D01*
X147833501Y-42230264D01*
X147833489Y-42230261D01*
X147678845Y-42199500D01*
X147678842Y-42199500D01*
X147521158Y-42199500D01*
X147521155Y-42199500D01*
X147366510Y-42230261D01*
X147366498Y-42230264D01*
X147220827Y-42290602D01*
X147220814Y-42290609D01*
X147168891Y-42325304D01*
X147102214Y-42346182D01*
X147034833Y-42327698D01*
X147031109Y-42325304D01*
X146979185Y-42290609D01*
X146979172Y-42290602D01*
X146833501Y-42230264D01*
X146833489Y-42230261D01*
X146678845Y-42199500D01*
X146678842Y-42199500D01*
X146521158Y-42199500D01*
X146521155Y-42199500D01*
X146366510Y-42230261D01*
X146366498Y-42230264D01*
X146220827Y-42290602D01*
X146220814Y-42290609D01*
X146168891Y-42325304D01*
X146102214Y-42346182D01*
X146034833Y-42327698D01*
X146031109Y-42325304D01*
X145979185Y-42290609D01*
X145979172Y-42290602D01*
X145833501Y-42230264D01*
X145833489Y-42230261D01*
X145678845Y-42199500D01*
X145678842Y-42199500D01*
X145521158Y-42199500D01*
X145521155Y-42199500D01*
X145366510Y-42230261D01*
X145366498Y-42230264D01*
X145220827Y-42290602D01*
X145220814Y-42290609D01*
X145168891Y-42325304D01*
X145102214Y-42346182D01*
X145034833Y-42327698D01*
X145031109Y-42325304D01*
X144979185Y-42290609D01*
X144979172Y-42290602D01*
X144833501Y-42230264D01*
X144833489Y-42230261D01*
X144678845Y-42199500D01*
X144678842Y-42199500D01*
X144521158Y-42199500D01*
X144521155Y-42199500D01*
X144366510Y-42230261D01*
X144366498Y-42230264D01*
X144220827Y-42290602D01*
X144220814Y-42290609D01*
X144089711Y-42378210D01*
X144089707Y-42378213D01*
X143978213Y-42489707D01*
X143978210Y-42489711D01*
X143890609Y-42620814D01*
X143890602Y-42620827D01*
X143830264Y-42766498D01*
X143830261Y-42766510D01*
X143799500Y-42921153D01*
X132000000Y-42921153D01*
X132000000Y-40893713D01*
X132649500Y-40893713D01*
X132649500Y-41106286D01*
X132662712Y-41189707D01*
X132682754Y-41316243D01*
X132739117Y-41489711D01*
X132748444Y-41518414D01*
X132844951Y-41707820D01*
X132969890Y-41879786D01*
X133120213Y-42030109D01*
X133292179Y-42155048D01*
X133292181Y-42155049D01*
X133292184Y-42155051D01*
X133481588Y-42251557D01*
X133683757Y-42317246D01*
X133893713Y-42350500D01*
X133893714Y-42350500D01*
X134106286Y-42350500D01*
X134106287Y-42350500D01*
X134316243Y-42317246D01*
X134518412Y-42251557D01*
X134707816Y-42155051D01*
X134780648Y-42102136D01*
X134879786Y-42030109D01*
X134879788Y-42030106D01*
X134879792Y-42030104D01*
X135030104Y-41879792D01*
X135030106Y-41879788D01*
X135030109Y-41879786D01*
X135155048Y-41707820D01*
X135155047Y-41707820D01*
X135155051Y-41707816D01*
X135251557Y-41518412D01*
X135317246Y-41316243D01*
X135350500Y-41106287D01*
X135350500Y-40893713D01*
X135317246Y-40683757D01*
X135251557Y-40481588D01*
X135155051Y-40292184D01*
X135155049Y-40292181D01*
X135155048Y-40292179D01*
X135030109Y-40120213D01*
X134879786Y-39969890D01*
X134707820Y-39844951D01*
X134518414Y-39748444D01*
X134518413Y-39748443D01*
X134518412Y-39748443D01*
X134316243Y-39682754D01*
X134316241Y-39682753D01*
X134316240Y-39682753D01*
X134154957Y-39657208D01*
X134106287Y-39649500D01*
X133893713Y-39649500D01*
X133845042Y-39657208D01*
X133683760Y-39682753D01*
X133481585Y-39748444D01*
X133292179Y-39844951D01*
X133120213Y-39969890D01*
X132969890Y-40120213D01*
X132844951Y-40292179D01*
X132748444Y-40481585D01*
X132682753Y-40683760D01*
X132649500Y-40893713D01*
X132000000Y-40893713D01*
X132000000Y-39550094D01*
X132006610Y-39527582D01*
X132008798Y-39504218D01*
X132018348Y-39487606D01*
X132019685Y-39483055D01*
X132026377Y-39473637D01*
X132124481Y-39348417D01*
X132134395Y-39337227D01*
X132337226Y-39134396D01*
X132348417Y-39124481D01*
X132574230Y-38947567D01*
X132586534Y-38939075D01*
X132832012Y-38790680D01*
X132845258Y-38783727D01*
X133106842Y-38665997D01*
X133120812Y-38660699D01*
X133394668Y-38575362D01*
X133409198Y-38571780D01*
X133691344Y-38520075D01*
X133706201Y-38518271D01*
X133996264Y-38500726D01*
X134003751Y-38500500D01*
X134065892Y-38500500D01*
X201554866Y-38500500D01*
X201586339Y-38509741D01*
G37*
G04 #@! TD.AperFunction*
M02*
